G75*
%MOIN*%
%OFA0B0*%
%FSLAX25Y25*%
%IPPOS*%
%LPD*%
%AMOC8*
5,1,8,0,0,1.08239X$1,22.5*
%
%ADD10C,0.12998*%
%ADD11C,0.00394*%
%ADD12C,0.00197*%
%ADD13R,0.06699X0.07487*%
%ADD14R,0.03156X0.03943*%
%ADD15C,0.02601*%
%ADD16C,0.07451*%
%ADD17R,0.02762X0.03156*%
%ADD18R,0.17900X0.12000*%
%ADD19R,0.03156X0.02762*%
%ADD20R,0.04337X0.04731*%
%ADD21C,0.08200*%
%ADD22C,0.06306*%
%ADD23R,0.01758X0.01660*%
%ADD24R,0.02723X0.01758*%
%ADD25R,0.01660X0.01758*%
D10*
X0011433Y0011433D03*
X0070094Y0011433D03*
X0128756Y0011433D03*
X0128756Y0150803D03*
X0128756Y0227181D03*
X0011433Y0227181D03*
X0011433Y0150803D03*
D11*
X0028756Y0052378D02*
X0028756Y0042535D01*
X0103559Y0042535D01*
X0103559Y0052378D01*
X0028756Y0052378D01*
X0028756Y0052184D02*
X0103559Y0052184D01*
X0103559Y0051792D02*
X0028756Y0051792D01*
X0028756Y0051400D02*
X0103559Y0051400D01*
X0103559Y0051008D02*
X0028756Y0051008D01*
X0028756Y0050616D02*
X0103559Y0050616D01*
X0103559Y0050223D02*
X0028756Y0050223D01*
X0028756Y0049831D02*
X0103559Y0049831D01*
X0103559Y0049439D02*
X0028756Y0049439D01*
X0028756Y0049047D02*
X0103559Y0049047D01*
X0103559Y0048655D02*
X0028756Y0048655D01*
X0028756Y0048262D02*
X0103559Y0048262D01*
X0103559Y0047870D02*
X0028756Y0047870D01*
X0028756Y0047478D02*
X0103559Y0047478D01*
X0103559Y0047086D02*
X0028756Y0047086D01*
X0028756Y0046693D02*
X0103559Y0046693D01*
X0103559Y0046301D02*
X0028756Y0046301D01*
X0028756Y0045909D02*
X0103559Y0045909D01*
X0103559Y0045517D02*
X0028756Y0045517D01*
X0028756Y0045125D02*
X0103559Y0045125D01*
X0103559Y0044732D02*
X0028756Y0044732D01*
X0028756Y0044340D02*
X0103559Y0044340D01*
X0103559Y0043948D02*
X0028756Y0043948D01*
X0028756Y0043556D02*
X0103559Y0043556D01*
X0103559Y0043164D02*
X0028756Y0043164D01*
X0028756Y0042771D02*
X0103559Y0042771D01*
D12*
X0074819Y0044110D02*
X0074819Y0063795D01*
X0055134Y0063795D01*
X0055134Y0044110D01*
X0074819Y0044110D01*
X0074819Y0044176D02*
X0055134Y0044176D01*
X0055134Y0044372D02*
X0074819Y0044372D01*
X0074819Y0044567D02*
X0055134Y0044567D01*
X0055134Y0044763D02*
X0074819Y0044763D01*
X0074819Y0044958D02*
X0055134Y0044958D01*
X0055134Y0045153D02*
X0074819Y0045153D01*
X0074819Y0045349D02*
X0055134Y0045349D01*
X0055134Y0045544D02*
X0074819Y0045544D01*
X0074819Y0045739D02*
X0055134Y0045739D01*
X0055134Y0045935D02*
X0074819Y0045935D01*
X0074819Y0046130D02*
X0055134Y0046130D01*
X0055134Y0046325D02*
X0074819Y0046325D01*
X0074819Y0046521D02*
X0055134Y0046521D01*
X0055134Y0046716D02*
X0074819Y0046716D01*
X0074819Y0046911D02*
X0055134Y0046911D01*
X0055134Y0047107D02*
X0074819Y0047107D01*
X0074819Y0047302D02*
X0055134Y0047302D01*
X0055134Y0047498D02*
X0074819Y0047498D01*
X0074819Y0047693D02*
X0055134Y0047693D01*
X0055134Y0047888D02*
X0074819Y0047888D01*
X0074819Y0048084D02*
X0055134Y0048084D01*
X0055134Y0048279D02*
X0074819Y0048279D01*
X0074819Y0048474D02*
X0055134Y0048474D01*
X0055134Y0048670D02*
X0074819Y0048670D01*
X0074819Y0048865D02*
X0055134Y0048865D01*
X0055134Y0049060D02*
X0074819Y0049060D01*
X0074819Y0049256D02*
X0055134Y0049256D01*
X0055134Y0049451D02*
X0074819Y0049451D01*
X0074819Y0049647D02*
X0055134Y0049647D01*
X0055134Y0049842D02*
X0074819Y0049842D01*
X0074819Y0050037D02*
X0055134Y0050037D01*
X0055134Y0050233D02*
X0074819Y0050233D01*
X0074819Y0050428D02*
X0055134Y0050428D01*
X0055134Y0050623D02*
X0074819Y0050623D01*
X0074819Y0050819D02*
X0055134Y0050819D01*
X0055134Y0051014D02*
X0074819Y0051014D01*
X0074819Y0051209D02*
X0055134Y0051209D01*
X0055134Y0051405D02*
X0074819Y0051405D01*
X0074819Y0051600D02*
X0055134Y0051600D01*
X0055134Y0051796D02*
X0074819Y0051796D01*
X0074819Y0051991D02*
X0055134Y0051991D01*
X0055134Y0052186D02*
X0074819Y0052186D01*
X0074819Y0052382D02*
X0055134Y0052382D01*
X0055134Y0052577D02*
X0074819Y0052577D01*
X0074819Y0052772D02*
X0055134Y0052772D01*
X0055134Y0052968D02*
X0074819Y0052968D01*
X0074819Y0053163D02*
X0055134Y0053163D01*
X0055134Y0053358D02*
X0074819Y0053358D01*
X0074819Y0053554D02*
X0055134Y0053554D01*
X0055134Y0053749D02*
X0074819Y0053749D01*
X0074819Y0053945D02*
X0055134Y0053945D01*
X0055134Y0054140D02*
X0074819Y0054140D01*
X0074819Y0054335D02*
X0055134Y0054335D01*
X0055134Y0054531D02*
X0074819Y0054531D01*
X0074819Y0054726D02*
X0055134Y0054726D01*
X0055134Y0054921D02*
X0074819Y0054921D01*
X0074819Y0055117D02*
X0055134Y0055117D01*
X0055134Y0055312D02*
X0074819Y0055312D01*
X0074819Y0055507D02*
X0055134Y0055507D01*
X0055134Y0055703D02*
X0074819Y0055703D01*
X0074819Y0055898D02*
X0055134Y0055898D01*
X0055134Y0056093D02*
X0074819Y0056093D01*
X0074819Y0056289D02*
X0055134Y0056289D01*
X0055134Y0056484D02*
X0074819Y0056484D01*
X0074819Y0056680D02*
X0055134Y0056680D01*
X0055134Y0056875D02*
X0074819Y0056875D01*
X0074819Y0057070D02*
X0055134Y0057070D01*
X0055134Y0057266D02*
X0074819Y0057266D01*
X0074819Y0057461D02*
X0055134Y0057461D01*
X0055134Y0057656D02*
X0074819Y0057656D01*
X0074819Y0057852D02*
X0055134Y0057852D01*
X0055134Y0058047D02*
X0074819Y0058047D01*
X0074819Y0058242D02*
X0055134Y0058242D01*
X0055134Y0058438D02*
X0074819Y0058438D01*
X0074819Y0058633D02*
X0055134Y0058633D01*
X0055134Y0058829D02*
X0074819Y0058829D01*
X0074819Y0059024D02*
X0055134Y0059024D01*
X0055134Y0059219D02*
X0074819Y0059219D01*
X0074819Y0059415D02*
X0055134Y0059415D01*
X0055134Y0059610D02*
X0074819Y0059610D01*
X0074819Y0059805D02*
X0055134Y0059805D01*
X0055134Y0060001D02*
X0074819Y0060001D01*
X0074819Y0060196D02*
X0055134Y0060196D01*
X0055134Y0060391D02*
X0074819Y0060391D01*
X0074819Y0060587D02*
X0055134Y0060587D01*
X0055134Y0060782D02*
X0074819Y0060782D01*
X0074819Y0060978D02*
X0055134Y0060978D01*
X0055134Y0061173D02*
X0074819Y0061173D01*
X0074819Y0061368D02*
X0055134Y0061368D01*
X0055134Y0061564D02*
X0074819Y0061564D01*
X0074819Y0061759D02*
X0055134Y0061759D01*
X0055134Y0061954D02*
X0074819Y0061954D01*
X0074819Y0062150D02*
X0055134Y0062150D01*
X0055134Y0062345D02*
X0074819Y0062345D01*
X0074819Y0062540D02*
X0055134Y0062540D01*
X0055134Y0062736D02*
X0074819Y0062736D01*
X0074819Y0062931D02*
X0055134Y0062931D01*
X0055134Y0063127D02*
X0074819Y0063127D01*
X0074819Y0063322D02*
X0055134Y0063322D01*
X0055134Y0063517D02*
X0074819Y0063517D01*
X0074819Y0063713D02*
X0055134Y0063713D01*
D13*
X0034189Y0091866D03*
X0023165Y0091866D03*
X0084425Y0120409D03*
X0095449Y0120409D03*
X0100724Y0093402D03*
X0111748Y0093402D03*
D14*
X0099268Y0080409D03*
X0094150Y0080409D03*
X0087417Y0072535D03*
X0082299Y0072535D03*
X0065291Y0093244D03*
X0060173Y0093244D03*
X0071945Y0103874D03*
X0077063Y0103874D03*
X0040724Y0070961D03*
X0035606Y0070961D03*
X0035252Y0080016D03*
X0040370Y0080016D03*
D15*
X0032890Y0047929D03*
X0096748Y0047929D03*
D16*
X0106748Y0037929D03*
X0106748Y0057929D03*
X0086748Y0057929D03*
X0086748Y0037929D03*
X0042890Y0037929D03*
X0042890Y0057929D03*
X0022890Y0057929D03*
X0022890Y0037929D03*
D17*
X0047024Y0070882D03*
X0050961Y0070882D03*
X0051000Y0079937D03*
X0047063Y0079937D03*
X0046709Y0090961D03*
X0042772Y0090961D03*
X0071551Y0120488D03*
X0075488Y0120488D03*
X0088638Y0093717D03*
X0092575Y0093717D03*
X0087024Y0080331D03*
X0083087Y0080331D03*
X0076354Y0072457D03*
X0072417Y0072457D03*
D18*
X0099622Y0143626D03*
X0099622Y0162626D03*
D19*
X0060252Y0087339D03*
X0060252Y0083402D03*
D20*
X0057535Y0103874D03*
X0064228Y0103874D03*
D21*
X0079389Y0204383D02*
X0079389Y0212183D01*
X0099089Y0212183D02*
X0099089Y0204383D01*
D22*
X0066354Y0173008D02*
X0060449Y0173008D01*
X0060449Y0163008D02*
X0066354Y0163008D01*
X0066354Y0153008D02*
X0060449Y0153008D01*
X0038795Y0122654D02*
X0032890Y0122654D01*
X0032890Y0112654D02*
X0038795Y0112654D01*
D23*
X0056207Y0048185D03*
X0073746Y0048185D03*
D24*
X0069917Y0062722D03*
D25*
X0061197Y0062722D03*
X0059150Y0062722D03*
M02*
