%
M48
M72
T01C0.00591
T02C0.00787
T03C0.01378
T04C0.03937
T05C0.04700
T06C0.05200
T07C0.12598
%
T01
X26591Y42732
X26591Y44898
X26591Y47063
X26591Y49228
X26591Y51394
X26591Y53362
X28559Y41157
X30724Y41157
X33283Y41157
X35646Y41157
X38205Y41157
X36827Y59465
X38598Y62811
X41945Y63795
X45291Y63598
X48441Y61630
X51787Y61630
X54150Y61630
X56315Y59661
X56315Y57299
X56315Y54937
X56315Y52772
X56315Y50606
X57102Y45291
X57102Y43126
X57102Y40961
X57102Y38992
X57102Y37024
X57102Y35055
X59071Y35055
X61039Y35055
X61039Y37024
X61039Y38992
X59071Y38992
X59071Y37024
X59071Y40961
X61039Y40961
X63008Y40961
X63008Y38992
X63008Y37024
X63008Y35055
X64976Y35055
X64976Y37024
X64976Y38992
X64976Y40961
X66945Y40961
X68913Y40961
X68913Y38992
X66945Y38992
X66945Y37024
X68913Y37024
X68913Y35055
X66945Y35055
X70882Y35055
X72850Y35055
X72850Y37024
X70882Y37024
X70882Y38992
X72850Y38992
X72850Y40961
X70882Y40961
X70882Y43126
X72850Y43126
X72850Y45291
X70882Y45291
X68913Y45291
X66945Y45291
X64976Y45291
X64976Y43126
X66945Y43126
X68913Y43126
X63008Y43126
X61039Y43126
X59071Y43126
X59071Y45291
X61039Y45291
X63008Y45291
X73835Y50606
X73835Y52772
X73835Y55134
X73835Y57496
X73835Y59858
X66748Y65764
X66748Y68126
X66748Y70685
X66748Y73244
X66748Y76197
X63992Y76197
X63992Y73244
X63992Y70685
X63992Y68126
X63992Y65764
X63992Y79937
X63795Y83283
X66551Y83087
X67535Y85843
X64583Y86433
X66748Y88992
X70094Y88598
X71276Y85449
X69307Y82693
X66551Y79937
X74228Y88402
T02
X76000Y51197
X79937Y51197
X83874Y51197
X87811Y51197
X91748Y51197
X95685Y51197
X95685Y44685
X91748Y45276
X87811Y45276
X83874Y45276
X79937Y45276
X76000Y45276
X54150Y45079
X50213Y45079
X46276Y45079
X42339Y45079
X38402Y45079
X34465Y45079
X34465Y51000
X38402Y51000
X42339Y51000
X46276Y51000
X50213Y51000
X54150Y51000
T03
X50409Y39386
X49819Y33874
X50409Y26787
X55724Y29150
X59661Y25409
X63992Y30331
X66748Y24819
X70094Y30134
X72850Y26000
X76000Y30331
X78559Y24425
X82299Y27969
X84661Y24622
X85252Y31118
X80921Y33283
X78756Y38205
X80724Y41354
X91551Y31709
X91945Y27181
X97063Y28756
X99622Y31906
X104543Y31512
X104150Y26591
X99228Y24819
X100016Y39189
X93913Y39189
X106118Y44504
X106906Y50409
X112220Y46472
X114386Y51591
X117732Y45882
X121669Y51787
X125213Y45882
X129150Y51591
X132496Y45685
X135449Y51394
X134071Y58874
X134661Y66748
X129150Y72260
X126984Y66748
X126591Y59268
X119307Y59465
X118520Y65567
X115567Y73244
X113598Y79740
X114189Y84661
X108087Y84465
X106315Y80331
X109268Y75213
X105134Y71472
X102378Y75606
X98244Y72260
X97457Y67929
X93520Y72260
X91157Y67535
X85843Y67535
X86433Y64189
X93520Y57890
X100213Y57693
X106512Y64583
X109661Y68323
X113598Y58087
X121472Y73638
X121079Y79740
X121079Y85055
X120488Y90961
X119504Y96079
X120685Y101197
X127575Y96079
X127575Y90764
X127181Y84268
X127575Y78953
X113008Y100606
X116945Y113992
X121866Y110843
X129346Y106709
X122654Y124031
X127772Y125213
X126984Y135055
X121079Y141157
X118126Y135055
X113992Y144307
X115567Y153362
X114386Y162417
X111827Y175409
X115764Y183677
X122063Y191748
X127181Y183480
X123047Y175409
X126394Y162614
X132693Y174819
X132693Y191157
X126394Y202181
X131709Y212417
X119898Y212220
X116748Y202575
X135055Y138402
X107299Y125409
X104543Y128953
X101197Y133677
X98244Y129543
X102772Y122850
X102575Y118323
X92929Y128756
X92929Y133480
X85646Y132890
X85252Y128756
X85252Y112417
X82496Y106709
X77575Y110055
X80528Y98638
X77378Y93126
X75606Y96276
X71472Y92929
X67339Y133283
X64583Y138992
X64386Y144504
X71079Y138598
X74622Y144307
X55331Y144307
X40567Y138992
X36630Y150803
X36433Y162614
X28756Y162614
X24819Y150803
X28756Y138992
X16945Y138992
X13008Y127181
X16945Y103559
X9071Y95685
X13008Y83874
X13008Y72063
X12614Y67732
X12614Y62417
X12024Y57693
X8283Y57890
X8087Y62220
X7890Y67339
X16748Y57890
X18323Y63205
X20882Y67929
X22850Y64780
X26591Y62811
X26591Y67929
X24819Y72063
X24819Y79937
X30921Y67339
X30528Y62614
X35055Y62614
X34661Y55724
X30724Y54150
X36236Y36827
X36827Y32693
X34465Y27575
X28756Y27772
X29346Y32496
X23441Y27969
X18717Y25803
X18717Y22260
X12614Y27969
X8480Y28756
X7890Y34268
X8677Y39780
X8480Y44307
X8087Y48047
X12024Y48244
X12417Y44110
X13205Y38992
X13008Y34465
X17732Y32890
X17535Y43520
X17535Y48047
X17339Y52378
X12024Y52969
X8087Y52969
X40567Y25016
X43520Y28756
X42929Y31709
X110055Y25016
X110646Y29346
X110449Y32299
X113008Y37811
X117535Y34465
X121079Y39386
X125213Y34465
X128756Y39583
X132299Y34661
X135252Y29346
X132890Y25213
X128756Y29346
X125213Y24819
X121669Y29543
X117535Y25016
X135843Y39386
X64189Y186236
X56252Y200547
X48441Y208858
X43941Y200547
X36630Y208858
X35130Y200547
X40567Y186236
X36630Y174425
X28756Y186236
X24819Y174425
X16945Y162614
X13008Y174425
X16945Y186236
X17008Y201547
X22319Y201547
X24819Y209858
X32693Y225606
X44504Y225606
X56315Y225606
X52378Y186236
X12008Y209858
T04
X63402Y173008
X63402Y163008
X63402Y153008
X35843Y122654
X35843Y112654
T05
X42890Y57929
X42890Y37929
X22890Y37929
X22890Y57929
X86748Y57929
X86748Y37929
X106748Y37929
X106748Y57929
T06
X99089Y208283
X79389Y208283
T07
X11433Y11433
X70094Y11433
X128756Y11433
X128756Y150803
X128756Y227181
X11433Y227181
X11433Y150803
M30
