G75*
%MOIN*%
%OFA0B0*%
%FSLAX25Y25*%
%IPPOS*%
%LPD*%
%AMOC8*
5,1,8,0,0,1.08239X$1,22.5*
%
%ADD10C,0.00000*%
%ADD11C,0.00600*%
%ADD12C,0.00300*%
%ADD13C,0.00100*%
D10*
X0001197Y0001197D02*
X0001197Y0237417D01*
X0138992Y0237417D01*
X0138992Y0001197D01*
X0001197Y0001197D01*
X0005134Y0011433D02*
X0005136Y0011591D01*
X0005142Y0011749D01*
X0005152Y0011907D01*
X0005166Y0012065D01*
X0005184Y0012222D01*
X0005205Y0012379D01*
X0005231Y0012535D01*
X0005261Y0012691D01*
X0005294Y0012846D01*
X0005332Y0012999D01*
X0005373Y0013152D01*
X0005418Y0013304D01*
X0005467Y0013455D01*
X0005520Y0013604D01*
X0005576Y0013752D01*
X0005636Y0013898D01*
X0005700Y0014043D01*
X0005768Y0014186D01*
X0005839Y0014328D01*
X0005913Y0014468D01*
X0005991Y0014605D01*
X0006073Y0014741D01*
X0006157Y0014875D01*
X0006246Y0015006D01*
X0006337Y0015135D01*
X0006432Y0015262D01*
X0006529Y0015387D01*
X0006630Y0015509D01*
X0006734Y0015628D01*
X0006841Y0015745D01*
X0006951Y0015859D01*
X0007064Y0015970D01*
X0007179Y0016079D01*
X0007297Y0016184D01*
X0007418Y0016286D01*
X0007541Y0016386D01*
X0007667Y0016482D01*
X0007795Y0016575D01*
X0007925Y0016665D01*
X0008058Y0016751D01*
X0008193Y0016835D01*
X0008329Y0016914D01*
X0008468Y0016991D01*
X0008609Y0017063D01*
X0008751Y0017133D01*
X0008895Y0017198D01*
X0009041Y0017260D01*
X0009188Y0017318D01*
X0009337Y0017373D01*
X0009487Y0017424D01*
X0009638Y0017471D01*
X0009790Y0017514D01*
X0009943Y0017553D01*
X0010098Y0017589D01*
X0010253Y0017620D01*
X0010409Y0017648D01*
X0010565Y0017672D01*
X0010722Y0017692D01*
X0010880Y0017708D01*
X0011037Y0017720D01*
X0011196Y0017728D01*
X0011354Y0017732D01*
X0011512Y0017732D01*
X0011670Y0017728D01*
X0011829Y0017720D01*
X0011986Y0017708D01*
X0012144Y0017692D01*
X0012301Y0017672D01*
X0012457Y0017648D01*
X0012613Y0017620D01*
X0012768Y0017589D01*
X0012923Y0017553D01*
X0013076Y0017514D01*
X0013228Y0017471D01*
X0013379Y0017424D01*
X0013529Y0017373D01*
X0013678Y0017318D01*
X0013825Y0017260D01*
X0013971Y0017198D01*
X0014115Y0017133D01*
X0014257Y0017063D01*
X0014398Y0016991D01*
X0014537Y0016914D01*
X0014673Y0016835D01*
X0014808Y0016751D01*
X0014941Y0016665D01*
X0015071Y0016575D01*
X0015199Y0016482D01*
X0015325Y0016386D01*
X0015448Y0016286D01*
X0015569Y0016184D01*
X0015687Y0016079D01*
X0015802Y0015970D01*
X0015915Y0015859D01*
X0016025Y0015745D01*
X0016132Y0015628D01*
X0016236Y0015509D01*
X0016337Y0015387D01*
X0016434Y0015262D01*
X0016529Y0015135D01*
X0016620Y0015006D01*
X0016709Y0014875D01*
X0016793Y0014741D01*
X0016875Y0014605D01*
X0016953Y0014468D01*
X0017027Y0014328D01*
X0017098Y0014186D01*
X0017166Y0014043D01*
X0017230Y0013898D01*
X0017290Y0013752D01*
X0017346Y0013604D01*
X0017399Y0013455D01*
X0017448Y0013304D01*
X0017493Y0013152D01*
X0017534Y0012999D01*
X0017572Y0012846D01*
X0017605Y0012691D01*
X0017635Y0012535D01*
X0017661Y0012379D01*
X0017682Y0012222D01*
X0017700Y0012065D01*
X0017714Y0011907D01*
X0017724Y0011749D01*
X0017730Y0011591D01*
X0017732Y0011433D01*
X0017730Y0011275D01*
X0017724Y0011117D01*
X0017714Y0010959D01*
X0017700Y0010801D01*
X0017682Y0010644D01*
X0017661Y0010487D01*
X0017635Y0010331D01*
X0017605Y0010175D01*
X0017572Y0010020D01*
X0017534Y0009867D01*
X0017493Y0009714D01*
X0017448Y0009562D01*
X0017399Y0009411D01*
X0017346Y0009262D01*
X0017290Y0009114D01*
X0017230Y0008968D01*
X0017166Y0008823D01*
X0017098Y0008680D01*
X0017027Y0008538D01*
X0016953Y0008398D01*
X0016875Y0008261D01*
X0016793Y0008125D01*
X0016709Y0007991D01*
X0016620Y0007860D01*
X0016529Y0007731D01*
X0016434Y0007604D01*
X0016337Y0007479D01*
X0016236Y0007357D01*
X0016132Y0007238D01*
X0016025Y0007121D01*
X0015915Y0007007D01*
X0015802Y0006896D01*
X0015687Y0006787D01*
X0015569Y0006682D01*
X0015448Y0006580D01*
X0015325Y0006480D01*
X0015199Y0006384D01*
X0015071Y0006291D01*
X0014941Y0006201D01*
X0014808Y0006115D01*
X0014673Y0006031D01*
X0014537Y0005952D01*
X0014398Y0005875D01*
X0014257Y0005803D01*
X0014115Y0005733D01*
X0013971Y0005668D01*
X0013825Y0005606D01*
X0013678Y0005548D01*
X0013529Y0005493D01*
X0013379Y0005442D01*
X0013228Y0005395D01*
X0013076Y0005352D01*
X0012923Y0005313D01*
X0012768Y0005277D01*
X0012613Y0005246D01*
X0012457Y0005218D01*
X0012301Y0005194D01*
X0012144Y0005174D01*
X0011986Y0005158D01*
X0011829Y0005146D01*
X0011670Y0005138D01*
X0011512Y0005134D01*
X0011354Y0005134D01*
X0011196Y0005138D01*
X0011037Y0005146D01*
X0010880Y0005158D01*
X0010722Y0005174D01*
X0010565Y0005194D01*
X0010409Y0005218D01*
X0010253Y0005246D01*
X0010098Y0005277D01*
X0009943Y0005313D01*
X0009790Y0005352D01*
X0009638Y0005395D01*
X0009487Y0005442D01*
X0009337Y0005493D01*
X0009188Y0005548D01*
X0009041Y0005606D01*
X0008895Y0005668D01*
X0008751Y0005733D01*
X0008609Y0005803D01*
X0008468Y0005875D01*
X0008329Y0005952D01*
X0008193Y0006031D01*
X0008058Y0006115D01*
X0007925Y0006201D01*
X0007795Y0006291D01*
X0007667Y0006384D01*
X0007541Y0006480D01*
X0007418Y0006580D01*
X0007297Y0006682D01*
X0007179Y0006787D01*
X0007064Y0006896D01*
X0006951Y0007007D01*
X0006841Y0007121D01*
X0006734Y0007238D01*
X0006630Y0007357D01*
X0006529Y0007479D01*
X0006432Y0007604D01*
X0006337Y0007731D01*
X0006246Y0007860D01*
X0006157Y0007991D01*
X0006073Y0008125D01*
X0005991Y0008261D01*
X0005913Y0008398D01*
X0005839Y0008538D01*
X0005768Y0008680D01*
X0005700Y0008823D01*
X0005636Y0008968D01*
X0005576Y0009114D01*
X0005520Y0009262D01*
X0005467Y0009411D01*
X0005418Y0009562D01*
X0005373Y0009714D01*
X0005332Y0009867D01*
X0005294Y0010020D01*
X0005261Y0010175D01*
X0005231Y0010331D01*
X0005205Y0010487D01*
X0005184Y0010644D01*
X0005166Y0010801D01*
X0005152Y0010959D01*
X0005142Y0011117D01*
X0005136Y0011275D01*
X0005134Y0011433D01*
X0063795Y0011433D02*
X0063797Y0011591D01*
X0063803Y0011749D01*
X0063813Y0011907D01*
X0063827Y0012065D01*
X0063845Y0012222D01*
X0063866Y0012379D01*
X0063892Y0012535D01*
X0063922Y0012691D01*
X0063955Y0012846D01*
X0063993Y0012999D01*
X0064034Y0013152D01*
X0064079Y0013304D01*
X0064128Y0013455D01*
X0064181Y0013604D01*
X0064237Y0013752D01*
X0064297Y0013898D01*
X0064361Y0014043D01*
X0064429Y0014186D01*
X0064500Y0014328D01*
X0064574Y0014468D01*
X0064652Y0014605D01*
X0064734Y0014741D01*
X0064818Y0014875D01*
X0064907Y0015006D01*
X0064998Y0015135D01*
X0065093Y0015262D01*
X0065190Y0015387D01*
X0065291Y0015509D01*
X0065395Y0015628D01*
X0065502Y0015745D01*
X0065612Y0015859D01*
X0065725Y0015970D01*
X0065840Y0016079D01*
X0065958Y0016184D01*
X0066079Y0016286D01*
X0066202Y0016386D01*
X0066328Y0016482D01*
X0066456Y0016575D01*
X0066586Y0016665D01*
X0066719Y0016751D01*
X0066854Y0016835D01*
X0066990Y0016914D01*
X0067129Y0016991D01*
X0067270Y0017063D01*
X0067412Y0017133D01*
X0067556Y0017198D01*
X0067702Y0017260D01*
X0067849Y0017318D01*
X0067998Y0017373D01*
X0068148Y0017424D01*
X0068299Y0017471D01*
X0068451Y0017514D01*
X0068604Y0017553D01*
X0068759Y0017589D01*
X0068914Y0017620D01*
X0069070Y0017648D01*
X0069226Y0017672D01*
X0069383Y0017692D01*
X0069541Y0017708D01*
X0069698Y0017720D01*
X0069857Y0017728D01*
X0070015Y0017732D01*
X0070173Y0017732D01*
X0070331Y0017728D01*
X0070490Y0017720D01*
X0070647Y0017708D01*
X0070805Y0017692D01*
X0070962Y0017672D01*
X0071118Y0017648D01*
X0071274Y0017620D01*
X0071429Y0017589D01*
X0071584Y0017553D01*
X0071737Y0017514D01*
X0071889Y0017471D01*
X0072040Y0017424D01*
X0072190Y0017373D01*
X0072339Y0017318D01*
X0072486Y0017260D01*
X0072632Y0017198D01*
X0072776Y0017133D01*
X0072918Y0017063D01*
X0073059Y0016991D01*
X0073198Y0016914D01*
X0073334Y0016835D01*
X0073469Y0016751D01*
X0073602Y0016665D01*
X0073732Y0016575D01*
X0073860Y0016482D01*
X0073986Y0016386D01*
X0074109Y0016286D01*
X0074230Y0016184D01*
X0074348Y0016079D01*
X0074463Y0015970D01*
X0074576Y0015859D01*
X0074686Y0015745D01*
X0074793Y0015628D01*
X0074897Y0015509D01*
X0074998Y0015387D01*
X0075095Y0015262D01*
X0075190Y0015135D01*
X0075281Y0015006D01*
X0075370Y0014875D01*
X0075454Y0014741D01*
X0075536Y0014605D01*
X0075614Y0014468D01*
X0075688Y0014328D01*
X0075759Y0014186D01*
X0075827Y0014043D01*
X0075891Y0013898D01*
X0075951Y0013752D01*
X0076007Y0013604D01*
X0076060Y0013455D01*
X0076109Y0013304D01*
X0076154Y0013152D01*
X0076195Y0012999D01*
X0076233Y0012846D01*
X0076266Y0012691D01*
X0076296Y0012535D01*
X0076322Y0012379D01*
X0076343Y0012222D01*
X0076361Y0012065D01*
X0076375Y0011907D01*
X0076385Y0011749D01*
X0076391Y0011591D01*
X0076393Y0011433D01*
X0076391Y0011275D01*
X0076385Y0011117D01*
X0076375Y0010959D01*
X0076361Y0010801D01*
X0076343Y0010644D01*
X0076322Y0010487D01*
X0076296Y0010331D01*
X0076266Y0010175D01*
X0076233Y0010020D01*
X0076195Y0009867D01*
X0076154Y0009714D01*
X0076109Y0009562D01*
X0076060Y0009411D01*
X0076007Y0009262D01*
X0075951Y0009114D01*
X0075891Y0008968D01*
X0075827Y0008823D01*
X0075759Y0008680D01*
X0075688Y0008538D01*
X0075614Y0008398D01*
X0075536Y0008261D01*
X0075454Y0008125D01*
X0075370Y0007991D01*
X0075281Y0007860D01*
X0075190Y0007731D01*
X0075095Y0007604D01*
X0074998Y0007479D01*
X0074897Y0007357D01*
X0074793Y0007238D01*
X0074686Y0007121D01*
X0074576Y0007007D01*
X0074463Y0006896D01*
X0074348Y0006787D01*
X0074230Y0006682D01*
X0074109Y0006580D01*
X0073986Y0006480D01*
X0073860Y0006384D01*
X0073732Y0006291D01*
X0073602Y0006201D01*
X0073469Y0006115D01*
X0073334Y0006031D01*
X0073198Y0005952D01*
X0073059Y0005875D01*
X0072918Y0005803D01*
X0072776Y0005733D01*
X0072632Y0005668D01*
X0072486Y0005606D01*
X0072339Y0005548D01*
X0072190Y0005493D01*
X0072040Y0005442D01*
X0071889Y0005395D01*
X0071737Y0005352D01*
X0071584Y0005313D01*
X0071429Y0005277D01*
X0071274Y0005246D01*
X0071118Y0005218D01*
X0070962Y0005194D01*
X0070805Y0005174D01*
X0070647Y0005158D01*
X0070490Y0005146D01*
X0070331Y0005138D01*
X0070173Y0005134D01*
X0070015Y0005134D01*
X0069857Y0005138D01*
X0069698Y0005146D01*
X0069541Y0005158D01*
X0069383Y0005174D01*
X0069226Y0005194D01*
X0069070Y0005218D01*
X0068914Y0005246D01*
X0068759Y0005277D01*
X0068604Y0005313D01*
X0068451Y0005352D01*
X0068299Y0005395D01*
X0068148Y0005442D01*
X0067998Y0005493D01*
X0067849Y0005548D01*
X0067702Y0005606D01*
X0067556Y0005668D01*
X0067412Y0005733D01*
X0067270Y0005803D01*
X0067129Y0005875D01*
X0066990Y0005952D01*
X0066854Y0006031D01*
X0066719Y0006115D01*
X0066586Y0006201D01*
X0066456Y0006291D01*
X0066328Y0006384D01*
X0066202Y0006480D01*
X0066079Y0006580D01*
X0065958Y0006682D01*
X0065840Y0006787D01*
X0065725Y0006896D01*
X0065612Y0007007D01*
X0065502Y0007121D01*
X0065395Y0007238D01*
X0065291Y0007357D01*
X0065190Y0007479D01*
X0065093Y0007604D01*
X0064998Y0007731D01*
X0064907Y0007860D01*
X0064818Y0007991D01*
X0064734Y0008125D01*
X0064652Y0008261D01*
X0064574Y0008398D01*
X0064500Y0008538D01*
X0064429Y0008680D01*
X0064361Y0008823D01*
X0064297Y0008968D01*
X0064237Y0009114D01*
X0064181Y0009262D01*
X0064128Y0009411D01*
X0064079Y0009562D01*
X0064034Y0009714D01*
X0063993Y0009867D01*
X0063955Y0010020D01*
X0063922Y0010175D01*
X0063892Y0010331D01*
X0063866Y0010487D01*
X0063845Y0010644D01*
X0063827Y0010801D01*
X0063813Y0010959D01*
X0063803Y0011117D01*
X0063797Y0011275D01*
X0063795Y0011433D01*
X0122457Y0011433D02*
X0122459Y0011591D01*
X0122465Y0011749D01*
X0122475Y0011907D01*
X0122489Y0012065D01*
X0122507Y0012222D01*
X0122528Y0012379D01*
X0122554Y0012535D01*
X0122584Y0012691D01*
X0122617Y0012846D01*
X0122655Y0012999D01*
X0122696Y0013152D01*
X0122741Y0013304D01*
X0122790Y0013455D01*
X0122843Y0013604D01*
X0122899Y0013752D01*
X0122959Y0013898D01*
X0123023Y0014043D01*
X0123091Y0014186D01*
X0123162Y0014328D01*
X0123236Y0014468D01*
X0123314Y0014605D01*
X0123396Y0014741D01*
X0123480Y0014875D01*
X0123569Y0015006D01*
X0123660Y0015135D01*
X0123755Y0015262D01*
X0123852Y0015387D01*
X0123953Y0015509D01*
X0124057Y0015628D01*
X0124164Y0015745D01*
X0124274Y0015859D01*
X0124387Y0015970D01*
X0124502Y0016079D01*
X0124620Y0016184D01*
X0124741Y0016286D01*
X0124864Y0016386D01*
X0124990Y0016482D01*
X0125118Y0016575D01*
X0125248Y0016665D01*
X0125381Y0016751D01*
X0125516Y0016835D01*
X0125652Y0016914D01*
X0125791Y0016991D01*
X0125932Y0017063D01*
X0126074Y0017133D01*
X0126218Y0017198D01*
X0126364Y0017260D01*
X0126511Y0017318D01*
X0126660Y0017373D01*
X0126810Y0017424D01*
X0126961Y0017471D01*
X0127113Y0017514D01*
X0127266Y0017553D01*
X0127421Y0017589D01*
X0127576Y0017620D01*
X0127732Y0017648D01*
X0127888Y0017672D01*
X0128045Y0017692D01*
X0128203Y0017708D01*
X0128360Y0017720D01*
X0128519Y0017728D01*
X0128677Y0017732D01*
X0128835Y0017732D01*
X0128993Y0017728D01*
X0129152Y0017720D01*
X0129309Y0017708D01*
X0129467Y0017692D01*
X0129624Y0017672D01*
X0129780Y0017648D01*
X0129936Y0017620D01*
X0130091Y0017589D01*
X0130246Y0017553D01*
X0130399Y0017514D01*
X0130551Y0017471D01*
X0130702Y0017424D01*
X0130852Y0017373D01*
X0131001Y0017318D01*
X0131148Y0017260D01*
X0131294Y0017198D01*
X0131438Y0017133D01*
X0131580Y0017063D01*
X0131721Y0016991D01*
X0131860Y0016914D01*
X0131996Y0016835D01*
X0132131Y0016751D01*
X0132264Y0016665D01*
X0132394Y0016575D01*
X0132522Y0016482D01*
X0132648Y0016386D01*
X0132771Y0016286D01*
X0132892Y0016184D01*
X0133010Y0016079D01*
X0133125Y0015970D01*
X0133238Y0015859D01*
X0133348Y0015745D01*
X0133455Y0015628D01*
X0133559Y0015509D01*
X0133660Y0015387D01*
X0133757Y0015262D01*
X0133852Y0015135D01*
X0133943Y0015006D01*
X0134032Y0014875D01*
X0134116Y0014741D01*
X0134198Y0014605D01*
X0134276Y0014468D01*
X0134350Y0014328D01*
X0134421Y0014186D01*
X0134489Y0014043D01*
X0134553Y0013898D01*
X0134613Y0013752D01*
X0134669Y0013604D01*
X0134722Y0013455D01*
X0134771Y0013304D01*
X0134816Y0013152D01*
X0134857Y0012999D01*
X0134895Y0012846D01*
X0134928Y0012691D01*
X0134958Y0012535D01*
X0134984Y0012379D01*
X0135005Y0012222D01*
X0135023Y0012065D01*
X0135037Y0011907D01*
X0135047Y0011749D01*
X0135053Y0011591D01*
X0135055Y0011433D01*
X0135053Y0011275D01*
X0135047Y0011117D01*
X0135037Y0010959D01*
X0135023Y0010801D01*
X0135005Y0010644D01*
X0134984Y0010487D01*
X0134958Y0010331D01*
X0134928Y0010175D01*
X0134895Y0010020D01*
X0134857Y0009867D01*
X0134816Y0009714D01*
X0134771Y0009562D01*
X0134722Y0009411D01*
X0134669Y0009262D01*
X0134613Y0009114D01*
X0134553Y0008968D01*
X0134489Y0008823D01*
X0134421Y0008680D01*
X0134350Y0008538D01*
X0134276Y0008398D01*
X0134198Y0008261D01*
X0134116Y0008125D01*
X0134032Y0007991D01*
X0133943Y0007860D01*
X0133852Y0007731D01*
X0133757Y0007604D01*
X0133660Y0007479D01*
X0133559Y0007357D01*
X0133455Y0007238D01*
X0133348Y0007121D01*
X0133238Y0007007D01*
X0133125Y0006896D01*
X0133010Y0006787D01*
X0132892Y0006682D01*
X0132771Y0006580D01*
X0132648Y0006480D01*
X0132522Y0006384D01*
X0132394Y0006291D01*
X0132264Y0006201D01*
X0132131Y0006115D01*
X0131996Y0006031D01*
X0131860Y0005952D01*
X0131721Y0005875D01*
X0131580Y0005803D01*
X0131438Y0005733D01*
X0131294Y0005668D01*
X0131148Y0005606D01*
X0131001Y0005548D01*
X0130852Y0005493D01*
X0130702Y0005442D01*
X0130551Y0005395D01*
X0130399Y0005352D01*
X0130246Y0005313D01*
X0130091Y0005277D01*
X0129936Y0005246D01*
X0129780Y0005218D01*
X0129624Y0005194D01*
X0129467Y0005174D01*
X0129309Y0005158D01*
X0129152Y0005146D01*
X0128993Y0005138D01*
X0128835Y0005134D01*
X0128677Y0005134D01*
X0128519Y0005138D01*
X0128360Y0005146D01*
X0128203Y0005158D01*
X0128045Y0005174D01*
X0127888Y0005194D01*
X0127732Y0005218D01*
X0127576Y0005246D01*
X0127421Y0005277D01*
X0127266Y0005313D01*
X0127113Y0005352D01*
X0126961Y0005395D01*
X0126810Y0005442D01*
X0126660Y0005493D01*
X0126511Y0005548D01*
X0126364Y0005606D01*
X0126218Y0005668D01*
X0126074Y0005733D01*
X0125932Y0005803D01*
X0125791Y0005875D01*
X0125652Y0005952D01*
X0125516Y0006031D01*
X0125381Y0006115D01*
X0125248Y0006201D01*
X0125118Y0006291D01*
X0124990Y0006384D01*
X0124864Y0006480D01*
X0124741Y0006580D01*
X0124620Y0006682D01*
X0124502Y0006787D01*
X0124387Y0006896D01*
X0124274Y0007007D01*
X0124164Y0007121D01*
X0124057Y0007238D01*
X0123953Y0007357D01*
X0123852Y0007479D01*
X0123755Y0007604D01*
X0123660Y0007731D01*
X0123569Y0007860D01*
X0123480Y0007991D01*
X0123396Y0008125D01*
X0123314Y0008261D01*
X0123236Y0008398D01*
X0123162Y0008538D01*
X0123091Y0008680D01*
X0123023Y0008823D01*
X0122959Y0008968D01*
X0122899Y0009114D01*
X0122843Y0009262D01*
X0122790Y0009411D01*
X0122741Y0009562D01*
X0122696Y0009714D01*
X0122655Y0009867D01*
X0122617Y0010020D01*
X0122584Y0010175D01*
X0122554Y0010331D01*
X0122528Y0010487D01*
X0122507Y0010644D01*
X0122489Y0010801D01*
X0122475Y0010959D01*
X0122465Y0011117D01*
X0122459Y0011275D01*
X0122457Y0011433D01*
X0122457Y0150803D02*
X0122459Y0150961D01*
X0122465Y0151119D01*
X0122475Y0151277D01*
X0122489Y0151435D01*
X0122507Y0151592D01*
X0122528Y0151749D01*
X0122554Y0151905D01*
X0122584Y0152061D01*
X0122617Y0152216D01*
X0122655Y0152369D01*
X0122696Y0152522D01*
X0122741Y0152674D01*
X0122790Y0152825D01*
X0122843Y0152974D01*
X0122899Y0153122D01*
X0122959Y0153268D01*
X0123023Y0153413D01*
X0123091Y0153556D01*
X0123162Y0153698D01*
X0123236Y0153838D01*
X0123314Y0153975D01*
X0123396Y0154111D01*
X0123480Y0154245D01*
X0123569Y0154376D01*
X0123660Y0154505D01*
X0123755Y0154632D01*
X0123852Y0154757D01*
X0123953Y0154879D01*
X0124057Y0154998D01*
X0124164Y0155115D01*
X0124274Y0155229D01*
X0124387Y0155340D01*
X0124502Y0155449D01*
X0124620Y0155554D01*
X0124741Y0155656D01*
X0124864Y0155756D01*
X0124990Y0155852D01*
X0125118Y0155945D01*
X0125248Y0156035D01*
X0125381Y0156121D01*
X0125516Y0156205D01*
X0125652Y0156284D01*
X0125791Y0156361D01*
X0125932Y0156433D01*
X0126074Y0156503D01*
X0126218Y0156568D01*
X0126364Y0156630D01*
X0126511Y0156688D01*
X0126660Y0156743D01*
X0126810Y0156794D01*
X0126961Y0156841D01*
X0127113Y0156884D01*
X0127266Y0156923D01*
X0127421Y0156959D01*
X0127576Y0156990D01*
X0127732Y0157018D01*
X0127888Y0157042D01*
X0128045Y0157062D01*
X0128203Y0157078D01*
X0128360Y0157090D01*
X0128519Y0157098D01*
X0128677Y0157102D01*
X0128835Y0157102D01*
X0128993Y0157098D01*
X0129152Y0157090D01*
X0129309Y0157078D01*
X0129467Y0157062D01*
X0129624Y0157042D01*
X0129780Y0157018D01*
X0129936Y0156990D01*
X0130091Y0156959D01*
X0130246Y0156923D01*
X0130399Y0156884D01*
X0130551Y0156841D01*
X0130702Y0156794D01*
X0130852Y0156743D01*
X0131001Y0156688D01*
X0131148Y0156630D01*
X0131294Y0156568D01*
X0131438Y0156503D01*
X0131580Y0156433D01*
X0131721Y0156361D01*
X0131860Y0156284D01*
X0131996Y0156205D01*
X0132131Y0156121D01*
X0132264Y0156035D01*
X0132394Y0155945D01*
X0132522Y0155852D01*
X0132648Y0155756D01*
X0132771Y0155656D01*
X0132892Y0155554D01*
X0133010Y0155449D01*
X0133125Y0155340D01*
X0133238Y0155229D01*
X0133348Y0155115D01*
X0133455Y0154998D01*
X0133559Y0154879D01*
X0133660Y0154757D01*
X0133757Y0154632D01*
X0133852Y0154505D01*
X0133943Y0154376D01*
X0134032Y0154245D01*
X0134116Y0154111D01*
X0134198Y0153975D01*
X0134276Y0153838D01*
X0134350Y0153698D01*
X0134421Y0153556D01*
X0134489Y0153413D01*
X0134553Y0153268D01*
X0134613Y0153122D01*
X0134669Y0152974D01*
X0134722Y0152825D01*
X0134771Y0152674D01*
X0134816Y0152522D01*
X0134857Y0152369D01*
X0134895Y0152216D01*
X0134928Y0152061D01*
X0134958Y0151905D01*
X0134984Y0151749D01*
X0135005Y0151592D01*
X0135023Y0151435D01*
X0135037Y0151277D01*
X0135047Y0151119D01*
X0135053Y0150961D01*
X0135055Y0150803D01*
X0135053Y0150645D01*
X0135047Y0150487D01*
X0135037Y0150329D01*
X0135023Y0150171D01*
X0135005Y0150014D01*
X0134984Y0149857D01*
X0134958Y0149701D01*
X0134928Y0149545D01*
X0134895Y0149390D01*
X0134857Y0149237D01*
X0134816Y0149084D01*
X0134771Y0148932D01*
X0134722Y0148781D01*
X0134669Y0148632D01*
X0134613Y0148484D01*
X0134553Y0148338D01*
X0134489Y0148193D01*
X0134421Y0148050D01*
X0134350Y0147908D01*
X0134276Y0147768D01*
X0134198Y0147631D01*
X0134116Y0147495D01*
X0134032Y0147361D01*
X0133943Y0147230D01*
X0133852Y0147101D01*
X0133757Y0146974D01*
X0133660Y0146849D01*
X0133559Y0146727D01*
X0133455Y0146608D01*
X0133348Y0146491D01*
X0133238Y0146377D01*
X0133125Y0146266D01*
X0133010Y0146157D01*
X0132892Y0146052D01*
X0132771Y0145950D01*
X0132648Y0145850D01*
X0132522Y0145754D01*
X0132394Y0145661D01*
X0132264Y0145571D01*
X0132131Y0145485D01*
X0131996Y0145401D01*
X0131860Y0145322D01*
X0131721Y0145245D01*
X0131580Y0145173D01*
X0131438Y0145103D01*
X0131294Y0145038D01*
X0131148Y0144976D01*
X0131001Y0144918D01*
X0130852Y0144863D01*
X0130702Y0144812D01*
X0130551Y0144765D01*
X0130399Y0144722D01*
X0130246Y0144683D01*
X0130091Y0144647D01*
X0129936Y0144616D01*
X0129780Y0144588D01*
X0129624Y0144564D01*
X0129467Y0144544D01*
X0129309Y0144528D01*
X0129152Y0144516D01*
X0128993Y0144508D01*
X0128835Y0144504D01*
X0128677Y0144504D01*
X0128519Y0144508D01*
X0128360Y0144516D01*
X0128203Y0144528D01*
X0128045Y0144544D01*
X0127888Y0144564D01*
X0127732Y0144588D01*
X0127576Y0144616D01*
X0127421Y0144647D01*
X0127266Y0144683D01*
X0127113Y0144722D01*
X0126961Y0144765D01*
X0126810Y0144812D01*
X0126660Y0144863D01*
X0126511Y0144918D01*
X0126364Y0144976D01*
X0126218Y0145038D01*
X0126074Y0145103D01*
X0125932Y0145173D01*
X0125791Y0145245D01*
X0125652Y0145322D01*
X0125516Y0145401D01*
X0125381Y0145485D01*
X0125248Y0145571D01*
X0125118Y0145661D01*
X0124990Y0145754D01*
X0124864Y0145850D01*
X0124741Y0145950D01*
X0124620Y0146052D01*
X0124502Y0146157D01*
X0124387Y0146266D01*
X0124274Y0146377D01*
X0124164Y0146491D01*
X0124057Y0146608D01*
X0123953Y0146727D01*
X0123852Y0146849D01*
X0123755Y0146974D01*
X0123660Y0147101D01*
X0123569Y0147230D01*
X0123480Y0147361D01*
X0123396Y0147495D01*
X0123314Y0147631D01*
X0123236Y0147768D01*
X0123162Y0147908D01*
X0123091Y0148050D01*
X0123023Y0148193D01*
X0122959Y0148338D01*
X0122899Y0148484D01*
X0122843Y0148632D01*
X0122790Y0148781D01*
X0122741Y0148932D01*
X0122696Y0149084D01*
X0122655Y0149237D01*
X0122617Y0149390D01*
X0122584Y0149545D01*
X0122554Y0149701D01*
X0122528Y0149857D01*
X0122507Y0150014D01*
X0122489Y0150171D01*
X0122475Y0150329D01*
X0122465Y0150487D01*
X0122459Y0150645D01*
X0122457Y0150803D01*
X0122457Y0227181D02*
X0122459Y0227339D01*
X0122465Y0227497D01*
X0122475Y0227655D01*
X0122489Y0227813D01*
X0122507Y0227970D01*
X0122528Y0228127D01*
X0122554Y0228283D01*
X0122584Y0228439D01*
X0122617Y0228594D01*
X0122655Y0228747D01*
X0122696Y0228900D01*
X0122741Y0229052D01*
X0122790Y0229203D01*
X0122843Y0229352D01*
X0122899Y0229500D01*
X0122959Y0229646D01*
X0123023Y0229791D01*
X0123091Y0229934D01*
X0123162Y0230076D01*
X0123236Y0230216D01*
X0123314Y0230353D01*
X0123396Y0230489D01*
X0123480Y0230623D01*
X0123569Y0230754D01*
X0123660Y0230883D01*
X0123755Y0231010D01*
X0123852Y0231135D01*
X0123953Y0231257D01*
X0124057Y0231376D01*
X0124164Y0231493D01*
X0124274Y0231607D01*
X0124387Y0231718D01*
X0124502Y0231827D01*
X0124620Y0231932D01*
X0124741Y0232034D01*
X0124864Y0232134D01*
X0124990Y0232230D01*
X0125118Y0232323D01*
X0125248Y0232413D01*
X0125381Y0232499D01*
X0125516Y0232583D01*
X0125652Y0232662D01*
X0125791Y0232739D01*
X0125932Y0232811D01*
X0126074Y0232881D01*
X0126218Y0232946D01*
X0126364Y0233008D01*
X0126511Y0233066D01*
X0126660Y0233121D01*
X0126810Y0233172D01*
X0126961Y0233219D01*
X0127113Y0233262D01*
X0127266Y0233301D01*
X0127421Y0233337D01*
X0127576Y0233368D01*
X0127732Y0233396D01*
X0127888Y0233420D01*
X0128045Y0233440D01*
X0128203Y0233456D01*
X0128360Y0233468D01*
X0128519Y0233476D01*
X0128677Y0233480D01*
X0128835Y0233480D01*
X0128993Y0233476D01*
X0129152Y0233468D01*
X0129309Y0233456D01*
X0129467Y0233440D01*
X0129624Y0233420D01*
X0129780Y0233396D01*
X0129936Y0233368D01*
X0130091Y0233337D01*
X0130246Y0233301D01*
X0130399Y0233262D01*
X0130551Y0233219D01*
X0130702Y0233172D01*
X0130852Y0233121D01*
X0131001Y0233066D01*
X0131148Y0233008D01*
X0131294Y0232946D01*
X0131438Y0232881D01*
X0131580Y0232811D01*
X0131721Y0232739D01*
X0131860Y0232662D01*
X0131996Y0232583D01*
X0132131Y0232499D01*
X0132264Y0232413D01*
X0132394Y0232323D01*
X0132522Y0232230D01*
X0132648Y0232134D01*
X0132771Y0232034D01*
X0132892Y0231932D01*
X0133010Y0231827D01*
X0133125Y0231718D01*
X0133238Y0231607D01*
X0133348Y0231493D01*
X0133455Y0231376D01*
X0133559Y0231257D01*
X0133660Y0231135D01*
X0133757Y0231010D01*
X0133852Y0230883D01*
X0133943Y0230754D01*
X0134032Y0230623D01*
X0134116Y0230489D01*
X0134198Y0230353D01*
X0134276Y0230216D01*
X0134350Y0230076D01*
X0134421Y0229934D01*
X0134489Y0229791D01*
X0134553Y0229646D01*
X0134613Y0229500D01*
X0134669Y0229352D01*
X0134722Y0229203D01*
X0134771Y0229052D01*
X0134816Y0228900D01*
X0134857Y0228747D01*
X0134895Y0228594D01*
X0134928Y0228439D01*
X0134958Y0228283D01*
X0134984Y0228127D01*
X0135005Y0227970D01*
X0135023Y0227813D01*
X0135037Y0227655D01*
X0135047Y0227497D01*
X0135053Y0227339D01*
X0135055Y0227181D01*
X0135053Y0227023D01*
X0135047Y0226865D01*
X0135037Y0226707D01*
X0135023Y0226549D01*
X0135005Y0226392D01*
X0134984Y0226235D01*
X0134958Y0226079D01*
X0134928Y0225923D01*
X0134895Y0225768D01*
X0134857Y0225615D01*
X0134816Y0225462D01*
X0134771Y0225310D01*
X0134722Y0225159D01*
X0134669Y0225010D01*
X0134613Y0224862D01*
X0134553Y0224716D01*
X0134489Y0224571D01*
X0134421Y0224428D01*
X0134350Y0224286D01*
X0134276Y0224146D01*
X0134198Y0224009D01*
X0134116Y0223873D01*
X0134032Y0223739D01*
X0133943Y0223608D01*
X0133852Y0223479D01*
X0133757Y0223352D01*
X0133660Y0223227D01*
X0133559Y0223105D01*
X0133455Y0222986D01*
X0133348Y0222869D01*
X0133238Y0222755D01*
X0133125Y0222644D01*
X0133010Y0222535D01*
X0132892Y0222430D01*
X0132771Y0222328D01*
X0132648Y0222228D01*
X0132522Y0222132D01*
X0132394Y0222039D01*
X0132264Y0221949D01*
X0132131Y0221863D01*
X0131996Y0221779D01*
X0131860Y0221700D01*
X0131721Y0221623D01*
X0131580Y0221551D01*
X0131438Y0221481D01*
X0131294Y0221416D01*
X0131148Y0221354D01*
X0131001Y0221296D01*
X0130852Y0221241D01*
X0130702Y0221190D01*
X0130551Y0221143D01*
X0130399Y0221100D01*
X0130246Y0221061D01*
X0130091Y0221025D01*
X0129936Y0220994D01*
X0129780Y0220966D01*
X0129624Y0220942D01*
X0129467Y0220922D01*
X0129309Y0220906D01*
X0129152Y0220894D01*
X0128993Y0220886D01*
X0128835Y0220882D01*
X0128677Y0220882D01*
X0128519Y0220886D01*
X0128360Y0220894D01*
X0128203Y0220906D01*
X0128045Y0220922D01*
X0127888Y0220942D01*
X0127732Y0220966D01*
X0127576Y0220994D01*
X0127421Y0221025D01*
X0127266Y0221061D01*
X0127113Y0221100D01*
X0126961Y0221143D01*
X0126810Y0221190D01*
X0126660Y0221241D01*
X0126511Y0221296D01*
X0126364Y0221354D01*
X0126218Y0221416D01*
X0126074Y0221481D01*
X0125932Y0221551D01*
X0125791Y0221623D01*
X0125652Y0221700D01*
X0125516Y0221779D01*
X0125381Y0221863D01*
X0125248Y0221949D01*
X0125118Y0222039D01*
X0124990Y0222132D01*
X0124864Y0222228D01*
X0124741Y0222328D01*
X0124620Y0222430D01*
X0124502Y0222535D01*
X0124387Y0222644D01*
X0124274Y0222755D01*
X0124164Y0222869D01*
X0124057Y0222986D01*
X0123953Y0223105D01*
X0123852Y0223227D01*
X0123755Y0223352D01*
X0123660Y0223479D01*
X0123569Y0223608D01*
X0123480Y0223739D01*
X0123396Y0223873D01*
X0123314Y0224009D01*
X0123236Y0224146D01*
X0123162Y0224286D01*
X0123091Y0224428D01*
X0123023Y0224571D01*
X0122959Y0224716D01*
X0122899Y0224862D01*
X0122843Y0225010D01*
X0122790Y0225159D01*
X0122741Y0225310D01*
X0122696Y0225462D01*
X0122655Y0225615D01*
X0122617Y0225768D01*
X0122584Y0225923D01*
X0122554Y0226079D01*
X0122528Y0226235D01*
X0122507Y0226392D01*
X0122489Y0226549D01*
X0122475Y0226707D01*
X0122465Y0226865D01*
X0122459Y0227023D01*
X0122457Y0227181D01*
X0005134Y0227181D02*
X0005136Y0227339D01*
X0005142Y0227497D01*
X0005152Y0227655D01*
X0005166Y0227813D01*
X0005184Y0227970D01*
X0005205Y0228127D01*
X0005231Y0228283D01*
X0005261Y0228439D01*
X0005294Y0228594D01*
X0005332Y0228747D01*
X0005373Y0228900D01*
X0005418Y0229052D01*
X0005467Y0229203D01*
X0005520Y0229352D01*
X0005576Y0229500D01*
X0005636Y0229646D01*
X0005700Y0229791D01*
X0005768Y0229934D01*
X0005839Y0230076D01*
X0005913Y0230216D01*
X0005991Y0230353D01*
X0006073Y0230489D01*
X0006157Y0230623D01*
X0006246Y0230754D01*
X0006337Y0230883D01*
X0006432Y0231010D01*
X0006529Y0231135D01*
X0006630Y0231257D01*
X0006734Y0231376D01*
X0006841Y0231493D01*
X0006951Y0231607D01*
X0007064Y0231718D01*
X0007179Y0231827D01*
X0007297Y0231932D01*
X0007418Y0232034D01*
X0007541Y0232134D01*
X0007667Y0232230D01*
X0007795Y0232323D01*
X0007925Y0232413D01*
X0008058Y0232499D01*
X0008193Y0232583D01*
X0008329Y0232662D01*
X0008468Y0232739D01*
X0008609Y0232811D01*
X0008751Y0232881D01*
X0008895Y0232946D01*
X0009041Y0233008D01*
X0009188Y0233066D01*
X0009337Y0233121D01*
X0009487Y0233172D01*
X0009638Y0233219D01*
X0009790Y0233262D01*
X0009943Y0233301D01*
X0010098Y0233337D01*
X0010253Y0233368D01*
X0010409Y0233396D01*
X0010565Y0233420D01*
X0010722Y0233440D01*
X0010880Y0233456D01*
X0011037Y0233468D01*
X0011196Y0233476D01*
X0011354Y0233480D01*
X0011512Y0233480D01*
X0011670Y0233476D01*
X0011829Y0233468D01*
X0011986Y0233456D01*
X0012144Y0233440D01*
X0012301Y0233420D01*
X0012457Y0233396D01*
X0012613Y0233368D01*
X0012768Y0233337D01*
X0012923Y0233301D01*
X0013076Y0233262D01*
X0013228Y0233219D01*
X0013379Y0233172D01*
X0013529Y0233121D01*
X0013678Y0233066D01*
X0013825Y0233008D01*
X0013971Y0232946D01*
X0014115Y0232881D01*
X0014257Y0232811D01*
X0014398Y0232739D01*
X0014537Y0232662D01*
X0014673Y0232583D01*
X0014808Y0232499D01*
X0014941Y0232413D01*
X0015071Y0232323D01*
X0015199Y0232230D01*
X0015325Y0232134D01*
X0015448Y0232034D01*
X0015569Y0231932D01*
X0015687Y0231827D01*
X0015802Y0231718D01*
X0015915Y0231607D01*
X0016025Y0231493D01*
X0016132Y0231376D01*
X0016236Y0231257D01*
X0016337Y0231135D01*
X0016434Y0231010D01*
X0016529Y0230883D01*
X0016620Y0230754D01*
X0016709Y0230623D01*
X0016793Y0230489D01*
X0016875Y0230353D01*
X0016953Y0230216D01*
X0017027Y0230076D01*
X0017098Y0229934D01*
X0017166Y0229791D01*
X0017230Y0229646D01*
X0017290Y0229500D01*
X0017346Y0229352D01*
X0017399Y0229203D01*
X0017448Y0229052D01*
X0017493Y0228900D01*
X0017534Y0228747D01*
X0017572Y0228594D01*
X0017605Y0228439D01*
X0017635Y0228283D01*
X0017661Y0228127D01*
X0017682Y0227970D01*
X0017700Y0227813D01*
X0017714Y0227655D01*
X0017724Y0227497D01*
X0017730Y0227339D01*
X0017732Y0227181D01*
X0017730Y0227023D01*
X0017724Y0226865D01*
X0017714Y0226707D01*
X0017700Y0226549D01*
X0017682Y0226392D01*
X0017661Y0226235D01*
X0017635Y0226079D01*
X0017605Y0225923D01*
X0017572Y0225768D01*
X0017534Y0225615D01*
X0017493Y0225462D01*
X0017448Y0225310D01*
X0017399Y0225159D01*
X0017346Y0225010D01*
X0017290Y0224862D01*
X0017230Y0224716D01*
X0017166Y0224571D01*
X0017098Y0224428D01*
X0017027Y0224286D01*
X0016953Y0224146D01*
X0016875Y0224009D01*
X0016793Y0223873D01*
X0016709Y0223739D01*
X0016620Y0223608D01*
X0016529Y0223479D01*
X0016434Y0223352D01*
X0016337Y0223227D01*
X0016236Y0223105D01*
X0016132Y0222986D01*
X0016025Y0222869D01*
X0015915Y0222755D01*
X0015802Y0222644D01*
X0015687Y0222535D01*
X0015569Y0222430D01*
X0015448Y0222328D01*
X0015325Y0222228D01*
X0015199Y0222132D01*
X0015071Y0222039D01*
X0014941Y0221949D01*
X0014808Y0221863D01*
X0014673Y0221779D01*
X0014537Y0221700D01*
X0014398Y0221623D01*
X0014257Y0221551D01*
X0014115Y0221481D01*
X0013971Y0221416D01*
X0013825Y0221354D01*
X0013678Y0221296D01*
X0013529Y0221241D01*
X0013379Y0221190D01*
X0013228Y0221143D01*
X0013076Y0221100D01*
X0012923Y0221061D01*
X0012768Y0221025D01*
X0012613Y0220994D01*
X0012457Y0220966D01*
X0012301Y0220942D01*
X0012144Y0220922D01*
X0011986Y0220906D01*
X0011829Y0220894D01*
X0011670Y0220886D01*
X0011512Y0220882D01*
X0011354Y0220882D01*
X0011196Y0220886D01*
X0011037Y0220894D01*
X0010880Y0220906D01*
X0010722Y0220922D01*
X0010565Y0220942D01*
X0010409Y0220966D01*
X0010253Y0220994D01*
X0010098Y0221025D01*
X0009943Y0221061D01*
X0009790Y0221100D01*
X0009638Y0221143D01*
X0009487Y0221190D01*
X0009337Y0221241D01*
X0009188Y0221296D01*
X0009041Y0221354D01*
X0008895Y0221416D01*
X0008751Y0221481D01*
X0008609Y0221551D01*
X0008468Y0221623D01*
X0008329Y0221700D01*
X0008193Y0221779D01*
X0008058Y0221863D01*
X0007925Y0221949D01*
X0007795Y0222039D01*
X0007667Y0222132D01*
X0007541Y0222228D01*
X0007418Y0222328D01*
X0007297Y0222430D01*
X0007179Y0222535D01*
X0007064Y0222644D01*
X0006951Y0222755D01*
X0006841Y0222869D01*
X0006734Y0222986D01*
X0006630Y0223105D01*
X0006529Y0223227D01*
X0006432Y0223352D01*
X0006337Y0223479D01*
X0006246Y0223608D01*
X0006157Y0223739D01*
X0006073Y0223873D01*
X0005991Y0224009D01*
X0005913Y0224146D01*
X0005839Y0224286D01*
X0005768Y0224428D01*
X0005700Y0224571D01*
X0005636Y0224716D01*
X0005576Y0224862D01*
X0005520Y0225010D01*
X0005467Y0225159D01*
X0005418Y0225310D01*
X0005373Y0225462D01*
X0005332Y0225615D01*
X0005294Y0225768D01*
X0005261Y0225923D01*
X0005231Y0226079D01*
X0005205Y0226235D01*
X0005184Y0226392D01*
X0005166Y0226549D01*
X0005152Y0226707D01*
X0005142Y0226865D01*
X0005136Y0227023D01*
X0005134Y0227181D01*
X0005134Y0150803D02*
X0005136Y0150961D01*
X0005142Y0151119D01*
X0005152Y0151277D01*
X0005166Y0151435D01*
X0005184Y0151592D01*
X0005205Y0151749D01*
X0005231Y0151905D01*
X0005261Y0152061D01*
X0005294Y0152216D01*
X0005332Y0152369D01*
X0005373Y0152522D01*
X0005418Y0152674D01*
X0005467Y0152825D01*
X0005520Y0152974D01*
X0005576Y0153122D01*
X0005636Y0153268D01*
X0005700Y0153413D01*
X0005768Y0153556D01*
X0005839Y0153698D01*
X0005913Y0153838D01*
X0005991Y0153975D01*
X0006073Y0154111D01*
X0006157Y0154245D01*
X0006246Y0154376D01*
X0006337Y0154505D01*
X0006432Y0154632D01*
X0006529Y0154757D01*
X0006630Y0154879D01*
X0006734Y0154998D01*
X0006841Y0155115D01*
X0006951Y0155229D01*
X0007064Y0155340D01*
X0007179Y0155449D01*
X0007297Y0155554D01*
X0007418Y0155656D01*
X0007541Y0155756D01*
X0007667Y0155852D01*
X0007795Y0155945D01*
X0007925Y0156035D01*
X0008058Y0156121D01*
X0008193Y0156205D01*
X0008329Y0156284D01*
X0008468Y0156361D01*
X0008609Y0156433D01*
X0008751Y0156503D01*
X0008895Y0156568D01*
X0009041Y0156630D01*
X0009188Y0156688D01*
X0009337Y0156743D01*
X0009487Y0156794D01*
X0009638Y0156841D01*
X0009790Y0156884D01*
X0009943Y0156923D01*
X0010098Y0156959D01*
X0010253Y0156990D01*
X0010409Y0157018D01*
X0010565Y0157042D01*
X0010722Y0157062D01*
X0010880Y0157078D01*
X0011037Y0157090D01*
X0011196Y0157098D01*
X0011354Y0157102D01*
X0011512Y0157102D01*
X0011670Y0157098D01*
X0011829Y0157090D01*
X0011986Y0157078D01*
X0012144Y0157062D01*
X0012301Y0157042D01*
X0012457Y0157018D01*
X0012613Y0156990D01*
X0012768Y0156959D01*
X0012923Y0156923D01*
X0013076Y0156884D01*
X0013228Y0156841D01*
X0013379Y0156794D01*
X0013529Y0156743D01*
X0013678Y0156688D01*
X0013825Y0156630D01*
X0013971Y0156568D01*
X0014115Y0156503D01*
X0014257Y0156433D01*
X0014398Y0156361D01*
X0014537Y0156284D01*
X0014673Y0156205D01*
X0014808Y0156121D01*
X0014941Y0156035D01*
X0015071Y0155945D01*
X0015199Y0155852D01*
X0015325Y0155756D01*
X0015448Y0155656D01*
X0015569Y0155554D01*
X0015687Y0155449D01*
X0015802Y0155340D01*
X0015915Y0155229D01*
X0016025Y0155115D01*
X0016132Y0154998D01*
X0016236Y0154879D01*
X0016337Y0154757D01*
X0016434Y0154632D01*
X0016529Y0154505D01*
X0016620Y0154376D01*
X0016709Y0154245D01*
X0016793Y0154111D01*
X0016875Y0153975D01*
X0016953Y0153838D01*
X0017027Y0153698D01*
X0017098Y0153556D01*
X0017166Y0153413D01*
X0017230Y0153268D01*
X0017290Y0153122D01*
X0017346Y0152974D01*
X0017399Y0152825D01*
X0017448Y0152674D01*
X0017493Y0152522D01*
X0017534Y0152369D01*
X0017572Y0152216D01*
X0017605Y0152061D01*
X0017635Y0151905D01*
X0017661Y0151749D01*
X0017682Y0151592D01*
X0017700Y0151435D01*
X0017714Y0151277D01*
X0017724Y0151119D01*
X0017730Y0150961D01*
X0017732Y0150803D01*
X0017730Y0150645D01*
X0017724Y0150487D01*
X0017714Y0150329D01*
X0017700Y0150171D01*
X0017682Y0150014D01*
X0017661Y0149857D01*
X0017635Y0149701D01*
X0017605Y0149545D01*
X0017572Y0149390D01*
X0017534Y0149237D01*
X0017493Y0149084D01*
X0017448Y0148932D01*
X0017399Y0148781D01*
X0017346Y0148632D01*
X0017290Y0148484D01*
X0017230Y0148338D01*
X0017166Y0148193D01*
X0017098Y0148050D01*
X0017027Y0147908D01*
X0016953Y0147768D01*
X0016875Y0147631D01*
X0016793Y0147495D01*
X0016709Y0147361D01*
X0016620Y0147230D01*
X0016529Y0147101D01*
X0016434Y0146974D01*
X0016337Y0146849D01*
X0016236Y0146727D01*
X0016132Y0146608D01*
X0016025Y0146491D01*
X0015915Y0146377D01*
X0015802Y0146266D01*
X0015687Y0146157D01*
X0015569Y0146052D01*
X0015448Y0145950D01*
X0015325Y0145850D01*
X0015199Y0145754D01*
X0015071Y0145661D01*
X0014941Y0145571D01*
X0014808Y0145485D01*
X0014673Y0145401D01*
X0014537Y0145322D01*
X0014398Y0145245D01*
X0014257Y0145173D01*
X0014115Y0145103D01*
X0013971Y0145038D01*
X0013825Y0144976D01*
X0013678Y0144918D01*
X0013529Y0144863D01*
X0013379Y0144812D01*
X0013228Y0144765D01*
X0013076Y0144722D01*
X0012923Y0144683D01*
X0012768Y0144647D01*
X0012613Y0144616D01*
X0012457Y0144588D01*
X0012301Y0144564D01*
X0012144Y0144544D01*
X0011986Y0144528D01*
X0011829Y0144516D01*
X0011670Y0144508D01*
X0011512Y0144504D01*
X0011354Y0144504D01*
X0011196Y0144508D01*
X0011037Y0144516D01*
X0010880Y0144528D01*
X0010722Y0144544D01*
X0010565Y0144564D01*
X0010409Y0144588D01*
X0010253Y0144616D01*
X0010098Y0144647D01*
X0009943Y0144683D01*
X0009790Y0144722D01*
X0009638Y0144765D01*
X0009487Y0144812D01*
X0009337Y0144863D01*
X0009188Y0144918D01*
X0009041Y0144976D01*
X0008895Y0145038D01*
X0008751Y0145103D01*
X0008609Y0145173D01*
X0008468Y0145245D01*
X0008329Y0145322D01*
X0008193Y0145401D01*
X0008058Y0145485D01*
X0007925Y0145571D01*
X0007795Y0145661D01*
X0007667Y0145754D01*
X0007541Y0145850D01*
X0007418Y0145950D01*
X0007297Y0146052D01*
X0007179Y0146157D01*
X0007064Y0146266D01*
X0006951Y0146377D01*
X0006841Y0146491D01*
X0006734Y0146608D01*
X0006630Y0146727D01*
X0006529Y0146849D01*
X0006432Y0146974D01*
X0006337Y0147101D01*
X0006246Y0147230D01*
X0006157Y0147361D01*
X0006073Y0147495D01*
X0005991Y0147631D01*
X0005913Y0147768D01*
X0005839Y0147908D01*
X0005768Y0148050D01*
X0005700Y0148193D01*
X0005636Y0148338D01*
X0005576Y0148484D01*
X0005520Y0148632D01*
X0005467Y0148781D01*
X0005418Y0148932D01*
X0005373Y0149084D01*
X0005332Y0149237D01*
X0005294Y0149390D01*
X0005261Y0149545D01*
X0005231Y0149701D01*
X0005205Y0149857D01*
X0005184Y0150014D01*
X0005166Y0150171D01*
X0005152Y0150329D01*
X0005142Y0150487D01*
X0005136Y0150645D01*
X0005134Y0150803D01*
D11*
X0079422Y0138626D02*
X0080822Y0138626D01*
X0081422Y0139626D01*
X0080422Y0139626D01*
X0080822Y0138626D01*
X0080822Y0167626D01*
X0118422Y0167626D01*
X0118822Y0168626D01*
X0117822Y0168626D01*
X0118422Y0167626D01*
X0118422Y0172626D01*
X0118422Y0167626D02*
X0119822Y0167626D01*
X0119822Y0156826D02*
X0118422Y0156826D01*
X0118822Y0155826D01*
X0117822Y0155826D01*
X0118422Y0156826D01*
X0118422Y0151826D01*
X0118422Y0156826D02*
X0099622Y0156826D01*
X0090822Y0153126D02*
X0090822Y0177626D01*
X0091822Y0178126D01*
X0091822Y0177126D01*
X0090822Y0177626D01*
X0108422Y0177626D01*
X0107422Y0178126D01*
X0107422Y0177126D01*
X0108422Y0177626D01*
X0108422Y0179126D01*
X0108422Y0177626D02*
X0108422Y0153126D01*
X0099622Y0138626D02*
X0080822Y0138626D01*
X0080422Y0166626D02*
X0081422Y0166626D01*
X0080822Y0167626D01*
X0080422Y0166626D01*
X0080822Y0167626D02*
X0079422Y0167626D01*
X0090822Y0177626D02*
X0090822Y0179126D01*
D12*
X0130568Y0177151D02*
X0135272Y0177151D01*
X0136568Y0176362D02*
X0137352Y0177146D01*
X0140488Y0174010D01*
X0141272Y0174794D01*
X0141272Y0176362D01*
X0140488Y0177146D01*
X0137352Y0177146D01*
X0136568Y0176362D02*
X0136568Y0174794D01*
X0137352Y0174010D01*
X0140488Y0174010D01*
X0140488Y0172542D02*
X0139704Y0172542D01*
X0138920Y0171758D01*
X0138920Y0169406D01*
X0140488Y0169406D01*
X0141272Y0170190D01*
X0141272Y0171758D01*
X0140488Y0172542D01*
X0142568Y0171758D02*
X0142568Y0170190D01*
X0143352Y0169406D01*
X0144136Y0169406D01*
X0144920Y0170190D01*
X0144920Y0172542D01*
X0143352Y0172542D02*
X0142568Y0171758D01*
X0143352Y0172542D02*
X0146488Y0172542D01*
X0147272Y0171758D01*
X0147272Y0170190D01*
X0146488Y0169406D01*
X0147272Y0167938D02*
X0142568Y0164802D01*
X0141272Y0164802D02*
X0136568Y0167938D01*
X0135272Y0166375D02*
X0130568Y0169511D01*
X0132136Y0170979D02*
X0130568Y0172547D01*
X0135272Y0172547D01*
X0136568Y0172542D02*
X0137352Y0170974D01*
X0138920Y0169406D01*
X0141272Y0167938D02*
X0136568Y0164802D01*
X0135272Y0164907D02*
X0133704Y0163339D01*
X0133704Y0164123D02*
X0133704Y0161771D01*
X0135272Y0161771D02*
X0130568Y0161771D01*
X0130568Y0164123D01*
X0131352Y0164907D01*
X0132920Y0164907D01*
X0133704Y0164123D01*
X0136568Y0162550D02*
X0136568Y0160982D01*
X0137352Y0160198D01*
X0140488Y0160198D01*
X0141272Y0160982D01*
X0141272Y0162550D01*
X0140488Y0163334D01*
X0137352Y0163334D01*
X0136568Y0162550D01*
X0135272Y0155650D02*
X0135272Y0154866D01*
X0134488Y0154866D01*
X0134488Y0155650D01*
X0135272Y0155650D01*
X0132920Y0155650D02*
X0132920Y0154866D01*
X0132136Y0154866D01*
X0132136Y0155650D01*
X0132920Y0155650D01*
X0132920Y0153398D02*
X0133704Y0153398D01*
X0133704Y0150262D01*
X0132920Y0150262D02*
X0132136Y0151046D01*
X0132136Y0152614D01*
X0132920Y0153398D01*
X0135272Y0152614D02*
X0135272Y0151046D01*
X0134488Y0150262D01*
X0132920Y0150262D01*
X0135272Y0148760D02*
X0135272Y0147192D01*
X0135272Y0147976D02*
X0130568Y0147976D01*
X0130568Y0147192D01*
X0132136Y0145724D02*
X0136056Y0145724D01*
X0136840Y0144940D01*
X0136840Y0144156D01*
X0138136Y0144151D02*
X0142056Y0144151D01*
X0142840Y0143367D01*
X0142840Y0142583D01*
X0141272Y0141799D02*
X0141272Y0144151D01*
X0141272Y0145619D02*
X0141272Y0147187D01*
X0141272Y0146403D02*
X0136568Y0146403D01*
X0136568Y0145619D01*
X0135272Y0145724D02*
X0135272Y0143372D01*
X0134488Y0142588D01*
X0132136Y0142588D01*
X0132136Y0141087D02*
X0132136Y0139519D01*
X0131352Y0140303D02*
X0134488Y0140303D01*
X0135272Y0141087D01*
X0138136Y0141015D02*
X0140488Y0141015D01*
X0141272Y0141799D01*
X0141272Y0139514D02*
X0140488Y0138730D01*
X0137352Y0138730D01*
X0138136Y0137946D02*
X0138136Y0139514D01*
X0138136Y0136478D02*
X0138136Y0134126D01*
X0138920Y0133342D01*
X0139704Y0134126D01*
X0139704Y0135694D01*
X0140488Y0136478D01*
X0141272Y0135694D01*
X0141272Y0133342D01*
X0141272Y0131874D02*
X0141272Y0129522D01*
X0140488Y0128738D01*
X0138920Y0128738D01*
X0138136Y0129522D01*
X0138136Y0131874D01*
X0136568Y0131874D02*
X0141272Y0131874D01*
X0142568Y0131874D02*
X0147272Y0131874D01*
X0147272Y0129522D01*
X0146488Y0128738D01*
X0144920Y0128738D01*
X0144136Y0129522D01*
X0144136Y0131874D01*
X0144920Y0133342D02*
X0144136Y0134126D01*
X0144136Y0136478D01*
X0144136Y0137946D02*
X0144136Y0139514D01*
X0143352Y0138730D02*
X0146488Y0138730D01*
X0147272Y0139514D01*
X0146488Y0141015D02*
X0147272Y0141799D01*
X0147272Y0144151D01*
X0148056Y0144151D02*
X0148840Y0143367D01*
X0148840Y0142583D01*
X0148056Y0144151D02*
X0144136Y0144151D01*
X0142568Y0145619D02*
X0142568Y0146403D01*
X0147272Y0146403D01*
X0147272Y0145619D02*
X0147272Y0147187D01*
X0146488Y0148688D02*
X0144920Y0148688D01*
X0144136Y0149472D01*
X0144136Y0151040D01*
X0144920Y0151824D01*
X0145704Y0151824D01*
X0145704Y0148688D01*
X0146488Y0148688D02*
X0147272Y0149472D01*
X0147272Y0151040D01*
X0147272Y0153292D02*
X0146488Y0153292D01*
X0146488Y0154076D01*
X0147272Y0154076D01*
X0147272Y0153292D01*
X0144920Y0153292D02*
X0144136Y0153292D01*
X0144136Y0154076D01*
X0144920Y0154076D01*
X0144920Y0153292D01*
X0141272Y0153292D02*
X0140488Y0153292D01*
X0140488Y0154076D01*
X0141272Y0154076D01*
X0141272Y0153292D01*
X0139704Y0151824D02*
X0139704Y0148688D01*
X0138920Y0148688D02*
X0138136Y0149472D01*
X0138136Y0151040D01*
X0138920Y0151824D01*
X0139704Y0151824D01*
X0138920Y0153292D02*
X0138136Y0153292D01*
X0138136Y0154076D01*
X0138920Y0154076D01*
X0138920Y0153292D01*
X0141272Y0151040D02*
X0141272Y0149472D01*
X0140488Y0148688D01*
X0138920Y0148688D01*
X0144136Y0141015D02*
X0146488Y0141015D01*
X0146488Y0136478D02*
X0145704Y0135694D01*
X0145704Y0134126D01*
X0144920Y0133342D01*
X0147272Y0133342D02*
X0147272Y0135694D01*
X0146488Y0136478D01*
X0145704Y0127270D02*
X0145704Y0124918D01*
X0146488Y0124134D01*
X0147272Y0124918D01*
X0147272Y0127270D01*
X0144920Y0127270D01*
X0144136Y0126486D01*
X0144136Y0124918D01*
X0143352Y0122666D02*
X0142568Y0121882D01*
X0142568Y0119530D01*
X0147272Y0119530D01*
X0145704Y0119530D02*
X0145704Y0121882D01*
X0144920Y0122666D01*
X0143352Y0122666D01*
X0141272Y0124918D02*
X0141272Y0127270D01*
X0138920Y0127270D01*
X0138136Y0126486D01*
X0138136Y0124918D01*
X0139704Y0124918D02*
X0139704Y0127270D01*
X0139704Y0124918D02*
X0140488Y0124134D01*
X0141272Y0124918D01*
X0138920Y0122666D02*
X0139704Y0121882D01*
X0139704Y0119530D01*
X0141272Y0119530D02*
X0136568Y0119530D01*
X0136568Y0121882D01*
X0137352Y0122666D01*
X0138920Y0122666D01*
X0135272Y0121103D02*
X0130568Y0121103D01*
X0130568Y0123455D01*
X0131352Y0124239D01*
X0132920Y0124239D01*
X0133704Y0123455D01*
X0133704Y0121103D01*
X0134488Y0125707D02*
X0133704Y0126491D01*
X0133704Y0128843D01*
X0132920Y0128843D02*
X0135272Y0128843D01*
X0135272Y0126491D01*
X0134488Y0125707D01*
X0132136Y0128059D02*
X0132920Y0128843D01*
X0132136Y0128059D02*
X0132136Y0126491D01*
X0132920Y0130311D02*
X0132136Y0131095D01*
X0132136Y0133447D01*
X0130568Y0133447D02*
X0135272Y0133447D01*
X0135272Y0131095D01*
X0134488Y0130311D01*
X0132920Y0130311D01*
X0132920Y0134915D02*
X0132136Y0135699D01*
X0132136Y0138051D01*
X0133704Y0137267D02*
X0133704Y0135699D01*
X0132920Y0134915D01*
X0135272Y0134915D02*
X0135272Y0137267D01*
X0134488Y0138051D01*
X0133704Y0137267D01*
X0132136Y0114998D02*
X0132136Y0113430D01*
X0131352Y0114214D02*
X0134488Y0114214D01*
X0135272Y0114998D01*
X0135272Y0111929D02*
X0135272Y0110361D01*
X0135272Y0111145D02*
X0130568Y0111145D01*
X0130568Y0110361D01*
X0132136Y0108893D02*
X0135272Y0108893D01*
X0135272Y0106541D01*
X0134488Y0105757D01*
X0132136Y0105757D01*
X0132920Y0104289D02*
X0132136Y0103505D01*
X0132136Y0101937D01*
X0133704Y0101937D02*
X0133704Y0104289D01*
X0132920Y0104289D02*
X0135272Y0104289D01*
X0135272Y0101937D01*
X0134488Y0101153D01*
X0133704Y0101937D01*
X0132920Y0099652D02*
X0132920Y0098084D01*
X0132920Y0096616D02*
X0132136Y0095832D01*
X0132136Y0094264D01*
X0132920Y0093480D01*
X0134488Y0093480D01*
X0135272Y0094264D01*
X0135272Y0095832D01*
X0136568Y0096544D02*
X0138136Y0098112D01*
X0141272Y0098112D01*
X0141272Y0099580D02*
X0141272Y0101148D01*
X0141272Y0100364D02*
X0136568Y0100364D01*
X0136568Y0099580D01*
X0135272Y0098868D02*
X0131352Y0098868D01*
X0130568Y0099652D01*
X0132920Y0096616D02*
X0133704Y0096616D01*
X0133704Y0093480D01*
X0134488Y0092012D02*
X0131352Y0092012D01*
X0130568Y0091228D01*
X0130568Y0088876D01*
X0135272Y0088876D01*
X0135272Y0091228D01*
X0134488Y0092012D01*
X0138136Y0094976D02*
X0136568Y0096544D01*
X0138136Y0094976D02*
X0141272Y0094976D01*
X0142568Y0096544D02*
X0144136Y0098112D01*
X0147272Y0098112D01*
X0147272Y0099580D02*
X0147272Y0101148D01*
X0147272Y0100364D02*
X0142568Y0100364D01*
X0142568Y0099580D01*
X0142568Y0096544D02*
X0144136Y0094976D01*
X0147272Y0094976D01*
X0144920Y0094976D02*
X0144920Y0098112D01*
X0144136Y0102649D02*
X0144136Y0104217D01*
X0143352Y0103433D02*
X0146488Y0103433D01*
X0147272Y0104217D01*
X0147272Y0110322D02*
X0144136Y0113458D01*
X0143352Y0113458D01*
X0142568Y0112674D01*
X0142568Y0111106D01*
X0143352Y0110322D01*
X0141272Y0110322D02*
X0141272Y0113458D01*
X0141272Y0111890D02*
X0136568Y0111890D01*
X0138136Y0110322D01*
X0138136Y0104217D02*
X0138136Y0102649D01*
X0137352Y0103433D02*
X0140488Y0103433D01*
X0141272Y0104217D01*
X0138920Y0098112D02*
X0138920Y0094976D01*
X0147272Y0110322D02*
X0147272Y0113458D01*
X0146488Y0160198D02*
X0143352Y0160198D01*
X0142568Y0160982D01*
X0142568Y0162550D01*
X0143352Y0163334D01*
X0146488Y0163334D01*
X0147272Y0162550D01*
X0147272Y0160982D01*
X0146488Y0160198D01*
X0147272Y0164802D02*
X0142568Y0167938D01*
X0143352Y0174010D02*
X0142568Y0174794D01*
X0142568Y0176362D01*
X0143352Y0177146D01*
X0146488Y0174010D01*
X0147272Y0174794D01*
X0147272Y0176362D01*
X0146488Y0177146D01*
X0143352Y0177146D01*
X0143352Y0178614D02*
X0144920Y0180182D01*
X0147272Y0180182D01*
X0144920Y0180182D02*
X0143352Y0181750D01*
X0142568Y0181750D01*
X0141272Y0180182D02*
X0138920Y0180182D01*
X0137352Y0181750D01*
X0136568Y0181750D01*
X0135272Y0180971D02*
X0135272Y0182539D01*
X0134488Y0183323D01*
X0133704Y0183323D01*
X0132920Y0182539D01*
X0132920Y0180187D01*
X0134488Y0180187D01*
X0135272Y0180971D01*
X0135272Y0178719D02*
X0135272Y0175583D01*
X0135272Y0174115D02*
X0135272Y0170979D01*
X0135272Y0169511D02*
X0130568Y0166375D01*
X0132136Y0175583D02*
X0130568Y0177151D01*
X0132920Y0180187D02*
X0131352Y0181755D01*
X0130568Y0183323D01*
X0130568Y0184791D02*
X0131352Y0184791D01*
X0132920Y0186359D01*
X0135272Y0186359D01*
X0136568Y0185570D02*
X0136568Y0184002D01*
X0137352Y0183218D01*
X0138136Y0183218D01*
X0138920Y0184002D01*
X0138920Y0186354D01*
X0137352Y0186354D02*
X0136568Y0185570D01*
X0137352Y0186354D02*
X0140488Y0186354D01*
X0141272Y0185570D01*
X0141272Y0184002D01*
X0140488Y0183218D01*
X0138920Y0180182D02*
X0137352Y0178614D01*
X0136568Y0178614D01*
X0142568Y0178614D02*
X0143352Y0178614D01*
X0143352Y0174010D02*
X0146488Y0174010D01*
X0146488Y0183218D02*
X0144920Y0183218D01*
X0144920Y0185570D01*
X0145704Y0186354D01*
X0146488Y0186354D01*
X0147272Y0185570D01*
X0147272Y0184002D01*
X0146488Y0183218D01*
X0144920Y0183218D02*
X0143352Y0184786D01*
X0142568Y0186354D01*
X0143352Y0187822D02*
X0142568Y0188606D01*
X0142568Y0190174D01*
X0143352Y0190958D01*
X0146488Y0187822D01*
X0147272Y0188606D01*
X0147272Y0190174D01*
X0146488Y0190958D01*
X0143352Y0190958D01*
X0142568Y0192426D02*
X0142568Y0194778D01*
X0143352Y0195562D01*
X0146488Y0195562D01*
X0147272Y0194778D01*
X0147272Y0192426D01*
X0142568Y0192426D01*
X0141272Y0192426D02*
X0141272Y0194778D01*
X0140488Y0195562D01*
X0137352Y0195562D01*
X0136568Y0194778D01*
X0136568Y0192426D01*
X0141272Y0192426D01*
X0140488Y0190958D02*
X0141272Y0190174D01*
X0141272Y0188606D01*
X0140488Y0187822D01*
X0137352Y0190958D01*
X0140488Y0190958D01*
X0137352Y0190958D02*
X0136568Y0190174D01*
X0136568Y0188606D01*
X0137352Y0187822D01*
X0140488Y0187822D01*
X0143352Y0187822D02*
X0146488Y0187822D01*
X0146488Y0197030D02*
X0147272Y0197814D01*
X0147272Y0199382D01*
X0146488Y0200166D01*
X0145704Y0200166D01*
X0144920Y0199382D01*
X0144920Y0198598D01*
X0144920Y0199382D02*
X0144136Y0200166D01*
X0143352Y0200166D01*
X0142568Y0199382D01*
X0142568Y0197814D01*
X0143352Y0197030D01*
X0141272Y0197814D02*
X0140488Y0197030D01*
X0141272Y0197814D02*
X0141272Y0199382D01*
X0140488Y0200166D01*
X0139704Y0200166D01*
X0138920Y0199382D01*
X0138920Y0198598D01*
X0138920Y0199382D02*
X0138136Y0200166D01*
X0137352Y0200166D01*
X0136568Y0199382D01*
X0136568Y0197814D01*
X0137352Y0197030D01*
X0135272Y0199387D02*
X0135272Y0200955D01*
X0134488Y0201739D01*
X0132920Y0201739D01*
X0132136Y0200955D01*
X0132136Y0200171D01*
X0132920Y0198603D01*
X0130568Y0198603D01*
X0130568Y0201739D01*
X0130568Y0203207D02*
X0130568Y0205559D01*
X0131352Y0206343D01*
X0134488Y0206343D01*
X0135272Y0205559D01*
X0135272Y0203207D01*
X0130568Y0203207D01*
X0131352Y0207811D02*
X0130568Y0208595D01*
X0130568Y0210163D01*
X0131352Y0210947D01*
X0134488Y0207811D01*
X0135272Y0208595D01*
X0135272Y0210163D01*
X0134488Y0210947D01*
X0131352Y0210947D01*
X0130568Y0212415D02*
X0130568Y0215551D01*
X0130568Y0213983D02*
X0135272Y0213983D01*
X0137352Y0209373D02*
X0136568Y0208589D01*
X0136568Y0206237D01*
X0141272Y0206237D01*
X0142568Y0206237D02*
X0142568Y0208589D01*
X0143352Y0209373D01*
X0144920Y0209373D01*
X0145704Y0208589D01*
X0145704Y0206237D01*
X0147272Y0206237D02*
X0142568Y0206237D01*
X0143352Y0204770D02*
X0142568Y0203986D01*
X0142568Y0202418D01*
X0143352Y0201634D01*
X0146488Y0201634D01*
X0143352Y0204770D01*
X0146488Y0204770D01*
X0147272Y0203986D01*
X0147272Y0202418D01*
X0146488Y0201634D01*
X0141272Y0202418D02*
X0140488Y0201634D01*
X0137352Y0204770D01*
X0140488Y0204770D01*
X0141272Y0203986D01*
X0141272Y0202418D01*
X0140488Y0201634D02*
X0137352Y0201634D01*
X0136568Y0202418D01*
X0136568Y0203986D01*
X0137352Y0204770D01*
X0139704Y0206237D02*
X0139704Y0208589D01*
X0138920Y0209373D01*
X0137352Y0209373D01*
X0134488Y0207811D02*
X0131352Y0207811D01*
X0135272Y0199387D02*
X0134488Y0198603D01*
X0131352Y0197135D02*
X0134488Y0193999D01*
X0135272Y0193999D01*
X0135272Y0192531D02*
X0135272Y0189395D01*
X0135272Y0190963D02*
X0130568Y0190963D01*
X0132136Y0189395D01*
X0131352Y0187927D02*
X0130568Y0187927D01*
X0131352Y0187927D02*
X0132920Y0186359D01*
X0130568Y0193999D02*
X0130568Y0197135D01*
X0131352Y0197135D01*
D13*
X0122772Y0177135D02*
X0121571Y0177135D01*
X0121171Y0176735D01*
X0121571Y0176335D01*
X0122772Y0176335D01*
X0122772Y0175534D02*
X0121171Y0175534D01*
X0121171Y0175934D01*
X0121571Y0176335D01*
X0121571Y0174833D02*
X0122772Y0174833D01*
X0122772Y0174033D02*
X0121571Y0174033D01*
X0121171Y0174433D01*
X0121571Y0174833D01*
X0121571Y0174033D02*
X0121171Y0173632D01*
X0121171Y0173232D01*
X0122772Y0173232D01*
X0122372Y0172532D02*
X0122772Y0172131D01*
X0122772Y0171330D01*
X0122372Y0170930D01*
X0121571Y0170230D02*
X0121571Y0168628D01*
X0120370Y0169829D01*
X0122772Y0169829D01*
X0121571Y0171731D02*
X0121571Y0172131D01*
X0121971Y0172532D01*
X0122372Y0172532D01*
X0121571Y0172131D02*
X0121171Y0172532D01*
X0120770Y0172532D01*
X0120370Y0172131D01*
X0120370Y0171330D01*
X0120770Y0170930D01*
X0120770Y0167928D02*
X0122372Y0166326D01*
X0122772Y0166326D01*
X0122772Y0165576D02*
X0122772Y0165175D01*
X0122372Y0165175D01*
X0122372Y0165576D01*
X0122772Y0165576D01*
X0122772Y0164475D02*
X0122772Y0162873D01*
X0121171Y0164475D01*
X0120770Y0164475D01*
X0120370Y0164074D01*
X0120370Y0163274D01*
X0120770Y0162873D01*
X0120370Y0162173D02*
X0122772Y0160571D01*
X0122772Y0159871D02*
X0121571Y0159871D01*
X0121171Y0159470D01*
X0121171Y0158269D01*
X0122772Y0158269D01*
X0122772Y0157535D02*
X0122772Y0156735D01*
X0122772Y0157135D02*
X0121171Y0157135D01*
X0121171Y0156735D01*
X0121171Y0156034D02*
X0121571Y0155634D01*
X0121571Y0154833D01*
X0121171Y0154433D01*
X0120770Y0154433D01*
X0120370Y0154833D01*
X0120370Y0155634D01*
X0120770Y0156034D01*
X0121171Y0156034D01*
X0121571Y0155634D02*
X0121971Y0156034D01*
X0122372Y0156034D01*
X0122772Y0155634D01*
X0122772Y0154833D01*
X0122372Y0154433D01*
X0121971Y0154433D01*
X0121571Y0154833D01*
X0120770Y0153732D02*
X0122372Y0152131D01*
X0122772Y0152531D01*
X0122772Y0153332D01*
X0122372Y0153732D01*
X0120770Y0153732D01*
X0120370Y0153332D01*
X0120370Y0152531D01*
X0120770Y0152131D01*
X0122372Y0152131D01*
X0122772Y0151430D02*
X0122772Y0149829D01*
X0122772Y0149078D02*
X0122772Y0148678D01*
X0122372Y0148678D01*
X0122372Y0149078D01*
X0122772Y0149078D01*
X0122372Y0147977D02*
X0122772Y0147577D01*
X0122772Y0146776D01*
X0122372Y0146376D01*
X0120770Y0147977D01*
X0122372Y0147977D01*
X0122372Y0146376D02*
X0120770Y0146376D01*
X0120370Y0146776D01*
X0120370Y0147577D01*
X0120770Y0147977D01*
X0121171Y0149829D02*
X0120370Y0150630D01*
X0122772Y0150630D01*
X0120370Y0157135D02*
X0119970Y0157135D01*
X0120370Y0166326D02*
X0120370Y0167928D01*
X0120770Y0167928D01*
X0100772Y0180076D02*
X0100372Y0179676D01*
X0098770Y0181277D01*
X0100372Y0181277D01*
X0100772Y0180877D01*
X0100772Y0180076D01*
X0100372Y0179676D02*
X0098770Y0179676D01*
X0098370Y0180076D01*
X0098370Y0180877D01*
X0098770Y0181277D01*
X0100372Y0181978D02*
X0100372Y0182378D01*
X0100772Y0182378D01*
X0100772Y0181978D01*
X0100372Y0181978D01*
X0100772Y0183129D02*
X0100772Y0184730D01*
X0100772Y0185431D02*
X0100372Y0185431D01*
X0098770Y0187032D01*
X0098370Y0187032D01*
X0098370Y0185431D01*
X0098370Y0183930D02*
X0100772Y0183930D01*
X0099171Y0183129D02*
X0098370Y0183930D01*
X0098370Y0187733D02*
X0099571Y0187733D01*
X0099171Y0188534D01*
X0099171Y0188934D01*
X0099571Y0189334D01*
X0100372Y0189334D01*
X0100772Y0188934D01*
X0100772Y0188133D01*
X0100372Y0187733D01*
X0098370Y0187733D02*
X0098370Y0189334D01*
X0099171Y0190035D02*
X0099171Y0190435D01*
X0100772Y0190435D01*
X0100772Y0190035D02*
X0100772Y0190835D01*
X0100772Y0191569D02*
X0099171Y0191569D01*
X0099171Y0192770D01*
X0099571Y0193171D01*
X0100772Y0193171D01*
X0100772Y0193871D02*
X0098370Y0195473D01*
X0099571Y0196173D02*
X0098370Y0197374D01*
X0100772Y0197374D01*
X0100772Y0198475D02*
X0100772Y0198876D01*
X0100372Y0198876D01*
X0100372Y0198475D01*
X0100772Y0198475D01*
X0099571Y0197775D02*
X0099571Y0196173D01*
X0099571Y0199626D02*
X0099571Y0201228D01*
X0099571Y0201928D02*
X0099571Y0203530D01*
X0099571Y0204230D02*
X0099171Y0205031D01*
X0099171Y0205431D01*
X0099571Y0205832D01*
X0100372Y0205832D01*
X0100772Y0205431D01*
X0100772Y0204630D01*
X0100372Y0204230D01*
X0099571Y0204230D02*
X0098370Y0204230D01*
X0098370Y0205832D01*
X0099171Y0206532D02*
X0099171Y0206932D01*
X0099571Y0207333D01*
X0099171Y0207733D01*
X0099571Y0208133D01*
X0100772Y0208133D01*
X0100772Y0208834D02*
X0099171Y0208834D01*
X0099171Y0209234D01*
X0099571Y0209635D01*
X0099171Y0210035D01*
X0099571Y0210435D01*
X0100772Y0210435D01*
X0100772Y0209635D02*
X0099571Y0209635D01*
X0099571Y0207333D02*
X0100772Y0207333D01*
X0100772Y0206532D02*
X0099171Y0206532D01*
X0098370Y0203129D02*
X0099571Y0201928D01*
X0100772Y0200827D02*
X0098370Y0200827D01*
X0099571Y0199626D01*
X0100772Y0203129D02*
X0098370Y0203129D01*
X0098370Y0190435D02*
X0097970Y0190435D01*
X0078772Y0166833D02*
X0077571Y0166833D01*
X0077171Y0166433D01*
X0077571Y0166033D01*
X0078772Y0166033D01*
X0078772Y0165232D02*
X0077171Y0165232D01*
X0077171Y0165632D01*
X0077571Y0166033D01*
X0077571Y0164532D02*
X0078772Y0164532D01*
X0078772Y0163731D02*
X0077571Y0163731D01*
X0077171Y0164131D01*
X0077571Y0164532D01*
X0077571Y0163731D02*
X0077171Y0163330D01*
X0077171Y0162930D01*
X0078772Y0162930D01*
X0078372Y0162230D02*
X0077971Y0162230D01*
X0077571Y0161829D01*
X0077571Y0160628D01*
X0078372Y0160628D01*
X0078772Y0161029D01*
X0078772Y0161829D01*
X0078372Y0162230D01*
X0076770Y0161429D02*
X0077571Y0160628D01*
X0077971Y0159928D02*
X0077571Y0159527D01*
X0077571Y0158326D01*
X0078372Y0158326D01*
X0078772Y0158727D01*
X0078772Y0159527D01*
X0078372Y0159928D01*
X0077971Y0159928D01*
X0076770Y0159127D02*
X0077571Y0158326D01*
X0077171Y0157626D02*
X0077571Y0157225D01*
X0077971Y0157626D01*
X0078372Y0157626D01*
X0078772Y0157225D01*
X0078772Y0156425D01*
X0078372Y0156024D01*
X0078372Y0155274D02*
X0078772Y0155274D01*
X0078772Y0154873D01*
X0078372Y0154873D01*
X0078372Y0155274D01*
X0077571Y0156825D02*
X0077571Y0157225D01*
X0077171Y0157626D02*
X0076770Y0157626D01*
X0076370Y0157225D01*
X0076370Y0156425D01*
X0076770Y0156024D01*
X0076770Y0154173D02*
X0076370Y0154173D01*
X0076370Y0152571D01*
X0076370Y0151871D02*
X0078772Y0150269D01*
X0078772Y0149569D02*
X0077571Y0149569D01*
X0077171Y0149168D01*
X0077171Y0147967D01*
X0078772Y0147967D01*
X0078772Y0147234D02*
X0078772Y0146433D01*
X0078772Y0146833D02*
X0077171Y0146833D01*
X0077171Y0146433D01*
X0077571Y0145732D02*
X0077571Y0144531D01*
X0077171Y0144131D01*
X0076770Y0144131D01*
X0076370Y0144531D01*
X0076370Y0145332D01*
X0076770Y0145732D01*
X0078372Y0145732D01*
X0078772Y0145332D01*
X0078772Y0144531D01*
X0078372Y0144131D01*
X0078772Y0143430D02*
X0078772Y0141829D01*
X0077171Y0143430D01*
X0076770Y0143430D01*
X0076370Y0143030D01*
X0076370Y0142229D01*
X0076770Y0141829D01*
X0078372Y0141078D02*
X0078372Y0140678D01*
X0078772Y0140678D01*
X0078772Y0141078D01*
X0078372Y0141078D01*
X0078372Y0139977D02*
X0076770Y0139977D01*
X0078372Y0138376D01*
X0078772Y0138776D01*
X0078772Y0139577D01*
X0078372Y0139977D01*
X0078372Y0138376D02*
X0076770Y0138376D01*
X0076370Y0138776D01*
X0076370Y0139577D01*
X0076770Y0139977D01*
X0076370Y0146833D02*
X0075970Y0146833D01*
X0078372Y0152571D02*
X0078772Y0152571D01*
X0078372Y0152571D02*
X0076770Y0154173D01*
X0076770Y0159127D02*
X0076370Y0159928D01*
X0076770Y0161429D02*
X0076370Y0162230D01*
M02*
