%
M48
M72
T01C0.00591
T02C0.00787
T03C0.01000
T04C0.01181
T05C0.01378
T06C0.02362
T07C0.03937
T08C0.04000
T09C0.05200
T10C0.12598
%
T01
X362198Y77969
X519285Y77969
X535820Y221669
X558261Y301591
X723616Y298047
X860820Y428559
X920072Y503953
X930309Y505134
X907080Y516157
X890151Y533087
X879127Y509858
X909442Y562614
X939757Y529150
X986214Y524425
X990938Y547260
X1001175Y503953
X925190Y465764
X854324Y570094
X813773Y543323
X733852Y543717
X723222Y574031
X644482Y510646
X582671Y577575
X437395Y576000
X432671Y754740
X267316Y579543
X670072Y78362
X871647Y300016
T02
X703537Y516945
X670466Y514189
X688970Y856709
X688970Y864583
X525978Y866157
X525978Y884661
X525190Y1093323
X526765Y1113402
X716529Y1099228
T03
X701790Y1099597
X698590Y1099597
X698590Y1102797
X701790Y1102797
X660649Y517757
X660649Y514557
X657449Y514557
X657449Y517757
T04
X660033Y504150
X857868Y322457
X811805Y99031
X658064Y106118
X490742Y88402
X749600Y1107496
T05
X700387Y889583
X705505Y884858
X701568Y873047
X700387Y859268
X703537Y859268
X703931Y856118
X703931Y852969
X700387Y852969
X700387Y856118
X666923Y876197
X659442Y876984
X663379Y883283
X575190Y840370
X573616Y831709
X566923Y836433
X560623Y837220
X561017Y842732
X555505Y839976
X552749Y833677
X549600Y829346
X544875Y832496
X560230Y830921
X546057Y855724
X546057Y858480
X546057Y861236
X542907Y861236
X542907Y858480
X542907Y855724
X579324Y806512
X437592Y782890
X425781Y775016
X426962Y599425
X570072Y597063
X713970Y595291
X718497Y542142
X721647Y456118
X759836Y432890
X849206Y449819
X940348Y348441
X951175Y343323
X958064Y353756
X969875Y346276
X978340Y347063
X964560Y331906
X977553Y315567
X792513Y200606
X792513Y197260
X792513Y194307
X788970Y194307
X788970Y197457
X788970Y200606
X777356Y201787
X775781Y218913
X712198Y319110
X545564Y322358
X399206Y325016
X464954Y148441
X354718Y107890
X225190Y337614
X225190Y340764
X225190Y343913
X221647Y343913
X221647Y340764
X221647Y337614
X259442Y601197
X288183Y1089189
X288183Y1092339
X288183Y1095094
X285033Y1095094
X285033Y1092339
X285033Y1089583
X538183Y1089976
X538183Y1092732
X538183Y1095488
X541332Y1095488
X541332Y1092732
X541332Y1089976
X853537Y708677
X896450Y745094
T06
X884246Y754346
X849994Y719701
X831883Y702772
X838576Y685646
X849994Y686039
X864954Y700409
X899206Y700409
X935820Y708677
X963773Y705134
X963773Y692535
X939757Y750803
X944088Y785449
X876175Y805724
X869285Y832496
X862395Y851787
X864954Y874031
X836214Y856906
X819679Y865567
X823025Y879937
X808655Y919898
X811411Y926197
X811017Y937220
X811805Y949031
X812986Y963205
X812198Y977378
X794088Y978953
X775978Y979346
X748419Y991748
X743301Y1008677
X740938Y1014583
X736214Y1004740
X725584Y1004740
X727946Y1014976
X725190Y1025606
X735033Y1027969
X727553Y1035843
X739364Y1038205
X749600Y1033087
X749600Y1025213
X752749Y1017732
X766135Y1015370
X749206Y1052772
X756293Y1057890
X747238Y1061827
X742513Y1070882
X735427Y1076787
X727946Y1072063
X725978Y1063008
X733458Y1062220
X738183Y1053953
X755899Y1069701
X750781Y1076394
X725978Y1053953
X709442Y1084661
X685427Y1117339
X681096Y1120882
X685427Y1125606
X673222Y1126394
X669679Y1118913
X663773Y1126394
X699206Y1126787
X711805Y1126394
X714560Y989386
X661805Y979150
X644482Y978756
X624009Y975606
X601568Y976000
X566923Y991748
X558261Y1003559
X559442Y1012220
X555899Y1024031
X544482Y1024819
X545269Y1012614
X545663Y1005528
X533458Y988598
X569679Y1021669
X572041Y1014976
X581096Y1009071
X571253Y1036630
X570072Y1049622
X557868Y1050409
X545269Y1051591
X544482Y1038598
X556686Y1037024
X552749Y1064189
X560623Y1069307
X572434Y1070488
X572041Y1078756
X537395Y1069701
X513379Y1114976
X481490Y1096079
X471647Y1115370
X475978Y1150016
X416135Y1118913
X381883Y1084268
X363773Y1067339
X396844Y1064976
X431096Y1064976
X399206Y1025213
X406293Y985055
X425584Y981118
X453931Y982299
X485427Y980331
X485033Y920291
X504324Y920685
X523616Y921079
X548419Y921079
X544875Y890764
X546057Y884071
X516923Y881315
X506293Y881315
X506686Y870685
X514954Y867929
X548419Y812614
X548616Y801787
X548222Y794504
X547828Y781709
X562986Y783283
X570663Y796079
X560230Y804937
X577553Y779543
X576568Y769504
X572631Y764386
X563773Y757890
X552356Y764780
X543891Y765173
X532277Y751984
X523222Y742535
X505112Y742535
X487789Y742929
X466923Y742929
X451175Y742929
X434246Y741748
X411411Y754543
X416135Y762220
X400978Y765173
X392120Y765173
X380112Y754740
X398419Y782693
X409049Y784268
X409049Y795685
X398419Y801591
X398419Y811827
X411608Y894307
X394088Y913992
X362198Y900606
X333064Y912024
X293301Y911630
X270072Y894307
X253537Y908874
X227946Y890370
X216135Y911236
X204718Y888008
X178734Y885055
X178734Y909071
X177553Y859858
X176372Y838205
X174403Y821669
X175190Y805331
X177159Y782890
X176372Y763992
X177159Y747457
X205112Y774425
X210230Y760646
X211805Y743717
X233458Y761630
X230309Y777575
X242907Y746276
X267513Y746669
X287986Y753362
X309836Y763402
X317316Y744898
X273025Y773244
X255505Y817929
X218301Y817339
X236214Y865173
X308655Y864386
X361805Y978362
X383064Y976787
X334246Y1009465
X319088Y1019110
X319875Y1027378
X319088Y1038008
X307671Y1039583
X297041Y1039189
X295466Y1028953
X292316Y1020291
X291135Y1012417
X292316Y1004543
X302553Y1004937
X309246Y1003362
X310427Y1011236
X304915Y1020291
X308458Y1028165
X309246Y1051394
X319088Y1050606
X305309Y1063205
X307671Y1069898
X317907Y1065961
X319088Y1074228
X295072Y1063205
X298222Y1051000
X289167Y1051394
X283261Y1071866
X266923Y1093323
X256686Y1098638
X256293Y1105724
X262986Y1108087
X266923Y1111630
X263773Y1117929
X256293Y1113992
X277946Y1109465
X280702Y1101787
X298812Y1100606
X302749Y1110449
X292907Y1119110
X294875Y1125409
X312986Y1161433
X344875Y1123638
X371253Y1151197
X467710Y1073244
X481096Y1066157
X441726Y912024
X315348Y988205
X276765Y990173
X212986Y984661
X199994Y1003165
X183458Y984661
X188970Y1032299
X180702Y1054740
X188183Y1086630
X216135Y1083087
X216135Y1094110
X192120Y1128756
X196450Y1163402
X136608Y1132299
X102356Y1097654
X84246Y1080724
X117316Y1078362
X151568Y1078362
X212198Y1038205
X256293Y1161039
X91726Y1164583
X65348Y1137024
X42907Y1079543
X223616Y686433
X204324Y686039
X185033Y685646
X177159Y668323
X232080Y636039
X232080Y627378
X239167Y630331
X243497Y616945
X247434Y612220
X237986Y604740
X232080Y616945
X235230Y591157
X227159Y590961
X214757Y579937
X245860Y579937
X250584Y587614
X260230Y531315
X277946Y531709
X295663Y531315
X311411Y531315
X326372Y530921
X343694Y530921
X362198Y530528
X363183Y509268
X378734Y530528
X395269Y531315
X414560Y530528
X431096Y530134
X447631Y529740
X465742Y530134
X483064Y530134
X494482Y530528
X501765Y528362
X502159Y492732
X548812Y478953
X563379Y479543
X563970Y459858
X551372Y457299
X546647Y438008
X564560Y438008
X564560Y415370
X548419Y413795
X553143Y395488
X552749Y385055
X533852Y395094
X514560Y394701
X521057Y421276
X473812Y403559
X469285Y408283
X467316Y399425
X475387Y388795
X469088Y379543
X456883Y372850
X444482Y378559
X393301Y310843
X388478Y302870
X379915Y314583
X370860Y314189
X357277Y302969
X323222Y289386
X305112Y289386
X287789Y289780
X276372Y306315
X269285Y299228
X266923Y289780
X257474Y299228
X256686Y309858
X256686Y319307
X246844Y317339
X240938Y309071
X242513Y299228
X251175Y289780
X234246Y288598
X227553Y298441
X227159Y307890
X216923Y306709
X217710Y298835
X216529Y326787
X203537Y348441
X203537Y360252
X190545Y355528
X183064Y355134
X183064Y347654
X190938Y347260
X183064Y364189
X183064Y372457
X174403Y368323
X174403Y358480
X173616Y345882
X172828Y332102
X173616Y320291
X172828Y308874
X172434Y297457
X174797Y245488
X175978Y226197
X175978Y210449
X175978Y195094
X175584Y180528
X157868Y176984
X139364Y176591
X125978Y174622
X124797Y151787
X122041Y119110
X122041Y103756
X122828Y87220
X122828Y70685
X116891Y59622
X142875Y59228
X160592Y59622
X165545Y73638
X176962Y83874
X185230Y83480
X192710Y73835
X209017Y58835
X226340Y58835
X244844Y58441
X261379Y58441
X277915Y59228
X297206Y58441
X300584Y74031
X309246Y85055
X317513Y85449
X327749Y74031
X342710Y88205
X323419Y114189
X323419Y123638
X313576Y123638
X313576Y114189
X349206Y165370
X356686Y181512
X359836Y209858
X325190Y211039
X329521Y245685
X295269Y246866
X261411Y248047
X269679Y214583
X235427Y179937
X250387Y160646
X217316Y163008
X199009Y124425
X184049Y127575
X184049Y118913
X183655Y109071
X207868Y93520
X211017Y23835
X228340Y23835
X246844Y23441
X263379Y23441
X279915Y24228
X299206Y23441
X315742Y23047
X332277Y22654
X350387Y23047
X367710Y23047
X379127Y23441
X402749Y23835
X422041Y24228
X441332Y24622
X466135Y24622
X492120Y24228
X509836Y24622
X527553Y24228
X543301Y24228
X558261Y23835
X575584Y23835
X594088Y23441
X610623Y23441
X627159Y24228
X646450Y23441
X662986Y23047
X679521Y22654
X697631Y23047
X714954Y23047
X726372Y23441
X738183Y25016
X757474Y25409
X776765Y25803
X801568Y25803
X827553Y25409
X845269Y25803
X862986Y25409
X878734Y25409
X893694Y25016
X911017Y25016
X929521Y24622
X946057Y24622
X962592Y25409
X981490Y26984
X986608Y46669
X983064Y67535
X962986Y72260
X944875Y71866
X933458Y71472
X916135Y71472
X898025Y71079
X881490Y71472
X864954Y71866
X885033Y106315
X903143Y123244
X918104Y103953
X952356Y103953
X988970Y112220
X1016923Y108677
X1017316Y95685
X992907Y154346
X997238Y188992
X937395Y157890
X892513Y190173
X866135Y162614
X795072Y89386
X788576Y89189
X780702Y89780
X799206Y76000
X769683Y65016
X768104Y76000
X751683Y64516
X736183Y65016
X724372Y63441
X712954Y63047
X695631Y63047
X677521Y62654
X660986Y63047
X647828Y76394
X647631Y86433
X636214Y90173
X629127Y89780
X617120Y76394
X612123Y60941
X595588Y60941
X577084Y61335
X559761Y61335
X544801Y61728
X529053Y61728
X511336Y62122
X493620Y61728
X478143Y73835
X472828Y84858
X460230Y85055
X450584Y73835
X439332Y59622
X420041Y59228
X400749Y58835
X377127Y58441
X365710Y58047
X348387Y58047
X378734Y153559
X396844Y170488
X411805Y151197
X467513Y125016
X466726Y117732
X477159Y124425
X475781Y107693
X477946Y154740
X496057Y171669
X511017Y152378
X459049Y211039
X485427Y238598
X482277Y254937
X462986Y254543
X459442Y290173
X476765Y289780
X494875Y289780
X502159Y300803
X514954Y310449
X523616Y311039
X537986Y307890
X534049Y300606
X551568Y290567
X567316Y290567
X588183Y290567
X605505Y290173
X623616Y290173
X618497Y254543
X603537Y254937
X587789Y254937
X570072Y255331
X552356Y254937
X526372Y255331
X501568Y255331
X438576Y290173
X422828Y290173
X405899Y288992
X409442Y245291
X386214Y237417
X366923Y248047
X321253Y168913
X224797Y246866
X198419Y246472
X198419Y219307
X229127Y350409
X228734Y374031
X238576Y373638
X207868Y385055
X198616Y386039
X188773Y385449
X176765Y385252
X176765Y397457
X194482Y407890
X194679Y417339
X194875Y425213
X176765Y418323
X177553Y441945
X192907Y450803
X179915Y470291
X177946Y490370
X176765Y507299
X176765Y521866
X170860Y530921
X190151Y531315
X209442Y531709
X234246Y531709
X242120Y508480
X234639Y482890
X210033Y487614
X216529Y441354
X249600Y460252
X273222Y438598
X269482Y491354
X328143Y504543
X324994Y440961
X324994Y404543
X320860Y395488
X328143Y393913
X332277Y382496
X320466Y380921
X324600Y373244
X301175Y375606
X377946Y358087
X377553Y348441
X377946Y338992
X468891Y442339
X416923Y454543
X408458Y484858
X374403Y459268
X380505Y576000
X393694Y586039
X403143Y585646
X413183Y576000
X417710Y584071
X403931Y599819
X398812Y608874
X399206Y623047
X399206Y632299
X411805Y620882
X412789Y612024
X432080Y660843
X439757Y670685
X445269Y684858
X428734Y685252
X409442Y686039
X392907Y685252
X376372Y685252
X357868Y685646
X340545Y685646
X325584Y686039
X309836Y686039
X292120Y686433
X274403Y686039
X272041Y675213
X261411Y662811
X248419Y686433
X312592Y632496
X323812Y607693
X319875Y589189
X324994Y661433
X461805Y684465
X479915Y684858
X497238Y684858
X508655Y685252
X526372Y686433
X545663Y686827
X564954Y687220
X589757Y687220
X588379Y668913
X602946Y653165
X613379Y670094
X628143Y660252
X633458Y687220
X615742Y686827
X651175Y686827
X666923Y686827
X681883Y686433
X699206Y686433
X717710Y686039
X734246Y686039
X742316Y673835
X734246Y656315
X747238Y651984
X765348Y635055
X774009Y629543
X761411Y624228
X774797Y592535
X775190Y555921
X786805Y548835
X778537Y534465
X781490Y524425
X769285Y524622
X766923Y537024
X758458Y538598
X757671Y527969
X719285Y486236
X720663Y479150
X728734Y471472
X732868Y462811
X714364Y463402
X711608Y471472
X702356Y466551
X692316Y464189
X693301Y454937
X697631Y450803
X706293Y444110
X696057Y427969
X683458Y439780
X674994Y439583
X682277Y451787
X682474Y462811
X682868Y473244
X682474Y482496
X692316Y476000
X700584Y480724
X693694Y489386
X667316Y427575
X670072Y394701
X655112Y395094
X639364Y395094
X621647Y395488
X603931Y395094
X577946Y395488
X519679Y354543
X519482Y344504
X635820Y254543
X654324Y254150
X670860Y254150
X687395Y254937
X706686Y254150
X723222Y253756
X739757Y253362
X757868Y253756
X775190Y253756
X786608Y254150
X806293Y254150
X822041Y253756
X838183Y254150
X856293Y254937
X857868Y264780
X857868Y277378
X844875Y297260
X847434Y306315
X833852Y307299
X824600Y307102
X811805Y297260
X829915Y332890
X830505Y341945
X831293Y351787
X826765Y393913
X838183Y394307
X809442Y393913
X791332Y393520
X774797Y393913
X758261Y394307
X738970Y395094
X722434Y394307
X705899Y394307
X687395Y394701
X689167Y352378
X689364Y342339
X688773Y331118
X690742Y308283
X681490Y308283
X667907Y296669
X700781Y296669
X704127Y305331
X757474Y293126
X767710Y291551
X662198Y218913
X642907Y203953
X659836Y185843
X638183Y133087
X638379Y125016
X638773Y115764
X603537Y166945
X575978Y193323
X788576Y131315
X789364Y121472
X803143Y428559
X816135Y440567
X824206Y440567
X820466Y450016
X821844Y459268
X828734Y455528
X838183Y463598
X844088Y467732
X838576Y472260
X830899Y476984
X828143Y483480
X821647Y486433
X821844Y478165
X821647Y468717
X839167Y488402
X843497Y484661
X849403Y478756
X831293Y506315
X840742Y521866
X812395Y557890
X817513Y565961
X801175Y551984
X817907Y601394
X821253Y685646
X803143Y685252
X786608Y685646
X770072Y686039
X750781Y686827
X723812Y665764
X687001Y631906
X687001Y621669
X685033Y607299
X695860Y606709
X688183Y593126
X690742Y584661
X681293Y585055
X668301Y574228
X701372Y574228
X704915Y581906
X711805Y609465
X712789Y620291
X704718Y623638
X678734Y743323
X694088Y753165
X705309Y762811
X713970Y762614
X723616Y752772
X729915Y768913
X723616Y775606
X720466Y781315
X721647Y790764
X725387Y800016
X720072Y810055
X709246Y813402
X709639Y804740
X709246Y795685
X708655Y782299
X711805Y827772
X714560Y831709
X719285Y827772
X724009Y831709
X729127Y827772
X729127Y836039
X705112Y829346
X705505Y845488
X635230Y836039
X640545Y920291
X625584Y920685
X609836Y920685
X592120Y921079
X574403Y920685
X657868Y920291
X676372Y919898
X692907Y919898
X709442Y920685
X728734Y919898
X745269Y919504
X761805Y919110
X779915Y919504
X797238Y919504
X863773Y973638
X890151Y1001197
X898025Y1038205
X883064Y1057496
X864954Y1040567
X846057Y1096866
X872434Y1124425
X917316Y1092142
X972828Y1088598
X977159Y1123244
X1007080Y1057890
X996844Y1042929
X968891Y1046472
X932277Y1038205
X935033Y968913
X900781Y934268
X915742Y914976
X949994Y914976
X986608Y923244
X1014560Y919701
X1007868Y900016
X990545Y965370
X994875Y1000016
X882671Y917339
X839364Y786630
X812986Y759071
X811411Y742142
X829521Y742142
X829521Y724425
X794088Y742535
X773222Y742535
X757474Y742535
X740545Y741354
X660623Y743323
X643301Y743717
X622434Y743717
X606686Y743717
X589757Y742535
X543301Y634661
X542710Y624228
X557671Y620882
X562592Y609465
X546253Y605134
X546647Y587417
X537592Y587220
X524994Y576591
X556686Y576591
X561214Y584268
X486608Y658677
X466529Y641748
X839757Y437024
X836805Y428559
X196057Y24228
X180309Y24228
X162592Y24622
X144875Y24228
X118891Y24622
X94088Y24622
X74797Y24228
X55505Y23835
T07
X165938Y158402
X175938Y158402
X278458Y161433
X288458Y161433
X276450Y326787
X266450Y326787
X266450Y359268
X276450Y359268
X268222Y399937
X268222Y409937
X357356Y390488
X367356Y390488
X410742Y402417
X410742Y412417
X469875Y364661
X469875Y354661
X552474Y501079
X552474Y511079
X633458Y494780
X633458Y484780
X718616Y506315
X728616Y506315
X776175Y493795
X776175Y483795
X781722Y364626
X781722Y354626
X836332Y192339
X846332Y192339
X775781Y158795
X765781Y158795
X637222Y353626
X637222Y363626
X571332Y162220
X561332Y162220
X458143Y160252
X448143Y160252
X777907Y608756
X787907Y608756
X637722Y631126
X637722Y641126
X666923Y800921
X666923Y810921
X596057Y853283
X596057Y863283
X504718Y823913
X504718Y813913
X359246Y808756
X359246Y798756
X307395Y803283
X307395Y813283
X351675Y643780
X351675Y633780
X496222Y633126
X496222Y643126
X749994Y853677
X749994Y863677
X681293Y1040291
X681293Y1050291
X585033Y1087929
X585033Y1097929
X501175Y1081000
X501175Y1071000
X336608Y1087535
X336608Y1097535
X247238Y1078244
X247238Y1068244
X185320Y647217
X185320Y637217
X774994Y1098756
X774994Y1108756
T08
X955033Y602496
X965033Y602496
X965033Y592496
X965033Y582496
X965033Y572496
X965033Y562496
X965033Y552496
X965033Y542496
X965033Y532496
X965033Y522496
X965033Y512496
X955033Y512496
X955033Y522496
X955033Y532496
X955033Y542496
X955033Y552496
X955033Y562496
X955033Y572496
X955033Y582496
X955033Y592496
T09
X53109Y512135
X53109Y492435
T10
X29915Y16945
X29915Y591748
X29915Y1166551
X1014167Y591748
X1022041Y1166551
X1022041Y16945
M30
