G75*
%MOIN*%
%OFA0B0*%
%FSLAX25Y25*%
%IPPOS*%
%LPD*%
%AMOC8*
5,1,8,0,0,1.08239X$1,22.5*
%
%ADD10C,0.00000*%
%ADD11C,0.00039*%
D10*
X0014167Y0001197D02*
X0014167Y1182299D01*
X0023616Y1166551D02*
X0023618Y1166709D01*
X0023624Y1166867D01*
X0023634Y1167025D01*
X0023648Y1167183D01*
X0023666Y1167340D01*
X0023687Y1167497D01*
X0023713Y1167653D01*
X0023743Y1167809D01*
X0023776Y1167964D01*
X0023814Y1168117D01*
X0023855Y1168270D01*
X0023900Y1168422D01*
X0023949Y1168573D01*
X0024002Y1168722D01*
X0024058Y1168870D01*
X0024118Y1169016D01*
X0024182Y1169161D01*
X0024250Y1169304D01*
X0024321Y1169446D01*
X0024395Y1169586D01*
X0024473Y1169723D01*
X0024555Y1169859D01*
X0024639Y1169993D01*
X0024728Y1170124D01*
X0024819Y1170253D01*
X0024914Y1170380D01*
X0025011Y1170505D01*
X0025112Y1170627D01*
X0025216Y1170746D01*
X0025323Y1170863D01*
X0025433Y1170977D01*
X0025546Y1171088D01*
X0025661Y1171197D01*
X0025779Y1171302D01*
X0025900Y1171404D01*
X0026023Y1171504D01*
X0026149Y1171600D01*
X0026277Y1171693D01*
X0026407Y1171783D01*
X0026540Y1171869D01*
X0026675Y1171953D01*
X0026811Y1172032D01*
X0026950Y1172109D01*
X0027091Y1172181D01*
X0027233Y1172251D01*
X0027377Y1172316D01*
X0027523Y1172378D01*
X0027670Y1172436D01*
X0027819Y1172491D01*
X0027969Y1172542D01*
X0028120Y1172589D01*
X0028272Y1172632D01*
X0028425Y1172671D01*
X0028580Y1172707D01*
X0028735Y1172738D01*
X0028891Y1172766D01*
X0029047Y1172790D01*
X0029204Y1172810D01*
X0029362Y1172826D01*
X0029519Y1172838D01*
X0029678Y1172846D01*
X0029836Y1172850D01*
X0029994Y1172850D01*
X0030152Y1172846D01*
X0030311Y1172838D01*
X0030468Y1172826D01*
X0030626Y1172810D01*
X0030783Y1172790D01*
X0030939Y1172766D01*
X0031095Y1172738D01*
X0031250Y1172707D01*
X0031405Y1172671D01*
X0031558Y1172632D01*
X0031710Y1172589D01*
X0031861Y1172542D01*
X0032011Y1172491D01*
X0032160Y1172436D01*
X0032307Y1172378D01*
X0032453Y1172316D01*
X0032597Y1172251D01*
X0032739Y1172181D01*
X0032880Y1172109D01*
X0033019Y1172032D01*
X0033155Y1171953D01*
X0033290Y1171869D01*
X0033423Y1171783D01*
X0033553Y1171693D01*
X0033681Y1171600D01*
X0033807Y1171504D01*
X0033930Y1171404D01*
X0034051Y1171302D01*
X0034169Y1171197D01*
X0034284Y1171088D01*
X0034397Y1170977D01*
X0034507Y1170863D01*
X0034614Y1170746D01*
X0034718Y1170627D01*
X0034819Y1170505D01*
X0034916Y1170380D01*
X0035011Y1170253D01*
X0035102Y1170124D01*
X0035191Y1169993D01*
X0035275Y1169859D01*
X0035357Y1169723D01*
X0035435Y1169586D01*
X0035509Y1169446D01*
X0035580Y1169304D01*
X0035648Y1169161D01*
X0035712Y1169016D01*
X0035772Y1168870D01*
X0035828Y1168722D01*
X0035881Y1168573D01*
X0035930Y1168422D01*
X0035975Y1168270D01*
X0036016Y1168117D01*
X0036054Y1167964D01*
X0036087Y1167809D01*
X0036117Y1167653D01*
X0036143Y1167497D01*
X0036164Y1167340D01*
X0036182Y1167183D01*
X0036196Y1167025D01*
X0036206Y1166867D01*
X0036212Y1166709D01*
X0036214Y1166551D01*
X0036212Y1166393D01*
X0036206Y1166235D01*
X0036196Y1166077D01*
X0036182Y1165919D01*
X0036164Y1165762D01*
X0036143Y1165605D01*
X0036117Y1165449D01*
X0036087Y1165293D01*
X0036054Y1165138D01*
X0036016Y1164985D01*
X0035975Y1164832D01*
X0035930Y1164680D01*
X0035881Y1164529D01*
X0035828Y1164380D01*
X0035772Y1164232D01*
X0035712Y1164086D01*
X0035648Y1163941D01*
X0035580Y1163798D01*
X0035509Y1163656D01*
X0035435Y1163516D01*
X0035357Y1163379D01*
X0035275Y1163243D01*
X0035191Y1163109D01*
X0035102Y1162978D01*
X0035011Y1162849D01*
X0034916Y1162722D01*
X0034819Y1162597D01*
X0034718Y1162475D01*
X0034614Y1162356D01*
X0034507Y1162239D01*
X0034397Y1162125D01*
X0034284Y1162014D01*
X0034169Y1161905D01*
X0034051Y1161800D01*
X0033930Y1161698D01*
X0033807Y1161598D01*
X0033681Y1161502D01*
X0033553Y1161409D01*
X0033423Y1161319D01*
X0033290Y1161233D01*
X0033155Y1161149D01*
X0033019Y1161070D01*
X0032880Y1160993D01*
X0032739Y1160921D01*
X0032597Y1160851D01*
X0032453Y1160786D01*
X0032307Y1160724D01*
X0032160Y1160666D01*
X0032011Y1160611D01*
X0031861Y1160560D01*
X0031710Y1160513D01*
X0031558Y1160470D01*
X0031405Y1160431D01*
X0031250Y1160395D01*
X0031095Y1160364D01*
X0030939Y1160336D01*
X0030783Y1160312D01*
X0030626Y1160292D01*
X0030468Y1160276D01*
X0030311Y1160264D01*
X0030152Y1160256D01*
X0029994Y1160252D01*
X0029836Y1160252D01*
X0029678Y1160256D01*
X0029519Y1160264D01*
X0029362Y1160276D01*
X0029204Y1160292D01*
X0029047Y1160312D01*
X0028891Y1160336D01*
X0028735Y1160364D01*
X0028580Y1160395D01*
X0028425Y1160431D01*
X0028272Y1160470D01*
X0028120Y1160513D01*
X0027969Y1160560D01*
X0027819Y1160611D01*
X0027670Y1160666D01*
X0027523Y1160724D01*
X0027377Y1160786D01*
X0027233Y1160851D01*
X0027091Y1160921D01*
X0026950Y1160993D01*
X0026811Y1161070D01*
X0026675Y1161149D01*
X0026540Y1161233D01*
X0026407Y1161319D01*
X0026277Y1161409D01*
X0026149Y1161502D01*
X0026023Y1161598D01*
X0025900Y1161698D01*
X0025779Y1161800D01*
X0025661Y1161905D01*
X0025546Y1162014D01*
X0025433Y1162125D01*
X0025323Y1162239D01*
X0025216Y1162356D01*
X0025112Y1162475D01*
X0025011Y1162597D01*
X0024914Y1162722D01*
X0024819Y1162849D01*
X0024728Y1162978D01*
X0024639Y1163109D01*
X0024555Y1163243D01*
X0024473Y1163379D01*
X0024395Y1163516D01*
X0024321Y1163656D01*
X0024250Y1163798D01*
X0024182Y1163941D01*
X0024118Y1164086D01*
X0024058Y1164232D01*
X0024002Y1164380D01*
X0023949Y1164529D01*
X0023900Y1164680D01*
X0023855Y1164832D01*
X0023814Y1164985D01*
X0023776Y1165138D01*
X0023743Y1165293D01*
X0023713Y1165449D01*
X0023687Y1165605D01*
X0023666Y1165762D01*
X0023648Y1165919D01*
X0023634Y1166077D01*
X0023624Y1166235D01*
X0023618Y1166393D01*
X0023616Y1166551D01*
X0023616Y0591748D02*
X0023618Y0591906D01*
X0023624Y0592064D01*
X0023634Y0592222D01*
X0023648Y0592380D01*
X0023666Y0592537D01*
X0023687Y0592694D01*
X0023713Y0592850D01*
X0023743Y0593006D01*
X0023776Y0593161D01*
X0023814Y0593314D01*
X0023855Y0593467D01*
X0023900Y0593619D01*
X0023949Y0593770D01*
X0024002Y0593919D01*
X0024058Y0594067D01*
X0024118Y0594213D01*
X0024182Y0594358D01*
X0024250Y0594501D01*
X0024321Y0594643D01*
X0024395Y0594783D01*
X0024473Y0594920D01*
X0024555Y0595056D01*
X0024639Y0595190D01*
X0024728Y0595321D01*
X0024819Y0595450D01*
X0024914Y0595577D01*
X0025011Y0595702D01*
X0025112Y0595824D01*
X0025216Y0595943D01*
X0025323Y0596060D01*
X0025433Y0596174D01*
X0025546Y0596285D01*
X0025661Y0596394D01*
X0025779Y0596499D01*
X0025900Y0596601D01*
X0026023Y0596701D01*
X0026149Y0596797D01*
X0026277Y0596890D01*
X0026407Y0596980D01*
X0026540Y0597066D01*
X0026675Y0597150D01*
X0026811Y0597229D01*
X0026950Y0597306D01*
X0027091Y0597378D01*
X0027233Y0597448D01*
X0027377Y0597513D01*
X0027523Y0597575D01*
X0027670Y0597633D01*
X0027819Y0597688D01*
X0027969Y0597739D01*
X0028120Y0597786D01*
X0028272Y0597829D01*
X0028425Y0597868D01*
X0028580Y0597904D01*
X0028735Y0597935D01*
X0028891Y0597963D01*
X0029047Y0597987D01*
X0029204Y0598007D01*
X0029362Y0598023D01*
X0029519Y0598035D01*
X0029678Y0598043D01*
X0029836Y0598047D01*
X0029994Y0598047D01*
X0030152Y0598043D01*
X0030311Y0598035D01*
X0030468Y0598023D01*
X0030626Y0598007D01*
X0030783Y0597987D01*
X0030939Y0597963D01*
X0031095Y0597935D01*
X0031250Y0597904D01*
X0031405Y0597868D01*
X0031558Y0597829D01*
X0031710Y0597786D01*
X0031861Y0597739D01*
X0032011Y0597688D01*
X0032160Y0597633D01*
X0032307Y0597575D01*
X0032453Y0597513D01*
X0032597Y0597448D01*
X0032739Y0597378D01*
X0032880Y0597306D01*
X0033019Y0597229D01*
X0033155Y0597150D01*
X0033290Y0597066D01*
X0033423Y0596980D01*
X0033553Y0596890D01*
X0033681Y0596797D01*
X0033807Y0596701D01*
X0033930Y0596601D01*
X0034051Y0596499D01*
X0034169Y0596394D01*
X0034284Y0596285D01*
X0034397Y0596174D01*
X0034507Y0596060D01*
X0034614Y0595943D01*
X0034718Y0595824D01*
X0034819Y0595702D01*
X0034916Y0595577D01*
X0035011Y0595450D01*
X0035102Y0595321D01*
X0035191Y0595190D01*
X0035275Y0595056D01*
X0035357Y0594920D01*
X0035435Y0594783D01*
X0035509Y0594643D01*
X0035580Y0594501D01*
X0035648Y0594358D01*
X0035712Y0594213D01*
X0035772Y0594067D01*
X0035828Y0593919D01*
X0035881Y0593770D01*
X0035930Y0593619D01*
X0035975Y0593467D01*
X0036016Y0593314D01*
X0036054Y0593161D01*
X0036087Y0593006D01*
X0036117Y0592850D01*
X0036143Y0592694D01*
X0036164Y0592537D01*
X0036182Y0592380D01*
X0036196Y0592222D01*
X0036206Y0592064D01*
X0036212Y0591906D01*
X0036214Y0591748D01*
X0036212Y0591590D01*
X0036206Y0591432D01*
X0036196Y0591274D01*
X0036182Y0591116D01*
X0036164Y0590959D01*
X0036143Y0590802D01*
X0036117Y0590646D01*
X0036087Y0590490D01*
X0036054Y0590335D01*
X0036016Y0590182D01*
X0035975Y0590029D01*
X0035930Y0589877D01*
X0035881Y0589726D01*
X0035828Y0589577D01*
X0035772Y0589429D01*
X0035712Y0589283D01*
X0035648Y0589138D01*
X0035580Y0588995D01*
X0035509Y0588853D01*
X0035435Y0588713D01*
X0035357Y0588576D01*
X0035275Y0588440D01*
X0035191Y0588306D01*
X0035102Y0588175D01*
X0035011Y0588046D01*
X0034916Y0587919D01*
X0034819Y0587794D01*
X0034718Y0587672D01*
X0034614Y0587553D01*
X0034507Y0587436D01*
X0034397Y0587322D01*
X0034284Y0587211D01*
X0034169Y0587102D01*
X0034051Y0586997D01*
X0033930Y0586895D01*
X0033807Y0586795D01*
X0033681Y0586699D01*
X0033553Y0586606D01*
X0033423Y0586516D01*
X0033290Y0586430D01*
X0033155Y0586346D01*
X0033019Y0586267D01*
X0032880Y0586190D01*
X0032739Y0586118D01*
X0032597Y0586048D01*
X0032453Y0585983D01*
X0032307Y0585921D01*
X0032160Y0585863D01*
X0032011Y0585808D01*
X0031861Y0585757D01*
X0031710Y0585710D01*
X0031558Y0585667D01*
X0031405Y0585628D01*
X0031250Y0585592D01*
X0031095Y0585561D01*
X0030939Y0585533D01*
X0030783Y0585509D01*
X0030626Y0585489D01*
X0030468Y0585473D01*
X0030311Y0585461D01*
X0030152Y0585453D01*
X0029994Y0585449D01*
X0029836Y0585449D01*
X0029678Y0585453D01*
X0029519Y0585461D01*
X0029362Y0585473D01*
X0029204Y0585489D01*
X0029047Y0585509D01*
X0028891Y0585533D01*
X0028735Y0585561D01*
X0028580Y0585592D01*
X0028425Y0585628D01*
X0028272Y0585667D01*
X0028120Y0585710D01*
X0027969Y0585757D01*
X0027819Y0585808D01*
X0027670Y0585863D01*
X0027523Y0585921D01*
X0027377Y0585983D01*
X0027233Y0586048D01*
X0027091Y0586118D01*
X0026950Y0586190D01*
X0026811Y0586267D01*
X0026675Y0586346D01*
X0026540Y0586430D01*
X0026407Y0586516D01*
X0026277Y0586606D01*
X0026149Y0586699D01*
X0026023Y0586795D01*
X0025900Y0586895D01*
X0025779Y0586997D01*
X0025661Y0587102D01*
X0025546Y0587211D01*
X0025433Y0587322D01*
X0025323Y0587436D01*
X0025216Y0587553D01*
X0025112Y0587672D01*
X0025011Y0587794D01*
X0024914Y0587919D01*
X0024819Y0588046D01*
X0024728Y0588175D01*
X0024639Y0588306D01*
X0024555Y0588440D01*
X0024473Y0588576D01*
X0024395Y0588713D01*
X0024321Y0588853D01*
X0024250Y0588995D01*
X0024182Y0589138D01*
X0024118Y0589283D01*
X0024058Y0589429D01*
X0024002Y0589577D01*
X0023949Y0589726D01*
X0023900Y0589877D01*
X0023855Y0590029D01*
X0023814Y0590182D01*
X0023776Y0590335D01*
X0023743Y0590490D01*
X0023713Y0590646D01*
X0023687Y0590802D01*
X0023666Y0590959D01*
X0023648Y0591116D01*
X0023634Y0591274D01*
X0023624Y0591432D01*
X0023618Y0591590D01*
X0023616Y0591748D01*
X0023616Y0016945D02*
X0023618Y0017103D01*
X0023624Y0017261D01*
X0023634Y0017419D01*
X0023648Y0017577D01*
X0023666Y0017734D01*
X0023687Y0017891D01*
X0023713Y0018047D01*
X0023743Y0018203D01*
X0023776Y0018358D01*
X0023814Y0018511D01*
X0023855Y0018664D01*
X0023900Y0018816D01*
X0023949Y0018967D01*
X0024002Y0019116D01*
X0024058Y0019264D01*
X0024118Y0019410D01*
X0024182Y0019555D01*
X0024250Y0019698D01*
X0024321Y0019840D01*
X0024395Y0019980D01*
X0024473Y0020117D01*
X0024555Y0020253D01*
X0024639Y0020387D01*
X0024728Y0020518D01*
X0024819Y0020647D01*
X0024914Y0020774D01*
X0025011Y0020899D01*
X0025112Y0021021D01*
X0025216Y0021140D01*
X0025323Y0021257D01*
X0025433Y0021371D01*
X0025546Y0021482D01*
X0025661Y0021591D01*
X0025779Y0021696D01*
X0025900Y0021798D01*
X0026023Y0021898D01*
X0026149Y0021994D01*
X0026277Y0022087D01*
X0026407Y0022177D01*
X0026540Y0022263D01*
X0026675Y0022347D01*
X0026811Y0022426D01*
X0026950Y0022503D01*
X0027091Y0022575D01*
X0027233Y0022645D01*
X0027377Y0022710D01*
X0027523Y0022772D01*
X0027670Y0022830D01*
X0027819Y0022885D01*
X0027969Y0022936D01*
X0028120Y0022983D01*
X0028272Y0023026D01*
X0028425Y0023065D01*
X0028580Y0023101D01*
X0028735Y0023132D01*
X0028891Y0023160D01*
X0029047Y0023184D01*
X0029204Y0023204D01*
X0029362Y0023220D01*
X0029519Y0023232D01*
X0029678Y0023240D01*
X0029836Y0023244D01*
X0029994Y0023244D01*
X0030152Y0023240D01*
X0030311Y0023232D01*
X0030468Y0023220D01*
X0030626Y0023204D01*
X0030783Y0023184D01*
X0030939Y0023160D01*
X0031095Y0023132D01*
X0031250Y0023101D01*
X0031405Y0023065D01*
X0031558Y0023026D01*
X0031710Y0022983D01*
X0031861Y0022936D01*
X0032011Y0022885D01*
X0032160Y0022830D01*
X0032307Y0022772D01*
X0032453Y0022710D01*
X0032597Y0022645D01*
X0032739Y0022575D01*
X0032880Y0022503D01*
X0033019Y0022426D01*
X0033155Y0022347D01*
X0033290Y0022263D01*
X0033423Y0022177D01*
X0033553Y0022087D01*
X0033681Y0021994D01*
X0033807Y0021898D01*
X0033930Y0021798D01*
X0034051Y0021696D01*
X0034169Y0021591D01*
X0034284Y0021482D01*
X0034397Y0021371D01*
X0034507Y0021257D01*
X0034614Y0021140D01*
X0034718Y0021021D01*
X0034819Y0020899D01*
X0034916Y0020774D01*
X0035011Y0020647D01*
X0035102Y0020518D01*
X0035191Y0020387D01*
X0035275Y0020253D01*
X0035357Y0020117D01*
X0035435Y0019980D01*
X0035509Y0019840D01*
X0035580Y0019698D01*
X0035648Y0019555D01*
X0035712Y0019410D01*
X0035772Y0019264D01*
X0035828Y0019116D01*
X0035881Y0018967D01*
X0035930Y0018816D01*
X0035975Y0018664D01*
X0036016Y0018511D01*
X0036054Y0018358D01*
X0036087Y0018203D01*
X0036117Y0018047D01*
X0036143Y0017891D01*
X0036164Y0017734D01*
X0036182Y0017577D01*
X0036196Y0017419D01*
X0036206Y0017261D01*
X0036212Y0017103D01*
X0036214Y0016945D01*
X0036212Y0016787D01*
X0036206Y0016629D01*
X0036196Y0016471D01*
X0036182Y0016313D01*
X0036164Y0016156D01*
X0036143Y0015999D01*
X0036117Y0015843D01*
X0036087Y0015687D01*
X0036054Y0015532D01*
X0036016Y0015379D01*
X0035975Y0015226D01*
X0035930Y0015074D01*
X0035881Y0014923D01*
X0035828Y0014774D01*
X0035772Y0014626D01*
X0035712Y0014480D01*
X0035648Y0014335D01*
X0035580Y0014192D01*
X0035509Y0014050D01*
X0035435Y0013910D01*
X0035357Y0013773D01*
X0035275Y0013637D01*
X0035191Y0013503D01*
X0035102Y0013372D01*
X0035011Y0013243D01*
X0034916Y0013116D01*
X0034819Y0012991D01*
X0034718Y0012869D01*
X0034614Y0012750D01*
X0034507Y0012633D01*
X0034397Y0012519D01*
X0034284Y0012408D01*
X0034169Y0012299D01*
X0034051Y0012194D01*
X0033930Y0012092D01*
X0033807Y0011992D01*
X0033681Y0011896D01*
X0033553Y0011803D01*
X0033423Y0011713D01*
X0033290Y0011627D01*
X0033155Y0011543D01*
X0033019Y0011464D01*
X0032880Y0011387D01*
X0032739Y0011315D01*
X0032597Y0011245D01*
X0032453Y0011180D01*
X0032307Y0011118D01*
X0032160Y0011060D01*
X0032011Y0011005D01*
X0031861Y0010954D01*
X0031710Y0010907D01*
X0031558Y0010864D01*
X0031405Y0010825D01*
X0031250Y0010789D01*
X0031095Y0010758D01*
X0030939Y0010730D01*
X0030783Y0010706D01*
X0030626Y0010686D01*
X0030468Y0010670D01*
X0030311Y0010658D01*
X0030152Y0010650D01*
X0029994Y0010646D01*
X0029836Y0010646D01*
X0029678Y0010650D01*
X0029519Y0010658D01*
X0029362Y0010670D01*
X0029204Y0010686D01*
X0029047Y0010706D01*
X0028891Y0010730D01*
X0028735Y0010758D01*
X0028580Y0010789D01*
X0028425Y0010825D01*
X0028272Y0010864D01*
X0028120Y0010907D01*
X0027969Y0010954D01*
X0027819Y0011005D01*
X0027670Y0011060D01*
X0027523Y0011118D01*
X0027377Y0011180D01*
X0027233Y0011245D01*
X0027091Y0011315D01*
X0026950Y0011387D01*
X0026811Y0011464D01*
X0026675Y0011543D01*
X0026540Y0011627D01*
X0026407Y0011713D01*
X0026277Y0011803D01*
X0026149Y0011896D01*
X0026023Y0011992D01*
X0025900Y0012092D01*
X0025779Y0012194D01*
X0025661Y0012299D01*
X0025546Y0012408D01*
X0025433Y0012519D01*
X0025323Y0012633D01*
X0025216Y0012750D01*
X0025112Y0012869D01*
X0025011Y0012991D01*
X0024914Y0013116D01*
X0024819Y0013243D01*
X0024728Y0013372D01*
X0024639Y0013503D01*
X0024555Y0013637D01*
X0024473Y0013773D01*
X0024395Y0013910D01*
X0024321Y0014050D01*
X0024250Y0014192D01*
X0024182Y0014335D01*
X0024118Y0014480D01*
X0024058Y0014626D01*
X0024002Y0014774D01*
X0023949Y0014923D01*
X0023900Y0015074D01*
X0023855Y0015226D01*
X0023814Y0015379D01*
X0023776Y0015532D01*
X0023743Y0015687D01*
X0023713Y0015843D01*
X0023687Y0015999D01*
X0023666Y0016156D01*
X0023648Y0016313D01*
X0023634Y0016471D01*
X0023624Y0016629D01*
X0023618Y0016787D01*
X0023616Y0016945D01*
X0014167Y0001197D02*
X1037789Y0001197D01*
X1037789Y1182299D01*
X1015742Y1166551D02*
X1015744Y1166709D01*
X1015750Y1166867D01*
X1015760Y1167025D01*
X1015774Y1167183D01*
X1015792Y1167340D01*
X1015813Y1167497D01*
X1015839Y1167653D01*
X1015869Y1167809D01*
X1015902Y1167964D01*
X1015940Y1168117D01*
X1015981Y1168270D01*
X1016026Y1168422D01*
X1016075Y1168573D01*
X1016128Y1168722D01*
X1016184Y1168870D01*
X1016244Y1169016D01*
X1016308Y1169161D01*
X1016376Y1169304D01*
X1016447Y1169446D01*
X1016521Y1169586D01*
X1016599Y1169723D01*
X1016681Y1169859D01*
X1016765Y1169993D01*
X1016854Y1170124D01*
X1016945Y1170253D01*
X1017040Y1170380D01*
X1017137Y1170505D01*
X1017238Y1170627D01*
X1017342Y1170746D01*
X1017449Y1170863D01*
X1017559Y1170977D01*
X1017672Y1171088D01*
X1017787Y1171197D01*
X1017905Y1171302D01*
X1018026Y1171404D01*
X1018149Y1171504D01*
X1018275Y1171600D01*
X1018403Y1171693D01*
X1018533Y1171783D01*
X1018666Y1171869D01*
X1018801Y1171953D01*
X1018937Y1172032D01*
X1019076Y1172109D01*
X1019217Y1172181D01*
X1019359Y1172251D01*
X1019503Y1172316D01*
X1019649Y1172378D01*
X1019796Y1172436D01*
X1019945Y1172491D01*
X1020095Y1172542D01*
X1020246Y1172589D01*
X1020398Y1172632D01*
X1020551Y1172671D01*
X1020706Y1172707D01*
X1020861Y1172738D01*
X1021017Y1172766D01*
X1021173Y1172790D01*
X1021330Y1172810D01*
X1021488Y1172826D01*
X1021645Y1172838D01*
X1021804Y1172846D01*
X1021962Y1172850D01*
X1022120Y1172850D01*
X1022278Y1172846D01*
X1022437Y1172838D01*
X1022594Y1172826D01*
X1022752Y1172810D01*
X1022909Y1172790D01*
X1023065Y1172766D01*
X1023221Y1172738D01*
X1023376Y1172707D01*
X1023531Y1172671D01*
X1023684Y1172632D01*
X1023836Y1172589D01*
X1023987Y1172542D01*
X1024137Y1172491D01*
X1024286Y1172436D01*
X1024433Y1172378D01*
X1024579Y1172316D01*
X1024723Y1172251D01*
X1024865Y1172181D01*
X1025006Y1172109D01*
X1025145Y1172032D01*
X1025281Y1171953D01*
X1025416Y1171869D01*
X1025549Y1171783D01*
X1025679Y1171693D01*
X1025807Y1171600D01*
X1025933Y1171504D01*
X1026056Y1171404D01*
X1026177Y1171302D01*
X1026295Y1171197D01*
X1026410Y1171088D01*
X1026523Y1170977D01*
X1026633Y1170863D01*
X1026740Y1170746D01*
X1026844Y1170627D01*
X1026945Y1170505D01*
X1027042Y1170380D01*
X1027137Y1170253D01*
X1027228Y1170124D01*
X1027317Y1169993D01*
X1027401Y1169859D01*
X1027483Y1169723D01*
X1027561Y1169586D01*
X1027635Y1169446D01*
X1027706Y1169304D01*
X1027774Y1169161D01*
X1027838Y1169016D01*
X1027898Y1168870D01*
X1027954Y1168722D01*
X1028007Y1168573D01*
X1028056Y1168422D01*
X1028101Y1168270D01*
X1028142Y1168117D01*
X1028180Y1167964D01*
X1028213Y1167809D01*
X1028243Y1167653D01*
X1028269Y1167497D01*
X1028290Y1167340D01*
X1028308Y1167183D01*
X1028322Y1167025D01*
X1028332Y1166867D01*
X1028338Y1166709D01*
X1028340Y1166551D01*
X1028338Y1166393D01*
X1028332Y1166235D01*
X1028322Y1166077D01*
X1028308Y1165919D01*
X1028290Y1165762D01*
X1028269Y1165605D01*
X1028243Y1165449D01*
X1028213Y1165293D01*
X1028180Y1165138D01*
X1028142Y1164985D01*
X1028101Y1164832D01*
X1028056Y1164680D01*
X1028007Y1164529D01*
X1027954Y1164380D01*
X1027898Y1164232D01*
X1027838Y1164086D01*
X1027774Y1163941D01*
X1027706Y1163798D01*
X1027635Y1163656D01*
X1027561Y1163516D01*
X1027483Y1163379D01*
X1027401Y1163243D01*
X1027317Y1163109D01*
X1027228Y1162978D01*
X1027137Y1162849D01*
X1027042Y1162722D01*
X1026945Y1162597D01*
X1026844Y1162475D01*
X1026740Y1162356D01*
X1026633Y1162239D01*
X1026523Y1162125D01*
X1026410Y1162014D01*
X1026295Y1161905D01*
X1026177Y1161800D01*
X1026056Y1161698D01*
X1025933Y1161598D01*
X1025807Y1161502D01*
X1025679Y1161409D01*
X1025549Y1161319D01*
X1025416Y1161233D01*
X1025281Y1161149D01*
X1025145Y1161070D01*
X1025006Y1160993D01*
X1024865Y1160921D01*
X1024723Y1160851D01*
X1024579Y1160786D01*
X1024433Y1160724D01*
X1024286Y1160666D01*
X1024137Y1160611D01*
X1023987Y1160560D01*
X1023836Y1160513D01*
X1023684Y1160470D01*
X1023531Y1160431D01*
X1023376Y1160395D01*
X1023221Y1160364D01*
X1023065Y1160336D01*
X1022909Y1160312D01*
X1022752Y1160292D01*
X1022594Y1160276D01*
X1022437Y1160264D01*
X1022278Y1160256D01*
X1022120Y1160252D01*
X1021962Y1160252D01*
X1021804Y1160256D01*
X1021645Y1160264D01*
X1021488Y1160276D01*
X1021330Y1160292D01*
X1021173Y1160312D01*
X1021017Y1160336D01*
X1020861Y1160364D01*
X1020706Y1160395D01*
X1020551Y1160431D01*
X1020398Y1160470D01*
X1020246Y1160513D01*
X1020095Y1160560D01*
X1019945Y1160611D01*
X1019796Y1160666D01*
X1019649Y1160724D01*
X1019503Y1160786D01*
X1019359Y1160851D01*
X1019217Y1160921D01*
X1019076Y1160993D01*
X1018937Y1161070D01*
X1018801Y1161149D01*
X1018666Y1161233D01*
X1018533Y1161319D01*
X1018403Y1161409D01*
X1018275Y1161502D01*
X1018149Y1161598D01*
X1018026Y1161698D01*
X1017905Y1161800D01*
X1017787Y1161905D01*
X1017672Y1162014D01*
X1017559Y1162125D01*
X1017449Y1162239D01*
X1017342Y1162356D01*
X1017238Y1162475D01*
X1017137Y1162597D01*
X1017040Y1162722D01*
X1016945Y1162849D01*
X1016854Y1162978D01*
X1016765Y1163109D01*
X1016681Y1163243D01*
X1016599Y1163379D01*
X1016521Y1163516D01*
X1016447Y1163656D01*
X1016376Y1163798D01*
X1016308Y1163941D01*
X1016244Y1164086D01*
X1016184Y1164232D01*
X1016128Y1164380D01*
X1016075Y1164529D01*
X1016026Y1164680D01*
X1015981Y1164832D01*
X1015940Y1164985D01*
X1015902Y1165138D01*
X1015869Y1165293D01*
X1015839Y1165449D01*
X1015813Y1165605D01*
X1015792Y1165762D01*
X1015774Y1165919D01*
X1015760Y1166077D01*
X1015750Y1166235D01*
X1015744Y1166393D01*
X1015742Y1166551D01*
X1007868Y0591748D02*
X1007870Y0591906D01*
X1007876Y0592064D01*
X1007886Y0592222D01*
X1007900Y0592380D01*
X1007918Y0592537D01*
X1007939Y0592694D01*
X1007965Y0592850D01*
X1007995Y0593006D01*
X1008028Y0593161D01*
X1008066Y0593314D01*
X1008107Y0593467D01*
X1008152Y0593619D01*
X1008201Y0593770D01*
X1008254Y0593919D01*
X1008310Y0594067D01*
X1008370Y0594213D01*
X1008434Y0594358D01*
X1008502Y0594501D01*
X1008573Y0594643D01*
X1008647Y0594783D01*
X1008725Y0594920D01*
X1008807Y0595056D01*
X1008891Y0595190D01*
X1008980Y0595321D01*
X1009071Y0595450D01*
X1009166Y0595577D01*
X1009263Y0595702D01*
X1009364Y0595824D01*
X1009468Y0595943D01*
X1009575Y0596060D01*
X1009685Y0596174D01*
X1009798Y0596285D01*
X1009913Y0596394D01*
X1010031Y0596499D01*
X1010152Y0596601D01*
X1010275Y0596701D01*
X1010401Y0596797D01*
X1010529Y0596890D01*
X1010659Y0596980D01*
X1010792Y0597066D01*
X1010927Y0597150D01*
X1011063Y0597229D01*
X1011202Y0597306D01*
X1011343Y0597378D01*
X1011485Y0597448D01*
X1011629Y0597513D01*
X1011775Y0597575D01*
X1011922Y0597633D01*
X1012071Y0597688D01*
X1012221Y0597739D01*
X1012372Y0597786D01*
X1012524Y0597829D01*
X1012677Y0597868D01*
X1012832Y0597904D01*
X1012987Y0597935D01*
X1013143Y0597963D01*
X1013299Y0597987D01*
X1013456Y0598007D01*
X1013614Y0598023D01*
X1013771Y0598035D01*
X1013930Y0598043D01*
X1014088Y0598047D01*
X1014246Y0598047D01*
X1014404Y0598043D01*
X1014563Y0598035D01*
X1014720Y0598023D01*
X1014878Y0598007D01*
X1015035Y0597987D01*
X1015191Y0597963D01*
X1015347Y0597935D01*
X1015502Y0597904D01*
X1015657Y0597868D01*
X1015810Y0597829D01*
X1015962Y0597786D01*
X1016113Y0597739D01*
X1016263Y0597688D01*
X1016412Y0597633D01*
X1016559Y0597575D01*
X1016705Y0597513D01*
X1016849Y0597448D01*
X1016991Y0597378D01*
X1017132Y0597306D01*
X1017271Y0597229D01*
X1017407Y0597150D01*
X1017542Y0597066D01*
X1017675Y0596980D01*
X1017805Y0596890D01*
X1017933Y0596797D01*
X1018059Y0596701D01*
X1018182Y0596601D01*
X1018303Y0596499D01*
X1018421Y0596394D01*
X1018536Y0596285D01*
X1018649Y0596174D01*
X1018759Y0596060D01*
X1018866Y0595943D01*
X1018970Y0595824D01*
X1019071Y0595702D01*
X1019168Y0595577D01*
X1019263Y0595450D01*
X1019354Y0595321D01*
X1019443Y0595190D01*
X1019527Y0595056D01*
X1019609Y0594920D01*
X1019687Y0594783D01*
X1019761Y0594643D01*
X1019832Y0594501D01*
X1019900Y0594358D01*
X1019964Y0594213D01*
X1020024Y0594067D01*
X1020080Y0593919D01*
X1020133Y0593770D01*
X1020182Y0593619D01*
X1020227Y0593467D01*
X1020268Y0593314D01*
X1020306Y0593161D01*
X1020339Y0593006D01*
X1020369Y0592850D01*
X1020395Y0592694D01*
X1020416Y0592537D01*
X1020434Y0592380D01*
X1020448Y0592222D01*
X1020458Y0592064D01*
X1020464Y0591906D01*
X1020466Y0591748D01*
X1020464Y0591590D01*
X1020458Y0591432D01*
X1020448Y0591274D01*
X1020434Y0591116D01*
X1020416Y0590959D01*
X1020395Y0590802D01*
X1020369Y0590646D01*
X1020339Y0590490D01*
X1020306Y0590335D01*
X1020268Y0590182D01*
X1020227Y0590029D01*
X1020182Y0589877D01*
X1020133Y0589726D01*
X1020080Y0589577D01*
X1020024Y0589429D01*
X1019964Y0589283D01*
X1019900Y0589138D01*
X1019832Y0588995D01*
X1019761Y0588853D01*
X1019687Y0588713D01*
X1019609Y0588576D01*
X1019527Y0588440D01*
X1019443Y0588306D01*
X1019354Y0588175D01*
X1019263Y0588046D01*
X1019168Y0587919D01*
X1019071Y0587794D01*
X1018970Y0587672D01*
X1018866Y0587553D01*
X1018759Y0587436D01*
X1018649Y0587322D01*
X1018536Y0587211D01*
X1018421Y0587102D01*
X1018303Y0586997D01*
X1018182Y0586895D01*
X1018059Y0586795D01*
X1017933Y0586699D01*
X1017805Y0586606D01*
X1017675Y0586516D01*
X1017542Y0586430D01*
X1017407Y0586346D01*
X1017271Y0586267D01*
X1017132Y0586190D01*
X1016991Y0586118D01*
X1016849Y0586048D01*
X1016705Y0585983D01*
X1016559Y0585921D01*
X1016412Y0585863D01*
X1016263Y0585808D01*
X1016113Y0585757D01*
X1015962Y0585710D01*
X1015810Y0585667D01*
X1015657Y0585628D01*
X1015502Y0585592D01*
X1015347Y0585561D01*
X1015191Y0585533D01*
X1015035Y0585509D01*
X1014878Y0585489D01*
X1014720Y0585473D01*
X1014563Y0585461D01*
X1014404Y0585453D01*
X1014246Y0585449D01*
X1014088Y0585449D01*
X1013930Y0585453D01*
X1013771Y0585461D01*
X1013614Y0585473D01*
X1013456Y0585489D01*
X1013299Y0585509D01*
X1013143Y0585533D01*
X1012987Y0585561D01*
X1012832Y0585592D01*
X1012677Y0585628D01*
X1012524Y0585667D01*
X1012372Y0585710D01*
X1012221Y0585757D01*
X1012071Y0585808D01*
X1011922Y0585863D01*
X1011775Y0585921D01*
X1011629Y0585983D01*
X1011485Y0586048D01*
X1011343Y0586118D01*
X1011202Y0586190D01*
X1011063Y0586267D01*
X1010927Y0586346D01*
X1010792Y0586430D01*
X1010659Y0586516D01*
X1010529Y0586606D01*
X1010401Y0586699D01*
X1010275Y0586795D01*
X1010152Y0586895D01*
X1010031Y0586997D01*
X1009913Y0587102D01*
X1009798Y0587211D01*
X1009685Y0587322D01*
X1009575Y0587436D01*
X1009468Y0587553D01*
X1009364Y0587672D01*
X1009263Y0587794D01*
X1009166Y0587919D01*
X1009071Y0588046D01*
X1008980Y0588175D01*
X1008891Y0588306D01*
X1008807Y0588440D01*
X1008725Y0588576D01*
X1008647Y0588713D01*
X1008573Y0588853D01*
X1008502Y0588995D01*
X1008434Y0589138D01*
X1008370Y0589283D01*
X1008310Y0589429D01*
X1008254Y0589577D01*
X1008201Y0589726D01*
X1008152Y0589877D01*
X1008107Y0590029D01*
X1008066Y0590182D01*
X1008028Y0590335D01*
X1007995Y0590490D01*
X1007965Y0590646D01*
X1007939Y0590802D01*
X1007918Y0590959D01*
X1007900Y0591116D01*
X1007886Y0591274D01*
X1007876Y0591432D01*
X1007870Y0591590D01*
X1007868Y0591748D01*
X1015742Y0016945D02*
X1015744Y0017103D01*
X1015750Y0017261D01*
X1015760Y0017419D01*
X1015774Y0017577D01*
X1015792Y0017734D01*
X1015813Y0017891D01*
X1015839Y0018047D01*
X1015869Y0018203D01*
X1015902Y0018358D01*
X1015940Y0018511D01*
X1015981Y0018664D01*
X1016026Y0018816D01*
X1016075Y0018967D01*
X1016128Y0019116D01*
X1016184Y0019264D01*
X1016244Y0019410D01*
X1016308Y0019555D01*
X1016376Y0019698D01*
X1016447Y0019840D01*
X1016521Y0019980D01*
X1016599Y0020117D01*
X1016681Y0020253D01*
X1016765Y0020387D01*
X1016854Y0020518D01*
X1016945Y0020647D01*
X1017040Y0020774D01*
X1017137Y0020899D01*
X1017238Y0021021D01*
X1017342Y0021140D01*
X1017449Y0021257D01*
X1017559Y0021371D01*
X1017672Y0021482D01*
X1017787Y0021591D01*
X1017905Y0021696D01*
X1018026Y0021798D01*
X1018149Y0021898D01*
X1018275Y0021994D01*
X1018403Y0022087D01*
X1018533Y0022177D01*
X1018666Y0022263D01*
X1018801Y0022347D01*
X1018937Y0022426D01*
X1019076Y0022503D01*
X1019217Y0022575D01*
X1019359Y0022645D01*
X1019503Y0022710D01*
X1019649Y0022772D01*
X1019796Y0022830D01*
X1019945Y0022885D01*
X1020095Y0022936D01*
X1020246Y0022983D01*
X1020398Y0023026D01*
X1020551Y0023065D01*
X1020706Y0023101D01*
X1020861Y0023132D01*
X1021017Y0023160D01*
X1021173Y0023184D01*
X1021330Y0023204D01*
X1021488Y0023220D01*
X1021645Y0023232D01*
X1021804Y0023240D01*
X1021962Y0023244D01*
X1022120Y0023244D01*
X1022278Y0023240D01*
X1022437Y0023232D01*
X1022594Y0023220D01*
X1022752Y0023204D01*
X1022909Y0023184D01*
X1023065Y0023160D01*
X1023221Y0023132D01*
X1023376Y0023101D01*
X1023531Y0023065D01*
X1023684Y0023026D01*
X1023836Y0022983D01*
X1023987Y0022936D01*
X1024137Y0022885D01*
X1024286Y0022830D01*
X1024433Y0022772D01*
X1024579Y0022710D01*
X1024723Y0022645D01*
X1024865Y0022575D01*
X1025006Y0022503D01*
X1025145Y0022426D01*
X1025281Y0022347D01*
X1025416Y0022263D01*
X1025549Y0022177D01*
X1025679Y0022087D01*
X1025807Y0021994D01*
X1025933Y0021898D01*
X1026056Y0021798D01*
X1026177Y0021696D01*
X1026295Y0021591D01*
X1026410Y0021482D01*
X1026523Y0021371D01*
X1026633Y0021257D01*
X1026740Y0021140D01*
X1026844Y0021021D01*
X1026945Y0020899D01*
X1027042Y0020774D01*
X1027137Y0020647D01*
X1027228Y0020518D01*
X1027317Y0020387D01*
X1027401Y0020253D01*
X1027483Y0020117D01*
X1027561Y0019980D01*
X1027635Y0019840D01*
X1027706Y0019698D01*
X1027774Y0019555D01*
X1027838Y0019410D01*
X1027898Y0019264D01*
X1027954Y0019116D01*
X1028007Y0018967D01*
X1028056Y0018816D01*
X1028101Y0018664D01*
X1028142Y0018511D01*
X1028180Y0018358D01*
X1028213Y0018203D01*
X1028243Y0018047D01*
X1028269Y0017891D01*
X1028290Y0017734D01*
X1028308Y0017577D01*
X1028322Y0017419D01*
X1028332Y0017261D01*
X1028338Y0017103D01*
X1028340Y0016945D01*
X1028338Y0016787D01*
X1028332Y0016629D01*
X1028322Y0016471D01*
X1028308Y0016313D01*
X1028290Y0016156D01*
X1028269Y0015999D01*
X1028243Y0015843D01*
X1028213Y0015687D01*
X1028180Y0015532D01*
X1028142Y0015379D01*
X1028101Y0015226D01*
X1028056Y0015074D01*
X1028007Y0014923D01*
X1027954Y0014774D01*
X1027898Y0014626D01*
X1027838Y0014480D01*
X1027774Y0014335D01*
X1027706Y0014192D01*
X1027635Y0014050D01*
X1027561Y0013910D01*
X1027483Y0013773D01*
X1027401Y0013637D01*
X1027317Y0013503D01*
X1027228Y0013372D01*
X1027137Y0013243D01*
X1027042Y0013116D01*
X1026945Y0012991D01*
X1026844Y0012869D01*
X1026740Y0012750D01*
X1026633Y0012633D01*
X1026523Y0012519D01*
X1026410Y0012408D01*
X1026295Y0012299D01*
X1026177Y0012194D01*
X1026056Y0012092D01*
X1025933Y0011992D01*
X1025807Y0011896D01*
X1025679Y0011803D01*
X1025549Y0011713D01*
X1025416Y0011627D01*
X1025281Y0011543D01*
X1025145Y0011464D01*
X1025006Y0011387D01*
X1024865Y0011315D01*
X1024723Y0011245D01*
X1024579Y0011180D01*
X1024433Y0011118D01*
X1024286Y0011060D01*
X1024137Y0011005D01*
X1023987Y0010954D01*
X1023836Y0010907D01*
X1023684Y0010864D01*
X1023531Y0010825D01*
X1023376Y0010789D01*
X1023221Y0010758D01*
X1023065Y0010730D01*
X1022909Y0010706D01*
X1022752Y0010686D01*
X1022594Y0010670D01*
X1022437Y0010658D01*
X1022278Y0010650D01*
X1022120Y0010646D01*
X1021962Y0010646D01*
X1021804Y0010650D01*
X1021645Y0010658D01*
X1021488Y0010670D01*
X1021330Y0010686D01*
X1021173Y0010706D01*
X1021017Y0010730D01*
X1020861Y0010758D01*
X1020706Y0010789D01*
X1020551Y0010825D01*
X1020398Y0010864D01*
X1020246Y0010907D01*
X1020095Y0010954D01*
X1019945Y0011005D01*
X1019796Y0011060D01*
X1019649Y0011118D01*
X1019503Y0011180D01*
X1019359Y0011245D01*
X1019217Y0011315D01*
X1019076Y0011387D01*
X1018937Y0011464D01*
X1018801Y0011543D01*
X1018666Y0011627D01*
X1018533Y0011713D01*
X1018403Y0011803D01*
X1018275Y0011896D01*
X1018149Y0011992D01*
X1018026Y0012092D01*
X1017905Y0012194D01*
X1017787Y0012299D01*
X1017672Y0012408D01*
X1017559Y0012519D01*
X1017449Y0012633D01*
X1017342Y0012750D01*
X1017238Y0012869D01*
X1017137Y0012991D01*
X1017040Y0013116D01*
X1016945Y0013243D01*
X1016854Y0013372D01*
X1016765Y0013503D01*
X1016681Y0013637D01*
X1016599Y0013773D01*
X1016521Y0013910D01*
X1016447Y0014050D01*
X1016376Y0014192D01*
X1016308Y0014335D01*
X1016244Y0014480D01*
X1016184Y0014626D01*
X1016128Y0014774D01*
X1016075Y0014923D01*
X1016026Y0015074D01*
X1015981Y0015226D01*
X1015940Y0015379D01*
X1015902Y0015532D01*
X1015869Y0015687D01*
X1015839Y0015843D01*
X1015813Y0015999D01*
X1015792Y0016156D01*
X1015774Y0016313D01*
X1015760Y0016471D01*
X1015750Y0016629D01*
X1015744Y0016787D01*
X1015742Y0016945D01*
D11*
X1037789Y1182299D02*
X0014167Y1182299D01*
M02*
