G75*
%MOIN*%
%OFA0B0*%
%FSLAX25Y25*%
%IPPOS*%
%LPD*%
%AMOC8*
5,1,8,0,0,1.08239X$1,22.5*
%
%ADD10C,0.06000*%
%ADD11C,0.04500*%
%ADD12C,0.05300*%
%ADD13C,0.07051*%
%ADD14C,0.05906*%
%ADD15C,0.01378*%
%ADD16C,0.11811*%
%ADD17C,0.01575*%
%ADD18C,0.02953*%
%ADD19C,0.01772*%
%ADD20C,0.01969*%
%ADD21C,0.01969*%
%ADD22C,0.03937*%
%ADD23C,0.07874*%
%ADD24C,0.01181*%
%ADD25C,0.00591*%
%ADD26C,0.00394*%
D10*
X0038512Y0071543D03*
X0048512Y0071543D03*
X0058512Y0071543D03*
X0068512Y0071543D03*
X0078512Y0071543D03*
X0088512Y0071543D03*
X0088512Y0081543D03*
X0078512Y0081543D03*
X0068512Y0081543D03*
X0058512Y0081543D03*
X0048512Y0081543D03*
X0038512Y0081543D03*
X0347724Y0237803D03*
X0347724Y0247803D03*
X0347724Y0257803D03*
X0347724Y0267803D03*
X0347724Y0277803D03*
X0347724Y0287803D03*
X0347724Y0297803D03*
X0357724Y0297803D03*
X0357724Y0287803D03*
X0357724Y0277803D03*
X0357724Y0267803D03*
X0357724Y0257803D03*
X0357724Y0247803D03*
X0357724Y0237803D03*
D11*
X0314614Y0195874D03*
X0314614Y0190874D03*
X0314614Y0166504D03*
X0314614Y0161504D03*
D12*
X0309614Y0159004D03*
X0309614Y0169004D03*
X0319614Y0169004D03*
X0319614Y0159004D03*
X0319614Y0188374D03*
X0309614Y0188374D03*
X0309614Y0198374D03*
X0319614Y0198374D03*
D13*
X0359693Y0192370D03*
X0379693Y0192370D03*
X0379693Y0212370D03*
X0359693Y0212370D03*
X0296937Y0277283D03*
X0311079Y0291425D03*
X0296937Y0305567D03*
X0282795Y0291425D03*
X0251110Y0289378D03*
X0231110Y0289378D03*
X0231110Y0309378D03*
X0251110Y0309378D03*
X0222528Y0352370D03*
X0222528Y0372370D03*
X0202528Y0372370D03*
X0202528Y0352370D03*
X0194929Y0309378D03*
X0174929Y0309378D03*
X0174929Y0289378D03*
X0194929Y0289378D03*
X0060047Y0285402D03*
X0040047Y0285402D03*
X0040047Y0265402D03*
X0060047Y0265402D03*
X0052882Y0322331D03*
X0052882Y0342331D03*
X0032882Y0342331D03*
X0032882Y0322331D03*
X0201937Y0089969D03*
X0221937Y0089969D03*
X0221937Y0069969D03*
X0201937Y0069969D03*
X0248276Y0068268D03*
X0268276Y0068268D03*
X0268276Y0088268D03*
X0248276Y0088268D03*
X0359102Y0082134D03*
X0359102Y0062134D03*
X0379102Y0062134D03*
X0379102Y0082134D03*
X0379102Y0116937D03*
X0359102Y0116937D03*
X0359102Y0136937D03*
X0379102Y0136937D03*
D14*
X0276031Y0054220D03*
X0269496Y0048630D03*
X0281268Y0014339D03*
X0324181Y0013551D03*
X0344772Y0024181D03*
X0354772Y0024181D03*
X0233630Y0156858D03*
X0224181Y0157055D03*
X0214142Y0157252D03*
X0213551Y0167291D03*
X0223197Y0167882D03*
X0223000Y0177921D03*
X0213551Y0178118D03*
X0232843Y0178118D03*
X0233236Y0167882D03*
X0154693Y0109417D03*
X0147606Y0060992D03*
X0124850Y0023000D03*
X0114850Y0023000D03*
X0143866Y0013551D03*
X0184811Y0013945D03*
X0196701Y0045441D03*
X0196740Y0053748D03*
X0089142Y0114339D03*
X0045441Y0113945D03*
X0023000Y0123906D03*
X0023000Y0133906D03*
X0100854Y0226740D03*
X0102724Y0234713D03*
X0102724Y0234713D03*
X0102724Y0243571D03*
X0102823Y0255579D03*
X0102528Y0264437D03*
X0102528Y0273197D03*
X0102626Y0281760D03*
X0102626Y0290323D03*
X0102626Y0298984D03*
X0102626Y0307449D03*
X0102626Y0316307D03*
X0102626Y0325165D03*
X0102528Y0339831D03*
X0102528Y0348197D03*
X0094260Y0345835D03*
X0108433Y0356071D03*
X0111976Y0348984D03*
X0139535Y0349378D03*
X0139142Y0363551D03*
X0164850Y0383236D03*
X0174850Y0383236D03*
X0259614Y0340224D03*
X0259811Y0330874D03*
X0273689Y0334811D03*
X0273787Y0326248D03*
X0273492Y0316799D03*
X0273197Y0308138D03*
X0281760Y0338157D03*
X0283236Y0347016D03*
X0285205Y0355677D03*
X0276740Y0355874D03*
X0266898Y0355480D03*
X0260008Y0349772D03*
X0291898Y0338354D03*
X0303807Y0337961D03*
X0312272Y0337961D03*
X0320933Y0337961D03*
X0329496Y0337961D03*
X0338059Y0337862D03*
X0337173Y0355579D03*
X0328610Y0355677D03*
X0320047Y0355677D03*
X0311386Y0355677D03*
X0302921Y0355677D03*
X0294063Y0355677D03*
X0348787Y0374969D03*
X0374181Y0345717D03*
X0374181Y0335717D03*
X0136976Y0228217D03*
X0127429Y0228217D03*
X0118177Y0228118D03*
X0109220Y0227921D03*
X0065913Y0348197D03*
X0057921Y0382843D03*
X0047921Y0382843D03*
X0086386Y0388748D03*
D15*
X0179299Y0276740D03*
X0179102Y0272016D03*
X0183433Y0265323D03*
X0186189Y0265323D03*
X0186189Y0262567D03*
X0183433Y0262567D03*
X0175953Y0261976D03*
X0168276Y0251937D03*
X0177173Y0240559D03*
X0179496Y0240717D03*
X0174181Y0235795D03*
X0174181Y0234024D03*
X0174181Y0231937D03*
X0174181Y0229969D03*
X0172213Y0228453D03*
X0173000Y0226346D03*
X0173197Y0224063D03*
X0173394Y0221996D03*
X0174181Y0220047D03*
X0174181Y0218079D03*
X0173787Y0216110D03*
X0173591Y0213945D03*
X0171622Y0210402D03*
X0168669Y0220047D03*
X0164929Y0222213D03*
X0164142Y0226346D03*
X0166504Y0232252D03*
X0184614Y0235795D03*
X0188748Y0235992D03*
X0190717Y0235992D03*
X0194654Y0235795D03*
X0194457Y0240126D03*
X0194457Y0246228D03*
X0184614Y0244063D03*
X0184614Y0250559D03*
X0195244Y0261976D03*
X0202921Y0259417D03*
X0210992Y0260205D03*
X0210992Y0262961D03*
X0213945Y0262961D03*
X0213945Y0260205D03*
X0222803Y0259417D03*
X0227528Y0254496D03*
X0231858Y0261780D03*
X0239732Y0262370D03*
X0239732Y0265323D03*
X0242882Y0265323D03*
X0242882Y0262370D03*
X0251740Y0261976D03*
X0248197Y0271622D03*
X0247606Y0275756D03*
X0234811Y0275756D03*
X0234811Y0272213D03*
X0217488Y0269654D03*
X0217882Y0278315D03*
X0207055Y0278315D03*
X0206858Y0269654D03*
X0189929Y0271622D03*
X0190323Y0276543D03*
X0205441Y0241504D03*
X0204969Y0239654D03*
X0205283Y0235795D03*
X0205244Y0233866D03*
X0205283Y0231858D03*
X0214339Y0223787D03*
X0205087Y0222213D03*
X0205087Y0220047D03*
X0205283Y0218079D03*
X0205283Y0216110D03*
X0205283Y0214142D03*
X0200953Y0210008D03*
X0202134Y0206268D03*
X0199575Y0200756D03*
X0194457Y0209614D03*
X0192488Y0209614D03*
X0186583Y0208827D03*
X0184614Y0208630D03*
X0182539Y0192685D03*
X0184713Y0191799D03*
X0180138Y0192685D03*
X0178118Y0191996D03*
X0195835Y0178906D03*
X0195835Y0174969D03*
X0195835Y0173000D03*
X0195638Y0167094D03*
X0192685Y0163157D03*
X0194457Y0161189D03*
X0191701Y0156071D03*
X0195835Y0150953D03*
X0198000Y0153315D03*
X0202134Y0146425D03*
X0204102Y0146425D03*
X0200559Y0144457D03*
X0192193Y0146327D03*
X0191110Y0144260D03*
X0190717Y0132252D03*
X0200756Y0161189D03*
X0186780Y0173787D03*
X0199181Y0185008D03*
X0200165Y0183039D03*
X0196228Y0188157D03*
X0209024Y0190520D03*
X0212173Y0190520D03*
X0218472Y0190126D03*
X0218472Y0195638D03*
X0224378Y0190520D03*
X0227921Y0190323D03*
X0230283Y0190520D03*
X0232449Y0190323D03*
X0235008Y0191110D03*
X0236780Y0192685D03*
X0239929Y0190323D03*
X0245047Y0186780D03*
X0245835Y0184811D03*
X0245835Y0178906D03*
X0246031Y0173000D03*
X0245441Y0169260D03*
X0245638Y0167094D03*
X0246150Y0163157D03*
X0246228Y0161386D03*
X0245638Y0155362D03*
X0251346Y0155382D03*
X0253925Y0154988D03*
X0254201Y0157008D03*
X0254201Y0159409D03*
X0254220Y0161386D03*
X0252331Y0161976D03*
X0253315Y0173000D03*
X0252528Y0178906D03*
X0261976Y0201543D03*
X0256858Y0206071D03*
X0262567Y0210992D03*
X0261976Y0214732D03*
X0261976Y0216504D03*
X0261189Y0218236D03*
X0261780Y0220047D03*
X0262016Y0222213D03*
X0257055Y0231858D03*
X0261976Y0233827D03*
X0261976Y0235795D03*
X0259614Y0241307D03*
X0256661Y0241504D03*
X0250953Y0240126D03*
X0250953Y0235795D03*
X0247213Y0235795D03*
X0245047Y0235795D03*
X0241110Y0235795D03*
X0235008Y0240717D03*
X0231661Y0240913D03*
X0230677Y0235992D03*
X0230874Y0233236D03*
X0230677Y0229969D03*
X0228118Y0228000D03*
X0229496Y0225953D03*
X0228709Y0224063D03*
X0229890Y0222272D03*
X0230480Y0220244D03*
X0230087Y0217685D03*
X0228118Y0216110D03*
X0230874Y0214732D03*
X0225559Y0214142D03*
X0230087Y0208433D03*
X0230362Y0205480D03*
X0234929Y0201248D03*
X0237163Y0200756D03*
X0239565Y0200756D03*
X0241898Y0201740D03*
X0249181Y0205087D03*
X0250953Y0205087D03*
X0250953Y0209811D03*
X0248984Y0209811D03*
X0243079Y0209811D03*
X0241110Y0209811D03*
X0225756Y0220244D03*
X0224575Y0226150D03*
X0223984Y0231661D03*
X0226346Y0232252D03*
X0241110Y0244063D03*
X0241110Y0252134D03*
X0251150Y0246425D03*
X0271622Y0263945D03*
X0270047Y0265717D03*
X0271425Y0268276D03*
X0273787Y0266307D03*
X0282252Y0267094D03*
X0283827Y0271819D03*
X0276543Y0278709D03*
X0272606Y0276937D03*
X0262567Y0271622D03*
X0277921Y0256858D03*
X0272213Y0227921D03*
X0274575Y0226937D03*
X0308079Y0212921D03*
X0310402Y0215126D03*
X0258157Y0146819D03*
X0256020Y0147016D03*
X0253618Y0147016D03*
X0251563Y0147114D03*
X0245835Y0146819D03*
X0243079Y0147213D03*
X0241504Y0145835D03*
X0236386Y0145835D03*
X0234220Y0145835D03*
X0230480Y0145835D03*
X0228315Y0145835D03*
X0224378Y0145835D03*
X0222409Y0145835D03*
X0216307Y0210992D03*
X0138748Y0064535D03*
X0109417Y0061386D03*
X0061780Y0026543D03*
X0033236Y0247016D03*
D16*
X0140520Y0263551D03*
D17*
X0068866Y0101543D03*
X0058630Y0101543D03*
X0068472Y0052921D03*
X0061583Y0023984D03*
X0130087Y0059024D03*
D18*
X0182252Y0217488D03*
X0186780Y0217685D03*
X0186780Y0222409D03*
X0181858Y0222606D03*
X0182055Y0228118D03*
X0181858Y0232646D03*
X0186780Y0232646D03*
X0187370Y0227921D03*
X0192291Y0227921D03*
X0192291Y0232449D03*
X0196819Y0232252D03*
X0197016Y0227921D03*
X0196622Y0222409D03*
X0192291Y0222213D03*
X0192488Y0217882D03*
X0196425Y0217685D03*
X0160402Y0227724D03*
X0150362Y0228118D03*
X0238551Y0232843D03*
X0243472Y0232646D03*
X0243276Y0227724D03*
X0238748Y0227724D03*
X0238551Y0222803D03*
X0243472Y0222409D03*
X0243276Y0217291D03*
X0238748Y0217488D03*
X0249181Y0217291D03*
X0253315Y0217488D03*
X0253315Y0221819D03*
X0248984Y0222016D03*
X0248984Y0227921D03*
X0253709Y0228118D03*
X0253512Y0232449D03*
X0248591Y0232646D03*
D19*
X0284063Y0275795D03*
X0286290Y0278022D03*
X0288515Y0280247D03*
X0290739Y0282471D03*
X0292963Y0284696D03*
X0295188Y0286920D03*
X0298081Y0288672D03*
X0294026Y0292452D03*
X0291802Y0290227D03*
X0289578Y0288003D03*
X0287353Y0285778D03*
X0285129Y0283554D03*
X0282904Y0281330D03*
X0280677Y0279102D03*
X0244024Y0300913D03*
X0243512Y0297409D03*
X0243512Y0294260D03*
X0243512Y0291110D03*
X0243512Y0287961D03*
X0243512Y0284811D03*
X0243512Y0281661D03*
X0243512Y0278512D03*
X0238709Y0278512D03*
X0238709Y0281661D03*
X0238709Y0284811D03*
X0238709Y0287961D03*
X0238709Y0291110D03*
X0238709Y0294260D03*
X0238709Y0297409D03*
X0238039Y0300835D03*
X0214929Y0300559D03*
X0214929Y0297409D03*
X0214929Y0294260D03*
X0214929Y0291110D03*
X0214929Y0287961D03*
X0214929Y0284811D03*
X0214929Y0281661D03*
X0210126Y0281661D03*
X0210126Y0284811D03*
X0210126Y0287961D03*
X0210126Y0291110D03*
X0210126Y0294260D03*
X0210126Y0297409D03*
X0204811Y0297213D03*
X0210126Y0303709D03*
X0210126Y0306858D03*
X0210126Y0310008D03*
X0210126Y0313157D03*
X0210126Y0316307D03*
X0210126Y0319457D03*
X0210126Y0322606D03*
X0210126Y0325756D03*
X0210126Y0328906D03*
X0210126Y0332055D03*
X0210126Y0335205D03*
X0210126Y0338354D03*
X0210126Y0341504D03*
X0210126Y0344654D03*
X0210126Y0347803D03*
X0210126Y0350953D03*
X0210126Y0354102D03*
X0210126Y0357252D03*
X0209732Y0360520D03*
X0215402Y0360480D03*
X0214929Y0357252D03*
X0214929Y0354102D03*
X0214929Y0350953D03*
X0214929Y0347803D03*
X0214929Y0344654D03*
X0214929Y0341504D03*
X0214929Y0338354D03*
X0214929Y0335205D03*
X0214929Y0332055D03*
X0214929Y0328906D03*
X0214929Y0325756D03*
X0214929Y0322606D03*
X0214929Y0319457D03*
X0214929Y0316307D03*
X0214929Y0313157D03*
X0214929Y0310008D03*
X0214929Y0306858D03*
X0214929Y0303709D03*
X0188472Y0299063D03*
X0187331Y0295835D03*
X0187331Y0292685D03*
X0187331Y0289535D03*
X0187331Y0286386D03*
X0187331Y0283236D03*
X0187331Y0280087D03*
X0182528Y0280087D03*
X0182528Y0283236D03*
X0182528Y0286386D03*
X0182528Y0289535D03*
X0182528Y0292685D03*
X0182528Y0295835D03*
X0181268Y0299063D03*
D20*
X0013512Y0025646D03*
X0033197Y0025646D03*
X0052882Y0025646D03*
X0056622Y0041591D03*
X0043039Y0045331D03*
X0023354Y0045331D03*
X0028669Y0068756D03*
X0026701Y0087260D03*
X0041661Y0088835D03*
X0036346Y0106551D03*
X0049732Y0105764D03*
X0053669Y0113835D03*
X0058394Y0117969D03*
X0063276Y0119622D03*
X0071780Y0112260D03*
X0072567Y0104386D03*
X0064102Y0101433D03*
X0086740Y0106354D03*
X0092252Y0104386D03*
X0105638Y0108126D03*
X0106819Y0123480D03*
X0118827Y0137850D03*
X0131819Y0141000D03*
X0121780Y0124071D03*
X0134181Y0110488D03*
X0132606Y0107732D03*
X0143630Y0109504D03*
X0142252Y0088638D03*
X0155047Y0088835D03*
X0161346Y0092969D03*
X0170008Y0093756D03*
X0190480Y0093953D03*
X0192646Y0098677D03*
X0190480Y0084110D03*
X0190480Y0074268D03*
X0190480Y0064425D03*
X0190480Y0054583D03*
X0188669Y0049346D03*
X0185402Y0045370D03*
X0170992Y0065016D03*
X0164693Y0063047D03*
X0170598Y0072496D03*
X0151307Y0065016D03*
X0140480Y0058126D03*
X0121976Y0088638D03*
X0111937Y0065016D03*
X0095992Y0065213D03*
X0095008Y0087654D03*
X0085165Y0089031D03*
X0072567Y0065016D03*
X0052882Y0065016D03*
X0013512Y0104386D03*
X0014496Y0125055D03*
X0013512Y0143756D03*
X0028669Y0158323D03*
X0023354Y0163441D03*
X0013315Y0167575D03*
X0027291Y0181551D03*
X0013512Y0183126D03*
X0023354Y0202811D03*
X0037921Y0202811D03*
X0052882Y0183126D03*
X0062724Y0202811D03*
X0075913Y0202614D03*
X0072567Y0183126D03*
X0092252Y0178992D03*
X0102094Y0163441D03*
X0095598Y0152614D03*
X0082409Y0163441D03*
X0111740Y0178402D03*
X0118433Y0167378D03*
X0130244Y0179386D03*
X0123748Y0184307D03*
X0136937Y0184898D03*
X0149142Y0195528D03*
X0150717Y0200055D03*
X0156031Y0200646D03*
X0141465Y0202811D03*
X0131228Y0200055D03*
X0121780Y0202811D03*
X0112134Y0199268D03*
X0102094Y0202811D03*
X0072567Y0222496D03*
X0052882Y0222496D03*
X0033197Y0222496D03*
X0013512Y0222496D03*
X0023354Y0242181D03*
X0038906Y0249268D03*
X0037528Y0255370D03*
X0031031Y0262063D03*
X0030835Y0268953D03*
X0031228Y0279189D03*
X0025126Y0281354D03*
X0030638Y0287654D03*
X0033787Y0295134D03*
X0033197Y0301236D03*
X0043236Y0294740D03*
X0053472Y0295134D03*
X0052882Y0301236D03*
X0046583Y0308717D03*
X0049246Y0312567D03*
X0055638Y0316000D03*
X0060470Y0321412D03*
X0070992Y0321118D03*
X0070205Y0311472D03*
X0072567Y0301236D03*
X0065874Y0294543D03*
X0070008Y0288244D03*
X0069614Y0281945D03*
X0070402Y0266591D03*
X0072567Y0261866D03*
X0070008Y0255764D03*
X0058984Y0255567D03*
X0052882Y0261866D03*
X0048945Y0255567D03*
X0062724Y0242181D03*
X0013512Y0261866D03*
X0013512Y0301236D03*
X0018433Y0318559D03*
X0023518Y0322721D03*
X0022035Y0329414D03*
X0022258Y0336666D03*
X0024947Y0343404D03*
X0029779Y0348815D03*
X0027903Y0353232D03*
X0023354Y0360291D03*
X0036150Y0352614D03*
X0043351Y0353287D03*
X0050453Y0351808D03*
X0053079Y0356354D03*
X0056622Y0347990D03*
X0061112Y0342291D03*
X0034964Y0313007D03*
X0028795Y0316826D03*
X0042066Y0311528D03*
X0013512Y0340606D03*
X0013512Y0379976D03*
X0131622Y0340606D03*
X0151307Y0340606D03*
X0151110Y0321118D03*
X0164890Y0323087D03*
X0171189Y0318559D03*
X0165087Y0315409D03*
X0165087Y0307732D03*
X0165087Y0300843D03*
X0165087Y0292575D03*
X0164693Y0283717D03*
X0161150Y0281551D03*
X0169417Y0278992D03*
X0174142Y0279583D03*
X0170992Y0261866D03*
X0167843Y0256748D03*
X0162331Y0256354D03*
X0161937Y0263441D03*
X0150323Y0256157D03*
X0129850Y0262063D03*
X0129654Y0284307D03*
X0141465Y0281551D03*
X0147764Y0299858D03*
X0129654Y0300055D03*
X0170992Y0340606D03*
X0190677Y0340606D03*
X0193039Y0345921D03*
X0198945Y0341394D03*
X0205638Y0340803D03*
X0221189Y0340213D03*
X0230047Y0340606D03*
X0232409Y0343559D03*
X0231819Y0351039D03*
X0231819Y0361079D03*
X0232016Y0367378D03*
X0242449Y0360291D03*
X0250717Y0360094D03*
X0259575Y0360291D03*
X0249732Y0340606D03*
X0241858Y0322102D03*
X0247173Y0318559D03*
X0259181Y0319150D03*
X0260953Y0308913D03*
X0260559Y0301039D03*
X0260953Y0293953D03*
X0260559Y0286276D03*
X0261150Y0277220D03*
X0257213Y0267378D03*
X0255638Y0263244D03*
X0250913Y0255961D03*
X0249535Y0279386D03*
X0233787Y0279386D03*
X0227685Y0278992D03*
X0222567Y0278992D03*
X0220795Y0290213D03*
X0220795Y0300843D03*
X0220992Y0310094D03*
X0221976Y0318165D03*
X0220205Y0320921D03*
X0231622Y0318953D03*
X0210362Y0301236D03*
X0204654Y0301039D03*
X0205047Y0307535D03*
X0204654Y0314425D03*
X0200520Y0320921D03*
X0197173Y0318362D03*
X0189299Y0318559D03*
X0181031Y0319150D03*
X0204457Y0289425D03*
X0204260Y0283717D03*
X0198945Y0279386D03*
X0193433Y0279583D03*
X0199732Y0261866D03*
X0196189Y0256157D03*
X0217646Y0247496D03*
X0220539Y0247311D03*
X0219417Y0250252D03*
X0223354Y0255764D03*
X0227094Y0261276D03*
X0224142Y0264031D03*
X0267843Y0218953D03*
X0266661Y0200449D03*
X0286937Y0216984D03*
X0291661Y0218756D03*
X0288709Y0202417D03*
X0298945Y0202811D03*
X0289102Y0183126D03*
X0289299Y0178008D03*
X0300717Y0178795D03*
X0288020Y0155272D03*
X0297764Y0151630D03*
X0289102Y0143756D03*
X0288512Y0136276D03*
X0306819Y0118756D03*
X0317449Y0114622D03*
X0308787Y0104386D03*
X0318827Y0099465D03*
X0328472Y0104386D03*
X0338906Y0098677D03*
X0348157Y0104386D03*
X0358394Y0103402D03*
X0367843Y0104386D03*
X0387528Y0104386D03*
X0390874Y0124268D03*
X0390480Y0144543D03*
X0377685Y0162063D03*
X0368039Y0146906D03*
X0358197Y0162063D03*
X0348157Y0143756D03*
X0336150Y0162260D03*
X0326110Y0162850D03*
X0328472Y0143756D03*
X0308787Y0143756D03*
X0289102Y0104386D03*
X0280874Y0103480D03*
X0280638Y0093165D03*
X0288315Y0089425D03*
X0293039Y0077024D03*
X0289102Y0065016D03*
X0284339Y0052693D03*
X0280913Y0047614D03*
X0284299Y0043835D03*
X0291189Y0050094D03*
X0271976Y0062457D03*
X0265283Y0062457D03*
X0260953Y0062260D03*
X0260362Y0069346D03*
X0265717Y0101433D03*
X0269417Y0104386D03*
X0263827Y0110528D03*
X0263472Y0115055D03*
X0261858Y0119780D03*
X0260717Y0124071D03*
X0260913Y0128087D03*
X0261150Y0132339D03*
X0260559Y0141197D03*
X0260953Y0150252D03*
X0249732Y0143756D03*
X0261150Y0166000D03*
X0265480Y0163835D03*
X0221780Y0201039D03*
X0195992Y0200843D03*
X0188315Y0184701D03*
X0176898Y0185488D03*
X0186976Y0171031D03*
X0177291Y0160094D03*
X0172567Y0163244D03*
X0166661Y0160882D03*
X0173157Y0154780D03*
X0170992Y0143756D03*
X0174535Y0137063D03*
X0171583Y0131945D03*
X0171937Y0124858D03*
X0161150Y0124071D03*
X0189496Y0152417D03*
X0192646Y0134701D03*
X0193236Y0129386D03*
X0192843Y0123677D03*
X0192646Y0119740D03*
X0144811Y0156945D03*
X0173945Y0255764D03*
X0273551Y0241984D03*
X0276740Y0243079D03*
X0279850Y0243362D03*
X0286150Y0242378D03*
X0285559Y0246512D03*
X0285362Y0251630D03*
X0295598Y0242378D03*
X0309378Y0254189D03*
X0310756Y0263441D03*
X0317252Y0263047D03*
X0303669Y0270331D03*
X0308984Y0276433D03*
X0306031Y0278402D03*
X0315283Y0281945D03*
X0323551Y0289819D03*
X0328472Y0301236D03*
X0313512Y0303205D03*
X0302685Y0313638D03*
X0296189Y0319150D03*
X0285953Y0310488D03*
X0281425Y0304189D03*
X0272370Y0301433D03*
X0273354Y0296709D03*
X0272961Y0287063D03*
X0276307Y0283323D03*
X0288906Y0271906D03*
X0293433Y0267575D03*
X0282409Y0263244D03*
X0315874Y0235291D03*
X0308787Y0225449D03*
X0324732Y0235094D03*
X0327882Y0225252D03*
X0329063Y0203205D03*
X0344024Y0206748D03*
X0349339Y0206354D03*
X0348551Y0220528D03*
X0370205Y0242969D03*
X0386740Y0241984D03*
X0387528Y0222496D03*
X0374339Y0222693D03*
X0392252Y0202417D03*
X0387528Y0183126D03*
X0367843Y0183126D03*
X0348157Y0183126D03*
X0340087Y0186472D03*
X0328472Y0183126D03*
X0370795Y0261866D03*
X0387528Y0261866D03*
X0379654Y0282929D03*
X0370205Y0282535D03*
X0368827Y0301827D03*
X0387528Y0302220D03*
X0338315Y0281551D03*
X0279260Y0320921D03*
X0289102Y0379976D03*
X0269417Y0379976D03*
X0249732Y0379976D03*
X0230244Y0381945D03*
X0220402Y0381945D03*
X0210953Y0385094D03*
X0210362Y0379976D03*
X0200323Y0380961D03*
X0193433Y0373087D03*
X0190677Y0379976D03*
X0192646Y0363638D03*
X0192252Y0355370D03*
X0308787Y0379976D03*
X0328472Y0379976D03*
X0348453Y0383618D03*
X0367843Y0379976D03*
X0387528Y0379976D03*
X0338315Y0084701D03*
X0328472Y0065016D03*
X0318630Y0084701D03*
X0308787Y0065016D03*
X0263709Y0017772D03*
X0257016Y0017969D03*
X0250717Y0017969D03*
X0240480Y0016984D03*
X0237134Y0016984D03*
X0230047Y0014622D03*
X0223157Y0017575D03*
X0217646Y0017772D03*
X0212331Y0017575D03*
X0202055Y0017142D03*
X0196386Y0016748D03*
X0270598Y0015213D03*
X0377685Y0045331D03*
X0394024Y0062063D03*
X0387528Y0025646D03*
X0092252Y0022496D03*
X0073157Y0018756D03*
X0009575Y0065016D03*
X0033197Y0143756D03*
D21*
X0220539Y0247311D02*
X0222705Y0249476D01*
X0267980Y0249476D01*
X0270736Y0249476D01*
X0276740Y0243472D01*
X0276740Y0243079D01*
X0267980Y0249476D02*
X0266504Y0250953D01*
D22*
X0266504Y0347409D01*
X0282843Y0347409D01*
D23*
X0283236Y0347016D01*
D24*
X0258039Y0198984D02*
X0196918Y0198984D01*
X0196808Y0198874D01*
X0195177Y0198874D01*
X0195067Y0198984D01*
X0193079Y0198984D01*
X0193079Y0164831D01*
X0193378Y0164831D01*
X0194358Y0163851D01*
X0194358Y0162862D01*
X0195150Y0162862D01*
X0196130Y0161882D01*
X0196130Y0160496D01*
X0195150Y0159516D01*
X0193764Y0159516D01*
X0193079Y0160201D01*
X0193079Y0157059D01*
X0193374Y0156764D01*
X0193374Y0155378D01*
X0193079Y0155083D01*
X0193079Y0147807D01*
X0193866Y0147020D01*
X0193866Y0145634D01*
X0193079Y0144846D01*
X0193079Y0136669D01*
X0193461Y0136669D01*
X0194614Y0135516D01*
X0194614Y0133885D01*
X0193461Y0132732D01*
X0193079Y0132732D01*
X0193079Y0131354D01*
X0194052Y0131354D01*
X0195205Y0130201D01*
X0195205Y0128570D01*
X0194052Y0127417D01*
X0193079Y0127417D01*
X0193079Y0125646D01*
X0193658Y0125646D01*
X0194811Y0124493D01*
X0194811Y0122862D01*
X0193658Y0121709D01*
X0193079Y0121709D01*
X0193079Y0121709D01*
X0193461Y0121709D01*
X0194614Y0120556D01*
X0194614Y0118925D01*
X0193461Y0117772D01*
X0193079Y0117772D01*
X0193079Y0103747D01*
X0196720Y0107388D01*
X0196720Y0149472D01*
X0196528Y0149280D01*
X0195142Y0149280D01*
X0194161Y0150260D01*
X0194161Y0151646D01*
X0195142Y0152626D01*
X0196327Y0152626D01*
X0196327Y0154008D01*
X0197307Y0154988D01*
X0198693Y0154988D01*
X0199673Y0154008D01*
X0199673Y0152622D01*
X0199280Y0152228D01*
X0199280Y0145543D01*
X0199866Y0146130D01*
X0200461Y0146130D01*
X0200461Y0147118D01*
X0201441Y0148098D01*
X0202827Y0148098D01*
X0203118Y0147807D01*
X0203409Y0148098D01*
X0204795Y0148098D01*
X0205776Y0147118D01*
X0205776Y0145732D01*
X0204795Y0144752D01*
X0203409Y0144752D01*
X0203118Y0145043D01*
X0202827Y0144752D01*
X0202232Y0144752D01*
X0202232Y0143764D01*
X0201252Y0142783D01*
X0199866Y0142783D01*
X0199280Y0143370D01*
X0199280Y0106328D01*
X0198530Y0105579D01*
X0193529Y0100578D01*
X0194614Y0099493D01*
X0194614Y0097862D01*
X0193461Y0096709D01*
X0193079Y0096709D01*
X0193079Y0059220D01*
X0226543Y0059220D01*
X0226543Y0019850D01*
X0249815Y0019850D01*
X0249901Y0019937D01*
X0251532Y0019937D01*
X0251619Y0019850D01*
X0256114Y0019850D01*
X0256200Y0019937D01*
X0257831Y0019937D01*
X0257918Y0019850D01*
X0273787Y0019850D01*
X0273787Y0050897D01*
X0272694Y0051990D01*
X0272094Y0053437D01*
X0272094Y0055004D01*
X0272694Y0056451D01*
X0273787Y0057544D01*
X0273787Y0059220D01*
X0258039Y0059220D01*
X0258039Y0145146D01*
X0257464Y0145146D01*
X0256990Y0145620D01*
X0256713Y0145343D01*
X0255327Y0145343D01*
X0254819Y0145850D01*
X0254311Y0145343D01*
X0252925Y0145343D01*
X0252541Y0145726D01*
X0252256Y0145441D01*
X0250870Y0145441D01*
X0249890Y0146421D01*
X0249890Y0147807D01*
X0250870Y0148787D01*
X0252256Y0148787D01*
X0252640Y0148404D01*
X0252925Y0148689D01*
X0254311Y0148689D01*
X0254819Y0148181D01*
X0255327Y0148689D01*
X0256713Y0148689D01*
X0257187Y0148215D01*
X0257464Y0148492D01*
X0258039Y0148492D01*
X0258039Y0198984D01*
X0258039Y0197957D02*
X0193079Y0197957D01*
X0193079Y0196778D02*
X0217246Y0196778D01*
X0216799Y0196331D02*
X0216799Y0194945D01*
X0217779Y0193965D01*
X0219166Y0193965D01*
X0220146Y0194945D01*
X0220146Y0196331D01*
X0219166Y0197311D01*
X0217779Y0197311D01*
X0216799Y0196331D01*
X0216799Y0195598D02*
X0193079Y0195598D01*
X0193079Y0194418D02*
X0217326Y0194418D01*
X0219619Y0194418D02*
X0258039Y0194418D01*
X0258039Y0193239D02*
X0238453Y0193239D01*
X0238453Y0193378D02*
X0237473Y0194358D01*
X0236086Y0194358D01*
X0235106Y0193378D01*
X0235106Y0192783D01*
X0234315Y0192783D01*
X0233335Y0191803D01*
X0233142Y0191996D01*
X0231756Y0191996D01*
X0231465Y0191705D01*
X0230977Y0192193D01*
X0229590Y0192193D01*
X0229004Y0191606D01*
X0228614Y0191996D01*
X0227228Y0191996D01*
X0226248Y0191016D01*
X0226248Y0189630D01*
X0227228Y0188650D01*
X0228614Y0188650D01*
X0229201Y0189236D01*
X0229590Y0188846D01*
X0230977Y0188846D01*
X0231268Y0189138D01*
X0231756Y0188650D01*
X0233142Y0188650D01*
X0234122Y0189630D01*
X0234315Y0189437D01*
X0235701Y0189437D01*
X0236681Y0190417D01*
X0236681Y0191012D01*
X0237473Y0191012D01*
X0238453Y0191992D01*
X0238453Y0193378D01*
X0238453Y0192059D02*
X0258039Y0192059D01*
X0258039Y0190879D02*
X0241602Y0190879D01*
X0241602Y0191016D02*
X0241602Y0189630D01*
X0240622Y0188650D01*
X0239236Y0188650D01*
X0238256Y0189630D01*
X0238256Y0191016D01*
X0239236Y0191996D01*
X0240622Y0191996D01*
X0241602Y0191016D01*
X0241602Y0189700D02*
X0258039Y0189700D01*
X0258039Y0188520D02*
X0219233Y0188520D01*
X0219166Y0188453D02*
X0220146Y0189433D01*
X0220146Y0190819D01*
X0219166Y0191799D01*
X0217779Y0191799D01*
X0216799Y0190819D01*
X0216799Y0189433D01*
X0217779Y0188453D01*
X0219166Y0188453D01*
X0217712Y0188520D02*
X0197902Y0188520D01*
X0197902Y0188851D02*
X0196921Y0189831D01*
X0195535Y0189831D01*
X0194555Y0188851D01*
X0194555Y0187464D01*
X0195535Y0186484D01*
X0196921Y0186484D01*
X0197902Y0187464D01*
X0197902Y0188851D01*
X0197052Y0189700D02*
X0207477Y0189700D01*
X0207350Y0189827D02*
X0208331Y0188846D01*
X0209717Y0188846D01*
X0210697Y0189827D01*
X0210697Y0191213D01*
X0209717Y0192193D01*
X0208331Y0192193D01*
X0207350Y0191213D01*
X0207350Y0189827D01*
X0207350Y0190879D02*
X0193079Y0190879D01*
X0193079Y0189700D02*
X0195404Y0189700D01*
X0194555Y0188520D02*
X0193079Y0188520D01*
X0193079Y0187341D02*
X0194679Y0187341D01*
X0193079Y0186161D02*
X0197968Y0186161D01*
X0197508Y0185701D02*
X0197508Y0184315D01*
X0198488Y0183335D01*
X0198492Y0183335D01*
X0198492Y0182346D01*
X0199472Y0181366D01*
X0200858Y0181366D01*
X0201839Y0182346D01*
X0201839Y0183732D01*
X0200858Y0184713D01*
X0200854Y0184713D01*
X0200854Y0185701D01*
X0199874Y0186681D01*
X0198488Y0186681D01*
X0197508Y0185701D01*
X0197508Y0184981D02*
X0193079Y0184981D01*
X0193079Y0183802D02*
X0198021Y0183802D01*
X0198492Y0182622D02*
X0193079Y0182622D01*
X0193079Y0181443D02*
X0199396Y0181443D01*
X0200935Y0181443D02*
X0211308Y0181443D01*
X0211321Y0181456D02*
X0210214Y0180348D01*
X0209614Y0178901D01*
X0209614Y0177335D01*
X0210214Y0175888D01*
X0211321Y0174780D01*
X0212768Y0174181D01*
X0214334Y0174181D01*
X0215781Y0174780D01*
X0216889Y0175888D01*
X0217488Y0177335D01*
X0217488Y0178901D01*
X0216889Y0180348D01*
X0215781Y0181456D01*
X0214334Y0182055D01*
X0212768Y0182055D01*
X0211321Y0181456D01*
X0210178Y0180263D02*
X0196843Y0180263D01*
X0196528Y0180579D02*
X0195142Y0180579D01*
X0194161Y0179599D01*
X0194161Y0178212D01*
X0195142Y0177232D01*
X0196528Y0177232D01*
X0197508Y0178212D01*
X0197508Y0179599D01*
X0196528Y0180579D01*
X0194826Y0180263D02*
X0193079Y0180263D01*
X0193079Y0179083D02*
X0194161Y0179083D01*
X0194470Y0177904D02*
X0193079Y0177904D01*
X0193079Y0176724D02*
X0209867Y0176724D01*
X0209614Y0177904D02*
X0197199Y0177904D01*
X0197508Y0179083D02*
X0209690Y0179083D01*
X0210557Y0175545D02*
X0197508Y0175545D01*
X0197508Y0175662D02*
X0196528Y0176642D01*
X0195142Y0176642D01*
X0194161Y0175662D01*
X0194161Y0174275D01*
X0194453Y0173984D01*
X0194161Y0173693D01*
X0194161Y0172307D01*
X0195142Y0171327D01*
X0196528Y0171327D01*
X0197508Y0172307D01*
X0197508Y0173693D01*
X0197217Y0173984D01*
X0197508Y0174275D01*
X0197508Y0175662D01*
X0197508Y0174365D02*
X0212324Y0174365D01*
X0214778Y0174365D02*
X0221298Y0174365D01*
X0220770Y0174584D02*
X0222217Y0173984D01*
X0223783Y0173984D01*
X0225230Y0174584D01*
X0226338Y0175691D01*
X0226937Y0177138D01*
X0226937Y0178704D01*
X0226338Y0180151D01*
X0225230Y0181259D01*
X0223783Y0181858D01*
X0222217Y0181858D01*
X0220770Y0181259D01*
X0219662Y0180151D01*
X0219063Y0178704D01*
X0219063Y0177138D01*
X0219662Y0175691D01*
X0220770Y0174584D01*
X0219809Y0175545D02*
X0216545Y0175545D01*
X0217235Y0176724D02*
X0219234Y0176724D01*
X0219063Y0177904D02*
X0217488Y0177904D01*
X0217413Y0179083D02*
X0219220Y0179083D01*
X0219774Y0180263D02*
X0216924Y0180263D01*
X0215794Y0181443D02*
X0221213Y0181443D01*
X0224787Y0181443D02*
X0230599Y0181443D01*
X0230612Y0181456D02*
X0229505Y0180348D01*
X0228906Y0178901D01*
X0228906Y0177335D01*
X0229505Y0175888D01*
X0230612Y0174780D01*
X0232059Y0174181D01*
X0233626Y0174181D01*
X0235073Y0174780D01*
X0236180Y0175888D01*
X0236780Y0177335D01*
X0236780Y0178901D01*
X0236180Y0180348D01*
X0235073Y0181456D01*
X0233626Y0182055D01*
X0232059Y0182055D01*
X0230612Y0181456D01*
X0229470Y0180263D02*
X0226226Y0180263D01*
X0226780Y0179083D02*
X0228981Y0179083D01*
X0228906Y0177904D02*
X0226937Y0177904D01*
X0226766Y0176724D02*
X0229159Y0176724D01*
X0229848Y0175545D02*
X0226191Y0175545D01*
X0224702Y0174365D02*
X0231616Y0174365D01*
X0234069Y0174365D02*
X0252314Y0174365D01*
X0252622Y0174673D02*
X0251642Y0173693D01*
X0251642Y0172307D01*
X0252622Y0171327D01*
X0254008Y0171327D01*
X0254988Y0172307D01*
X0254988Y0173693D01*
X0254008Y0174673D01*
X0252622Y0174673D01*
X0254316Y0174365D02*
X0258039Y0174365D01*
X0258039Y0175545D02*
X0235837Y0175545D01*
X0236526Y0176724D02*
X0258039Y0176724D01*
X0258039Y0177904D02*
X0253892Y0177904D01*
X0254201Y0178212D02*
X0253221Y0177232D01*
X0251834Y0177232D01*
X0250854Y0178212D01*
X0250854Y0179599D01*
X0251834Y0180579D01*
X0253221Y0180579D01*
X0254201Y0179599D01*
X0254201Y0178212D01*
X0254201Y0179083D02*
X0258039Y0179083D01*
X0258039Y0180263D02*
X0253536Y0180263D01*
X0251519Y0180263D02*
X0246843Y0180263D01*
X0246528Y0180579D02*
X0245142Y0180579D01*
X0244161Y0179599D01*
X0244161Y0178212D01*
X0245142Y0177232D01*
X0246528Y0177232D01*
X0247508Y0178212D01*
X0247508Y0179599D01*
X0246528Y0180579D01*
X0244826Y0180263D02*
X0236215Y0180263D01*
X0236704Y0179083D02*
X0244161Y0179083D01*
X0244470Y0177904D02*
X0236780Y0177904D01*
X0235086Y0181443D02*
X0258039Y0181443D01*
X0258039Y0182622D02*
X0201839Y0182622D01*
X0201769Y0183802D02*
X0258039Y0183802D01*
X0258039Y0184981D02*
X0200854Y0184981D01*
X0200394Y0186161D02*
X0243374Y0186161D01*
X0243374Y0186086D02*
X0244354Y0185106D01*
X0245740Y0185106D01*
X0246720Y0186086D01*
X0246720Y0187473D01*
X0245740Y0188453D01*
X0244354Y0188453D01*
X0243374Y0187473D01*
X0243374Y0186086D01*
X0243374Y0187341D02*
X0197778Y0187341D01*
X0193079Y0192059D02*
X0208197Y0192059D01*
X0209850Y0192059D02*
X0229457Y0192059D01*
X0231110Y0192059D02*
X0233590Y0192059D01*
X0233335Y0191803D02*
X0233335Y0191803D01*
X0235106Y0193239D02*
X0193079Y0193239D01*
X0193079Y0175545D02*
X0194161Y0175545D01*
X0194161Y0174365D02*
X0193079Y0174365D01*
X0193079Y0173185D02*
X0194161Y0173185D01*
X0194463Y0172006D02*
X0193079Y0172006D01*
X0193079Y0170826D02*
X0211797Y0170826D01*
X0211321Y0170629D02*
X0210214Y0169521D01*
X0209614Y0168074D01*
X0209614Y0166508D01*
X0210214Y0165061D01*
X0211321Y0163954D01*
X0212768Y0163354D01*
X0214334Y0163354D01*
X0215781Y0163954D01*
X0216889Y0165061D01*
X0217488Y0166508D01*
X0217488Y0168074D01*
X0216889Y0169521D01*
X0215781Y0170629D01*
X0214334Y0171228D01*
X0212768Y0171228D01*
X0211321Y0170629D01*
X0210339Y0169646D02*
X0193079Y0169646D01*
X0193079Y0168467D02*
X0194644Y0168467D01*
X0194945Y0168768D02*
X0193965Y0167788D01*
X0193965Y0166401D01*
X0194945Y0165421D01*
X0196331Y0165421D01*
X0197311Y0166401D01*
X0197311Y0167788D01*
X0196331Y0168768D01*
X0194945Y0168768D01*
X0196632Y0168467D02*
X0209777Y0168467D01*
X0209614Y0167287D02*
X0197311Y0167287D01*
X0197017Y0166108D02*
X0209780Y0166108D01*
X0210347Y0164928D02*
X0193079Y0164928D01*
X0193079Y0166108D02*
X0194258Y0166108D01*
X0193965Y0167287D02*
X0193079Y0167287D01*
X0194358Y0163748D02*
X0211817Y0163748D01*
X0213359Y0161189D02*
X0211912Y0160590D01*
X0210804Y0159482D01*
X0210205Y0158035D01*
X0210205Y0156469D01*
X0210804Y0155022D01*
X0211912Y0153914D01*
X0213359Y0153315D01*
X0214925Y0153315D01*
X0216372Y0153914D01*
X0217479Y0155022D01*
X0218079Y0156469D01*
X0218079Y0158035D01*
X0217479Y0159482D01*
X0216372Y0160590D01*
X0214925Y0161189D01*
X0213359Y0161189D01*
X0211532Y0160210D02*
X0202143Y0160210D01*
X0202429Y0160496D02*
X0201449Y0159516D01*
X0200063Y0159516D01*
X0199083Y0160496D01*
X0199083Y0161882D01*
X0200063Y0162862D01*
X0201449Y0162862D01*
X0202429Y0161882D01*
X0202429Y0160496D01*
X0202429Y0161389D02*
X0250657Y0161389D01*
X0250657Y0161283D02*
X0251638Y0160303D01*
X0252728Y0160303D01*
X0252528Y0160103D01*
X0252528Y0158716D01*
X0253035Y0158209D01*
X0252528Y0157701D01*
X0252528Y0156567D01*
X0252040Y0157055D01*
X0250653Y0157055D01*
X0249673Y0156075D01*
X0249673Y0154689D01*
X0250653Y0153709D01*
X0252040Y0153709D01*
X0252439Y0154108D01*
X0253232Y0153315D01*
X0254618Y0153315D01*
X0255598Y0154295D01*
X0255598Y0155681D01*
X0255419Y0155860D01*
X0255874Y0156315D01*
X0255874Y0157701D01*
X0255366Y0158209D01*
X0255874Y0158716D01*
X0255874Y0160103D01*
X0255589Y0160388D01*
X0255894Y0160693D01*
X0255894Y0162079D01*
X0254914Y0163059D01*
X0253614Y0163059D01*
X0253024Y0163650D01*
X0251638Y0163650D01*
X0250657Y0162669D01*
X0250657Y0161283D01*
X0250657Y0162569D02*
X0247823Y0162569D01*
X0247823Y0162464D02*
X0247823Y0163851D01*
X0246843Y0164831D01*
X0245457Y0164831D01*
X0244476Y0163851D01*
X0244476Y0162464D01*
X0245457Y0161484D01*
X0246843Y0161484D01*
X0247823Y0162464D01*
X0247823Y0163748D02*
X0258039Y0163748D01*
X0258039Y0162569D02*
X0255404Y0162569D01*
X0255894Y0161389D02*
X0258039Y0161389D01*
X0258039Y0160210D02*
X0255767Y0160210D01*
X0255874Y0159030D02*
X0258039Y0159030D01*
X0258039Y0157850D02*
X0255725Y0157850D01*
X0255874Y0156671D02*
X0258039Y0156671D01*
X0258039Y0155491D02*
X0255598Y0155491D01*
X0255598Y0154311D02*
X0258039Y0154311D01*
X0258039Y0153132D02*
X0234921Y0153132D01*
X0234413Y0152921D02*
X0235860Y0153521D01*
X0236968Y0154628D01*
X0237567Y0156075D01*
X0237567Y0157641D01*
X0236968Y0159088D01*
X0235860Y0160196D01*
X0234413Y0160795D01*
X0232847Y0160795D01*
X0231400Y0160196D01*
X0230292Y0159088D01*
X0229693Y0157641D01*
X0229693Y0156075D01*
X0230292Y0154628D01*
X0231400Y0153521D01*
X0232847Y0152921D01*
X0234413Y0152921D01*
X0232338Y0153132D02*
X0224997Y0153132D01*
X0224964Y0153118D02*
X0226411Y0153717D01*
X0227519Y0154825D01*
X0228118Y0156272D01*
X0228118Y0157838D01*
X0227519Y0159285D01*
X0226411Y0160393D01*
X0224964Y0160992D01*
X0223398Y0160992D01*
X0221951Y0160393D01*
X0220843Y0159285D01*
X0220244Y0157838D01*
X0220244Y0156272D01*
X0220843Y0154825D01*
X0221951Y0153717D01*
X0223398Y0153118D01*
X0224964Y0153118D01*
X0223365Y0153132D02*
X0199673Y0153132D01*
X0199370Y0154311D02*
X0211514Y0154311D01*
X0210610Y0155491D02*
X0193374Y0155491D01*
X0193374Y0156671D02*
X0210205Y0156671D01*
X0210205Y0157850D02*
X0193079Y0157850D01*
X0193079Y0159030D02*
X0210617Y0159030D01*
X0215286Y0163748D02*
X0244476Y0163748D01*
X0244476Y0162569D02*
X0201742Y0162569D01*
X0199769Y0162569D02*
X0195443Y0162569D01*
X0196130Y0161389D02*
X0199083Y0161389D01*
X0199369Y0160210D02*
X0195844Y0160210D01*
X0196630Y0154311D02*
X0193079Y0154311D01*
X0193079Y0153132D02*
X0196327Y0153132D01*
X0194468Y0151952D02*
X0193079Y0151952D01*
X0193079Y0150773D02*
X0194161Y0150773D01*
X0194828Y0149593D02*
X0193079Y0149593D01*
X0193079Y0148413D02*
X0196720Y0148413D01*
X0196720Y0147234D02*
X0193652Y0147234D01*
X0193866Y0146054D02*
X0196720Y0146054D01*
X0196720Y0144875D02*
X0193107Y0144875D01*
X0193079Y0143695D02*
X0196720Y0143695D01*
X0196720Y0142515D02*
X0193079Y0142515D01*
X0193079Y0141336D02*
X0196720Y0141336D01*
X0196720Y0140156D02*
X0193079Y0140156D01*
X0193079Y0138976D02*
X0196720Y0138976D01*
X0196720Y0137797D02*
X0193079Y0137797D01*
X0193513Y0136617D02*
X0196720Y0136617D01*
X0196720Y0135438D02*
X0194614Y0135438D01*
X0194614Y0134258D02*
X0196720Y0134258D01*
X0196720Y0133078D02*
X0193807Y0133078D01*
X0193079Y0131899D02*
X0196720Y0131899D01*
X0196720Y0130719D02*
X0194687Y0130719D01*
X0195205Y0129540D02*
X0196720Y0129540D01*
X0196720Y0128360D02*
X0194994Y0128360D01*
X0196720Y0127180D02*
X0193079Y0127180D01*
X0193079Y0126001D02*
X0196720Y0126001D01*
X0196720Y0124821D02*
X0194482Y0124821D01*
X0194811Y0123642D02*
X0196720Y0123642D01*
X0196720Y0122462D02*
X0194411Y0122462D01*
X0193887Y0121282D02*
X0196720Y0121282D01*
X0196720Y0120103D02*
X0194614Y0120103D01*
X0194612Y0118923D02*
X0196720Y0118923D01*
X0196720Y0117743D02*
X0193079Y0117743D01*
X0193079Y0116564D02*
X0196720Y0116564D01*
X0196720Y0115384D02*
X0193079Y0115384D01*
X0193079Y0114205D02*
X0196720Y0114205D01*
X0196720Y0113025D02*
X0193079Y0113025D01*
X0193079Y0111845D02*
X0196720Y0111845D01*
X0196720Y0110666D02*
X0193079Y0110666D01*
X0193079Y0109486D02*
X0196720Y0109486D01*
X0196720Y0108307D02*
X0193079Y0108307D01*
X0193079Y0107127D02*
X0196459Y0107127D01*
X0195280Y0105947D02*
X0193079Y0105947D01*
X0193079Y0104768D02*
X0194100Y0104768D01*
X0195360Y0102408D02*
X0258039Y0102408D01*
X0258039Y0101229D02*
X0194180Y0101229D01*
X0194057Y0100049D02*
X0258039Y0100049D01*
X0258039Y0098870D02*
X0194614Y0098870D01*
X0194442Y0097690D02*
X0258039Y0097690D01*
X0258039Y0096510D02*
X0193079Y0096510D01*
X0193079Y0095331D02*
X0258039Y0095331D01*
X0258039Y0094151D02*
X0223624Y0094151D01*
X0222834Y0094478D02*
X0221040Y0094478D01*
X0219382Y0093792D01*
X0218114Y0092523D01*
X0217427Y0090866D01*
X0217427Y0089071D01*
X0218114Y0087414D01*
X0219382Y0086145D01*
X0221040Y0085459D01*
X0222834Y0085459D01*
X0224492Y0086145D01*
X0225760Y0087414D01*
X0226447Y0089071D01*
X0226447Y0090866D01*
X0225760Y0092523D01*
X0224492Y0093792D01*
X0222834Y0094478D01*
X0220250Y0094151D02*
X0203624Y0094151D01*
X0202834Y0094478D02*
X0201040Y0094478D01*
X0199382Y0093792D01*
X0198114Y0092523D01*
X0197427Y0090866D01*
X0197427Y0089071D01*
X0198114Y0087414D01*
X0199382Y0086145D01*
X0201040Y0085459D01*
X0202834Y0085459D01*
X0204492Y0086145D01*
X0205760Y0087414D01*
X0206447Y0089071D01*
X0206447Y0090866D01*
X0205760Y0092523D01*
X0204492Y0093792D01*
X0202834Y0094478D01*
X0200250Y0094151D02*
X0193079Y0094151D01*
X0193079Y0092972D02*
X0198562Y0092972D01*
X0197811Y0091792D02*
X0193079Y0091792D01*
X0193079Y0090612D02*
X0197427Y0090612D01*
X0197427Y0089433D02*
X0193079Y0089433D01*
X0193079Y0088253D02*
X0197766Y0088253D01*
X0198454Y0087073D02*
X0193079Y0087073D01*
X0193079Y0085894D02*
X0199989Y0085894D01*
X0203885Y0085894D02*
X0219989Y0085894D01*
X0218454Y0087073D02*
X0205420Y0087073D01*
X0206108Y0088253D02*
X0217766Y0088253D01*
X0217427Y0089433D02*
X0206447Y0089433D01*
X0206447Y0090612D02*
X0217427Y0090612D01*
X0217811Y0091792D02*
X0206063Y0091792D01*
X0205312Y0092972D02*
X0218562Y0092972D01*
X0223885Y0085894D02*
X0244378Y0085894D01*
X0244452Y0085713D02*
X0245721Y0084445D01*
X0247379Y0083758D01*
X0249173Y0083758D01*
X0250830Y0084445D01*
X0252099Y0085713D01*
X0252785Y0087371D01*
X0252785Y0089165D01*
X0252099Y0090823D01*
X0250830Y0092091D01*
X0249173Y0092778D01*
X0247379Y0092778D01*
X0245721Y0092091D01*
X0244452Y0090823D01*
X0243766Y0089165D01*
X0243766Y0087371D01*
X0244452Y0085713D01*
X0245452Y0084714D02*
X0193079Y0084714D01*
X0193079Y0083535D02*
X0258039Y0083535D01*
X0258039Y0084714D02*
X0251100Y0084714D01*
X0252174Y0085894D02*
X0258039Y0085894D01*
X0258039Y0087073D02*
X0252662Y0087073D01*
X0252785Y0088253D02*
X0258039Y0088253D01*
X0258039Y0089433D02*
X0252675Y0089433D01*
X0252186Y0090612D02*
X0258039Y0090612D01*
X0258039Y0091792D02*
X0251130Y0091792D01*
X0245422Y0091792D02*
X0226063Y0091792D01*
X0226447Y0090612D02*
X0244365Y0090612D01*
X0243877Y0089433D02*
X0226447Y0089433D01*
X0226108Y0088253D02*
X0243766Y0088253D01*
X0243889Y0087073D02*
X0225420Y0087073D01*
X0225312Y0092972D02*
X0258039Y0092972D01*
X0258039Y0082355D02*
X0193079Y0082355D01*
X0193079Y0081175D02*
X0258039Y0081175D01*
X0258039Y0079996D02*
X0193079Y0079996D01*
X0193079Y0078816D02*
X0258039Y0078816D01*
X0258039Y0077637D02*
X0193079Y0077637D01*
X0193079Y0076457D02*
X0258039Y0076457D01*
X0258039Y0075277D02*
X0193079Y0075277D01*
X0193079Y0074098D02*
X0200121Y0074098D01*
X0199382Y0073792D02*
X0201040Y0074478D01*
X0202834Y0074478D01*
X0204492Y0073792D01*
X0205760Y0072523D01*
X0206447Y0070866D01*
X0206447Y0069071D01*
X0205760Y0067414D01*
X0204492Y0066145D01*
X0202834Y0065459D01*
X0201040Y0065459D01*
X0199382Y0066145D01*
X0198114Y0067414D01*
X0197427Y0069071D01*
X0197427Y0070866D01*
X0198114Y0072523D01*
X0199382Y0073792D01*
X0198509Y0072918D02*
X0193079Y0072918D01*
X0193079Y0071739D02*
X0197789Y0071739D01*
X0197427Y0070559D02*
X0193079Y0070559D01*
X0193079Y0069379D02*
X0197427Y0069379D01*
X0197788Y0068200D02*
X0193079Y0068200D01*
X0193079Y0067020D02*
X0198508Y0067020D01*
X0200118Y0065840D02*
X0193079Y0065840D01*
X0193079Y0064661D02*
X0245505Y0064661D01*
X0245721Y0064445D02*
X0247379Y0063758D01*
X0249173Y0063758D01*
X0250830Y0064445D01*
X0252099Y0065713D01*
X0252785Y0067371D01*
X0252785Y0069165D01*
X0252099Y0070823D01*
X0250830Y0072091D01*
X0249173Y0072778D01*
X0247379Y0072778D01*
X0245721Y0072091D01*
X0244452Y0070823D01*
X0243766Y0069165D01*
X0243766Y0067371D01*
X0244452Y0065713D01*
X0245721Y0064445D01*
X0244400Y0065840D02*
X0223756Y0065840D01*
X0224492Y0066145D02*
X0222834Y0065459D01*
X0221040Y0065459D01*
X0219382Y0066145D01*
X0218114Y0067414D01*
X0217427Y0069071D01*
X0217427Y0070866D01*
X0218114Y0072523D01*
X0219382Y0073792D01*
X0221040Y0074478D01*
X0222834Y0074478D01*
X0224492Y0073792D01*
X0225760Y0072523D01*
X0226447Y0070866D01*
X0226447Y0069071D01*
X0225760Y0067414D01*
X0224492Y0066145D01*
X0225366Y0067020D02*
X0243911Y0067020D01*
X0243766Y0068200D02*
X0226086Y0068200D01*
X0226447Y0069379D02*
X0243854Y0069379D01*
X0244343Y0070559D02*
X0226447Y0070559D01*
X0226085Y0071739D02*
X0245368Y0071739D01*
X0251183Y0071739D02*
X0258039Y0071739D01*
X0258039Y0072918D02*
X0225365Y0072918D01*
X0223753Y0074098D02*
X0258039Y0074098D01*
X0258039Y0070559D02*
X0252208Y0070559D01*
X0252697Y0069379D02*
X0258039Y0069379D01*
X0258039Y0068200D02*
X0252785Y0068200D01*
X0252640Y0067020D02*
X0258039Y0067020D01*
X0258039Y0065840D02*
X0252151Y0065840D01*
X0251046Y0064661D02*
X0258039Y0064661D01*
X0258039Y0063481D02*
X0193079Y0063481D01*
X0193079Y0062302D02*
X0258039Y0062302D01*
X0258039Y0061122D02*
X0193079Y0061122D01*
X0193079Y0059942D02*
X0258039Y0059942D01*
X0272186Y0055224D02*
X0226543Y0055224D01*
X0226543Y0056404D02*
X0272674Y0056404D01*
X0273787Y0057583D02*
X0226543Y0057583D01*
X0226543Y0058763D02*
X0273787Y0058763D01*
X0272094Y0054044D02*
X0226543Y0054044D01*
X0226543Y0052865D02*
X0272332Y0052865D01*
X0272999Y0051685D02*
X0226543Y0051685D01*
X0226543Y0050505D02*
X0273787Y0050505D01*
X0273787Y0049326D02*
X0226543Y0049326D01*
X0226543Y0048146D02*
X0273787Y0048146D01*
X0273787Y0046967D02*
X0226543Y0046967D01*
X0226543Y0045787D02*
X0273787Y0045787D01*
X0273787Y0044607D02*
X0226543Y0044607D01*
X0226543Y0043428D02*
X0273787Y0043428D01*
X0273787Y0042248D02*
X0226543Y0042248D01*
X0226543Y0041069D02*
X0273787Y0041069D01*
X0273787Y0039889D02*
X0226543Y0039889D01*
X0226543Y0038709D02*
X0273787Y0038709D01*
X0273787Y0037530D02*
X0226543Y0037530D01*
X0226543Y0036350D02*
X0273787Y0036350D01*
X0273787Y0035170D02*
X0226543Y0035170D01*
X0226543Y0033991D02*
X0273787Y0033991D01*
X0273787Y0032811D02*
X0226543Y0032811D01*
X0226543Y0031632D02*
X0273787Y0031632D01*
X0273787Y0030452D02*
X0226543Y0030452D01*
X0226543Y0029272D02*
X0273787Y0029272D01*
X0273787Y0028093D02*
X0226543Y0028093D01*
X0226543Y0026913D02*
X0273787Y0026913D01*
X0273787Y0025734D02*
X0226543Y0025734D01*
X0226543Y0024554D02*
X0273787Y0024554D01*
X0273787Y0023374D02*
X0226543Y0023374D01*
X0226543Y0022195D02*
X0273787Y0022195D01*
X0273787Y0021015D02*
X0226543Y0021015D01*
X0220118Y0065840D02*
X0203756Y0065840D01*
X0205366Y0067020D02*
X0218508Y0067020D01*
X0217788Y0068200D02*
X0206086Y0068200D01*
X0206447Y0069379D02*
X0217427Y0069379D01*
X0217427Y0070559D02*
X0206447Y0070559D01*
X0206085Y0071739D02*
X0217789Y0071739D01*
X0218509Y0072918D02*
X0205365Y0072918D01*
X0203753Y0074098D02*
X0220121Y0074098D01*
X0196539Y0103588D02*
X0258039Y0103588D01*
X0258039Y0104768D02*
X0197719Y0104768D01*
X0198899Y0105947D02*
X0258039Y0105947D01*
X0258039Y0107127D02*
X0199280Y0107127D01*
X0199280Y0108307D02*
X0258039Y0108307D01*
X0258039Y0109486D02*
X0199280Y0109486D01*
X0199280Y0110666D02*
X0258039Y0110666D01*
X0258039Y0111845D02*
X0199280Y0111845D01*
X0199280Y0113025D02*
X0258039Y0113025D01*
X0258039Y0114205D02*
X0199280Y0114205D01*
X0199280Y0115384D02*
X0258039Y0115384D01*
X0258039Y0116564D02*
X0199280Y0116564D01*
X0199280Y0117743D02*
X0258039Y0117743D01*
X0258039Y0118923D02*
X0199280Y0118923D01*
X0199280Y0120103D02*
X0258039Y0120103D01*
X0258039Y0121282D02*
X0199280Y0121282D01*
X0199280Y0122462D02*
X0258039Y0122462D01*
X0258039Y0123642D02*
X0199280Y0123642D01*
X0199280Y0124821D02*
X0258039Y0124821D01*
X0258039Y0126001D02*
X0199280Y0126001D01*
X0199280Y0127180D02*
X0258039Y0127180D01*
X0258039Y0128360D02*
X0199280Y0128360D01*
X0199280Y0129540D02*
X0258039Y0129540D01*
X0258039Y0130719D02*
X0199280Y0130719D01*
X0199280Y0131899D02*
X0258039Y0131899D01*
X0258039Y0133078D02*
X0199280Y0133078D01*
X0199280Y0134258D02*
X0258039Y0134258D01*
X0258039Y0135438D02*
X0199280Y0135438D01*
X0199280Y0136617D02*
X0258039Y0136617D01*
X0258039Y0137797D02*
X0199280Y0137797D01*
X0199280Y0138976D02*
X0258039Y0138976D01*
X0258039Y0140156D02*
X0199280Y0140156D01*
X0199280Y0141336D02*
X0258039Y0141336D01*
X0258039Y0142515D02*
X0251276Y0142515D01*
X0251701Y0142941D02*
X0250548Y0141787D01*
X0248917Y0141787D01*
X0247764Y0142941D01*
X0247764Y0144571D01*
X0248917Y0145724D01*
X0250548Y0145724D01*
X0251701Y0144571D01*
X0251701Y0142941D01*
X0251701Y0143695D02*
X0258039Y0143695D01*
X0258039Y0144875D02*
X0251398Y0144875D01*
X0250257Y0146054D02*
X0247436Y0146054D01*
X0247508Y0146126D02*
X0246528Y0145146D01*
X0245142Y0145146D01*
X0244260Y0146027D01*
X0243772Y0145539D01*
X0242386Y0145539D01*
X0241406Y0146520D01*
X0241406Y0147906D01*
X0242386Y0148886D01*
X0243772Y0148886D01*
X0244654Y0148004D01*
X0245142Y0148492D01*
X0246528Y0148492D01*
X0247508Y0147512D01*
X0247508Y0146126D01*
X0247508Y0147234D02*
X0249890Y0147234D01*
X0250496Y0148413D02*
X0246606Y0148413D01*
X0245063Y0148413D02*
X0244244Y0148413D01*
X0241913Y0148413D02*
X0199280Y0148413D01*
X0199280Y0147234D02*
X0200576Y0147234D01*
X0199790Y0146054D02*
X0199280Y0146054D01*
X0199280Y0142515D02*
X0248189Y0142515D01*
X0247764Y0143695D02*
X0202164Y0143695D01*
X0202950Y0144875D02*
X0203287Y0144875D01*
X0204918Y0144875D02*
X0221003Y0144875D01*
X0220736Y0145142D02*
X0221716Y0144161D01*
X0223103Y0144161D01*
X0223394Y0144453D01*
X0223685Y0144161D01*
X0225071Y0144161D01*
X0226051Y0145142D01*
X0226051Y0146528D01*
X0225071Y0147508D01*
X0223685Y0147508D01*
X0223394Y0147217D01*
X0223103Y0147508D01*
X0221716Y0147508D01*
X0220736Y0146528D01*
X0220736Y0145142D01*
X0220736Y0146054D02*
X0205776Y0146054D01*
X0205660Y0147234D02*
X0221442Y0147234D01*
X0223377Y0147234D02*
X0223411Y0147234D01*
X0225345Y0147234D02*
X0229513Y0147234D01*
X0229787Y0147508D02*
X0228807Y0146528D01*
X0228807Y0145142D01*
X0229787Y0144161D01*
X0231173Y0144161D01*
X0232154Y0145142D01*
X0232154Y0146528D01*
X0231173Y0147508D01*
X0229787Y0147508D01*
X0231447Y0147234D02*
X0233253Y0147234D01*
X0233527Y0147508D02*
X0232547Y0146528D01*
X0232547Y0145142D01*
X0233527Y0144161D01*
X0234914Y0144161D01*
X0235303Y0144551D01*
X0235693Y0144161D01*
X0237079Y0144161D01*
X0238059Y0145142D01*
X0238059Y0146528D01*
X0237079Y0147508D01*
X0235693Y0147508D01*
X0235303Y0147118D01*
X0234914Y0147508D01*
X0233527Y0147508D01*
X0235188Y0147234D02*
X0235419Y0147234D01*
X0237353Y0147234D02*
X0241406Y0147234D01*
X0241871Y0146054D02*
X0238059Y0146054D01*
X0237792Y0144875D02*
X0248067Y0144875D01*
X0252630Y0148413D02*
X0252649Y0148413D01*
X0254587Y0148413D02*
X0255051Y0148413D01*
X0256988Y0148413D02*
X0257386Y0148413D01*
X0258039Y0149593D02*
X0199280Y0149593D01*
X0199280Y0150773D02*
X0258039Y0150773D01*
X0258039Y0151952D02*
X0199280Y0151952D01*
X0216769Y0154311D02*
X0221357Y0154311D01*
X0220568Y0155491D02*
X0217674Y0155491D01*
X0218079Y0156671D02*
X0220244Y0156671D01*
X0220249Y0157850D02*
X0218079Y0157850D01*
X0217667Y0159030D02*
X0220738Y0159030D01*
X0221768Y0160210D02*
X0216752Y0160210D01*
X0216756Y0164928D02*
X0220583Y0164928D01*
X0220967Y0164544D02*
X0222414Y0163945D01*
X0223980Y0163945D01*
X0225427Y0164544D01*
X0226534Y0165652D01*
X0227134Y0167099D01*
X0227134Y0168665D01*
X0226534Y0170112D01*
X0225427Y0171220D01*
X0223980Y0171819D01*
X0222414Y0171819D01*
X0220967Y0171220D01*
X0219859Y0170112D01*
X0219260Y0168665D01*
X0219260Y0167099D01*
X0219859Y0165652D01*
X0220967Y0164544D01*
X0219670Y0166108D02*
X0217322Y0166108D01*
X0217488Y0167287D02*
X0219260Y0167287D01*
X0219260Y0168467D02*
X0217326Y0168467D01*
X0216764Y0169646D02*
X0219666Y0169646D01*
X0220573Y0170826D02*
X0215305Y0170826D01*
X0225820Y0170826D02*
X0230613Y0170826D01*
X0231006Y0171220D02*
X0229899Y0170112D01*
X0229299Y0168665D01*
X0229299Y0167099D01*
X0229899Y0165652D01*
X0231006Y0164544D01*
X0232453Y0163945D01*
X0234019Y0163945D01*
X0235466Y0164544D01*
X0236574Y0165652D01*
X0237173Y0167099D01*
X0237173Y0168665D01*
X0236574Y0170112D01*
X0235466Y0171220D01*
X0234019Y0171819D01*
X0232453Y0171819D01*
X0231006Y0171220D01*
X0229706Y0169646D02*
X0226727Y0169646D01*
X0227134Y0168467D02*
X0229299Y0168467D01*
X0229299Y0167287D02*
X0227134Y0167287D01*
X0226723Y0166108D02*
X0229710Y0166108D01*
X0230622Y0164928D02*
X0225811Y0164928D01*
X0226594Y0160210D02*
X0231433Y0160210D01*
X0230268Y0159030D02*
X0227624Y0159030D01*
X0228113Y0157850D02*
X0229779Y0157850D01*
X0229693Y0156671D02*
X0228118Y0156671D01*
X0227795Y0155491D02*
X0229935Y0155491D01*
X0230609Y0154311D02*
X0227005Y0154311D01*
X0226051Y0146054D02*
X0228807Y0146054D01*
X0229074Y0144875D02*
X0225784Y0144875D01*
X0231887Y0144875D02*
X0232814Y0144875D01*
X0232547Y0146054D02*
X0232154Y0146054D01*
X0236651Y0154311D02*
X0244322Y0154311D01*
X0243965Y0154669D02*
X0244945Y0153689D01*
X0246331Y0153689D01*
X0247311Y0154669D01*
X0247311Y0156055D01*
X0246331Y0157035D01*
X0244945Y0157035D01*
X0243965Y0156055D01*
X0243965Y0154669D01*
X0243965Y0155491D02*
X0237325Y0155491D01*
X0237567Y0156671D02*
X0244580Y0156671D01*
X0246696Y0156671D02*
X0250269Y0156671D01*
X0249673Y0155491D02*
X0247311Y0155491D01*
X0246953Y0154311D02*
X0250051Y0154311D01*
X0252424Y0156671D02*
X0252528Y0156671D01*
X0252677Y0157850D02*
X0237480Y0157850D01*
X0236992Y0159030D02*
X0252528Y0159030D01*
X0252635Y0160210D02*
X0235827Y0160210D01*
X0235850Y0164928D02*
X0258039Y0164928D01*
X0258039Y0166108D02*
X0247017Y0166108D01*
X0247311Y0166401D02*
X0247311Y0167788D01*
X0246823Y0168276D01*
X0247114Y0168567D01*
X0247114Y0169953D01*
X0246134Y0170933D01*
X0244748Y0170933D01*
X0243768Y0169953D01*
X0243768Y0168567D01*
X0244256Y0168079D01*
X0243965Y0167788D01*
X0243965Y0166401D01*
X0244945Y0165421D01*
X0246331Y0165421D01*
X0247311Y0166401D01*
X0247311Y0167287D02*
X0258039Y0167287D01*
X0258039Y0168467D02*
X0247014Y0168467D01*
X0247114Y0169646D02*
X0258039Y0169646D01*
X0258039Y0170826D02*
X0246241Y0170826D01*
X0244641Y0170826D02*
X0235860Y0170826D01*
X0236767Y0169646D02*
X0243768Y0169646D01*
X0243868Y0168467D02*
X0237173Y0168467D01*
X0237173Y0167287D02*
X0243965Y0167287D01*
X0244258Y0166108D02*
X0236763Y0166108D01*
X0247199Y0177904D02*
X0251163Y0177904D01*
X0250854Y0179083D02*
X0247508Y0179083D01*
X0246720Y0186161D02*
X0258039Y0186161D01*
X0258039Y0187341D02*
X0246720Y0187341D01*
X0238256Y0189700D02*
X0235964Y0189700D01*
X0236681Y0190879D02*
X0238256Y0190879D01*
X0234122Y0189630D02*
X0234122Y0189630D01*
X0226248Y0189700D02*
X0220146Y0189700D01*
X0220085Y0190879D02*
X0226248Y0190879D01*
X0220146Y0195598D02*
X0258039Y0195598D01*
X0258039Y0196778D02*
X0219699Y0196778D01*
X0216860Y0190879D02*
X0210697Y0190879D01*
X0210570Y0189700D02*
X0216799Y0189700D01*
X0197508Y0173185D02*
X0251642Y0173185D01*
X0251943Y0172006D02*
X0197207Y0172006D01*
X0254687Y0172006D02*
X0258039Y0172006D01*
X0258039Y0173185D02*
X0254988Y0173185D01*
D25*
X0198000Y0153315D02*
X0198000Y0106858D01*
X0162685Y0071543D01*
X0088512Y0071543D01*
X0088512Y0081543D02*
X0162449Y0081543D01*
X0190717Y0109811D01*
X0190717Y0132252D01*
X0192193Y0146327D02*
X0192193Y0146425D01*
X0111583Y0146425D01*
X0078512Y0113354D01*
X0078512Y0081543D01*
D26*
X0173000Y0212567D02*
X0170047Y0215520D01*
X0170047Y0234811D01*
X0173591Y0238354D01*
X0296031Y0238354D01*
X0305480Y0247803D01*
X0347724Y0247803D01*
X0350756Y0243079D02*
X0304102Y0243079D01*
X0296425Y0235402D01*
X0269850Y0235402D01*
X0254102Y0219654D01*
X0234024Y0219654D01*
X0230480Y0216110D01*
X0228118Y0216110D01*
X0227134Y0217094D02*
X0226740Y0216701D01*
X0226740Y0215520D01*
X0228906Y0213354D01*
X0252134Y0213354D01*
X0260402Y0221622D01*
X0260402Y0222803D01*
X0269457Y0231858D01*
X0359220Y0231858D01*
X0363945Y0236583D01*
X0363945Y0281661D01*
X0357843Y0287764D01*
X0357724Y0287803D01*
X0352921Y0290913D02*
X0352921Y0273000D01*
X0347724Y0267803D01*
X0366110Y0287764D02*
X0360992Y0292882D01*
X0354890Y0292882D01*
X0352921Y0290913D01*
X0366110Y0287764D02*
X0366110Y0235205D01*
X0361189Y0230283D01*
X0321622Y0230283D01*
X0303906Y0212567D01*
X0223591Y0212567D01*
X0211386Y0224772D01*
X0182449Y0224772D01*
X0175362Y0231858D01*
X0174181Y0231858D01*
X0174181Y0231937D01*
X0170835Y0234417D02*
X0173787Y0237370D01*
X0195047Y0237370D01*
X0202134Y0230283D01*
X0227724Y0230283D01*
X0231858Y0226150D01*
X0231858Y0219457D01*
X0230087Y0217685D01*
X0227134Y0217094D02*
X0227134Y0224378D01*
X0228118Y0225362D01*
X0228118Y0228000D01*
X0175559Y0220638D02*
X0175559Y0213945D01*
X0174181Y0212567D01*
X0173000Y0212567D01*
X0174181Y0218079D02*
X0170835Y0221425D01*
X0170835Y0234417D01*
X0173394Y0221996D02*
X0173394Y0221819D01*
X0174378Y0221819D01*
X0175559Y0220638D01*
X0350756Y0243079D02*
X0355874Y0237961D01*
X0357646Y0237961D01*
X0357724Y0237803D01*
M02*
