G75*
%MOIN*%
%OFA0B0*%
%FSLAX25Y25*%
%IPPOS*%
%LPD*%
%AMOC8*
5,1,8,0,0,1.08239X$1,22.5*
%
%ADD10C,0.06000*%
%ADD11C,0.04500*%
%ADD12C,0.05300*%
%ADD13C,0.07051*%
%ADD14C,0.05906*%
%ADD15C,0.01378*%
%ADD16C,0.11811*%
%ADD17C,0.01575*%
%ADD18C,0.02953*%
%ADD19C,0.01772*%
%ADD20C,0.01969*%
%ADD21C,0.00394*%
%ADD22C,0.01181*%
%ADD23C,0.00591*%
D10*
X0038512Y0071543D03*
X0048512Y0071543D03*
X0058512Y0071543D03*
X0068512Y0071543D03*
X0078512Y0071543D03*
X0088512Y0071543D03*
X0088512Y0081543D03*
X0078512Y0081543D03*
X0068512Y0081543D03*
X0058512Y0081543D03*
X0048512Y0081543D03*
X0038512Y0081543D03*
X0347724Y0237803D03*
X0347724Y0247803D03*
X0347724Y0257803D03*
X0347724Y0267803D03*
X0347724Y0277803D03*
X0347724Y0287803D03*
X0347724Y0297803D03*
X0357724Y0297803D03*
X0357724Y0287803D03*
X0357724Y0277803D03*
X0357724Y0267803D03*
X0357724Y0257803D03*
X0357724Y0247803D03*
X0357724Y0237803D03*
D11*
X0314614Y0195874D03*
X0314614Y0190874D03*
X0314614Y0166504D03*
X0314614Y0161504D03*
D12*
X0309614Y0159004D03*
X0309614Y0169004D03*
X0319614Y0169004D03*
X0319614Y0159004D03*
X0319614Y0188374D03*
X0309614Y0188374D03*
X0309614Y0198374D03*
X0319614Y0198374D03*
D13*
X0359693Y0192370D03*
X0379693Y0192370D03*
X0379693Y0212370D03*
X0359693Y0212370D03*
X0296937Y0277283D03*
X0311079Y0291425D03*
X0296937Y0305567D03*
X0282795Y0291425D03*
X0251110Y0289378D03*
X0231110Y0289378D03*
X0231110Y0309378D03*
X0251110Y0309378D03*
X0222528Y0352370D03*
X0222528Y0372370D03*
X0202528Y0372370D03*
X0202528Y0352370D03*
X0194929Y0309378D03*
X0174929Y0309378D03*
X0174929Y0289378D03*
X0194929Y0289378D03*
X0060047Y0285402D03*
X0040047Y0285402D03*
X0040047Y0265402D03*
X0060047Y0265402D03*
X0052882Y0322331D03*
X0052882Y0342331D03*
X0032882Y0342331D03*
X0032882Y0322331D03*
X0201937Y0089969D03*
X0221937Y0089969D03*
X0221937Y0069969D03*
X0201937Y0069969D03*
X0248276Y0068268D03*
X0268276Y0068268D03*
X0268276Y0088268D03*
X0248276Y0088268D03*
X0359102Y0082134D03*
X0359102Y0062134D03*
X0379102Y0062134D03*
X0379102Y0082134D03*
X0379102Y0116937D03*
X0359102Y0116937D03*
X0359102Y0136937D03*
X0379102Y0136937D03*
D14*
X0276031Y0054220D03*
X0269496Y0048630D03*
X0281268Y0014339D03*
X0324181Y0013551D03*
X0344772Y0024181D03*
X0354772Y0024181D03*
X0233630Y0156858D03*
X0224181Y0157055D03*
X0214142Y0157252D03*
X0213551Y0167291D03*
X0223197Y0167882D03*
X0223000Y0177921D03*
X0213551Y0178118D03*
X0232843Y0178118D03*
X0233236Y0167882D03*
X0154693Y0109417D03*
X0147606Y0060992D03*
X0124850Y0023000D03*
X0114850Y0023000D03*
X0143866Y0013551D03*
X0184811Y0013945D03*
X0196701Y0045441D03*
X0196740Y0053748D03*
X0089142Y0114339D03*
X0045441Y0113945D03*
X0023000Y0123906D03*
X0023000Y0133906D03*
X0100854Y0226740D03*
X0102724Y0234713D03*
X0102724Y0234713D03*
X0102724Y0243571D03*
X0102823Y0255579D03*
X0102528Y0264437D03*
X0102528Y0273197D03*
X0102626Y0281760D03*
X0102626Y0290323D03*
X0102626Y0298984D03*
X0102626Y0307449D03*
X0102626Y0316307D03*
X0102626Y0325165D03*
X0102528Y0339831D03*
X0102528Y0348197D03*
X0094260Y0345835D03*
X0108433Y0356071D03*
X0111976Y0348984D03*
X0139535Y0349378D03*
X0139142Y0363551D03*
X0164850Y0383236D03*
X0174850Y0383236D03*
X0259614Y0340224D03*
X0259811Y0330874D03*
X0273689Y0334811D03*
X0273787Y0326248D03*
X0273492Y0316799D03*
X0273197Y0308138D03*
X0281760Y0338157D03*
X0283236Y0347016D03*
X0285205Y0355677D03*
X0276740Y0355874D03*
X0266898Y0355480D03*
X0260008Y0349772D03*
X0291898Y0338354D03*
X0303807Y0337961D03*
X0312272Y0337961D03*
X0320933Y0337961D03*
X0329496Y0337961D03*
X0338059Y0337862D03*
X0337173Y0355579D03*
X0328610Y0355677D03*
X0320047Y0355677D03*
X0311386Y0355677D03*
X0302921Y0355677D03*
X0294063Y0355677D03*
X0348787Y0374969D03*
X0374181Y0345717D03*
X0374181Y0335717D03*
X0136976Y0228217D03*
X0127429Y0228217D03*
X0118177Y0228118D03*
X0109220Y0227921D03*
X0065913Y0348197D03*
X0057921Y0382843D03*
X0047921Y0382843D03*
X0086386Y0388748D03*
D15*
X0179299Y0276740D03*
X0179102Y0272016D03*
X0183433Y0265323D03*
X0186189Y0265323D03*
X0186189Y0262567D03*
X0183433Y0262567D03*
X0175953Y0261976D03*
X0168276Y0251937D03*
X0177173Y0240559D03*
X0179496Y0240717D03*
X0174181Y0235795D03*
X0174181Y0234024D03*
X0174181Y0231937D03*
X0174181Y0229969D03*
X0172213Y0228453D03*
X0173000Y0226346D03*
X0173197Y0224063D03*
X0173394Y0221996D03*
X0174181Y0220047D03*
X0174181Y0218079D03*
X0173787Y0216110D03*
X0173591Y0213945D03*
X0171622Y0210402D03*
X0168669Y0220047D03*
X0164929Y0222213D03*
X0164142Y0226346D03*
X0166504Y0232252D03*
X0184614Y0235795D03*
X0188748Y0235992D03*
X0190717Y0235992D03*
X0194654Y0235795D03*
X0194457Y0240126D03*
X0194457Y0246228D03*
X0184614Y0244063D03*
X0184614Y0250559D03*
X0195244Y0261976D03*
X0202921Y0259417D03*
X0210992Y0260205D03*
X0210992Y0262961D03*
X0213945Y0262961D03*
X0213945Y0260205D03*
X0222803Y0259417D03*
X0227528Y0254496D03*
X0231858Y0261780D03*
X0239732Y0262370D03*
X0239732Y0265323D03*
X0242882Y0265323D03*
X0242882Y0262370D03*
X0251740Y0261976D03*
X0248197Y0271622D03*
X0247606Y0275756D03*
X0234811Y0275756D03*
X0234811Y0272213D03*
X0217488Y0269654D03*
X0217882Y0278315D03*
X0207055Y0278315D03*
X0206858Y0269654D03*
X0189929Y0271622D03*
X0190323Y0276543D03*
X0205441Y0241504D03*
X0204969Y0239654D03*
X0205283Y0235795D03*
X0205244Y0233866D03*
X0205283Y0231858D03*
X0214339Y0223787D03*
X0205087Y0222213D03*
X0205087Y0220047D03*
X0205283Y0218079D03*
X0205283Y0216110D03*
X0205283Y0214142D03*
X0200953Y0210008D03*
X0202134Y0206268D03*
X0199575Y0200756D03*
X0194457Y0209614D03*
X0192488Y0209614D03*
X0186583Y0208827D03*
X0184614Y0208630D03*
X0182539Y0192685D03*
X0184713Y0191799D03*
X0180138Y0192685D03*
X0178118Y0191996D03*
X0195835Y0178906D03*
X0195835Y0174969D03*
X0195835Y0173000D03*
X0195638Y0167094D03*
X0192685Y0163157D03*
X0194457Y0161189D03*
X0191701Y0156071D03*
X0195835Y0150953D03*
X0198000Y0153315D03*
X0202134Y0146425D03*
X0204102Y0146425D03*
X0200559Y0144457D03*
X0192193Y0146327D03*
X0191110Y0144260D03*
X0190717Y0132252D03*
X0200756Y0161189D03*
X0186780Y0173787D03*
X0199181Y0185008D03*
X0200165Y0183039D03*
X0196228Y0188157D03*
X0209024Y0190520D03*
X0212173Y0190520D03*
X0218472Y0190126D03*
X0218472Y0195638D03*
X0224378Y0190520D03*
X0227921Y0190323D03*
X0230283Y0190520D03*
X0232449Y0190323D03*
X0235008Y0191110D03*
X0236780Y0192685D03*
X0239929Y0190323D03*
X0245047Y0186780D03*
X0245835Y0184811D03*
X0245835Y0178906D03*
X0246031Y0173000D03*
X0245441Y0169260D03*
X0245638Y0167094D03*
X0246150Y0163157D03*
X0246228Y0161386D03*
X0245638Y0155362D03*
X0251346Y0155382D03*
X0253925Y0154988D03*
X0254201Y0157008D03*
X0254201Y0159409D03*
X0254220Y0161386D03*
X0252331Y0161976D03*
X0253315Y0173000D03*
X0252528Y0178906D03*
X0261976Y0201543D03*
X0256858Y0206071D03*
X0262567Y0210992D03*
X0261976Y0214732D03*
X0261976Y0216504D03*
X0261189Y0218236D03*
X0261780Y0220047D03*
X0262016Y0222213D03*
X0257055Y0231858D03*
X0261976Y0233827D03*
X0261976Y0235795D03*
X0259614Y0241307D03*
X0256661Y0241504D03*
X0250953Y0240126D03*
X0250953Y0235795D03*
X0247213Y0235795D03*
X0245047Y0235795D03*
X0241110Y0235795D03*
X0235008Y0240717D03*
X0231661Y0240913D03*
X0230677Y0235992D03*
X0230874Y0233236D03*
X0230677Y0229969D03*
X0228118Y0228000D03*
X0229496Y0225953D03*
X0228709Y0224063D03*
X0229890Y0222272D03*
X0230480Y0220244D03*
X0230087Y0217685D03*
X0228118Y0216110D03*
X0230874Y0214732D03*
X0225559Y0214142D03*
X0230087Y0208433D03*
X0230362Y0205480D03*
X0234929Y0201248D03*
X0237163Y0200756D03*
X0239565Y0200756D03*
X0241898Y0201740D03*
X0249181Y0205087D03*
X0250953Y0205087D03*
X0250953Y0209811D03*
X0248984Y0209811D03*
X0243079Y0209811D03*
X0241110Y0209811D03*
X0225756Y0220244D03*
X0224575Y0226150D03*
X0223984Y0231661D03*
X0226346Y0232252D03*
X0241110Y0244063D03*
X0241110Y0252134D03*
X0251150Y0246425D03*
X0271622Y0263945D03*
X0270047Y0265717D03*
X0271425Y0268276D03*
X0273787Y0266307D03*
X0282252Y0267094D03*
X0283827Y0271819D03*
X0276543Y0278709D03*
X0272606Y0276937D03*
X0262567Y0271622D03*
X0277921Y0256858D03*
X0272213Y0227921D03*
X0274575Y0226937D03*
X0308079Y0212921D03*
X0310402Y0215126D03*
X0258157Y0146819D03*
X0256020Y0147016D03*
X0253618Y0147016D03*
X0251563Y0147114D03*
X0245835Y0146819D03*
X0243079Y0147213D03*
X0241504Y0145835D03*
X0236386Y0145835D03*
X0234220Y0145835D03*
X0230480Y0145835D03*
X0228315Y0145835D03*
X0224378Y0145835D03*
X0222409Y0145835D03*
X0216307Y0210992D03*
X0138748Y0064535D03*
X0109417Y0061386D03*
X0061780Y0026543D03*
X0033236Y0247016D03*
D16*
X0140520Y0263551D03*
D17*
X0068866Y0101543D03*
X0058630Y0101543D03*
X0068472Y0052921D03*
X0061583Y0023984D03*
X0130087Y0059024D03*
D18*
X0182252Y0217488D03*
X0186780Y0217685D03*
X0186780Y0222409D03*
X0181858Y0222606D03*
X0182055Y0228118D03*
X0181858Y0232646D03*
X0186780Y0232646D03*
X0187370Y0227921D03*
X0192291Y0227921D03*
X0192291Y0232449D03*
X0196819Y0232252D03*
X0197016Y0227921D03*
X0196622Y0222409D03*
X0192291Y0222213D03*
X0192488Y0217882D03*
X0196425Y0217685D03*
X0160402Y0227724D03*
X0150362Y0228118D03*
X0238551Y0232843D03*
X0243472Y0232646D03*
X0243276Y0227724D03*
X0238748Y0227724D03*
X0238551Y0222803D03*
X0243472Y0222409D03*
X0243276Y0217291D03*
X0238748Y0217488D03*
X0249181Y0217291D03*
X0253315Y0217488D03*
X0253315Y0221819D03*
X0248984Y0222016D03*
X0248984Y0227921D03*
X0253709Y0228118D03*
X0253512Y0232449D03*
X0248591Y0232646D03*
D19*
X0284063Y0275795D03*
X0286290Y0278022D03*
X0288515Y0280247D03*
X0290739Y0282471D03*
X0292963Y0284696D03*
X0295188Y0286920D03*
X0298081Y0288672D03*
X0294026Y0292452D03*
X0291802Y0290227D03*
X0289578Y0288003D03*
X0287353Y0285778D03*
X0285129Y0283554D03*
X0282904Y0281330D03*
X0280677Y0279102D03*
X0244024Y0300913D03*
X0243512Y0297409D03*
X0243512Y0294260D03*
X0243512Y0291110D03*
X0243512Y0287961D03*
X0243512Y0284811D03*
X0243512Y0281661D03*
X0243512Y0278512D03*
X0238709Y0278512D03*
X0238709Y0281661D03*
X0238709Y0284811D03*
X0238709Y0287961D03*
X0238709Y0291110D03*
X0238709Y0294260D03*
X0238709Y0297409D03*
X0238039Y0300835D03*
X0214929Y0300559D03*
X0214929Y0297409D03*
X0214929Y0294260D03*
X0214929Y0291110D03*
X0214929Y0287961D03*
X0214929Y0284811D03*
X0214929Y0281661D03*
X0210126Y0281661D03*
X0210126Y0284811D03*
X0210126Y0287961D03*
X0210126Y0291110D03*
X0210126Y0294260D03*
X0210126Y0297409D03*
X0204811Y0297213D03*
X0210126Y0303709D03*
X0210126Y0306858D03*
X0210126Y0310008D03*
X0210126Y0313157D03*
X0210126Y0316307D03*
X0210126Y0319457D03*
X0210126Y0322606D03*
X0210126Y0325756D03*
X0210126Y0328906D03*
X0210126Y0332055D03*
X0210126Y0335205D03*
X0210126Y0338354D03*
X0210126Y0341504D03*
X0210126Y0344654D03*
X0210126Y0347803D03*
X0210126Y0350953D03*
X0210126Y0354102D03*
X0210126Y0357252D03*
X0209732Y0360520D03*
X0215402Y0360480D03*
X0214929Y0357252D03*
X0214929Y0354102D03*
X0214929Y0350953D03*
X0214929Y0347803D03*
X0214929Y0344654D03*
X0214929Y0341504D03*
X0214929Y0338354D03*
X0214929Y0335205D03*
X0214929Y0332055D03*
X0214929Y0328906D03*
X0214929Y0325756D03*
X0214929Y0322606D03*
X0214929Y0319457D03*
X0214929Y0316307D03*
X0214929Y0313157D03*
X0214929Y0310008D03*
X0214929Y0306858D03*
X0214929Y0303709D03*
X0188472Y0299063D03*
X0187331Y0295835D03*
X0187331Y0292685D03*
X0187331Y0289535D03*
X0187331Y0286386D03*
X0187331Y0283236D03*
X0187331Y0280087D03*
X0182528Y0280087D03*
X0182528Y0283236D03*
X0182528Y0286386D03*
X0182528Y0289535D03*
X0182528Y0292685D03*
X0182528Y0295835D03*
X0181268Y0299063D03*
D20*
X0013512Y0025646D03*
X0033197Y0025646D03*
X0052882Y0025646D03*
X0056622Y0041591D03*
X0043039Y0045331D03*
X0023354Y0045331D03*
X0028669Y0068756D03*
X0026701Y0087260D03*
X0041661Y0088835D03*
X0036346Y0106551D03*
X0049732Y0105764D03*
X0053669Y0113835D03*
X0058394Y0117969D03*
X0063276Y0119622D03*
X0071780Y0112260D03*
X0072567Y0104386D03*
X0064102Y0101433D03*
X0086740Y0106354D03*
X0092252Y0104386D03*
X0105638Y0108126D03*
X0106819Y0123480D03*
X0118827Y0137850D03*
X0131819Y0141000D03*
X0121780Y0124071D03*
X0134181Y0110488D03*
X0132606Y0107732D03*
X0143630Y0109504D03*
X0142252Y0088638D03*
X0155047Y0088835D03*
X0161346Y0092969D03*
X0170008Y0093756D03*
X0190480Y0093953D03*
X0192646Y0098677D03*
X0190480Y0084110D03*
X0190480Y0074268D03*
X0190480Y0064425D03*
X0190480Y0054583D03*
X0188669Y0049346D03*
X0185402Y0045370D03*
X0170992Y0065016D03*
X0164693Y0063047D03*
X0170598Y0072496D03*
X0151307Y0065016D03*
X0140480Y0058126D03*
X0121976Y0088638D03*
X0111937Y0065016D03*
X0095992Y0065213D03*
X0095008Y0087654D03*
X0085165Y0089031D03*
X0072567Y0065016D03*
X0052882Y0065016D03*
X0013512Y0104386D03*
X0014496Y0125055D03*
X0013512Y0143756D03*
X0028669Y0158323D03*
X0023354Y0163441D03*
X0013315Y0167575D03*
X0027291Y0181551D03*
X0013512Y0183126D03*
X0023354Y0202811D03*
X0037921Y0202811D03*
X0052882Y0183126D03*
X0062724Y0202811D03*
X0075913Y0202614D03*
X0072567Y0183126D03*
X0092252Y0178992D03*
X0102094Y0163441D03*
X0095598Y0152614D03*
X0082409Y0163441D03*
X0111740Y0178402D03*
X0118433Y0167378D03*
X0130244Y0179386D03*
X0123748Y0184307D03*
X0136937Y0184898D03*
X0149142Y0195528D03*
X0150717Y0200055D03*
X0156031Y0200646D03*
X0141465Y0202811D03*
X0131228Y0200055D03*
X0121780Y0202811D03*
X0112134Y0199268D03*
X0102094Y0202811D03*
X0072567Y0222496D03*
X0052882Y0222496D03*
X0033197Y0222496D03*
X0013512Y0222496D03*
X0023354Y0242181D03*
X0038906Y0249268D03*
X0037528Y0255370D03*
X0031031Y0262063D03*
X0030835Y0268953D03*
X0031228Y0279189D03*
X0025126Y0281354D03*
X0030638Y0287654D03*
X0033787Y0295134D03*
X0033197Y0301236D03*
X0043236Y0294740D03*
X0053472Y0295134D03*
X0052882Y0301236D03*
X0046583Y0308717D03*
X0049246Y0312567D03*
X0055638Y0316000D03*
X0060470Y0321412D03*
X0070992Y0321118D03*
X0070205Y0311472D03*
X0072567Y0301236D03*
X0065874Y0294543D03*
X0070008Y0288244D03*
X0069614Y0281945D03*
X0070402Y0266591D03*
X0072567Y0261866D03*
X0070008Y0255764D03*
X0058984Y0255567D03*
X0052882Y0261866D03*
X0048945Y0255567D03*
X0062724Y0242181D03*
X0013512Y0261866D03*
X0013512Y0301236D03*
X0018433Y0318559D03*
X0023518Y0322721D03*
X0022035Y0329414D03*
X0022258Y0336666D03*
X0024947Y0343404D03*
X0029779Y0348815D03*
X0027903Y0353232D03*
X0023354Y0360291D03*
X0036150Y0352614D03*
X0043351Y0353287D03*
X0050453Y0351808D03*
X0053079Y0356354D03*
X0056622Y0347990D03*
X0061112Y0342291D03*
X0034964Y0313007D03*
X0028795Y0316826D03*
X0042066Y0311528D03*
X0013512Y0340606D03*
X0013512Y0379976D03*
X0131622Y0340606D03*
X0151307Y0340606D03*
X0151110Y0321118D03*
X0164890Y0323087D03*
X0171189Y0318559D03*
X0165087Y0315409D03*
X0165087Y0307732D03*
X0165087Y0300843D03*
X0165087Y0292575D03*
X0164693Y0283717D03*
X0161150Y0281551D03*
X0169417Y0278992D03*
X0174142Y0279583D03*
X0170992Y0261866D03*
X0167843Y0256748D03*
X0162331Y0256354D03*
X0161937Y0263441D03*
X0150323Y0256157D03*
X0129850Y0262063D03*
X0129654Y0284307D03*
X0141465Y0281551D03*
X0147764Y0299858D03*
X0129654Y0300055D03*
X0170992Y0340606D03*
X0190677Y0340606D03*
X0193039Y0345921D03*
X0198945Y0341394D03*
X0205638Y0340803D03*
X0221189Y0340213D03*
X0230047Y0340606D03*
X0232409Y0343559D03*
X0231819Y0351039D03*
X0231819Y0361079D03*
X0232016Y0367378D03*
X0242449Y0360291D03*
X0250717Y0360094D03*
X0259575Y0360291D03*
X0249732Y0340606D03*
X0241858Y0322102D03*
X0247173Y0318559D03*
X0259181Y0319150D03*
X0260953Y0308913D03*
X0260559Y0301039D03*
X0260953Y0293953D03*
X0260559Y0286276D03*
X0261150Y0277220D03*
X0257213Y0267378D03*
X0255638Y0263244D03*
X0250913Y0255961D03*
X0249535Y0279386D03*
X0233787Y0279386D03*
X0227685Y0278992D03*
X0222567Y0278992D03*
X0220795Y0290213D03*
X0220795Y0300843D03*
X0220992Y0310094D03*
X0221976Y0318165D03*
X0220205Y0320921D03*
X0231622Y0318953D03*
X0210362Y0301236D03*
X0204654Y0301039D03*
X0205047Y0307535D03*
X0204654Y0314425D03*
X0200520Y0320921D03*
X0197173Y0318362D03*
X0189299Y0318559D03*
X0181031Y0319150D03*
X0204457Y0289425D03*
X0204260Y0283717D03*
X0198945Y0279386D03*
X0193433Y0279583D03*
X0199732Y0261866D03*
X0196189Y0256157D03*
X0217646Y0247496D03*
X0220539Y0247311D03*
X0219417Y0250252D03*
X0223354Y0255764D03*
X0227094Y0261276D03*
X0224142Y0264031D03*
X0267843Y0218953D03*
X0266661Y0200449D03*
X0286937Y0216984D03*
X0291661Y0218756D03*
X0288709Y0202417D03*
X0298945Y0202811D03*
X0289102Y0183126D03*
X0289299Y0178008D03*
X0300717Y0178795D03*
X0288020Y0155272D03*
X0297764Y0151630D03*
X0289102Y0143756D03*
X0288512Y0136276D03*
X0306819Y0118756D03*
X0317449Y0114622D03*
X0308787Y0104386D03*
X0318827Y0099465D03*
X0328472Y0104386D03*
X0338906Y0098677D03*
X0348157Y0104386D03*
X0358394Y0103402D03*
X0367843Y0104386D03*
X0387528Y0104386D03*
X0390874Y0124268D03*
X0390480Y0144543D03*
X0377685Y0162063D03*
X0368039Y0146906D03*
X0358197Y0162063D03*
X0348157Y0143756D03*
X0336150Y0162260D03*
X0326110Y0162850D03*
X0328472Y0143756D03*
X0308787Y0143756D03*
X0289102Y0104386D03*
X0280874Y0103480D03*
X0280638Y0093165D03*
X0288315Y0089425D03*
X0293039Y0077024D03*
X0289102Y0065016D03*
X0284339Y0052693D03*
X0280913Y0047614D03*
X0284299Y0043835D03*
X0291189Y0050094D03*
X0271976Y0062457D03*
X0265283Y0062457D03*
X0260953Y0062260D03*
X0260362Y0069346D03*
X0265717Y0101433D03*
X0269417Y0104386D03*
X0263827Y0110528D03*
X0263472Y0115055D03*
X0261858Y0119780D03*
X0260717Y0124071D03*
X0260913Y0128087D03*
X0261150Y0132339D03*
X0260559Y0141197D03*
X0260953Y0150252D03*
X0249732Y0143756D03*
X0261150Y0166000D03*
X0265480Y0163835D03*
X0221780Y0201039D03*
X0195992Y0200843D03*
X0188315Y0184701D03*
X0176898Y0185488D03*
X0186976Y0171031D03*
X0177291Y0160094D03*
X0172567Y0163244D03*
X0166661Y0160882D03*
X0173157Y0154780D03*
X0170992Y0143756D03*
X0174535Y0137063D03*
X0171583Y0131945D03*
X0171937Y0124858D03*
X0161150Y0124071D03*
X0189496Y0152417D03*
X0192646Y0134701D03*
X0193236Y0129386D03*
X0192843Y0123677D03*
X0192646Y0119740D03*
X0144811Y0156945D03*
X0173945Y0255764D03*
X0273551Y0241984D03*
X0276740Y0243079D03*
X0279850Y0243362D03*
X0286150Y0242378D03*
X0285559Y0246512D03*
X0285362Y0251630D03*
X0295598Y0242378D03*
X0309378Y0254189D03*
X0310756Y0263441D03*
X0317252Y0263047D03*
X0303669Y0270331D03*
X0308984Y0276433D03*
X0306031Y0278402D03*
X0315283Y0281945D03*
X0323551Y0289819D03*
X0328472Y0301236D03*
X0313512Y0303205D03*
X0302685Y0313638D03*
X0296189Y0319150D03*
X0285953Y0310488D03*
X0281425Y0304189D03*
X0272370Y0301433D03*
X0273354Y0296709D03*
X0272961Y0287063D03*
X0276307Y0283323D03*
X0288906Y0271906D03*
X0293433Y0267575D03*
X0282409Y0263244D03*
X0315874Y0235291D03*
X0308787Y0225449D03*
X0324732Y0235094D03*
X0327882Y0225252D03*
X0329063Y0203205D03*
X0344024Y0206748D03*
X0349339Y0206354D03*
X0348551Y0220528D03*
X0370205Y0242969D03*
X0386740Y0241984D03*
X0387528Y0222496D03*
X0374339Y0222693D03*
X0392252Y0202417D03*
X0387528Y0183126D03*
X0367843Y0183126D03*
X0348157Y0183126D03*
X0340087Y0186472D03*
X0328472Y0183126D03*
X0370795Y0261866D03*
X0387528Y0261866D03*
X0379654Y0282929D03*
X0370205Y0282535D03*
X0368827Y0301827D03*
X0387528Y0302220D03*
X0338315Y0281551D03*
X0279260Y0320921D03*
X0289102Y0379976D03*
X0269417Y0379976D03*
X0249732Y0379976D03*
X0230244Y0381945D03*
X0220402Y0381945D03*
X0210953Y0385094D03*
X0210362Y0379976D03*
X0200323Y0380961D03*
X0193433Y0373087D03*
X0190677Y0379976D03*
X0192646Y0363638D03*
X0192252Y0355370D03*
X0308787Y0379976D03*
X0328472Y0379976D03*
X0348453Y0383618D03*
X0367843Y0379976D03*
X0387528Y0379976D03*
X0338315Y0084701D03*
X0328472Y0065016D03*
X0318630Y0084701D03*
X0308787Y0065016D03*
X0263709Y0017772D03*
X0257016Y0017969D03*
X0250717Y0017969D03*
X0240480Y0016984D03*
X0237134Y0016984D03*
X0230047Y0014622D03*
X0223157Y0017575D03*
X0217646Y0017772D03*
X0212331Y0017575D03*
X0202055Y0017142D03*
X0196386Y0016748D03*
X0270598Y0015213D03*
X0377685Y0045331D03*
X0394024Y0062063D03*
X0387528Y0025646D03*
X0092252Y0022496D03*
X0073157Y0018756D03*
X0009575Y0065016D03*
X0033197Y0143756D03*
D21*
X0074575Y0203709D02*
X0074575Y0354890D01*
X0100953Y0354890D01*
X0100953Y0351380D01*
X0100520Y0351201D01*
X0099524Y0350204D01*
X0098984Y0348902D01*
X0098984Y0347492D01*
X0099524Y0346190D01*
X0100520Y0345193D01*
X0100953Y0345014D01*
X0100953Y0343014D01*
X0100520Y0342835D01*
X0099524Y0341838D01*
X0098984Y0340536D01*
X0098984Y0339126D01*
X0099524Y0337824D01*
X0100520Y0336827D01*
X0100953Y0336648D01*
X0100953Y0328308D01*
X0100619Y0328169D01*
X0099622Y0327172D01*
X0099083Y0325870D01*
X0099083Y0324461D01*
X0099622Y0323158D01*
X0100619Y0322161D01*
X0100953Y0322023D01*
X0100953Y0319449D01*
X0100619Y0319311D01*
X0099622Y0318314D01*
X0099083Y0317012D01*
X0099083Y0315602D01*
X0099622Y0314300D01*
X0100619Y0313303D01*
X0100953Y0313165D01*
X0100953Y0310591D01*
X0100619Y0310453D01*
X0099622Y0309456D01*
X0099083Y0308154D01*
X0099083Y0306744D01*
X0099622Y0305442D01*
X0100619Y0304445D01*
X0100953Y0304307D01*
X0100953Y0302126D01*
X0100619Y0301988D01*
X0099622Y0300991D01*
X0099083Y0299689D01*
X0099083Y0298279D01*
X0099622Y0296977D01*
X0100619Y0295980D01*
X0100953Y0295842D01*
X0100953Y0293465D01*
X0100619Y0293327D01*
X0099622Y0292330D01*
X0099083Y0291028D01*
X0099083Y0289618D01*
X0099622Y0288316D01*
X0100619Y0287319D01*
X0100953Y0287181D01*
X0100953Y0284902D01*
X0100619Y0284764D01*
X0099622Y0283767D01*
X0099083Y0282465D01*
X0099083Y0281055D01*
X0099622Y0279753D01*
X0100619Y0278756D01*
X0100953Y0278618D01*
X0100953Y0276380D01*
X0100520Y0276201D01*
X0099524Y0275204D01*
X0098984Y0273902D01*
X0098984Y0272492D01*
X0099524Y0271190D01*
X0100520Y0270193D01*
X0100953Y0270014D01*
X0100953Y0267620D01*
X0100520Y0267441D01*
X0099524Y0266444D01*
X0098984Y0265142D01*
X0098984Y0263732D01*
X0099524Y0262430D01*
X0100520Y0261433D01*
X0100953Y0261254D01*
X0100953Y0258639D01*
X0100816Y0258583D01*
X0099819Y0257586D01*
X0099280Y0256284D01*
X0099280Y0254874D01*
X0099819Y0253572D01*
X0100816Y0252575D01*
X0100953Y0252518D01*
X0100953Y0246672D01*
X0100717Y0246575D01*
X0099721Y0245578D01*
X0099181Y0244276D01*
X0099181Y0242866D01*
X0099721Y0241564D01*
X0100717Y0240567D01*
X0100953Y0240469D01*
X0100953Y0237814D01*
X0100717Y0237716D01*
X0099721Y0236720D01*
X0099181Y0235417D01*
X0099181Y0234008D01*
X0099721Y0232705D01*
X0100717Y0231709D01*
X0100953Y0231611D01*
X0100953Y0230283D01*
X0100150Y0230283D01*
X0098847Y0229744D01*
X0097850Y0228747D01*
X0097311Y0227445D01*
X0097311Y0226035D01*
X0097850Y0224733D01*
X0098847Y0223736D01*
X0100150Y0223197D01*
X0101559Y0223197D01*
X0102861Y0223736D01*
X0103858Y0224733D01*
X0104398Y0226035D01*
X0104398Y0226937D01*
X0105793Y0226937D01*
X0106217Y0225914D01*
X0107213Y0224917D01*
X0108516Y0224378D01*
X0109925Y0224378D01*
X0111228Y0224917D01*
X0112224Y0225914D01*
X0112648Y0226937D01*
X0114831Y0226937D01*
X0115173Y0226111D01*
X0116170Y0225114D01*
X0117472Y0224575D01*
X0118882Y0224575D01*
X0120184Y0225114D01*
X0121181Y0226111D01*
X0121523Y0226937D01*
X0124124Y0226937D01*
X0124425Y0226209D01*
X0125422Y0225213D01*
X0126724Y0224673D01*
X0128134Y0224673D01*
X0129436Y0225213D01*
X0130433Y0226209D01*
X0130734Y0226937D01*
X0133671Y0226937D01*
X0133973Y0226209D01*
X0134969Y0225213D01*
X0136272Y0224673D01*
X0137681Y0224673D01*
X0138983Y0225213D01*
X0139980Y0226209D01*
X0140282Y0226937D01*
X0148620Y0226937D01*
X0149506Y0226051D01*
X0151218Y0226051D01*
X0152104Y0226937D01*
X0158335Y0226937D01*
X0158335Y0226868D01*
X0159545Y0225657D01*
X0161258Y0225657D01*
X0162468Y0226868D01*
X0162468Y0226937D01*
X0162923Y0226937D01*
X0162862Y0226876D01*
X0162862Y0225816D01*
X0163612Y0225067D01*
X0164672Y0225067D01*
X0165421Y0225816D01*
X0165421Y0226876D01*
X0165361Y0226937D01*
X0180313Y0226937D01*
X0181199Y0226051D01*
X0182911Y0226051D01*
X0183797Y0226937D01*
X0184417Y0226937D01*
X0184417Y0219457D01*
X0185628Y0219457D01*
X0184713Y0218541D01*
X0184713Y0216829D01*
X0185923Y0215618D01*
X0187636Y0215618D01*
X0188846Y0216829D01*
X0188846Y0218541D01*
X0187931Y0219457D01*
X0191140Y0219457D01*
X0190421Y0218738D01*
X0190421Y0217026D01*
X0191632Y0215815D01*
X0193344Y0215815D01*
X0194358Y0216829D01*
X0195569Y0215618D01*
X0197281Y0215618D01*
X0198492Y0216829D01*
X0198492Y0218541D01*
X0197577Y0219457D01*
X0203868Y0219457D01*
X0204557Y0218768D01*
X0205617Y0218768D01*
X0206306Y0219457D01*
X0220244Y0219457D01*
X0220244Y0227331D01*
X0223946Y0227331D01*
X0223295Y0226680D01*
X0223295Y0225620D01*
X0224045Y0224870D01*
X0225105Y0224870D01*
X0225854Y0225620D01*
X0225854Y0226680D01*
X0225203Y0227331D01*
X0226978Y0227331D01*
X0227588Y0226720D01*
X0228648Y0226720D01*
X0229258Y0227331D01*
X0235598Y0227331D01*
X0235598Y0219063D01*
X0237400Y0219063D01*
X0236681Y0218344D01*
X0236681Y0216632D01*
X0237892Y0215421D01*
X0239604Y0215421D01*
X0240815Y0216632D01*
X0240815Y0218344D01*
X0240096Y0219063D01*
X0242124Y0219063D01*
X0241209Y0218147D01*
X0241209Y0216435D01*
X0242419Y0215224D01*
X0244132Y0215224D01*
X0245343Y0216435D01*
X0245343Y0218147D01*
X0244427Y0219063D01*
X0248030Y0219063D01*
X0247114Y0218147D01*
X0247114Y0216435D01*
X0248325Y0215224D01*
X0250037Y0215224D01*
X0251248Y0216435D01*
X0251248Y0218147D01*
X0250333Y0219063D01*
X0251967Y0219063D01*
X0251248Y0218344D01*
X0251248Y0216632D01*
X0252459Y0215421D01*
X0254171Y0215421D01*
X0255382Y0216632D01*
X0255382Y0218344D01*
X0254663Y0219063D01*
X0260954Y0219063D01*
X0261250Y0218768D01*
X0262310Y0218768D01*
X0262605Y0219063D01*
X0266268Y0219063D01*
X0266268Y0218300D01*
X0267190Y0217378D01*
X0267882Y0217378D01*
X0267882Y0203709D01*
X0142794Y0203709D01*
X0142117Y0204386D01*
X0140812Y0204386D01*
X0140135Y0203709D01*
X0123109Y0203709D01*
X0122432Y0204386D01*
X0121127Y0204386D01*
X0120450Y0203709D01*
X0103424Y0203709D01*
X0102747Y0204386D01*
X0101442Y0204386D01*
X0100765Y0203709D01*
X0077046Y0203709D01*
X0076566Y0204189D01*
X0075261Y0204189D01*
X0074781Y0203709D01*
X0074575Y0203709D01*
X0074575Y0203753D02*
X0074825Y0203753D01*
X0074575Y0204145D02*
X0075218Y0204145D01*
X0074575Y0204538D02*
X0229495Y0204538D01*
X0229832Y0204201D02*
X0230892Y0204201D01*
X0231642Y0204950D01*
X0231642Y0206010D01*
X0230892Y0206760D01*
X0229832Y0206760D01*
X0229083Y0206010D01*
X0229083Y0204950D01*
X0229832Y0204201D01*
X0229103Y0204930D02*
X0074575Y0204930D01*
X0074575Y0205322D02*
X0201270Y0205322D01*
X0201604Y0204988D02*
X0202664Y0204988D01*
X0203413Y0205738D01*
X0203413Y0206798D01*
X0202664Y0207547D01*
X0201604Y0207547D01*
X0200854Y0206798D01*
X0200854Y0205738D01*
X0201604Y0204988D01*
X0200878Y0205714D02*
X0074575Y0205714D01*
X0074575Y0206106D02*
X0200854Y0206106D01*
X0200854Y0206499D02*
X0074575Y0206499D01*
X0074575Y0206891D02*
X0200948Y0206891D01*
X0201340Y0207283D02*
X0074575Y0207283D01*
X0074575Y0207675D02*
X0185925Y0207675D01*
X0186053Y0207547D02*
X0187113Y0207547D01*
X0187862Y0208297D01*
X0187862Y0209357D01*
X0187113Y0210106D01*
X0186053Y0210106D01*
X0185303Y0209357D01*
X0185303Y0208297D01*
X0186053Y0207547D01*
X0185532Y0208068D02*
X0074575Y0208068D01*
X0074575Y0208460D02*
X0185303Y0208460D01*
X0185303Y0208852D02*
X0074575Y0208852D01*
X0074575Y0209244D02*
X0170970Y0209244D01*
X0171092Y0209122D02*
X0172152Y0209122D01*
X0172902Y0209872D01*
X0172902Y0210932D01*
X0172152Y0211681D01*
X0171092Y0211681D01*
X0170343Y0210932D01*
X0170343Y0209872D01*
X0171092Y0209122D01*
X0170578Y0209636D02*
X0074575Y0209636D01*
X0074575Y0210029D02*
X0170343Y0210029D01*
X0170343Y0210421D02*
X0074575Y0210421D01*
X0074575Y0210813D02*
X0170343Y0210813D01*
X0170616Y0211205D02*
X0074575Y0211205D01*
X0074575Y0211597D02*
X0171008Y0211597D01*
X0172236Y0211597D02*
X0215103Y0211597D01*
X0215028Y0211522D02*
X0215028Y0210462D01*
X0215777Y0209713D01*
X0216837Y0209713D01*
X0217587Y0210462D01*
X0217587Y0211522D01*
X0216837Y0212272D01*
X0215777Y0212272D01*
X0215028Y0211522D01*
X0215028Y0211205D02*
X0201565Y0211205D01*
X0201483Y0211287D02*
X0202232Y0210538D01*
X0202232Y0209478D01*
X0201483Y0208728D01*
X0200423Y0208728D01*
X0199673Y0209478D01*
X0199673Y0210538D01*
X0200423Y0211287D01*
X0201483Y0211287D01*
X0201957Y0210813D02*
X0215028Y0210813D01*
X0215069Y0210421D02*
X0202232Y0210421D01*
X0202232Y0210029D02*
X0215461Y0210029D01*
X0217153Y0210029D02*
X0241799Y0210029D01*
X0241799Y0210341D02*
X0241799Y0209281D01*
X0242549Y0208531D01*
X0243609Y0208531D01*
X0244358Y0209281D01*
X0244358Y0210341D01*
X0243609Y0211091D01*
X0242549Y0211091D01*
X0241799Y0210341D01*
X0241879Y0210421D02*
X0217545Y0210421D01*
X0217587Y0210813D02*
X0242271Y0210813D01*
X0241799Y0209636D02*
X0230693Y0209636D01*
X0230617Y0209713D02*
X0229557Y0209713D01*
X0228807Y0208963D01*
X0228807Y0207903D01*
X0229557Y0207154D01*
X0230617Y0207154D01*
X0231366Y0207903D01*
X0231366Y0208963D01*
X0230617Y0209713D01*
X0231085Y0209244D02*
X0241836Y0209244D01*
X0242228Y0208852D02*
X0231366Y0208852D01*
X0231366Y0208460D02*
X0267882Y0208460D01*
X0267882Y0208852D02*
X0243929Y0208852D01*
X0244321Y0209244D02*
X0267882Y0209244D01*
X0267882Y0209636D02*
X0244358Y0209636D01*
X0244358Y0210029D02*
X0261721Y0210029D01*
X0262037Y0209713D02*
X0263097Y0209713D01*
X0263846Y0210462D01*
X0263846Y0211522D01*
X0263097Y0212272D01*
X0262037Y0212272D01*
X0261287Y0211522D01*
X0261287Y0210462D01*
X0262037Y0209713D01*
X0261329Y0210421D02*
X0244278Y0210421D01*
X0243886Y0210813D02*
X0261287Y0210813D01*
X0261287Y0211205D02*
X0217587Y0211205D01*
X0217511Y0211597D02*
X0261363Y0211597D01*
X0261755Y0211990D02*
X0217119Y0211990D01*
X0215495Y0211990D02*
X0074575Y0211990D01*
X0074575Y0212382D02*
X0267882Y0212382D01*
X0267882Y0212774D02*
X0074575Y0212774D01*
X0074575Y0213166D02*
X0204449Y0213166D01*
X0204753Y0212862D02*
X0205813Y0212862D01*
X0206563Y0213612D01*
X0206563Y0214672D01*
X0206109Y0215126D01*
X0206563Y0215580D01*
X0206563Y0216640D01*
X0205813Y0217390D01*
X0204753Y0217390D01*
X0204004Y0216640D01*
X0204004Y0215580D01*
X0204458Y0215126D01*
X0204004Y0214672D01*
X0204004Y0213612D01*
X0204753Y0212862D01*
X0204057Y0213559D02*
X0074575Y0213559D01*
X0074575Y0213951D02*
X0204004Y0213951D01*
X0204004Y0214343D02*
X0074575Y0214343D01*
X0074575Y0214735D02*
X0204067Y0214735D01*
X0204457Y0215127D02*
X0174614Y0215127D01*
X0174317Y0214831D02*
X0175067Y0215580D01*
X0175067Y0216640D01*
X0174810Y0216898D01*
X0175461Y0217549D01*
X0175461Y0218609D01*
X0175006Y0219063D01*
X0175461Y0219517D01*
X0175461Y0220577D01*
X0174711Y0221327D01*
X0174534Y0221327D01*
X0174673Y0221466D01*
X0174673Y0222526D01*
X0174071Y0223128D01*
X0174476Y0223533D01*
X0174476Y0224593D01*
X0173727Y0225343D01*
X0172667Y0225343D01*
X0171917Y0224593D01*
X0171917Y0223533D01*
X0172519Y0222931D01*
X0172114Y0222526D01*
X0172114Y0221466D01*
X0172864Y0220717D01*
X0173041Y0220717D01*
X0172902Y0220577D01*
X0172902Y0219517D01*
X0173356Y0219063D01*
X0172902Y0218609D01*
X0172902Y0217549D01*
X0173159Y0217291D01*
X0172508Y0216640D01*
X0172508Y0215580D01*
X0173257Y0214831D01*
X0174317Y0214831D01*
X0175006Y0215520D02*
X0181298Y0215520D01*
X0181396Y0215421D02*
X0183108Y0215421D01*
X0184319Y0216632D01*
X0184319Y0218344D01*
X0183108Y0219555D01*
X0181396Y0219555D01*
X0180185Y0218344D01*
X0180185Y0216632D01*
X0181396Y0215421D01*
X0180905Y0215912D02*
X0175067Y0215912D01*
X0175067Y0216304D02*
X0180513Y0216304D01*
X0180185Y0216696D02*
X0175011Y0216696D01*
X0175000Y0217088D02*
X0180185Y0217088D01*
X0180185Y0217481D02*
X0175393Y0217481D01*
X0175461Y0217873D02*
X0180185Y0217873D01*
X0180185Y0218265D02*
X0175461Y0218265D01*
X0175412Y0218657D02*
X0180498Y0218657D01*
X0180890Y0219049D02*
X0175020Y0219049D01*
X0175385Y0219442D02*
X0181282Y0219442D01*
X0181002Y0220539D02*
X0182714Y0220539D01*
X0183925Y0221750D01*
X0183925Y0223462D01*
X0182714Y0224673D01*
X0181002Y0224673D01*
X0179791Y0223462D01*
X0179791Y0221750D01*
X0181002Y0220539D01*
X0180923Y0220618D02*
X0175420Y0220618D01*
X0175461Y0220226D02*
X0184417Y0220226D01*
X0184417Y0219834D02*
X0175461Y0219834D01*
X0175027Y0221011D02*
X0180531Y0221011D01*
X0180139Y0221403D02*
X0174610Y0221403D01*
X0174673Y0221795D02*
X0179791Y0221795D01*
X0179791Y0222187D02*
X0174673Y0222187D01*
X0174620Y0222579D02*
X0179791Y0222579D01*
X0179791Y0222972D02*
X0174228Y0222972D01*
X0174307Y0223364D02*
X0179791Y0223364D01*
X0180085Y0223756D02*
X0174476Y0223756D01*
X0174476Y0224148D02*
X0180477Y0224148D01*
X0180869Y0224540D02*
X0174476Y0224540D01*
X0174137Y0224933D02*
X0184417Y0224933D01*
X0184417Y0225325D02*
X0173744Y0225325D01*
X0172649Y0225325D02*
X0164930Y0225325D01*
X0165322Y0225717D02*
X0184417Y0225717D01*
X0184417Y0226109D02*
X0182969Y0226109D01*
X0183362Y0226502D02*
X0184417Y0226502D01*
X0184417Y0226894D02*
X0183754Y0226894D01*
X0184122Y0228512D02*
X0184122Y0228974D01*
X0182911Y0230185D01*
X0181199Y0230185D01*
X0179988Y0228974D01*
X0179988Y0228512D01*
X0173492Y0228512D01*
X0173492Y0228848D01*
X0173651Y0228689D01*
X0174711Y0228689D01*
X0175461Y0229438D01*
X0175461Y0230498D01*
X0175006Y0230953D01*
X0175461Y0231407D01*
X0175461Y0232467D01*
X0174947Y0232980D01*
X0175461Y0233494D01*
X0175461Y0234554D01*
X0175105Y0234909D01*
X0175461Y0235265D01*
X0175461Y0236325D01*
X0174711Y0237075D01*
X0173651Y0237075D01*
X0172902Y0236325D01*
X0172902Y0235265D01*
X0173257Y0234909D01*
X0172902Y0234554D01*
X0172902Y0233494D01*
X0173415Y0232980D01*
X0172902Y0232467D01*
X0172902Y0231407D01*
X0173356Y0230953D01*
X0172902Y0230498D01*
X0172902Y0229573D01*
X0172743Y0229732D01*
X0171683Y0229732D01*
X0170933Y0228983D01*
X0170933Y0228512D01*
X0162468Y0228512D01*
X0162468Y0228581D01*
X0161258Y0229791D01*
X0159545Y0229791D01*
X0158335Y0228581D01*
X0158335Y0228512D01*
X0152429Y0228512D01*
X0152429Y0228974D01*
X0151218Y0230185D01*
X0149506Y0230185D01*
X0148295Y0228974D01*
X0148295Y0228512D01*
X0140520Y0228512D01*
X0140520Y0228921D01*
X0139980Y0230224D01*
X0138983Y0231220D01*
X0137681Y0231760D01*
X0136272Y0231760D01*
X0134969Y0231220D01*
X0133973Y0230224D01*
X0133433Y0228921D01*
X0133433Y0228512D01*
X0130972Y0228512D01*
X0130972Y0228921D01*
X0130433Y0230224D01*
X0129436Y0231220D01*
X0128134Y0231760D01*
X0126724Y0231760D01*
X0125422Y0231220D01*
X0124425Y0230224D01*
X0123886Y0228921D01*
X0123886Y0228512D01*
X0121720Y0228512D01*
X0121720Y0228823D01*
X0121181Y0230125D01*
X0120184Y0231122D01*
X0118882Y0231661D01*
X0117472Y0231661D01*
X0116170Y0231122D01*
X0115173Y0230125D01*
X0114634Y0228823D01*
X0114634Y0228512D01*
X0112764Y0228512D01*
X0112764Y0228626D01*
X0112224Y0229928D01*
X0111228Y0230925D01*
X0109925Y0231465D01*
X0108516Y0231465D01*
X0107213Y0230925D01*
X0106217Y0229928D01*
X0105677Y0228626D01*
X0105677Y0228512D01*
X0104890Y0228512D01*
X0104890Y0231867D01*
X0105728Y0232705D01*
X0106268Y0234008D01*
X0106268Y0235417D01*
X0105728Y0236720D01*
X0104890Y0237558D01*
X0104890Y0240725D01*
X0105728Y0241564D01*
X0106268Y0242866D01*
X0106268Y0244276D01*
X0105728Y0245578D01*
X0104890Y0246416D01*
X0104890Y0252635D01*
X0105827Y0253572D01*
X0106366Y0254874D01*
X0106366Y0256284D01*
X0105827Y0257586D01*
X0104890Y0258523D01*
X0104890Y0261788D01*
X0105531Y0262430D01*
X0106071Y0263732D01*
X0106071Y0265142D01*
X0105531Y0266444D01*
X0104890Y0267086D01*
X0104890Y0270548D01*
X0105531Y0271190D01*
X0106071Y0272492D01*
X0106071Y0273902D01*
X0105531Y0275204D01*
X0104890Y0275846D01*
X0104890Y0279013D01*
X0105630Y0279753D01*
X0106169Y0281055D01*
X0106169Y0282465D01*
X0105630Y0283767D01*
X0104890Y0284507D01*
X0104890Y0287576D01*
X0105630Y0288316D01*
X0106169Y0289618D01*
X0106169Y0291028D01*
X0105630Y0292330D01*
X0104890Y0293070D01*
X0104890Y0296237D01*
X0105630Y0296977D01*
X0106169Y0298279D01*
X0106169Y0299689D01*
X0105630Y0300991D01*
X0104890Y0301731D01*
X0104890Y0304702D01*
X0105630Y0305442D01*
X0106169Y0306744D01*
X0106169Y0308154D01*
X0105630Y0309456D01*
X0104890Y0310196D01*
X0104890Y0313560D01*
X0105630Y0314300D01*
X0106169Y0315602D01*
X0106169Y0317012D01*
X0105630Y0318314D01*
X0104890Y0319054D01*
X0104890Y0322418D01*
X0105630Y0323158D01*
X0106169Y0324461D01*
X0106169Y0325870D01*
X0105630Y0327172D01*
X0104890Y0327913D01*
X0104890Y0337182D01*
X0105531Y0337824D01*
X0106071Y0339126D01*
X0106071Y0340536D01*
X0105531Y0341838D01*
X0104890Y0342479D01*
X0104890Y0345548D01*
X0105531Y0346190D01*
X0106071Y0347492D01*
X0106071Y0348902D01*
X0105531Y0350204D01*
X0104890Y0350846D01*
X0104890Y0354496D01*
X0105250Y0354496D01*
X0105429Y0354064D01*
X0106426Y0353067D01*
X0107728Y0352528D01*
X0109138Y0352528D01*
X0110440Y0353067D01*
X0111437Y0354064D01*
X0111616Y0354496D01*
X0129299Y0354496D01*
X0129299Y0301630D01*
X0129001Y0301630D01*
X0128079Y0300707D01*
X0128079Y0299403D01*
X0129001Y0298480D01*
X0129299Y0298480D01*
X0129299Y0285882D01*
X0129001Y0285882D01*
X0128079Y0284959D01*
X0128079Y0283655D01*
X0129001Y0282732D01*
X0129299Y0282732D01*
X0129299Y0263638D01*
X0129198Y0263638D01*
X0128276Y0262715D01*
X0128276Y0261411D01*
X0129198Y0260488D01*
X0129299Y0260488D01*
X0129299Y0253315D01*
X0226899Y0253315D01*
X0226998Y0253217D01*
X0228058Y0253217D01*
X0228156Y0253315D01*
X0240482Y0253315D01*
X0239831Y0252664D01*
X0239831Y0251604D01*
X0240580Y0250854D01*
X0241640Y0250854D01*
X0242390Y0251604D01*
X0242390Y0252664D01*
X0241739Y0253315D01*
X0263945Y0253315D01*
X0263945Y0221031D01*
X0262605Y0221031D01*
X0262310Y0221327D01*
X0261250Y0221327D01*
X0260954Y0221031D01*
X0255382Y0221031D01*
X0255382Y0222675D01*
X0254171Y0223886D01*
X0252459Y0223886D01*
X0251248Y0222675D01*
X0251248Y0221031D01*
X0250923Y0221031D01*
X0251051Y0221160D01*
X0251051Y0222872D01*
X0249840Y0224083D01*
X0248128Y0224083D01*
X0246917Y0222872D01*
X0246917Y0221160D01*
X0247045Y0221031D01*
X0245018Y0221031D01*
X0245539Y0221553D01*
X0245539Y0223266D01*
X0244329Y0224476D01*
X0242616Y0224476D01*
X0241406Y0223266D01*
X0241406Y0221553D01*
X0241927Y0221031D01*
X0239703Y0221031D01*
X0240618Y0221947D01*
X0240618Y0223659D01*
X0239407Y0224870D01*
X0237695Y0224870D01*
X0236780Y0223955D01*
X0236780Y0226770D01*
X0237892Y0225657D01*
X0239604Y0225657D01*
X0240815Y0226868D01*
X0240815Y0228581D01*
X0239604Y0229791D01*
X0237892Y0229791D01*
X0236780Y0228679D01*
X0236780Y0229693D01*
X0231957Y0229693D01*
X0231957Y0230498D01*
X0231207Y0231248D01*
X0230147Y0231248D01*
X0229398Y0230498D01*
X0229398Y0229693D01*
X0217488Y0229693D01*
X0217488Y0221031D01*
X0205912Y0221031D01*
X0205617Y0221327D01*
X0204557Y0221327D01*
X0204261Y0221031D01*
X0198167Y0221031D01*
X0198689Y0221553D01*
X0198689Y0223266D01*
X0197478Y0224476D01*
X0195766Y0224476D01*
X0194555Y0223266D01*
X0194555Y0221553D01*
X0195077Y0221031D01*
X0194033Y0221031D01*
X0194358Y0221356D01*
X0194358Y0223069D01*
X0193147Y0224280D01*
X0191435Y0224280D01*
X0190224Y0223069D01*
X0190224Y0221356D01*
X0190549Y0221031D01*
X0188325Y0221031D01*
X0188846Y0221553D01*
X0188846Y0223266D01*
X0187636Y0224476D01*
X0185992Y0224476D01*
X0185992Y0226376D01*
X0186514Y0225854D01*
X0188226Y0225854D01*
X0189437Y0227065D01*
X0189437Y0228777D01*
X0188226Y0229988D01*
X0186514Y0229988D01*
X0185303Y0228777D01*
X0185303Y0228512D01*
X0184122Y0228512D01*
X0184122Y0228855D02*
X0185381Y0228855D01*
X0185773Y0229247D02*
X0183849Y0229247D01*
X0183457Y0229639D02*
X0186165Y0229639D01*
X0185923Y0230579D02*
X0187636Y0230579D01*
X0188846Y0231790D01*
X0188846Y0233502D01*
X0187636Y0234713D01*
X0185923Y0234713D01*
X0184713Y0233502D01*
X0184713Y0231790D01*
X0185923Y0230579D01*
X0185686Y0230816D02*
X0182952Y0230816D01*
X0182714Y0230579D02*
X0183925Y0231790D01*
X0183925Y0233502D01*
X0182714Y0234713D01*
X0181002Y0234713D01*
X0179791Y0233502D01*
X0179791Y0231790D01*
X0181002Y0230579D01*
X0182714Y0230579D01*
X0183065Y0230031D02*
X0229398Y0230031D01*
X0229398Y0230424D02*
X0224556Y0230424D01*
X0224514Y0230382D02*
X0225264Y0231131D01*
X0225264Y0231525D01*
X0225816Y0230972D01*
X0226876Y0230972D01*
X0227626Y0231722D01*
X0227626Y0232782D01*
X0226876Y0233531D01*
X0225816Y0233531D01*
X0225067Y0232782D01*
X0225067Y0232388D01*
X0224514Y0232941D01*
X0223454Y0232941D01*
X0222705Y0232191D01*
X0222705Y0231131D01*
X0223454Y0230382D01*
X0224514Y0230382D01*
X0224948Y0230816D02*
X0229715Y0230816D01*
X0230107Y0231208D02*
X0227112Y0231208D01*
X0227504Y0231600D02*
X0236870Y0231600D01*
X0236484Y0231986D02*
X0237695Y0230776D01*
X0239407Y0230776D01*
X0240618Y0231986D01*
X0240618Y0233699D01*
X0239407Y0234909D01*
X0237695Y0234909D01*
X0236484Y0233699D01*
X0236484Y0231986D01*
X0236484Y0231992D02*
X0231440Y0231992D01*
X0231404Y0231957D02*
X0232154Y0232706D01*
X0232154Y0233766D01*
X0231404Y0234516D01*
X0230344Y0234516D01*
X0229594Y0233766D01*
X0229594Y0232706D01*
X0230344Y0231957D01*
X0231404Y0231957D01*
X0231832Y0232385D02*
X0236484Y0232385D01*
X0236484Y0232777D02*
X0232154Y0232777D01*
X0232154Y0233169D02*
X0236484Y0233169D01*
X0236484Y0233561D02*
X0232154Y0233561D01*
X0231966Y0233954D02*
X0236739Y0233954D01*
X0237131Y0234346D02*
X0231574Y0234346D01*
X0231207Y0234713D02*
X0231957Y0235462D01*
X0231957Y0236522D01*
X0231207Y0237272D01*
X0230147Y0237272D01*
X0229398Y0236522D01*
X0229398Y0235462D01*
X0230147Y0234713D01*
X0231207Y0234713D01*
X0231233Y0234738D02*
X0237524Y0234738D01*
X0239579Y0234738D02*
X0240358Y0234738D01*
X0240580Y0234516D02*
X0241640Y0234516D01*
X0242390Y0235265D01*
X0242390Y0236325D01*
X0241640Y0237075D01*
X0240580Y0237075D01*
X0239831Y0236325D01*
X0239831Y0235265D01*
X0240580Y0234516D01*
X0240363Y0233954D02*
X0241857Y0233954D01*
X0242249Y0234346D02*
X0239971Y0234346D01*
X0239966Y0235130D02*
X0231625Y0235130D01*
X0231957Y0235522D02*
X0239831Y0235522D01*
X0239831Y0235915D02*
X0231957Y0235915D01*
X0231957Y0236307D02*
X0239831Y0236307D01*
X0240204Y0236699D02*
X0231780Y0236699D01*
X0231388Y0237091D02*
X0263945Y0237091D01*
X0263945Y0236699D02*
X0262882Y0236699D01*
X0263256Y0236325D02*
X0262506Y0237075D01*
X0261446Y0237075D01*
X0260697Y0236325D01*
X0260697Y0235265D01*
X0261446Y0234516D01*
X0262506Y0234516D01*
X0263256Y0235265D01*
X0263256Y0236325D01*
X0263256Y0236307D02*
X0263945Y0236307D01*
X0263945Y0235915D02*
X0263256Y0235915D01*
X0263256Y0235522D02*
X0263945Y0235522D01*
X0263945Y0235130D02*
X0263121Y0235130D01*
X0262729Y0234738D02*
X0263945Y0234738D01*
X0263945Y0234346D02*
X0254538Y0234346D01*
X0254368Y0234516D02*
X0252656Y0234516D01*
X0251445Y0233305D01*
X0251445Y0231593D01*
X0252656Y0230382D01*
X0254368Y0230382D01*
X0255579Y0231593D01*
X0255579Y0233305D01*
X0254368Y0234516D01*
X0254930Y0233954D02*
X0263945Y0233954D01*
X0263945Y0233561D02*
X0255322Y0233561D01*
X0255579Y0233169D02*
X0263945Y0233169D01*
X0263945Y0232777D02*
X0257946Y0232777D01*
X0257585Y0233138D02*
X0256525Y0233138D01*
X0255776Y0232388D01*
X0255776Y0231328D01*
X0256525Y0230579D01*
X0257585Y0230579D01*
X0258335Y0231328D01*
X0258335Y0232388D01*
X0257585Y0233138D01*
X0258335Y0232385D02*
X0263945Y0232385D01*
X0263945Y0231992D02*
X0258335Y0231992D01*
X0258335Y0231600D02*
X0263945Y0231600D01*
X0263945Y0231208D02*
X0258214Y0231208D01*
X0257822Y0230816D02*
X0263945Y0230816D01*
X0263945Y0230424D02*
X0254410Y0230424D01*
X0254565Y0230185D02*
X0252853Y0230185D01*
X0251642Y0228974D01*
X0251642Y0227262D01*
X0252853Y0226051D01*
X0254565Y0226051D01*
X0255776Y0227262D01*
X0255776Y0228974D01*
X0254565Y0230185D01*
X0254718Y0230031D02*
X0263945Y0230031D01*
X0263945Y0229639D02*
X0255111Y0229639D01*
X0255503Y0229247D02*
X0263945Y0229247D01*
X0263945Y0228855D02*
X0255776Y0228855D01*
X0255776Y0228463D02*
X0263945Y0228463D01*
X0263945Y0228070D02*
X0255776Y0228070D01*
X0255776Y0227678D02*
X0263945Y0227678D01*
X0263945Y0227286D02*
X0255776Y0227286D01*
X0255407Y0226894D02*
X0263945Y0226894D01*
X0263945Y0226502D02*
X0255015Y0226502D01*
X0254623Y0226109D02*
X0263945Y0226109D01*
X0263945Y0225717D02*
X0244191Y0225717D01*
X0244132Y0225657D02*
X0245343Y0226868D01*
X0245343Y0228581D01*
X0244132Y0229791D01*
X0242419Y0229791D01*
X0241209Y0228581D01*
X0241209Y0226868D01*
X0242419Y0225657D01*
X0244132Y0225657D01*
X0244584Y0226109D02*
X0247873Y0226109D01*
X0248128Y0225854D02*
X0246917Y0227065D01*
X0246917Y0228777D01*
X0248128Y0229988D01*
X0249840Y0229988D01*
X0251051Y0228777D01*
X0251051Y0227065D01*
X0249840Y0225854D01*
X0248128Y0225854D01*
X0247481Y0226502D02*
X0244976Y0226502D01*
X0245343Y0226894D02*
X0247089Y0226894D01*
X0246917Y0227286D02*
X0245343Y0227286D01*
X0245343Y0227678D02*
X0246917Y0227678D01*
X0246917Y0228070D02*
X0245343Y0228070D01*
X0245343Y0228463D02*
X0246917Y0228463D01*
X0246995Y0228855D02*
X0245068Y0228855D01*
X0244676Y0229247D02*
X0247387Y0229247D01*
X0247779Y0229639D02*
X0244284Y0229639D01*
X0244329Y0230579D02*
X0245539Y0231790D01*
X0245539Y0233502D01*
X0244525Y0234516D01*
X0245577Y0234516D01*
X0246130Y0235068D01*
X0246683Y0234516D01*
X0247538Y0234516D01*
X0246524Y0233502D01*
X0246524Y0231790D01*
X0247734Y0230579D01*
X0249447Y0230579D01*
X0250657Y0231790D01*
X0250657Y0233502D01*
X0249447Y0234713D01*
X0247939Y0234713D01*
X0248492Y0235265D01*
X0248492Y0236325D01*
X0247743Y0237075D01*
X0246683Y0237075D01*
X0246130Y0236522D01*
X0245577Y0237075D01*
X0244517Y0237075D01*
X0243768Y0236325D01*
X0243768Y0235265D01*
X0244320Y0234713D01*
X0242616Y0234713D01*
X0241406Y0233502D01*
X0241406Y0231790D01*
X0242616Y0230579D01*
X0244329Y0230579D01*
X0244566Y0230816D02*
X0247497Y0230816D01*
X0247105Y0231208D02*
X0244958Y0231208D01*
X0245350Y0231600D02*
X0246713Y0231600D01*
X0246524Y0231992D02*
X0245539Y0231992D01*
X0245539Y0232385D02*
X0246524Y0232385D01*
X0246524Y0232777D02*
X0245539Y0232777D01*
X0245539Y0233169D02*
X0246524Y0233169D01*
X0246583Y0233561D02*
X0245480Y0233561D01*
X0245088Y0233954D02*
X0246975Y0233954D01*
X0247368Y0234346D02*
X0244695Y0234346D01*
X0244295Y0234738D02*
X0241862Y0234738D01*
X0242255Y0235130D02*
X0243903Y0235130D01*
X0243768Y0235522D02*
X0242390Y0235522D01*
X0242390Y0235915D02*
X0243768Y0235915D01*
X0243768Y0236307D02*
X0242390Y0236307D01*
X0242016Y0236699D02*
X0244141Y0236699D01*
X0245953Y0236699D02*
X0246307Y0236699D01*
X0248118Y0236699D02*
X0250047Y0236699D01*
X0249673Y0236325D02*
X0249673Y0235265D01*
X0250423Y0234516D01*
X0251483Y0234516D01*
X0252232Y0235265D01*
X0252232Y0236325D01*
X0251483Y0237075D01*
X0250423Y0237075D01*
X0249673Y0236325D01*
X0249673Y0236307D02*
X0248492Y0236307D01*
X0248492Y0235915D02*
X0249673Y0235915D01*
X0249673Y0235522D02*
X0248492Y0235522D01*
X0248357Y0235130D02*
X0249808Y0235130D01*
X0250201Y0234738D02*
X0247965Y0234738D01*
X0246460Y0234738D02*
X0245799Y0234738D01*
X0249814Y0234346D02*
X0252486Y0234346D01*
X0252093Y0233954D02*
X0250206Y0233954D01*
X0250598Y0233561D02*
X0251701Y0233561D01*
X0251445Y0233169D02*
X0250657Y0233169D01*
X0250657Y0232777D02*
X0251445Y0232777D01*
X0251445Y0232385D02*
X0250657Y0232385D01*
X0250657Y0231992D02*
X0251445Y0231992D01*
X0251445Y0231600D02*
X0250468Y0231600D01*
X0250076Y0231208D02*
X0251829Y0231208D01*
X0252222Y0230816D02*
X0249684Y0230816D01*
X0250189Y0229639D02*
X0252307Y0229639D01*
X0252699Y0230031D02*
X0231957Y0230031D01*
X0231957Y0230424D02*
X0252614Y0230424D01*
X0251914Y0229247D02*
X0250582Y0229247D01*
X0250974Y0228855D02*
X0251642Y0228855D01*
X0251642Y0228463D02*
X0251051Y0228463D01*
X0251051Y0228070D02*
X0251642Y0228070D01*
X0251642Y0227678D02*
X0251051Y0227678D01*
X0251051Y0227286D02*
X0251642Y0227286D01*
X0252010Y0226894D02*
X0250880Y0226894D01*
X0250488Y0226502D02*
X0252402Y0226502D01*
X0252794Y0226109D02*
X0250095Y0226109D01*
X0250167Y0223756D02*
X0252329Y0223756D01*
X0251937Y0223364D02*
X0250559Y0223364D01*
X0250951Y0222972D02*
X0251545Y0222972D01*
X0251248Y0222579D02*
X0251051Y0222579D01*
X0251051Y0222187D02*
X0251248Y0222187D01*
X0251248Y0221795D02*
X0251051Y0221795D01*
X0251051Y0221403D02*
X0251248Y0221403D01*
X0251953Y0219049D02*
X0250346Y0219049D01*
X0250738Y0218657D02*
X0251561Y0218657D01*
X0251248Y0218265D02*
X0251130Y0218265D01*
X0251248Y0217873D02*
X0251248Y0217873D01*
X0251248Y0217481D02*
X0251248Y0217481D01*
X0251248Y0217088D02*
X0251248Y0217088D01*
X0251248Y0216696D02*
X0251248Y0216696D01*
X0251117Y0216304D02*
X0251576Y0216304D01*
X0251968Y0215912D02*
X0250725Y0215912D01*
X0250332Y0215520D02*
X0252360Y0215520D01*
X0254269Y0215520D02*
X0260954Y0215520D01*
X0261053Y0215618D02*
X0260697Y0215262D01*
X0260697Y0214202D01*
X0261446Y0213453D01*
X0262506Y0213453D01*
X0263256Y0214202D01*
X0263256Y0215262D01*
X0262900Y0215618D01*
X0263256Y0215974D01*
X0263256Y0217034D01*
X0262506Y0217783D01*
X0261446Y0217783D01*
X0260697Y0217034D01*
X0260697Y0215974D01*
X0261053Y0215618D01*
X0260759Y0215912D02*
X0254662Y0215912D01*
X0255054Y0216304D02*
X0260697Y0216304D01*
X0260697Y0216696D02*
X0255382Y0216696D01*
X0255382Y0217088D02*
X0260751Y0217088D01*
X0261144Y0217481D02*
X0255382Y0217481D01*
X0255382Y0217873D02*
X0266695Y0217873D01*
X0266303Y0218265D02*
X0255382Y0218265D01*
X0255069Y0218657D02*
X0266268Y0218657D01*
X0266268Y0219049D02*
X0262591Y0219049D01*
X0262809Y0217481D02*
X0267088Y0217481D01*
X0267882Y0217088D02*
X0263201Y0217088D01*
X0263256Y0216696D02*
X0267882Y0216696D01*
X0267882Y0216304D02*
X0263256Y0216304D01*
X0263194Y0215912D02*
X0267882Y0215912D01*
X0267882Y0215520D02*
X0262999Y0215520D01*
X0263256Y0215127D02*
X0267882Y0215127D01*
X0267882Y0214735D02*
X0263256Y0214735D01*
X0263256Y0214343D02*
X0267882Y0214343D01*
X0267882Y0213951D02*
X0263004Y0213951D01*
X0262612Y0213559D02*
X0267882Y0213559D01*
X0267882Y0213166D02*
X0226393Y0213166D01*
X0226089Y0212862D02*
X0226839Y0213612D01*
X0226839Y0214672D01*
X0226089Y0215421D01*
X0225029Y0215421D01*
X0224280Y0214672D01*
X0224280Y0213612D01*
X0225029Y0212862D01*
X0226089Y0212862D01*
X0226785Y0213559D02*
X0261341Y0213559D01*
X0260948Y0213951D02*
X0226839Y0213951D01*
X0226839Y0214343D02*
X0260697Y0214343D01*
X0260697Y0214735D02*
X0226775Y0214735D01*
X0226383Y0215127D02*
X0227291Y0215127D01*
X0227588Y0214831D02*
X0228648Y0214831D01*
X0229398Y0215580D01*
X0229398Y0216565D01*
X0229557Y0216406D01*
X0230617Y0216406D01*
X0231366Y0217155D01*
X0231366Y0218215D01*
X0230617Y0218965D01*
X0229557Y0218965D01*
X0228807Y0218215D01*
X0228807Y0217231D01*
X0228648Y0217390D01*
X0227588Y0217390D01*
X0226839Y0216640D01*
X0226839Y0215580D01*
X0227588Y0214831D01*
X0226899Y0215520D02*
X0206502Y0215520D01*
X0206563Y0215912D02*
X0226839Y0215912D01*
X0226839Y0216304D02*
X0206563Y0216304D01*
X0206507Y0216696D02*
X0226895Y0216696D01*
X0227287Y0217088D02*
X0206115Y0217088D01*
X0204452Y0217088D02*
X0198492Y0217088D01*
X0198492Y0217481D02*
X0228807Y0217481D01*
X0228807Y0217873D02*
X0198492Y0217873D01*
X0198492Y0218265D02*
X0228857Y0218265D01*
X0229249Y0218657D02*
X0198376Y0218657D01*
X0197984Y0219049D02*
X0204275Y0219049D01*
X0203883Y0219442D02*
X0197592Y0219442D01*
X0198538Y0221403D02*
X0217488Y0221403D01*
X0217488Y0221795D02*
X0198689Y0221795D01*
X0198689Y0222187D02*
X0217488Y0222187D01*
X0217488Y0222579D02*
X0214940Y0222579D01*
X0214869Y0222508D02*
X0215618Y0223257D01*
X0215618Y0224317D01*
X0214869Y0225067D01*
X0213809Y0225067D01*
X0213059Y0224317D01*
X0213059Y0223257D01*
X0213809Y0222508D01*
X0214869Y0222508D01*
X0215332Y0222972D02*
X0217488Y0222972D01*
X0217488Y0223364D02*
X0215618Y0223364D01*
X0215618Y0223756D02*
X0217488Y0223756D01*
X0217488Y0224148D02*
X0215618Y0224148D01*
X0215395Y0224540D02*
X0217488Y0224540D01*
X0217488Y0224933D02*
X0215003Y0224933D01*
X0213674Y0224933D02*
X0185992Y0224933D01*
X0185992Y0225325D02*
X0217488Y0225325D01*
X0217488Y0225717D02*
X0185992Y0225717D01*
X0185992Y0226109D02*
X0186259Y0226109D01*
X0185992Y0224540D02*
X0213282Y0224540D01*
X0213059Y0224148D02*
X0197806Y0224148D01*
X0198199Y0223756D02*
X0213059Y0223756D01*
X0213059Y0223364D02*
X0198591Y0223364D01*
X0198689Y0222972D02*
X0213345Y0222972D01*
X0213737Y0222579D02*
X0198689Y0222579D01*
X0197872Y0225854D02*
X0199083Y0227065D01*
X0199083Y0228777D01*
X0197872Y0229988D01*
X0196160Y0229988D01*
X0194949Y0228777D01*
X0194949Y0227065D01*
X0196160Y0225854D01*
X0197872Y0225854D01*
X0198127Y0226109D02*
X0217488Y0226109D01*
X0217488Y0226502D02*
X0198519Y0226502D01*
X0198911Y0226894D02*
X0217488Y0226894D01*
X0217488Y0227286D02*
X0199083Y0227286D01*
X0199083Y0227678D02*
X0217488Y0227678D01*
X0217488Y0228070D02*
X0199083Y0228070D01*
X0199083Y0228463D02*
X0217488Y0228463D01*
X0217488Y0228855D02*
X0199005Y0228855D01*
X0198613Y0229247D02*
X0217488Y0229247D01*
X0217488Y0229639D02*
X0198221Y0229639D01*
X0197675Y0230185D02*
X0198886Y0231396D01*
X0198886Y0233108D01*
X0197675Y0234319D01*
X0195963Y0234319D01*
X0194752Y0233108D01*
X0194752Y0231396D01*
X0195963Y0230185D01*
X0197675Y0230185D01*
X0197914Y0230424D02*
X0223412Y0230424D01*
X0223020Y0230816D02*
X0206051Y0230816D01*
X0205813Y0230579D02*
X0206563Y0231328D01*
X0206563Y0232388D01*
X0205813Y0233138D01*
X0204753Y0233138D01*
X0204004Y0232388D01*
X0204004Y0231328D01*
X0204753Y0230579D01*
X0205813Y0230579D01*
X0206443Y0231208D02*
X0222705Y0231208D01*
X0222705Y0231600D02*
X0206563Y0231600D01*
X0206563Y0231992D02*
X0222705Y0231992D01*
X0222898Y0232385D02*
X0206563Y0232385D01*
X0206174Y0232777D02*
X0223290Y0232777D01*
X0224678Y0232777D02*
X0225067Y0232777D01*
X0225454Y0233169D02*
X0198825Y0233169D01*
X0198886Y0232777D02*
X0204393Y0232777D01*
X0204004Y0232385D02*
X0198886Y0232385D01*
X0198886Y0231992D02*
X0204004Y0231992D01*
X0204004Y0231600D02*
X0198886Y0231600D01*
X0198698Y0231208D02*
X0204124Y0231208D01*
X0204516Y0230816D02*
X0198306Y0230816D01*
X0195724Y0230424D02*
X0193189Y0230424D01*
X0193147Y0230382D02*
X0194358Y0231593D01*
X0194358Y0233305D01*
X0193147Y0234516D01*
X0191435Y0234516D01*
X0190224Y0233305D01*
X0190224Y0231593D01*
X0191435Y0230382D01*
X0193147Y0230382D01*
X0193147Y0229988D02*
X0191435Y0229988D01*
X0190224Y0228777D01*
X0190224Y0227065D01*
X0191435Y0225854D01*
X0193147Y0225854D01*
X0194358Y0227065D01*
X0194358Y0228777D01*
X0193147Y0229988D01*
X0193496Y0229639D02*
X0195811Y0229639D01*
X0195418Y0229247D02*
X0193889Y0229247D01*
X0194281Y0228855D02*
X0195026Y0228855D01*
X0194949Y0228463D02*
X0194358Y0228463D01*
X0194358Y0228070D02*
X0194949Y0228070D01*
X0194949Y0227678D02*
X0194358Y0227678D01*
X0194358Y0227286D02*
X0194949Y0227286D01*
X0195120Y0226894D02*
X0194187Y0226894D01*
X0193795Y0226502D02*
X0195512Y0226502D01*
X0195905Y0226109D02*
X0193402Y0226109D01*
X0193279Y0224148D02*
X0195438Y0224148D01*
X0195046Y0223756D02*
X0193671Y0223756D01*
X0194063Y0223364D02*
X0194653Y0223364D01*
X0194555Y0222972D02*
X0194358Y0222972D01*
X0194358Y0222579D02*
X0194555Y0222579D01*
X0194555Y0222187D02*
X0194358Y0222187D01*
X0194358Y0221795D02*
X0194555Y0221795D01*
X0194706Y0221403D02*
X0194358Y0221403D01*
X0191125Y0219442D02*
X0187946Y0219442D01*
X0188338Y0219049D02*
X0190733Y0219049D01*
X0190421Y0218657D02*
X0188730Y0218657D01*
X0188846Y0218265D02*
X0190421Y0218265D01*
X0190421Y0217873D02*
X0188846Y0217873D01*
X0188846Y0217481D02*
X0190421Y0217481D01*
X0190421Y0217088D02*
X0188846Y0217088D01*
X0188714Y0216696D02*
X0190751Y0216696D01*
X0191143Y0216304D02*
X0188322Y0216304D01*
X0187929Y0215912D02*
X0191535Y0215912D01*
X0193441Y0215912D02*
X0195275Y0215912D01*
X0194883Y0216304D02*
X0193833Y0216304D01*
X0194226Y0216696D02*
X0194491Y0216696D01*
X0194358Y0216829D02*
X0194358Y0216829D01*
X0197575Y0215912D02*
X0204004Y0215912D01*
X0204004Y0216304D02*
X0197967Y0216304D01*
X0198359Y0216696D02*
X0204060Y0216696D01*
X0204065Y0215520D02*
X0183206Y0215520D01*
X0183599Y0215912D02*
X0185630Y0215912D01*
X0185237Y0216304D02*
X0183991Y0216304D01*
X0184319Y0216696D02*
X0184845Y0216696D01*
X0184713Y0217088D02*
X0184319Y0217088D01*
X0184319Y0217481D02*
X0184713Y0217481D01*
X0184713Y0217873D02*
X0184319Y0217873D01*
X0184319Y0218265D02*
X0184713Y0218265D01*
X0184829Y0218657D02*
X0184006Y0218657D01*
X0183614Y0219049D02*
X0185221Y0219049D01*
X0185613Y0219442D02*
X0183222Y0219442D01*
X0182793Y0220618D02*
X0184417Y0220618D01*
X0184417Y0221011D02*
X0183186Y0221011D01*
X0183578Y0221403D02*
X0184417Y0221403D01*
X0184417Y0221795D02*
X0183925Y0221795D01*
X0183925Y0222187D02*
X0184417Y0222187D01*
X0184417Y0222579D02*
X0183925Y0222579D01*
X0183925Y0222972D02*
X0184417Y0222972D01*
X0184417Y0223364D02*
X0183925Y0223364D01*
X0183632Y0223756D02*
X0184417Y0223756D01*
X0184417Y0224148D02*
X0183239Y0224148D01*
X0182847Y0224540D02*
X0184417Y0224540D01*
X0187964Y0224148D02*
X0191304Y0224148D01*
X0190912Y0223756D02*
X0188356Y0223756D01*
X0188748Y0223364D02*
X0190519Y0223364D01*
X0190224Y0222972D02*
X0188846Y0222972D01*
X0188846Y0222579D02*
X0190224Y0222579D01*
X0190224Y0222187D02*
X0188846Y0222187D01*
X0188846Y0221795D02*
X0190224Y0221795D01*
X0190224Y0221403D02*
X0188696Y0221403D01*
X0188481Y0226109D02*
X0191180Y0226109D01*
X0190788Y0226502D02*
X0188873Y0226502D01*
X0189266Y0226894D02*
X0190396Y0226894D01*
X0190224Y0227286D02*
X0189437Y0227286D01*
X0189437Y0227678D02*
X0190224Y0227678D01*
X0190224Y0228070D02*
X0189437Y0228070D01*
X0189437Y0228463D02*
X0190224Y0228463D01*
X0190302Y0228855D02*
X0189360Y0228855D01*
X0188967Y0229247D02*
X0190694Y0229247D01*
X0191086Y0229639D02*
X0188575Y0229639D01*
X0187873Y0230816D02*
X0191001Y0230816D01*
X0190609Y0231208D02*
X0188265Y0231208D01*
X0188657Y0231600D02*
X0190224Y0231600D01*
X0190224Y0231992D02*
X0188846Y0231992D01*
X0188846Y0232385D02*
X0190224Y0232385D01*
X0190224Y0232777D02*
X0188846Y0232777D01*
X0188846Y0233169D02*
X0190224Y0233169D01*
X0190481Y0233561D02*
X0188787Y0233561D01*
X0188395Y0233954D02*
X0190873Y0233954D01*
X0191265Y0234346D02*
X0188002Y0234346D01*
X0188218Y0234713D02*
X0189278Y0234713D01*
X0189732Y0235167D01*
X0190187Y0234713D01*
X0191247Y0234713D01*
X0191996Y0235462D01*
X0191996Y0236522D01*
X0191247Y0237272D01*
X0190187Y0237272D01*
X0189732Y0236817D01*
X0189278Y0237272D01*
X0188218Y0237272D01*
X0187469Y0236522D01*
X0187469Y0235462D01*
X0188218Y0234713D01*
X0188193Y0234738D02*
X0185366Y0234738D01*
X0185144Y0234516D02*
X0185894Y0235265D01*
X0185894Y0236325D01*
X0185144Y0237075D01*
X0184084Y0237075D01*
X0183335Y0236325D01*
X0183335Y0235265D01*
X0184084Y0234516D01*
X0185144Y0234516D01*
X0185557Y0234346D02*
X0183081Y0234346D01*
X0183473Y0233954D02*
X0185164Y0233954D01*
X0184772Y0233561D02*
X0183866Y0233561D01*
X0183925Y0233169D02*
X0184713Y0233169D01*
X0184713Y0232777D02*
X0183925Y0232777D01*
X0183925Y0232385D02*
X0184713Y0232385D01*
X0184713Y0231992D02*
X0183925Y0231992D01*
X0183736Y0231600D02*
X0184902Y0231600D01*
X0185294Y0231208D02*
X0183344Y0231208D01*
X0181045Y0230031D02*
X0175461Y0230031D01*
X0175461Y0229639D02*
X0180653Y0229639D01*
X0180261Y0229247D02*
X0175269Y0229247D01*
X0174877Y0228855D02*
X0179988Y0228855D01*
X0180356Y0226894D02*
X0165404Y0226894D01*
X0165421Y0226502D02*
X0180749Y0226502D01*
X0181141Y0226109D02*
X0165421Y0226109D01*
X0163354Y0225325D02*
X0139096Y0225325D01*
X0139488Y0225717D02*
X0159486Y0225717D01*
X0159094Y0226109D02*
X0151276Y0226109D01*
X0151669Y0226502D02*
X0158701Y0226502D01*
X0158335Y0226894D02*
X0152061Y0226894D01*
X0152429Y0228855D02*
X0158609Y0228855D01*
X0159001Y0229247D02*
X0152156Y0229247D01*
X0151764Y0229639D02*
X0159393Y0229639D01*
X0161410Y0229639D02*
X0171590Y0229639D01*
X0171197Y0229247D02*
X0161802Y0229247D01*
X0162194Y0228855D02*
X0170933Y0228855D01*
X0172836Y0229639D02*
X0172902Y0229639D01*
X0172902Y0230031D02*
X0151372Y0230031D01*
X0149352Y0230031D02*
X0140060Y0230031D01*
X0140222Y0229639D02*
X0148960Y0229639D01*
X0148568Y0229247D02*
X0140385Y0229247D01*
X0140520Y0228855D02*
X0148295Y0228855D01*
X0148664Y0226894D02*
X0140264Y0226894D01*
X0140101Y0226502D02*
X0149056Y0226502D01*
X0149448Y0226109D02*
X0139880Y0226109D01*
X0138308Y0224933D02*
X0172257Y0224933D01*
X0171917Y0224540D02*
X0110318Y0224540D01*
X0111243Y0224933D02*
X0116608Y0224933D01*
X0115959Y0225325D02*
X0111635Y0225325D01*
X0112027Y0225717D02*
X0115567Y0225717D01*
X0115175Y0226109D02*
X0112305Y0226109D01*
X0112468Y0226502D02*
X0115012Y0226502D01*
X0114849Y0226894D02*
X0112630Y0226894D01*
X0112669Y0228855D02*
X0114647Y0228855D01*
X0114810Y0229247D02*
X0112507Y0229247D01*
X0112344Y0229639D02*
X0114972Y0229639D01*
X0115134Y0230031D02*
X0112121Y0230031D01*
X0111729Y0230424D02*
X0115472Y0230424D01*
X0115864Y0230816D02*
X0111337Y0230816D01*
X0110545Y0231208D02*
X0116378Y0231208D01*
X0117325Y0231600D02*
X0104890Y0231600D01*
X0104890Y0231208D02*
X0107896Y0231208D01*
X0107104Y0230816D02*
X0104890Y0230816D01*
X0104890Y0230424D02*
X0106712Y0230424D01*
X0106320Y0230031D02*
X0104890Y0230031D01*
X0104890Y0229639D02*
X0106097Y0229639D01*
X0105934Y0229247D02*
X0104890Y0229247D01*
X0104890Y0228855D02*
X0105772Y0228855D01*
X0105811Y0226894D02*
X0104398Y0226894D01*
X0104398Y0226502D02*
X0105973Y0226502D01*
X0106136Y0226109D02*
X0104398Y0226109D01*
X0104266Y0225717D02*
X0106414Y0225717D01*
X0106806Y0225325D02*
X0104103Y0225325D01*
X0103941Y0224933D02*
X0107198Y0224933D01*
X0108123Y0224540D02*
X0103666Y0224540D01*
X0103273Y0224148D02*
X0171917Y0224148D01*
X0171917Y0223756D02*
X0102881Y0223756D01*
X0101962Y0223364D02*
X0172086Y0223364D01*
X0172479Y0222972D02*
X0074575Y0222972D01*
X0074575Y0223364D02*
X0099746Y0223364D01*
X0098827Y0223756D02*
X0074575Y0223756D01*
X0074575Y0224148D02*
X0098435Y0224148D01*
X0098043Y0224540D02*
X0074575Y0224540D01*
X0074575Y0224933D02*
X0097768Y0224933D01*
X0097605Y0225325D02*
X0074575Y0225325D01*
X0074575Y0225717D02*
X0097443Y0225717D01*
X0097311Y0226109D02*
X0074575Y0226109D01*
X0074575Y0226502D02*
X0097311Y0226502D01*
X0097311Y0226894D02*
X0074575Y0226894D01*
X0074575Y0227286D02*
X0097311Y0227286D01*
X0097408Y0227678D02*
X0074575Y0227678D01*
X0074575Y0228070D02*
X0097570Y0228070D01*
X0097733Y0228463D02*
X0074575Y0228463D01*
X0074575Y0228855D02*
X0097958Y0228855D01*
X0098350Y0229247D02*
X0074575Y0229247D01*
X0074575Y0229639D02*
X0098742Y0229639D01*
X0099541Y0230031D02*
X0074575Y0230031D01*
X0074575Y0230424D02*
X0100953Y0230424D01*
X0100953Y0230816D02*
X0074575Y0230816D01*
X0074575Y0231208D02*
X0100953Y0231208D01*
X0100953Y0231600D02*
X0074575Y0231600D01*
X0074575Y0231992D02*
X0100434Y0231992D01*
X0100041Y0232385D02*
X0074575Y0232385D01*
X0074575Y0232777D02*
X0099691Y0232777D01*
X0099528Y0233169D02*
X0074575Y0233169D01*
X0074575Y0233561D02*
X0099366Y0233561D01*
X0099204Y0233954D02*
X0074575Y0233954D01*
X0074575Y0234346D02*
X0099181Y0234346D01*
X0099181Y0234738D02*
X0074575Y0234738D01*
X0074575Y0235130D02*
X0099181Y0235130D01*
X0099225Y0235522D02*
X0074575Y0235522D01*
X0074575Y0235915D02*
X0099387Y0235915D01*
X0099550Y0236307D02*
X0074575Y0236307D01*
X0074575Y0236699D02*
X0099712Y0236699D01*
X0100092Y0237091D02*
X0074575Y0237091D01*
X0074575Y0237483D02*
X0100484Y0237483D01*
X0100953Y0237876D02*
X0074575Y0237876D01*
X0074575Y0238268D02*
X0100953Y0238268D01*
X0100953Y0238660D02*
X0074575Y0238660D01*
X0074575Y0239052D02*
X0100953Y0239052D01*
X0100953Y0239445D02*
X0074575Y0239445D01*
X0074575Y0239837D02*
X0100953Y0239837D01*
X0100953Y0240229D02*
X0074575Y0240229D01*
X0074575Y0240621D02*
X0100663Y0240621D01*
X0100271Y0241013D02*
X0074575Y0241013D01*
X0074575Y0241406D02*
X0099879Y0241406D01*
X0099624Y0241798D02*
X0074575Y0241798D01*
X0074575Y0242190D02*
X0099461Y0242190D01*
X0099299Y0242582D02*
X0074575Y0242582D01*
X0074575Y0242974D02*
X0099181Y0242974D01*
X0099181Y0243367D02*
X0074575Y0243367D01*
X0074575Y0243759D02*
X0099181Y0243759D01*
X0099181Y0244151D02*
X0074575Y0244151D01*
X0074575Y0244543D02*
X0099292Y0244543D01*
X0099454Y0244935D02*
X0074575Y0244935D01*
X0074575Y0245328D02*
X0099617Y0245328D01*
X0099862Y0245720D02*
X0074575Y0245720D01*
X0074575Y0246112D02*
X0100255Y0246112D01*
X0100647Y0246504D02*
X0074575Y0246504D01*
X0074575Y0246897D02*
X0100953Y0246897D01*
X0100953Y0247289D02*
X0074575Y0247289D01*
X0074575Y0247681D02*
X0100953Y0247681D01*
X0100953Y0248073D02*
X0074575Y0248073D01*
X0074575Y0248465D02*
X0100953Y0248465D01*
X0100953Y0248858D02*
X0074575Y0248858D01*
X0074575Y0249250D02*
X0100953Y0249250D01*
X0100953Y0249642D02*
X0074575Y0249642D01*
X0074575Y0250034D02*
X0100953Y0250034D01*
X0100953Y0250426D02*
X0074575Y0250426D01*
X0074575Y0250819D02*
X0100953Y0250819D01*
X0100953Y0251211D02*
X0074575Y0251211D01*
X0074575Y0251603D02*
X0100953Y0251603D01*
X0100953Y0251995D02*
X0074575Y0251995D01*
X0074575Y0252388D02*
X0100953Y0252388D01*
X0100611Y0252780D02*
X0074575Y0252780D01*
X0074575Y0253172D02*
X0100219Y0253172D01*
X0099826Y0253564D02*
X0074575Y0253564D01*
X0074575Y0253956D02*
X0099660Y0253956D01*
X0099497Y0254349D02*
X0074575Y0254349D01*
X0074575Y0254741D02*
X0099335Y0254741D01*
X0099280Y0255133D02*
X0074575Y0255133D01*
X0074575Y0255525D02*
X0099280Y0255525D01*
X0099280Y0255917D02*
X0074575Y0255917D01*
X0074575Y0256310D02*
X0099290Y0256310D01*
X0099453Y0256702D02*
X0074575Y0256702D01*
X0074575Y0257094D02*
X0099615Y0257094D01*
X0099778Y0257486D02*
X0074575Y0257486D01*
X0074575Y0257878D02*
X0100112Y0257878D01*
X0100504Y0258271D02*
X0074575Y0258271D01*
X0074575Y0258663D02*
X0100953Y0258663D01*
X0100953Y0259055D02*
X0074575Y0259055D01*
X0074575Y0259447D02*
X0100953Y0259447D01*
X0100953Y0259840D02*
X0074575Y0259840D01*
X0074575Y0260232D02*
X0100953Y0260232D01*
X0100953Y0260624D02*
X0074575Y0260624D01*
X0074575Y0261016D02*
X0100953Y0261016D01*
X0100580Y0261408D02*
X0074575Y0261408D01*
X0074575Y0261801D02*
X0100153Y0261801D01*
X0099761Y0262193D02*
X0074575Y0262193D01*
X0074575Y0262585D02*
X0099459Y0262585D01*
X0099297Y0262977D02*
X0074575Y0262977D01*
X0074575Y0263369D02*
X0099134Y0263369D01*
X0098984Y0263762D02*
X0074575Y0263762D01*
X0074575Y0264154D02*
X0098984Y0264154D01*
X0098984Y0264546D02*
X0074575Y0264546D01*
X0074575Y0264938D02*
X0098984Y0264938D01*
X0099062Y0265331D02*
X0074575Y0265331D01*
X0074575Y0265723D02*
X0099225Y0265723D01*
X0099387Y0266115D02*
X0074575Y0266115D01*
X0074575Y0266507D02*
X0099587Y0266507D01*
X0099979Y0266899D02*
X0074575Y0266899D01*
X0074575Y0267292D02*
X0100371Y0267292D01*
X0100953Y0267684D02*
X0074575Y0267684D01*
X0074575Y0268076D02*
X0100953Y0268076D01*
X0100953Y0268468D02*
X0074575Y0268468D01*
X0074575Y0268860D02*
X0100953Y0268860D01*
X0100953Y0269253D02*
X0074575Y0269253D01*
X0074575Y0269645D02*
X0100953Y0269645D01*
X0100897Y0270037D02*
X0074575Y0270037D01*
X0074575Y0270429D02*
X0100284Y0270429D01*
X0099892Y0270821D02*
X0074575Y0270821D01*
X0074575Y0271214D02*
X0099514Y0271214D01*
X0099351Y0271606D02*
X0074575Y0271606D01*
X0074575Y0271998D02*
X0099189Y0271998D01*
X0099026Y0272390D02*
X0074575Y0272390D01*
X0074575Y0272783D02*
X0098984Y0272783D01*
X0098984Y0273175D02*
X0074575Y0273175D01*
X0074575Y0273567D02*
X0098984Y0273567D01*
X0099008Y0273959D02*
X0074575Y0273959D01*
X0074575Y0274351D02*
X0099171Y0274351D01*
X0099333Y0274744D02*
X0074575Y0274744D01*
X0074575Y0275136D02*
X0099495Y0275136D01*
X0099848Y0275528D02*
X0074575Y0275528D01*
X0074575Y0275920D02*
X0100240Y0275920D01*
X0100790Y0276312D02*
X0074575Y0276312D01*
X0074575Y0276705D02*
X0100953Y0276705D01*
X0100953Y0277097D02*
X0074575Y0277097D01*
X0074575Y0277489D02*
X0100953Y0277489D01*
X0100953Y0277881D02*
X0074575Y0277881D01*
X0074575Y0278274D02*
X0100953Y0278274D01*
X0100837Y0278666D02*
X0074575Y0278666D01*
X0074575Y0279058D02*
X0100317Y0279058D01*
X0099925Y0279450D02*
X0074575Y0279450D01*
X0074575Y0279842D02*
X0099585Y0279842D01*
X0099423Y0280235D02*
X0074575Y0280235D01*
X0074575Y0280627D02*
X0099260Y0280627D01*
X0099098Y0281019D02*
X0074575Y0281019D01*
X0074575Y0281411D02*
X0099083Y0281411D01*
X0099083Y0281803D02*
X0074575Y0281803D01*
X0074575Y0282196D02*
X0099083Y0282196D01*
X0099134Y0282588D02*
X0074575Y0282588D01*
X0074575Y0282980D02*
X0099296Y0282980D01*
X0099459Y0283372D02*
X0074575Y0283372D01*
X0074575Y0283764D02*
X0099621Y0283764D01*
X0100012Y0284157D02*
X0074575Y0284157D01*
X0074575Y0284549D02*
X0100404Y0284549D01*
X0100953Y0284941D02*
X0074575Y0284941D01*
X0074575Y0285333D02*
X0100953Y0285333D01*
X0100953Y0285726D02*
X0074575Y0285726D01*
X0074575Y0286118D02*
X0100953Y0286118D01*
X0100953Y0286510D02*
X0074575Y0286510D01*
X0074575Y0286902D02*
X0100953Y0286902D01*
X0100678Y0287294D02*
X0074575Y0287294D01*
X0074575Y0287687D02*
X0100251Y0287687D01*
X0099859Y0288079D02*
X0074575Y0288079D01*
X0074575Y0288471D02*
X0099558Y0288471D01*
X0099395Y0288863D02*
X0074575Y0288863D01*
X0074575Y0289255D02*
X0099233Y0289255D01*
X0099083Y0289648D02*
X0074575Y0289648D01*
X0074575Y0290040D02*
X0099083Y0290040D01*
X0099083Y0290432D02*
X0074575Y0290432D01*
X0074575Y0290824D02*
X0099083Y0290824D01*
X0099161Y0291217D02*
X0074575Y0291217D01*
X0074575Y0291609D02*
X0099323Y0291609D01*
X0099486Y0292001D02*
X0074575Y0292001D01*
X0074575Y0292393D02*
X0099685Y0292393D01*
X0100078Y0292785D02*
X0074575Y0292785D01*
X0074575Y0293178D02*
X0100470Y0293178D01*
X0100953Y0293570D02*
X0074575Y0293570D01*
X0074575Y0293962D02*
X0100953Y0293962D01*
X0100953Y0294354D02*
X0074575Y0294354D01*
X0074575Y0294746D02*
X0100953Y0294746D01*
X0100953Y0295139D02*
X0074575Y0295139D01*
X0074575Y0295531D02*
X0100953Y0295531D01*
X0100757Y0295923D02*
X0074575Y0295923D01*
X0074575Y0296315D02*
X0100284Y0296315D01*
X0099892Y0296707D02*
X0074575Y0296707D01*
X0074575Y0297100D02*
X0099571Y0297100D01*
X0099409Y0297492D02*
X0074575Y0297492D01*
X0074575Y0297884D02*
X0099246Y0297884D01*
X0099084Y0298276D02*
X0074575Y0298276D01*
X0074575Y0298669D02*
X0099083Y0298669D01*
X0099083Y0299061D02*
X0074575Y0299061D01*
X0074575Y0299453D02*
X0099083Y0299453D01*
X0099147Y0299845D02*
X0074575Y0299845D01*
X0074575Y0300237D02*
X0099310Y0300237D01*
X0099472Y0300630D02*
X0074575Y0300630D01*
X0074575Y0301022D02*
X0099653Y0301022D01*
X0100045Y0301414D02*
X0074575Y0301414D01*
X0074575Y0301806D02*
X0100437Y0301806D01*
X0100953Y0302198D02*
X0074575Y0302198D01*
X0074575Y0302591D02*
X0100953Y0302591D01*
X0100953Y0302983D02*
X0074575Y0302983D01*
X0074575Y0303375D02*
X0100953Y0303375D01*
X0100953Y0303767D02*
X0074575Y0303767D01*
X0074575Y0304160D02*
X0100953Y0304160D01*
X0100512Y0304552D02*
X0074575Y0304552D01*
X0074575Y0304944D02*
X0100120Y0304944D01*
X0099728Y0305336D02*
X0074575Y0305336D01*
X0074575Y0305728D02*
X0099503Y0305728D01*
X0099341Y0306121D02*
X0074575Y0306121D01*
X0074575Y0306513D02*
X0099178Y0306513D01*
X0099083Y0306905D02*
X0074575Y0306905D01*
X0074575Y0307297D02*
X0099083Y0307297D01*
X0099083Y0307689D02*
X0074575Y0307689D01*
X0074575Y0308082D02*
X0099083Y0308082D01*
X0099215Y0308474D02*
X0074575Y0308474D01*
X0074575Y0308866D02*
X0099378Y0308866D01*
X0099540Y0309258D02*
X0074575Y0309258D01*
X0074575Y0309650D02*
X0099817Y0309650D01*
X0100209Y0310043D02*
X0074575Y0310043D01*
X0074575Y0310435D02*
X0100601Y0310435D01*
X0100953Y0310827D02*
X0074575Y0310827D01*
X0074575Y0311219D02*
X0100953Y0311219D01*
X0100953Y0311612D02*
X0074575Y0311612D01*
X0074575Y0312004D02*
X0100953Y0312004D01*
X0100953Y0312396D02*
X0074575Y0312396D01*
X0074575Y0312788D02*
X0100953Y0312788D01*
X0100915Y0313180D02*
X0074575Y0313180D01*
X0074575Y0313573D02*
X0100349Y0313573D01*
X0099957Y0313965D02*
X0074575Y0313965D01*
X0074575Y0314357D02*
X0099598Y0314357D01*
X0099436Y0314749D02*
X0074575Y0314749D01*
X0074575Y0315141D02*
X0099274Y0315141D01*
X0099111Y0315534D02*
X0074575Y0315534D01*
X0074575Y0315926D02*
X0099083Y0315926D01*
X0099083Y0316318D02*
X0074575Y0316318D01*
X0074575Y0316710D02*
X0099083Y0316710D01*
X0099120Y0317103D02*
X0074575Y0317103D01*
X0074575Y0317495D02*
X0099283Y0317495D01*
X0099445Y0317887D02*
X0074575Y0317887D01*
X0074575Y0318279D02*
X0099608Y0318279D01*
X0099979Y0318671D02*
X0074575Y0318671D01*
X0074575Y0319064D02*
X0100371Y0319064D01*
X0100953Y0319456D02*
X0074575Y0319456D01*
X0074575Y0319848D02*
X0100953Y0319848D01*
X0100953Y0320240D02*
X0074575Y0320240D01*
X0074575Y0320632D02*
X0100953Y0320632D01*
X0100953Y0321025D02*
X0074575Y0321025D01*
X0074575Y0321417D02*
X0100953Y0321417D01*
X0100953Y0321809D02*
X0074575Y0321809D01*
X0074575Y0322201D02*
X0100579Y0322201D01*
X0100187Y0322593D02*
X0074575Y0322593D01*
X0074575Y0322986D02*
X0099795Y0322986D01*
X0099531Y0323378D02*
X0074575Y0323378D01*
X0074575Y0323770D02*
X0099369Y0323770D01*
X0099206Y0324162D02*
X0074575Y0324162D01*
X0074575Y0324555D02*
X0099083Y0324555D01*
X0099083Y0324947D02*
X0074575Y0324947D01*
X0074575Y0325339D02*
X0099083Y0325339D01*
X0099083Y0325731D02*
X0074575Y0325731D01*
X0074575Y0326123D02*
X0099188Y0326123D01*
X0099350Y0326516D02*
X0074575Y0326516D01*
X0074575Y0326908D02*
X0099512Y0326908D01*
X0099750Y0327300D02*
X0074575Y0327300D01*
X0074575Y0327692D02*
X0100142Y0327692D01*
X0100534Y0328084D02*
X0074575Y0328084D01*
X0074575Y0328477D02*
X0100953Y0328477D01*
X0100953Y0328869D02*
X0074575Y0328869D01*
X0074575Y0329261D02*
X0100953Y0329261D01*
X0100953Y0329653D02*
X0074575Y0329653D01*
X0074575Y0330046D02*
X0100953Y0330046D01*
X0100953Y0330438D02*
X0074575Y0330438D01*
X0074575Y0330830D02*
X0100953Y0330830D01*
X0100953Y0331222D02*
X0074575Y0331222D01*
X0074575Y0331614D02*
X0100953Y0331614D01*
X0100953Y0332007D02*
X0074575Y0332007D01*
X0074575Y0332399D02*
X0100953Y0332399D01*
X0100953Y0332791D02*
X0074575Y0332791D01*
X0074575Y0333183D02*
X0100953Y0333183D01*
X0100953Y0333575D02*
X0074575Y0333575D01*
X0074575Y0333968D02*
X0100953Y0333968D01*
X0100953Y0334360D02*
X0074575Y0334360D01*
X0074575Y0334752D02*
X0100953Y0334752D01*
X0100953Y0335144D02*
X0074575Y0335144D01*
X0074575Y0335536D02*
X0100953Y0335536D01*
X0100953Y0335929D02*
X0074575Y0335929D01*
X0074575Y0336321D02*
X0100953Y0336321D01*
X0100795Y0336713D02*
X0074575Y0336713D01*
X0074575Y0337105D02*
X0100242Y0337105D01*
X0099850Y0337498D02*
X0074575Y0337498D01*
X0074575Y0337890D02*
X0099496Y0337890D01*
X0099334Y0338282D02*
X0074575Y0338282D01*
X0074575Y0338674D02*
X0099171Y0338674D01*
X0099009Y0339066D02*
X0074575Y0339066D01*
X0074575Y0339459D02*
X0098984Y0339459D01*
X0098984Y0339851D02*
X0074575Y0339851D01*
X0074575Y0340243D02*
X0098984Y0340243D01*
X0099026Y0340635D02*
X0074575Y0340635D01*
X0074575Y0341027D02*
X0099188Y0341027D01*
X0099350Y0341420D02*
X0074575Y0341420D01*
X0074575Y0341812D02*
X0099513Y0341812D01*
X0099890Y0342204D02*
X0074575Y0342204D01*
X0074575Y0342596D02*
X0100282Y0342596D01*
X0100892Y0342989D02*
X0074575Y0342989D01*
X0074575Y0343381D02*
X0100953Y0343381D01*
X0100953Y0343773D02*
X0074575Y0343773D01*
X0074575Y0344165D02*
X0100953Y0344165D01*
X0100953Y0344557D02*
X0074575Y0344557D01*
X0074575Y0344950D02*
X0100953Y0344950D01*
X0100372Y0345342D02*
X0074575Y0345342D01*
X0074575Y0345734D02*
X0099979Y0345734D01*
X0099587Y0346126D02*
X0074575Y0346126D01*
X0074575Y0346518D02*
X0099388Y0346518D01*
X0099225Y0346911D02*
X0074575Y0346911D01*
X0074575Y0347303D02*
X0099063Y0347303D01*
X0098984Y0347695D02*
X0074575Y0347695D01*
X0074575Y0348087D02*
X0098984Y0348087D01*
X0098984Y0348479D02*
X0074575Y0348479D01*
X0074575Y0348872D02*
X0098984Y0348872D01*
X0099134Y0349264D02*
X0074575Y0349264D01*
X0074575Y0349656D02*
X0099297Y0349656D01*
X0099459Y0350048D02*
X0074575Y0350048D01*
X0074575Y0350441D02*
X0099760Y0350441D01*
X0100152Y0350833D02*
X0074575Y0350833D01*
X0074575Y0351225D02*
X0100579Y0351225D01*
X0100953Y0351617D02*
X0074575Y0351617D01*
X0074575Y0352009D02*
X0100953Y0352009D01*
X0100953Y0352402D02*
X0074575Y0352402D01*
X0074575Y0352794D02*
X0100953Y0352794D01*
X0100953Y0353186D02*
X0074575Y0353186D01*
X0074575Y0353578D02*
X0100953Y0353578D01*
X0100953Y0353970D02*
X0074575Y0353970D01*
X0074575Y0354363D02*
X0100953Y0354363D01*
X0100953Y0354755D02*
X0074575Y0354755D01*
X0104890Y0354363D02*
X0105305Y0354363D01*
X0105522Y0353970D02*
X0104890Y0353970D01*
X0104890Y0353578D02*
X0105915Y0353578D01*
X0106307Y0353186D02*
X0104890Y0353186D01*
X0104890Y0352794D02*
X0107085Y0352794D01*
X0104890Y0352402D02*
X0129299Y0352402D01*
X0129299Y0352794D02*
X0109781Y0352794D01*
X0110559Y0353186D02*
X0129299Y0353186D01*
X0129299Y0353578D02*
X0110951Y0353578D01*
X0111344Y0353970D02*
X0129299Y0353970D01*
X0129299Y0354363D02*
X0111561Y0354363D01*
X0104890Y0352009D02*
X0129299Y0352009D01*
X0129299Y0351617D02*
X0104890Y0351617D01*
X0104890Y0351225D02*
X0129299Y0351225D01*
X0129299Y0350833D02*
X0104903Y0350833D01*
X0105295Y0350441D02*
X0129299Y0350441D01*
X0129299Y0350048D02*
X0105596Y0350048D01*
X0105758Y0349656D02*
X0129299Y0349656D01*
X0129299Y0349264D02*
X0105921Y0349264D01*
X0106071Y0348872D02*
X0129299Y0348872D01*
X0129299Y0348479D02*
X0106071Y0348479D01*
X0106071Y0348087D02*
X0129299Y0348087D01*
X0129299Y0347695D02*
X0106071Y0347695D01*
X0105992Y0347303D02*
X0129299Y0347303D01*
X0129299Y0346911D02*
X0105830Y0346911D01*
X0105668Y0346518D02*
X0129299Y0346518D01*
X0129299Y0346126D02*
X0105468Y0346126D01*
X0105076Y0345734D02*
X0129299Y0345734D01*
X0129299Y0345342D02*
X0104890Y0345342D01*
X0104890Y0344950D02*
X0129299Y0344950D01*
X0129299Y0344557D02*
X0104890Y0344557D01*
X0104890Y0344165D02*
X0129299Y0344165D01*
X0129299Y0343773D02*
X0104890Y0343773D01*
X0104890Y0343381D02*
X0129299Y0343381D01*
X0129299Y0342989D02*
X0104890Y0342989D01*
X0104890Y0342596D02*
X0129299Y0342596D01*
X0129299Y0342204D02*
X0105165Y0342204D01*
X0105542Y0341812D02*
X0129299Y0341812D01*
X0129299Y0341420D02*
X0105705Y0341420D01*
X0105867Y0341027D02*
X0129299Y0341027D01*
X0129299Y0340635D02*
X0106030Y0340635D01*
X0106071Y0340243D02*
X0129299Y0340243D01*
X0129299Y0339851D02*
X0106071Y0339851D01*
X0106071Y0339459D02*
X0129299Y0339459D01*
X0129299Y0339066D02*
X0106046Y0339066D01*
X0105884Y0338674D02*
X0129299Y0338674D01*
X0129299Y0338282D02*
X0105721Y0338282D01*
X0105559Y0337890D02*
X0129299Y0337890D01*
X0129299Y0337498D02*
X0105205Y0337498D01*
X0104890Y0337105D02*
X0129299Y0337105D01*
X0129299Y0336713D02*
X0104890Y0336713D01*
X0104890Y0336321D02*
X0129299Y0336321D01*
X0129299Y0335929D02*
X0104890Y0335929D01*
X0104890Y0335536D02*
X0129299Y0335536D01*
X0129299Y0335144D02*
X0104890Y0335144D01*
X0104890Y0334752D02*
X0129299Y0334752D01*
X0129299Y0334360D02*
X0104890Y0334360D01*
X0104890Y0333968D02*
X0129299Y0333968D01*
X0129299Y0333575D02*
X0104890Y0333575D01*
X0104890Y0333183D02*
X0129299Y0333183D01*
X0129299Y0332791D02*
X0104890Y0332791D01*
X0104890Y0332399D02*
X0129299Y0332399D01*
X0129299Y0332007D02*
X0104890Y0332007D01*
X0104890Y0331614D02*
X0129299Y0331614D01*
X0129299Y0331222D02*
X0104890Y0331222D01*
X0104890Y0330830D02*
X0129299Y0330830D01*
X0129299Y0330438D02*
X0104890Y0330438D01*
X0104890Y0330046D02*
X0129299Y0330046D01*
X0129299Y0329653D02*
X0104890Y0329653D01*
X0104890Y0329261D02*
X0129299Y0329261D01*
X0129299Y0328869D02*
X0104890Y0328869D01*
X0104890Y0328477D02*
X0129299Y0328477D01*
X0129299Y0328084D02*
X0104890Y0328084D01*
X0105110Y0327692D02*
X0129299Y0327692D01*
X0129299Y0327300D02*
X0105502Y0327300D01*
X0105739Y0326908D02*
X0129299Y0326908D01*
X0129299Y0326516D02*
X0105902Y0326516D01*
X0106064Y0326123D02*
X0129299Y0326123D01*
X0129299Y0325731D02*
X0106169Y0325731D01*
X0106169Y0325339D02*
X0129299Y0325339D01*
X0129299Y0324947D02*
X0106169Y0324947D01*
X0106169Y0324555D02*
X0129299Y0324555D01*
X0129299Y0324162D02*
X0106046Y0324162D01*
X0105883Y0323770D02*
X0129299Y0323770D01*
X0129299Y0323378D02*
X0105721Y0323378D01*
X0105457Y0322986D02*
X0129299Y0322986D01*
X0129299Y0322593D02*
X0105065Y0322593D01*
X0104890Y0322201D02*
X0129299Y0322201D01*
X0129299Y0321809D02*
X0104890Y0321809D01*
X0104890Y0321417D02*
X0129299Y0321417D01*
X0129299Y0321025D02*
X0104890Y0321025D01*
X0104890Y0320632D02*
X0129299Y0320632D01*
X0129299Y0320240D02*
X0104890Y0320240D01*
X0104890Y0319848D02*
X0129299Y0319848D01*
X0129299Y0319456D02*
X0104890Y0319456D01*
X0104890Y0319064D02*
X0129299Y0319064D01*
X0129299Y0318671D02*
X0105273Y0318671D01*
X0105644Y0318279D02*
X0129299Y0318279D01*
X0129299Y0317887D02*
X0105807Y0317887D01*
X0105969Y0317495D02*
X0129299Y0317495D01*
X0129299Y0317103D02*
X0106132Y0317103D01*
X0106169Y0316710D02*
X0129299Y0316710D01*
X0129299Y0316318D02*
X0106169Y0316318D01*
X0106169Y0315926D02*
X0129299Y0315926D01*
X0129299Y0315534D02*
X0106141Y0315534D01*
X0105978Y0315141D02*
X0129299Y0315141D01*
X0129299Y0314749D02*
X0105816Y0314749D01*
X0105653Y0314357D02*
X0129299Y0314357D01*
X0129299Y0313965D02*
X0105295Y0313965D01*
X0104902Y0313573D02*
X0129299Y0313573D01*
X0129299Y0313180D02*
X0104890Y0313180D01*
X0104890Y0312788D02*
X0129299Y0312788D01*
X0129299Y0312396D02*
X0104890Y0312396D01*
X0104890Y0312004D02*
X0129299Y0312004D01*
X0129299Y0311612D02*
X0104890Y0311612D01*
X0104890Y0311219D02*
X0129299Y0311219D01*
X0129299Y0310827D02*
X0104890Y0310827D01*
X0104890Y0310435D02*
X0129299Y0310435D01*
X0129299Y0310043D02*
X0105043Y0310043D01*
X0105435Y0309650D02*
X0129299Y0309650D01*
X0129299Y0309258D02*
X0105712Y0309258D01*
X0105874Y0308866D02*
X0129299Y0308866D01*
X0129299Y0308474D02*
X0106037Y0308474D01*
X0106169Y0308082D02*
X0129299Y0308082D01*
X0129299Y0307689D02*
X0106169Y0307689D01*
X0106169Y0307297D02*
X0129299Y0307297D01*
X0129299Y0306905D02*
X0106169Y0306905D01*
X0106073Y0306513D02*
X0129299Y0306513D01*
X0129299Y0306121D02*
X0105911Y0306121D01*
X0105749Y0305728D02*
X0129299Y0305728D01*
X0129299Y0305336D02*
X0105524Y0305336D01*
X0105132Y0304944D02*
X0129299Y0304944D01*
X0129299Y0304552D02*
X0104890Y0304552D01*
X0104890Y0304160D02*
X0129299Y0304160D01*
X0129299Y0303767D02*
X0104890Y0303767D01*
X0104890Y0303375D02*
X0129299Y0303375D01*
X0129299Y0302983D02*
X0104890Y0302983D01*
X0104890Y0302591D02*
X0129299Y0302591D01*
X0129299Y0302198D02*
X0104890Y0302198D01*
X0104890Y0301806D02*
X0129299Y0301806D01*
X0128785Y0301414D02*
X0105207Y0301414D01*
X0105599Y0301022D02*
X0128393Y0301022D01*
X0128079Y0300630D02*
X0105780Y0300630D01*
X0105942Y0300237D02*
X0128079Y0300237D01*
X0128079Y0299845D02*
X0106105Y0299845D01*
X0106169Y0299453D02*
X0128079Y0299453D01*
X0128421Y0299061D02*
X0106169Y0299061D01*
X0106169Y0298669D02*
X0128813Y0298669D01*
X0129299Y0298276D02*
X0106168Y0298276D01*
X0106006Y0297884D02*
X0129299Y0297884D01*
X0129299Y0297492D02*
X0105843Y0297492D01*
X0105681Y0297100D02*
X0129299Y0297100D01*
X0129299Y0296707D02*
X0105360Y0296707D01*
X0104968Y0296315D02*
X0129299Y0296315D01*
X0129299Y0295923D02*
X0104890Y0295923D01*
X0104890Y0295531D02*
X0129299Y0295531D01*
X0129299Y0295139D02*
X0104890Y0295139D01*
X0104890Y0294746D02*
X0129299Y0294746D01*
X0129299Y0294354D02*
X0104890Y0294354D01*
X0104890Y0293962D02*
X0129299Y0293962D01*
X0129299Y0293570D02*
X0104890Y0293570D01*
X0104890Y0293178D02*
X0129299Y0293178D01*
X0129299Y0292785D02*
X0105174Y0292785D01*
X0105567Y0292393D02*
X0129299Y0292393D01*
X0129299Y0292001D02*
X0105766Y0292001D01*
X0105929Y0291609D02*
X0129299Y0291609D01*
X0129299Y0291217D02*
X0106091Y0291217D01*
X0106169Y0290824D02*
X0129299Y0290824D01*
X0129299Y0290432D02*
X0106169Y0290432D01*
X0106169Y0290040D02*
X0129299Y0290040D01*
X0129299Y0289648D02*
X0106169Y0289648D01*
X0106019Y0289255D02*
X0129299Y0289255D01*
X0129299Y0288863D02*
X0105857Y0288863D01*
X0105694Y0288471D02*
X0129299Y0288471D01*
X0129299Y0288079D02*
X0105393Y0288079D01*
X0105001Y0287687D02*
X0129299Y0287687D01*
X0129299Y0287294D02*
X0104890Y0287294D01*
X0104890Y0286902D02*
X0129299Y0286902D01*
X0129299Y0286510D02*
X0104890Y0286510D01*
X0104890Y0286118D02*
X0129299Y0286118D01*
X0128845Y0285726D02*
X0104890Y0285726D01*
X0104890Y0285333D02*
X0128453Y0285333D01*
X0128079Y0284941D02*
X0104890Y0284941D01*
X0104890Y0284549D02*
X0128079Y0284549D01*
X0128079Y0284157D02*
X0105240Y0284157D01*
X0105631Y0283764D02*
X0128079Y0283764D01*
X0128361Y0283372D02*
X0105793Y0283372D01*
X0105956Y0282980D02*
X0128753Y0282980D01*
X0129299Y0282588D02*
X0106118Y0282588D01*
X0106169Y0282196D02*
X0129299Y0282196D01*
X0129299Y0281803D02*
X0106169Y0281803D01*
X0106169Y0281411D02*
X0129299Y0281411D01*
X0129299Y0281019D02*
X0106154Y0281019D01*
X0105992Y0280627D02*
X0129299Y0280627D01*
X0129299Y0280235D02*
X0105829Y0280235D01*
X0105667Y0279842D02*
X0129299Y0279842D01*
X0129299Y0279450D02*
X0105327Y0279450D01*
X0104935Y0279058D02*
X0129299Y0279058D01*
X0129299Y0278666D02*
X0104890Y0278666D01*
X0104890Y0278274D02*
X0129299Y0278274D01*
X0129299Y0277881D02*
X0104890Y0277881D01*
X0104890Y0277489D02*
X0129299Y0277489D01*
X0129299Y0277097D02*
X0104890Y0277097D01*
X0104890Y0276705D02*
X0129299Y0276705D01*
X0129299Y0276312D02*
X0104890Y0276312D01*
X0104890Y0275920D02*
X0129299Y0275920D01*
X0129299Y0275528D02*
X0105207Y0275528D01*
X0105560Y0275136D02*
X0129299Y0275136D01*
X0129299Y0274744D02*
X0105722Y0274744D01*
X0105885Y0274351D02*
X0129299Y0274351D01*
X0129299Y0273959D02*
X0106047Y0273959D01*
X0106071Y0273567D02*
X0129299Y0273567D01*
X0129299Y0273175D02*
X0106071Y0273175D01*
X0106071Y0272783D02*
X0129299Y0272783D01*
X0129299Y0272390D02*
X0106029Y0272390D01*
X0105866Y0271998D02*
X0129299Y0271998D01*
X0129299Y0271606D02*
X0105704Y0271606D01*
X0105541Y0271214D02*
X0129299Y0271214D01*
X0129299Y0270821D02*
X0105163Y0270821D01*
X0104890Y0270429D02*
X0129299Y0270429D01*
X0129299Y0270037D02*
X0104890Y0270037D01*
X0104890Y0269645D02*
X0129299Y0269645D01*
X0129299Y0269253D02*
X0104890Y0269253D01*
X0104890Y0268860D02*
X0129299Y0268860D01*
X0129299Y0268468D02*
X0104890Y0268468D01*
X0104890Y0268076D02*
X0129299Y0268076D01*
X0129299Y0267684D02*
X0104890Y0267684D01*
X0104890Y0267292D02*
X0129299Y0267292D01*
X0129299Y0266899D02*
X0105076Y0266899D01*
X0105468Y0266507D02*
X0129299Y0266507D01*
X0129299Y0266115D02*
X0105668Y0266115D01*
X0105830Y0265723D02*
X0129299Y0265723D01*
X0129299Y0265331D02*
X0105993Y0265331D01*
X0106071Y0264938D02*
X0129299Y0264938D01*
X0129299Y0264546D02*
X0106071Y0264546D01*
X0106071Y0264154D02*
X0129299Y0264154D01*
X0129299Y0263762D02*
X0106071Y0263762D01*
X0105921Y0263369D02*
X0128930Y0263369D01*
X0128538Y0262977D02*
X0105758Y0262977D01*
X0105596Y0262585D02*
X0128276Y0262585D01*
X0128276Y0262193D02*
X0105294Y0262193D01*
X0104902Y0261801D02*
X0128276Y0261801D01*
X0128278Y0261408D02*
X0104890Y0261408D01*
X0104890Y0261016D02*
X0128670Y0261016D01*
X0129062Y0260624D02*
X0104890Y0260624D01*
X0104890Y0260232D02*
X0129299Y0260232D01*
X0129299Y0259840D02*
X0104890Y0259840D01*
X0104890Y0259447D02*
X0129299Y0259447D01*
X0129299Y0259055D02*
X0104890Y0259055D01*
X0104890Y0258663D02*
X0129299Y0258663D01*
X0129299Y0258271D02*
X0105142Y0258271D01*
X0105534Y0257878D02*
X0129299Y0257878D01*
X0129299Y0257486D02*
X0105868Y0257486D01*
X0106030Y0257094D02*
X0129299Y0257094D01*
X0129299Y0256702D02*
X0106193Y0256702D01*
X0106355Y0256310D02*
X0129299Y0256310D01*
X0129299Y0255917D02*
X0106366Y0255917D01*
X0106366Y0255525D02*
X0129299Y0255525D01*
X0129299Y0255133D02*
X0106366Y0255133D01*
X0106311Y0254741D02*
X0129299Y0254741D01*
X0129299Y0254349D02*
X0106149Y0254349D01*
X0105986Y0253956D02*
X0129299Y0253956D01*
X0129299Y0253564D02*
X0105819Y0253564D01*
X0105427Y0253172D02*
X0167701Y0253172D01*
X0167746Y0253217D02*
X0166996Y0252467D01*
X0166996Y0251407D01*
X0167746Y0250657D01*
X0168806Y0250657D01*
X0169555Y0251407D01*
X0169555Y0252467D01*
X0168806Y0253217D01*
X0167746Y0253217D01*
X0167309Y0252780D02*
X0105035Y0252780D01*
X0104890Y0252388D02*
X0166996Y0252388D01*
X0166996Y0251995D02*
X0104890Y0251995D01*
X0104890Y0251603D02*
X0166996Y0251603D01*
X0167192Y0251211D02*
X0104890Y0251211D01*
X0104890Y0250819D02*
X0167584Y0250819D01*
X0168967Y0250819D02*
X0183335Y0250819D01*
X0183335Y0251089D02*
X0183335Y0250029D01*
X0184084Y0249280D01*
X0185144Y0249280D01*
X0185894Y0250029D01*
X0185894Y0251089D01*
X0185144Y0251839D01*
X0184084Y0251839D01*
X0183335Y0251089D01*
X0183456Y0251211D02*
X0169359Y0251211D01*
X0169555Y0251603D02*
X0183849Y0251603D01*
X0183335Y0250426D02*
X0104890Y0250426D01*
X0104890Y0250034D02*
X0183335Y0250034D01*
X0183722Y0249642D02*
X0104890Y0249642D01*
X0104890Y0249250D02*
X0218192Y0249250D01*
X0218298Y0249071D02*
X0216993Y0249071D01*
X0216071Y0248148D01*
X0216071Y0246844D01*
X0216993Y0245921D01*
X0218298Y0245921D01*
X0219000Y0246623D01*
X0219887Y0245736D01*
X0221192Y0245736D01*
X0222114Y0246659D01*
X0222114Y0247963D01*
X0221192Y0248886D01*
X0220278Y0248886D01*
X0220992Y0249600D01*
X0220992Y0250904D01*
X0220070Y0251827D01*
X0218765Y0251827D01*
X0217843Y0250904D01*
X0217843Y0249600D01*
X0218765Y0248677D01*
X0219678Y0248677D01*
X0219185Y0248184D01*
X0218298Y0249071D01*
X0218511Y0248858D02*
X0218585Y0248858D01*
X0218903Y0248465D02*
X0219467Y0248465D01*
X0220642Y0249250D02*
X0263945Y0249250D01*
X0263945Y0249642D02*
X0220992Y0249642D01*
X0220992Y0250034D02*
X0263945Y0250034D01*
X0263945Y0250426D02*
X0220992Y0250426D01*
X0220992Y0250819D02*
X0263945Y0250819D01*
X0263945Y0251211D02*
X0241997Y0251211D01*
X0242389Y0251603D02*
X0263945Y0251603D01*
X0263945Y0251995D02*
X0242390Y0251995D01*
X0242390Y0252388D02*
X0263945Y0252388D01*
X0263945Y0252780D02*
X0242274Y0252780D01*
X0241882Y0253172D02*
X0263945Y0253172D01*
X0263945Y0248858D02*
X0221220Y0248858D01*
X0221612Y0248465D02*
X0263945Y0248465D01*
X0263945Y0248073D02*
X0222004Y0248073D01*
X0222114Y0247681D02*
X0250596Y0247681D01*
X0250620Y0247705D02*
X0249870Y0246955D01*
X0249870Y0245895D01*
X0250620Y0245146D01*
X0251680Y0245146D01*
X0252429Y0245895D01*
X0252429Y0246955D01*
X0251680Y0247705D01*
X0250620Y0247705D01*
X0250204Y0247289D02*
X0222114Y0247289D01*
X0222114Y0246897D02*
X0249870Y0246897D01*
X0249870Y0246504D02*
X0221960Y0246504D01*
X0221568Y0246112D02*
X0249870Y0246112D01*
X0250045Y0245720D02*
X0195736Y0245720D01*
X0195736Y0245698D02*
X0194987Y0244949D01*
X0193927Y0244949D01*
X0193177Y0245698D01*
X0193177Y0246758D01*
X0193927Y0247508D01*
X0194987Y0247508D01*
X0195736Y0246758D01*
X0195736Y0245698D01*
X0195736Y0246112D02*
X0216802Y0246112D01*
X0216410Y0246504D02*
X0195736Y0246504D01*
X0195598Y0246897D02*
X0216071Y0246897D01*
X0216071Y0247289D02*
X0195206Y0247289D01*
X0193708Y0247289D02*
X0104890Y0247289D01*
X0104890Y0247681D02*
X0216071Y0247681D01*
X0216071Y0248073D02*
X0104890Y0248073D01*
X0104890Y0248465D02*
X0216388Y0248465D01*
X0216780Y0248858D02*
X0104890Y0248858D01*
X0104890Y0246897D02*
X0193315Y0246897D01*
X0193177Y0246504D02*
X0104890Y0246504D01*
X0105194Y0246112D02*
X0193177Y0246112D01*
X0193177Y0245720D02*
X0105586Y0245720D01*
X0105832Y0245328D02*
X0193548Y0245328D01*
X0195366Y0245328D02*
X0250438Y0245328D01*
X0251862Y0245328D02*
X0263945Y0245328D01*
X0263945Y0245720D02*
X0252254Y0245720D01*
X0252429Y0246112D02*
X0263945Y0246112D01*
X0263945Y0246504D02*
X0252429Y0246504D01*
X0252429Y0246897D02*
X0263945Y0246897D01*
X0263945Y0247289D02*
X0252096Y0247289D01*
X0251703Y0247681D02*
X0263945Y0247681D01*
X0263945Y0244935D02*
X0105994Y0244935D01*
X0106157Y0244543D02*
X0263945Y0244543D01*
X0263945Y0244151D02*
X0106268Y0244151D01*
X0106268Y0243759D02*
X0263945Y0243759D01*
X0263945Y0243367D02*
X0106268Y0243367D01*
X0106268Y0242974D02*
X0263945Y0242974D01*
X0263945Y0242582D02*
X0257393Y0242582D01*
X0257191Y0242783D02*
X0256131Y0242783D01*
X0255382Y0242034D01*
X0255382Y0240974D01*
X0256131Y0240224D01*
X0257191Y0240224D01*
X0257941Y0240974D01*
X0257941Y0242034D01*
X0257191Y0242783D01*
X0257785Y0242190D02*
X0263945Y0242190D01*
X0263945Y0241798D02*
X0257941Y0241798D01*
X0257941Y0241406D02*
X0263945Y0241406D01*
X0263945Y0241013D02*
X0257941Y0241013D01*
X0257588Y0240621D02*
X0263945Y0240621D01*
X0263945Y0240229D02*
X0257196Y0240229D01*
X0256127Y0240229D02*
X0236287Y0240229D01*
X0236287Y0240187D02*
X0235538Y0239437D01*
X0234478Y0239437D01*
X0233728Y0240187D01*
X0233728Y0241247D01*
X0234478Y0241996D01*
X0235538Y0241996D01*
X0236287Y0241247D01*
X0236287Y0240187D01*
X0236287Y0240621D02*
X0255735Y0240621D01*
X0255382Y0241013D02*
X0236287Y0241013D01*
X0236128Y0241406D02*
X0255382Y0241406D01*
X0255382Y0241798D02*
X0235736Y0241798D01*
X0234280Y0241798D02*
X0206720Y0241798D01*
X0206720Y0242034D02*
X0205971Y0242783D01*
X0204911Y0242783D01*
X0204161Y0242034D01*
X0204161Y0240974D01*
X0204911Y0240224D01*
X0205971Y0240224D01*
X0206720Y0240974D01*
X0206720Y0242034D01*
X0206564Y0242190D02*
X0255538Y0242190D01*
X0255930Y0242582D02*
X0206172Y0242582D01*
X0206720Y0241406D02*
X0233887Y0241406D01*
X0233728Y0241013D02*
X0206720Y0241013D01*
X0206368Y0240621D02*
X0233728Y0240621D01*
X0233728Y0240229D02*
X0205975Y0240229D01*
X0204906Y0240229D02*
X0180776Y0240229D01*
X0180776Y0240187D02*
X0180026Y0239437D01*
X0178966Y0239437D01*
X0178217Y0240187D01*
X0178217Y0241247D01*
X0178966Y0241996D01*
X0180026Y0241996D01*
X0180776Y0241247D01*
X0180776Y0240187D01*
X0180776Y0240621D02*
X0204514Y0240621D01*
X0204161Y0241013D02*
X0180776Y0241013D01*
X0180617Y0241406D02*
X0204161Y0241406D01*
X0204161Y0241798D02*
X0180224Y0241798D01*
X0178768Y0241798D02*
X0105825Y0241798D01*
X0105988Y0242190D02*
X0204317Y0242190D01*
X0204710Y0242582D02*
X0106150Y0242582D01*
X0105570Y0241406D02*
X0178376Y0241406D01*
X0178217Y0241013D02*
X0105178Y0241013D01*
X0104890Y0240621D02*
X0178217Y0240621D01*
X0178217Y0240229D02*
X0104890Y0240229D01*
X0104890Y0239837D02*
X0178566Y0239837D01*
X0178959Y0239445D02*
X0104890Y0239445D01*
X0104890Y0239052D02*
X0263945Y0239052D01*
X0263945Y0238660D02*
X0104890Y0238660D01*
X0104890Y0238268D02*
X0263945Y0238268D01*
X0263945Y0237876D02*
X0104890Y0237876D01*
X0104965Y0237483D02*
X0263945Y0237483D01*
X0263945Y0239445D02*
X0235545Y0239445D01*
X0235938Y0239837D02*
X0263945Y0239837D01*
X0261071Y0236699D02*
X0251859Y0236699D01*
X0252232Y0236307D02*
X0260697Y0236307D01*
X0260697Y0235915D02*
X0252232Y0235915D01*
X0252232Y0235522D02*
X0260697Y0235522D01*
X0260832Y0235130D02*
X0252097Y0235130D01*
X0251705Y0234738D02*
X0261224Y0234738D01*
X0256164Y0232777D02*
X0255579Y0232777D01*
X0255579Y0232385D02*
X0255776Y0232385D01*
X0255776Y0231992D02*
X0255579Y0231992D01*
X0255579Y0231600D02*
X0255776Y0231600D01*
X0255896Y0231208D02*
X0255194Y0231208D01*
X0254802Y0230816D02*
X0256288Y0230816D01*
X0254301Y0223756D02*
X0263945Y0223756D01*
X0263945Y0223364D02*
X0254693Y0223364D01*
X0255085Y0222972D02*
X0263945Y0222972D01*
X0263945Y0222579D02*
X0255382Y0222579D01*
X0255382Y0222187D02*
X0263945Y0222187D01*
X0263945Y0221795D02*
X0255382Y0221795D01*
X0255382Y0221403D02*
X0263945Y0221403D01*
X0263945Y0224148D02*
X0244657Y0224148D01*
X0245049Y0223756D02*
X0247801Y0223756D01*
X0247409Y0223364D02*
X0245441Y0223364D01*
X0245539Y0222972D02*
X0247017Y0222972D01*
X0246917Y0222579D02*
X0245539Y0222579D01*
X0245539Y0222187D02*
X0246917Y0222187D01*
X0246917Y0221795D02*
X0245539Y0221795D01*
X0245389Y0221403D02*
X0246917Y0221403D01*
X0248016Y0219049D02*
X0244441Y0219049D01*
X0244833Y0218657D02*
X0247624Y0218657D01*
X0247232Y0218265D02*
X0245225Y0218265D01*
X0245343Y0217873D02*
X0247114Y0217873D01*
X0247114Y0217481D02*
X0245343Y0217481D01*
X0245343Y0217088D02*
X0247114Y0217088D01*
X0247114Y0216696D02*
X0245343Y0216696D01*
X0245211Y0216304D02*
X0247245Y0216304D01*
X0247638Y0215912D02*
X0244819Y0215912D01*
X0244427Y0215520D02*
X0248030Y0215520D01*
X0254677Y0219049D02*
X0260968Y0219049D01*
X0260697Y0215127D02*
X0228945Y0215127D01*
X0229337Y0215520D02*
X0237794Y0215520D01*
X0237401Y0215912D02*
X0229398Y0215912D01*
X0229398Y0216304D02*
X0237009Y0216304D01*
X0236681Y0216696D02*
X0230907Y0216696D01*
X0231300Y0217088D02*
X0236681Y0217088D01*
X0236681Y0217481D02*
X0231366Y0217481D01*
X0231366Y0217873D02*
X0236681Y0217873D01*
X0236681Y0218265D02*
X0231316Y0218265D01*
X0230924Y0218657D02*
X0236994Y0218657D01*
X0237386Y0219049D02*
X0231095Y0219049D01*
X0231010Y0218965D02*
X0231760Y0219714D01*
X0231760Y0220774D01*
X0231010Y0221524D01*
X0230951Y0221524D01*
X0231169Y0221742D01*
X0231169Y0222802D01*
X0230420Y0223551D01*
X0229988Y0223551D01*
X0229988Y0224593D01*
X0229239Y0225343D01*
X0228179Y0225343D01*
X0227429Y0224593D01*
X0227429Y0223533D01*
X0228179Y0222783D01*
X0228610Y0222783D01*
X0228610Y0221742D01*
X0229360Y0220992D01*
X0229419Y0220992D01*
X0229201Y0220774D01*
X0229201Y0219714D01*
X0229950Y0218965D01*
X0231010Y0218965D01*
X0231487Y0219442D02*
X0235598Y0219442D01*
X0235598Y0219834D02*
X0231760Y0219834D01*
X0231760Y0220226D02*
X0235598Y0220226D01*
X0235598Y0220618D02*
X0231760Y0220618D01*
X0231523Y0221011D02*
X0235598Y0221011D01*
X0235598Y0221403D02*
X0231131Y0221403D01*
X0231169Y0221795D02*
X0235598Y0221795D01*
X0235598Y0222187D02*
X0231169Y0222187D01*
X0231169Y0222579D02*
X0235598Y0222579D01*
X0235598Y0222972D02*
X0230999Y0222972D01*
X0230607Y0223364D02*
X0235598Y0223364D01*
X0235598Y0223756D02*
X0229988Y0223756D01*
X0229988Y0224148D02*
X0235598Y0224148D01*
X0235598Y0224540D02*
X0229988Y0224540D01*
X0229648Y0224933D02*
X0235598Y0224933D01*
X0235598Y0225325D02*
X0229256Y0225325D01*
X0228161Y0225325D02*
X0225560Y0225325D01*
X0225854Y0225717D02*
X0235598Y0225717D01*
X0235598Y0226109D02*
X0225854Y0226109D01*
X0225854Y0226502D02*
X0235598Y0226502D01*
X0235598Y0226894D02*
X0228821Y0226894D01*
X0229214Y0227286D02*
X0235598Y0227286D01*
X0236780Y0226502D02*
X0237048Y0226502D01*
X0236780Y0226109D02*
X0237440Y0226109D01*
X0237832Y0225717D02*
X0236780Y0225717D01*
X0236780Y0225325D02*
X0263945Y0225325D01*
X0263945Y0224933D02*
X0236780Y0224933D01*
X0236780Y0224540D02*
X0237365Y0224540D01*
X0236973Y0224148D02*
X0236780Y0224148D01*
X0239737Y0224540D02*
X0263945Y0224540D01*
X0263379Y0211990D02*
X0267882Y0211990D01*
X0267882Y0211597D02*
X0263771Y0211597D01*
X0263846Y0211205D02*
X0267882Y0211205D01*
X0267882Y0210813D02*
X0263846Y0210813D01*
X0263805Y0210421D02*
X0267882Y0210421D01*
X0267882Y0210029D02*
X0263413Y0210029D01*
X0267882Y0208068D02*
X0231366Y0208068D01*
X0231138Y0207675D02*
X0267882Y0207675D01*
X0267882Y0207283D02*
X0257456Y0207283D01*
X0257388Y0207350D02*
X0256328Y0207350D01*
X0255579Y0206601D01*
X0255579Y0205541D01*
X0256328Y0204791D01*
X0257388Y0204791D01*
X0258138Y0205541D01*
X0258138Y0206601D01*
X0257388Y0207350D01*
X0257848Y0206891D02*
X0267882Y0206891D01*
X0267882Y0206499D02*
X0258138Y0206499D01*
X0258138Y0206106D02*
X0267882Y0206106D01*
X0267882Y0205714D02*
X0258138Y0205714D01*
X0257919Y0205322D02*
X0267882Y0205322D01*
X0267882Y0204930D02*
X0257527Y0204930D01*
X0256190Y0204930D02*
X0252232Y0204930D01*
X0252232Y0204557D02*
X0252232Y0205617D01*
X0251483Y0206366D01*
X0250423Y0206366D01*
X0250067Y0206010D01*
X0249711Y0206366D01*
X0248651Y0206366D01*
X0247902Y0205617D01*
X0247902Y0204557D01*
X0248651Y0203807D01*
X0249711Y0203807D01*
X0250067Y0204163D01*
X0250423Y0203807D01*
X0251483Y0203807D01*
X0252232Y0204557D01*
X0252213Y0204538D02*
X0267882Y0204538D01*
X0267882Y0204145D02*
X0251821Y0204145D01*
X0252232Y0205322D02*
X0255798Y0205322D01*
X0255579Y0205714D02*
X0252135Y0205714D01*
X0251742Y0206106D02*
X0255579Y0206106D01*
X0255579Y0206499D02*
X0231153Y0206499D01*
X0231546Y0206106D02*
X0248391Y0206106D01*
X0247999Y0205714D02*
X0231642Y0205714D01*
X0231642Y0205322D02*
X0247902Y0205322D01*
X0247902Y0204930D02*
X0231621Y0204930D01*
X0231229Y0204538D02*
X0247921Y0204538D01*
X0248313Y0204145D02*
X0142357Y0204145D01*
X0142749Y0203753D02*
X0267882Y0203753D01*
X0256261Y0207283D02*
X0230746Y0207283D01*
X0229427Y0207283D02*
X0202928Y0207283D01*
X0203320Y0206891D02*
X0255869Y0206891D01*
X0250163Y0206106D02*
X0249971Y0206106D01*
X0250049Y0204145D02*
X0250084Y0204145D01*
X0242124Y0215520D02*
X0239702Y0215520D01*
X0240095Y0215912D02*
X0241732Y0215912D01*
X0241340Y0216304D02*
X0240487Y0216304D01*
X0240815Y0216696D02*
X0241209Y0216696D01*
X0241209Y0217088D02*
X0240815Y0217088D01*
X0240815Y0217481D02*
X0241209Y0217481D01*
X0241209Y0217873D02*
X0240815Y0217873D01*
X0240815Y0218265D02*
X0241326Y0218265D01*
X0241718Y0218657D02*
X0240502Y0218657D01*
X0240110Y0219049D02*
X0242111Y0219049D01*
X0241556Y0221403D02*
X0240074Y0221403D01*
X0240466Y0221795D02*
X0241406Y0221795D01*
X0241406Y0222187D02*
X0240618Y0222187D01*
X0240618Y0222579D02*
X0241406Y0222579D01*
X0241406Y0222972D02*
X0240618Y0222972D01*
X0240618Y0223364D02*
X0241504Y0223364D01*
X0241896Y0223756D02*
X0240521Y0223756D01*
X0240129Y0224148D02*
X0242288Y0224148D01*
X0242360Y0225717D02*
X0239664Y0225717D01*
X0240056Y0226109D02*
X0241968Y0226109D01*
X0241575Y0226502D02*
X0240448Y0226502D01*
X0240815Y0226894D02*
X0241209Y0226894D01*
X0241209Y0227286D02*
X0240815Y0227286D01*
X0240815Y0227678D02*
X0241209Y0227678D01*
X0241209Y0228070D02*
X0240815Y0228070D01*
X0240815Y0228463D02*
X0241209Y0228463D01*
X0241483Y0228855D02*
X0240541Y0228855D01*
X0240148Y0229247D02*
X0241875Y0229247D01*
X0242267Y0229639D02*
X0239756Y0229639D01*
X0239448Y0230816D02*
X0242379Y0230816D01*
X0241987Y0231208D02*
X0239840Y0231208D01*
X0240232Y0231600D02*
X0241595Y0231600D01*
X0241406Y0231992D02*
X0240618Y0231992D01*
X0240618Y0232385D02*
X0241406Y0232385D01*
X0241406Y0232777D02*
X0240618Y0232777D01*
X0240618Y0233169D02*
X0241406Y0233169D01*
X0241465Y0233561D02*
X0240618Y0233561D01*
X0237655Y0230816D02*
X0231639Y0230816D01*
X0231247Y0231208D02*
X0237263Y0231208D01*
X0237740Y0229639D02*
X0236780Y0229639D01*
X0236780Y0229247D02*
X0237348Y0229247D01*
X0236955Y0228855D02*
X0236780Y0228855D01*
X0230308Y0231992D02*
X0227626Y0231992D01*
X0227626Y0232385D02*
X0229916Y0232385D01*
X0229594Y0232777D02*
X0227626Y0232777D01*
X0227239Y0233169D02*
X0229594Y0233169D01*
X0229594Y0233561D02*
X0198433Y0233561D01*
X0198040Y0233954D02*
X0229782Y0233954D01*
X0230174Y0234346D02*
X0193317Y0234346D01*
X0193710Y0233954D02*
X0195597Y0233954D01*
X0195205Y0233561D02*
X0194102Y0233561D01*
X0194358Y0233169D02*
X0194813Y0233169D01*
X0194752Y0232777D02*
X0194358Y0232777D01*
X0194358Y0232385D02*
X0194752Y0232385D01*
X0194752Y0231992D02*
X0194358Y0231992D01*
X0194358Y0231600D02*
X0194752Y0231600D01*
X0194940Y0231208D02*
X0193974Y0231208D01*
X0193581Y0230816D02*
X0195332Y0230816D01*
X0195184Y0234516D02*
X0195933Y0235265D01*
X0195933Y0236325D01*
X0195184Y0237075D01*
X0194124Y0237075D01*
X0193374Y0236325D01*
X0193374Y0235265D01*
X0194124Y0234516D01*
X0195184Y0234516D01*
X0195406Y0234738D02*
X0204531Y0234738D01*
X0204753Y0234516D02*
X0205813Y0234516D01*
X0206563Y0235265D01*
X0206563Y0236325D01*
X0205813Y0237075D01*
X0204753Y0237075D01*
X0204004Y0236325D01*
X0204004Y0235265D01*
X0204753Y0234516D01*
X0204139Y0235130D02*
X0195798Y0235130D01*
X0195933Y0235522D02*
X0204004Y0235522D01*
X0204004Y0235915D02*
X0195933Y0235915D01*
X0195933Y0236307D02*
X0204004Y0236307D01*
X0204378Y0236699D02*
X0195559Y0236699D01*
X0193748Y0236699D02*
X0191819Y0236699D01*
X0191996Y0236307D02*
X0193374Y0236307D01*
X0193374Y0235915D02*
X0191996Y0235915D01*
X0191996Y0235522D02*
X0193374Y0235522D01*
X0193509Y0235130D02*
X0191664Y0235130D01*
X0191272Y0234738D02*
X0193901Y0234738D01*
X0191427Y0237091D02*
X0229967Y0237091D01*
X0229575Y0236699D02*
X0206189Y0236699D01*
X0206563Y0236307D02*
X0229398Y0236307D01*
X0229398Y0235915D02*
X0206563Y0235915D01*
X0206563Y0235522D02*
X0229398Y0235522D01*
X0229730Y0235130D02*
X0206428Y0235130D01*
X0206036Y0234738D02*
X0230122Y0234738D01*
X0225581Y0231208D02*
X0225264Y0231208D01*
X0225248Y0227286D02*
X0227023Y0227286D01*
X0227415Y0226894D02*
X0225640Y0226894D01*
X0223902Y0227286D02*
X0220244Y0227286D01*
X0220244Y0226894D02*
X0223509Y0226894D01*
X0223295Y0226502D02*
X0220244Y0226502D01*
X0220244Y0226109D02*
X0223295Y0226109D01*
X0223295Y0225717D02*
X0220244Y0225717D01*
X0220244Y0225325D02*
X0223590Y0225325D01*
X0223982Y0224933D02*
X0220244Y0224933D01*
X0220244Y0224540D02*
X0227429Y0224540D01*
X0227429Y0224148D02*
X0220244Y0224148D01*
X0220244Y0223756D02*
X0227429Y0223756D01*
X0227598Y0223364D02*
X0220244Y0223364D01*
X0220244Y0222972D02*
X0227991Y0222972D01*
X0228610Y0222579D02*
X0220244Y0222579D01*
X0220244Y0222187D02*
X0228610Y0222187D01*
X0228610Y0221795D02*
X0220244Y0221795D01*
X0220244Y0221403D02*
X0228949Y0221403D01*
X0229341Y0221011D02*
X0220244Y0221011D01*
X0220244Y0220618D02*
X0229201Y0220618D01*
X0229201Y0220226D02*
X0220244Y0220226D01*
X0220244Y0219834D02*
X0229201Y0219834D01*
X0229473Y0219442D02*
X0206291Y0219442D01*
X0205898Y0219049D02*
X0229865Y0219049D01*
X0224735Y0215127D02*
X0206110Y0215127D01*
X0206500Y0214735D02*
X0224343Y0214735D01*
X0224280Y0214343D02*
X0206563Y0214343D01*
X0206563Y0213951D02*
X0224280Y0213951D01*
X0224333Y0213559D02*
X0206510Y0213559D01*
X0206118Y0213166D02*
X0224725Y0213166D01*
X0229088Y0209244D02*
X0201999Y0209244D01*
X0202232Y0209636D02*
X0229480Y0209636D01*
X0228807Y0208852D02*
X0201606Y0208852D01*
X0200299Y0208852D02*
X0195504Y0208852D01*
X0195736Y0209084D02*
X0194987Y0208335D01*
X0193927Y0208335D01*
X0193177Y0209084D01*
X0193177Y0210144D01*
X0193927Y0210894D01*
X0194987Y0210894D01*
X0195736Y0210144D01*
X0195736Y0209084D01*
X0195736Y0209244D02*
X0199907Y0209244D01*
X0199673Y0209636D02*
X0195736Y0209636D01*
X0195736Y0210029D02*
X0199673Y0210029D01*
X0199673Y0210421D02*
X0195460Y0210421D01*
X0195067Y0210813D02*
X0199948Y0210813D01*
X0200341Y0211205D02*
X0172628Y0211205D01*
X0172902Y0210813D02*
X0193846Y0210813D01*
X0193454Y0210421D02*
X0172902Y0210421D01*
X0172902Y0210029D02*
X0185975Y0210029D01*
X0185583Y0209636D02*
X0172666Y0209636D01*
X0172274Y0209244D02*
X0185303Y0209244D01*
X0187190Y0210029D02*
X0193177Y0210029D01*
X0193177Y0209636D02*
X0187583Y0209636D01*
X0187862Y0209244D02*
X0193177Y0209244D01*
X0193409Y0208852D02*
X0187862Y0208852D01*
X0187862Y0208460D02*
X0193802Y0208460D01*
X0195112Y0208460D02*
X0228807Y0208460D01*
X0228807Y0208068D02*
X0187633Y0208068D01*
X0187241Y0207675D02*
X0229035Y0207675D01*
X0229571Y0206499D02*
X0203413Y0206499D01*
X0203413Y0206106D02*
X0229179Y0206106D01*
X0229083Y0205714D02*
X0203390Y0205714D01*
X0202998Y0205322D02*
X0229083Y0205322D01*
X0227769Y0224933D02*
X0225167Y0224933D01*
X0234470Y0239445D02*
X0180034Y0239445D01*
X0180426Y0239837D02*
X0234078Y0239837D01*
X0240224Y0251211D02*
X0220686Y0251211D01*
X0220293Y0251603D02*
X0239831Y0251603D01*
X0239831Y0251995D02*
X0169555Y0251995D01*
X0169555Y0252388D02*
X0239831Y0252388D01*
X0239947Y0252780D02*
X0169242Y0252780D01*
X0168850Y0253172D02*
X0240339Y0253172D01*
X0218541Y0251603D02*
X0185380Y0251603D01*
X0185772Y0251211D02*
X0218149Y0251211D01*
X0217843Y0250819D02*
X0185894Y0250819D01*
X0185894Y0250426D02*
X0217843Y0250426D01*
X0217843Y0250034D02*
X0185894Y0250034D01*
X0185507Y0249642D02*
X0217843Y0249642D01*
X0218881Y0246504D02*
X0219119Y0246504D01*
X0219511Y0246112D02*
X0218489Y0246112D01*
X0190006Y0237091D02*
X0189458Y0237091D01*
X0188038Y0237091D02*
X0105357Y0237091D01*
X0105737Y0236699D02*
X0173275Y0236699D01*
X0172902Y0236307D02*
X0105899Y0236307D01*
X0106062Y0235915D02*
X0172902Y0235915D01*
X0172902Y0235522D02*
X0106224Y0235522D01*
X0106268Y0235130D02*
X0173037Y0235130D01*
X0173086Y0234738D02*
X0106268Y0234738D01*
X0106268Y0234346D02*
X0172902Y0234346D01*
X0172902Y0233954D02*
X0106245Y0233954D01*
X0106083Y0233561D02*
X0172902Y0233561D01*
X0173226Y0233169D02*
X0167396Y0233169D01*
X0167034Y0233531D02*
X0165974Y0233531D01*
X0165224Y0232782D01*
X0165224Y0231722D01*
X0165974Y0230972D01*
X0167034Y0230972D01*
X0167783Y0231722D01*
X0167783Y0232782D01*
X0167034Y0233531D01*
X0167783Y0232777D02*
X0173211Y0232777D01*
X0172902Y0232385D02*
X0167783Y0232385D01*
X0167783Y0231992D02*
X0172902Y0231992D01*
X0172902Y0231600D02*
X0167662Y0231600D01*
X0167270Y0231208D02*
X0173101Y0231208D01*
X0173219Y0230816D02*
X0139388Y0230816D01*
X0138996Y0231208D02*
X0165738Y0231208D01*
X0165346Y0231600D02*
X0138066Y0231600D01*
X0139780Y0230424D02*
X0172902Y0230424D01*
X0175143Y0230816D02*
X0180765Y0230816D01*
X0180373Y0231208D02*
X0175262Y0231208D01*
X0175461Y0231600D02*
X0179981Y0231600D01*
X0179791Y0231992D02*
X0175461Y0231992D01*
X0175461Y0232385D02*
X0179791Y0232385D01*
X0179791Y0232777D02*
X0175151Y0232777D01*
X0175136Y0233169D02*
X0179791Y0233169D01*
X0179851Y0233561D02*
X0175461Y0233561D01*
X0175461Y0233954D02*
X0180243Y0233954D01*
X0180635Y0234346D02*
X0175461Y0234346D01*
X0175276Y0234738D02*
X0183862Y0234738D01*
X0183470Y0235130D02*
X0175326Y0235130D01*
X0175461Y0235522D02*
X0183335Y0235522D01*
X0183335Y0235915D02*
X0175461Y0235915D01*
X0175461Y0236307D02*
X0183335Y0236307D01*
X0183708Y0236699D02*
X0175087Y0236699D01*
X0175461Y0230424D02*
X0191393Y0230424D01*
X0190161Y0234738D02*
X0189303Y0234738D01*
X0189696Y0235130D02*
X0189769Y0235130D01*
X0187800Y0235130D02*
X0185759Y0235130D01*
X0185894Y0235522D02*
X0187469Y0235522D01*
X0187469Y0235915D02*
X0185894Y0235915D01*
X0185894Y0236307D02*
X0187469Y0236307D01*
X0187645Y0236699D02*
X0185520Y0236699D01*
X0172168Y0222579D02*
X0074575Y0222579D01*
X0074575Y0222187D02*
X0172114Y0222187D01*
X0172114Y0221795D02*
X0074575Y0221795D01*
X0074575Y0221403D02*
X0172177Y0221403D01*
X0172570Y0221011D02*
X0074575Y0221011D01*
X0074575Y0220618D02*
X0172943Y0220618D01*
X0172902Y0220226D02*
X0074575Y0220226D01*
X0074575Y0219834D02*
X0172902Y0219834D01*
X0172977Y0219442D02*
X0074575Y0219442D01*
X0074575Y0219049D02*
X0173342Y0219049D01*
X0172950Y0218657D02*
X0074575Y0218657D01*
X0074575Y0218265D02*
X0172902Y0218265D01*
X0172902Y0217873D02*
X0074575Y0217873D01*
X0074575Y0217481D02*
X0172970Y0217481D01*
X0172956Y0217088D02*
X0074575Y0217088D01*
X0074575Y0216696D02*
X0172564Y0216696D01*
X0172508Y0216304D02*
X0074575Y0216304D01*
X0074575Y0215912D02*
X0172508Y0215912D01*
X0172569Y0215520D02*
X0074575Y0215520D01*
X0074575Y0215127D02*
X0172961Y0215127D01*
X0162962Y0225717D02*
X0161317Y0225717D01*
X0161710Y0226109D02*
X0162862Y0226109D01*
X0162862Y0226502D02*
X0162102Y0226502D01*
X0162468Y0226894D02*
X0162879Y0226894D01*
X0165224Y0231992D02*
X0105015Y0231992D01*
X0105407Y0232385D02*
X0165224Y0232385D01*
X0165224Y0232777D02*
X0105758Y0232777D01*
X0105920Y0233169D02*
X0165612Y0233169D01*
X0140572Y0204145D02*
X0122672Y0204145D01*
X0123064Y0203753D02*
X0140180Y0203753D01*
X0120887Y0204145D02*
X0102987Y0204145D01*
X0103379Y0203753D02*
X0120495Y0203753D01*
X0101202Y0204145D02*
X0076609Y0204145D01*
X0077001Y0203753D02*
X0100810Y0203753D01*
X0119746Y0224933D02*
X0126098Y0224933D01*
X0125310Y0225325D02*
X0120395Y0225325D01*
X0120787Y0225717D02*
X0124918Y0225717D01*
X0124525Y0226109D02*
X0121179Y0226109D01*
X0121343Y0226502D02*
X0124304Y0226502D01*
X0124142Y0226894D02*
X0121505Y0226894D01*
X0121707Y0228855D02*
X0123886Y0228855D01*
X0124021Y0229247D02*
X0121545Y0229247D01*
X0121382Y0229639D02*
X0124183Y0229639D01*
X0124346Y0230031D02*
X0121220Y0230031D01*
X0120883Y0230424D02*
X0124625Y0230424D01*
X0125017Y0230816D02*
X0120490Y0230816D01*
X0119976Y0231208D02*
X0125410Y0231208D01*
X0126339Y0231600D02*
X0119030Y0231600D01*
X0128519Y0231600D02*
X0135886Y0231600D01*
X0134957Y0231208D02*
X0129449Y0231208D01*
X0129841Y0230816D02*
X0134565Y0230816D01*
X0134172Y0230424D02*
X0130233Y0230424D01*
X0130513Y0230031D02*
X0133893Y0230031D01*
X0133730Y0229639D02*
X0130675Y0229639D01*
X0130838Y0229247D02*
X0133568Y0229247D01*
X0133433Y0228855D02*
X0130972Y0228855D01*
X0130716Y0226894D02*
X0133689Y0226894D01*
X0133852Y0226502D02*
X0130554Y0226502D01*
X0130333Y0226109D02*
X0134073Y0226109D01*
X0134465Y0225717D02*
X0129941Y0225717D01*
X0129548Y0225325D02*
X0134857Y0225325D01*
X0135645Y0224933D02*
X0128760Y0224933D01*
D22*
X0193079Y0198984D02*
X0193079Y0164831D01*
X0193378Y0164831D01*
X0194358Y0163851D01*
X0194358Y0162862D01*
X0195150Y0162862D01*
X0196130Y0161882D01*
X0196130Y0160496D01*
X0195150Y0159516D01*
X0193764Y0159516D01*
X0193079Y0160201D01*
X0193079Y0157059D01*
X0193374Y0156764D01*
X0193374Y0155378D01*
X0193079Y0155083D01*
X0193079Y0147807D01*
X0193866Y0147020D01*
X0193866Y0145634D01*
X0193079Y0144846D01*
X0193079Y0136669D01*
X0193461Y0136669D01*
X0194614Y0135516D01*
X0194614Y0133885D01*
X0193461Y0132732D01*
X0193079Y0132732D01*
X0193079Y0131354D01*
X0194052Y0131354D01*
X0195205Y0130201D01*
X0195205Y0128570D01*
X0194052Y0127417D01*
X0193079Y0127417D01*
X0193079Y0125646D01*
X0193658Y0125646D01*
X0194811Y0124493D01*
X0194811Y0122862D01*
X0193658Y0121709D01*
X0193079Y0121709D01*
X0193079Y0121709D01*
X0193461Y0121709D01*
X0194614Y0120556D01*
X0194614Y0118925D01*
X0193461Y0117772D01*
X0193079Y0117772D01*
X0193079Y0100646D01*
X0193461Y0100646D01*
X0194614Y0099493D01*
X0194614Y0097862D01*
X0193461Y0096709D01*
X0193079Y0096709D01*
X0193079Y0055196D01*
X0193403Y0055978D01*
X0194510Y0057086D01*
X0195957Y0057685D01*
X0197523Y0057685D01*
X0198970Y0057086D01*
X0200078Y0055978D01*
X0200677Y0054531D01*
X0200677Y0052965D01*
X0200078Y0051518D01*
X0198970Y0050410D01*
X0197523Y0049811D01*
X0195957Y0049811D01*
X0194510Y0050410D01*
X0193403Y0051518D01*
X0193079Y0052300D01*
X0193079Y0019850D01*
X0232449Y0019850D01*
X0232449Y0057252D01*
X0256071Y0057252D01*
X0256071Y0145343D01*
X0255327Y0145343D01*
X0254819Y0145850D01*
X0254311Y0145343D01*
X0252925Y0145343D01*
X0252541Y0145726D01*
X0252256Y0145441D01*
X0250870Y0145441D01*
X0249890Y0146421D01*
X0249890Y0147807D01*
X0250870Y0148787D01*
X0252256Y0148787D01*
X0252640Y0148404D01*
X0252925Y0148689D01*
X0254311Y0148689D01*
X0254819Y0148181D01*
X0255327Y0148689D01*
X0256071Y0148689D01*
X0256071Y0198984D01*
X0196918Y0198984D01*
X0196808Y0198874D01*
X0195177Y0198874D01*
X0195067Y0198984D01*
X0193079Y0198984D01*
X0193079Y0197957D02*
X0256071Y0197957D01*
X0256071Y0196778D02*
X0219699Y0196778D01*
X0220146Y0196331D02*
X0219166Y0197311D01*
X0217779Y0197311D01*
X0216799Y0196331D01*
X0216799Y0194945D01*
X0217779Y0193965D01*
X0219166Y0193965D01*
X0220146Y0194945D01*
X0220146Y0196331D01*
X0220146Y0195598D02*
X0256071Y0195598D01*
X0256071Y0194418D02*
X0219619Y0194418D01*
X0217326Y0194418D02*
X0193079Y0194418D01*
X0193079Y0193239D02*
X0235106Y0193239D01*
X0235106Y0193378D02*
X0235106Y0192783D01*
X0234315Y0192783D01*
X0233335Y0191803D01*
X0233142Y0191996D01*
X0231756Y0191996D01*
X0230776Y0191016D01*
X0230776Y0189630D01*
X0231756Y0188650D01*
X0233142Y0188650D01*
X0234122Y0189630D01*
X0234315Y0189437D01*
X0235701Y0189437D01*
X0236681Y0190417D01*
X0236681Y0191012D01*
X0237473Y0191012D01*
X0238453Y0191992D01*
X0238453Y0193378D01*
X0237473Y0194358D01*
X0236086Y0194358D01*
X0235106Y0193378D01*
X0233590Y0192059D02*
X0225205Y0192059D01*
X0225071Y0192193D02*
X0223685Y0192193D01*
X0222705Y0191213D01*
X0222705Y0189827D01*
X0223685Y0188846D01*
X0225071Y0188846D01*
X0226051Y0189827D01*
X0226051Y0191213D01*
X0225071Y0192193D01*
X0223551Y0192059D02*
X0213000Y0192059D01*
X0212866Y0192193D02*
X0211480Y0192193D01*
X0210598Y0191311D01*
X0209717Y0192193D01*
X0208331Y0192193D01*
X0207350Y0191213D01*
X0207350Y0189827D01*
X0208331Y0188846D01*
X0209717Y0188846D01*
X0210598Y0189728D01*
X0211480Y0188846D01*
X0212866Y0188846D01*
X0213846Y0189827D01*
X0213846Y0191213D01*
X0212866Y0192193D01*
X0211346Y0192059D02*
X0209850Y0192059D01*
X0208197Y0192059D02*
X0193079Y0192059D01*
X0193079Y0190879D02*
X0207350Y0190879D01*
X0207477Y0189700D02*
X0197052Y0189700D01*
X0196921Y0189831D02*
X0195535Y0189831D01*
X0194555Y0188851D01*
X0194555Y0187464D01*
X0195535Y0186484D01*
X0196921Y0186484D01*
X0197902Y0187464D01*
X0197902Y0188851D01*
X0196921Y0189831D01*
X0195404Y0189700D02*
X0193079Y0189700D01*
X0193079Y0188520D02*
X0194555Y0188520D01*
X0194679Y0187341D02*
X0193079Y0187341D01*
X0193079Y0186161D02*
X0197968Y0186161D01*
X0197508Y0185701D02*
X0197508Y0184315D01*
X0198488Y0183335D01*
X0199874Y0183335D01*
X0200854Y0184315D01*
X0200854Y0185701D01*
X0199874Y0186681D01*
X0198488Y0186681D01*
X0197508Y0185701D01*
X0197508Y0184981D02*
X0193079Y0184981D01*
X0193079Y0183802D02*
X0198021Y0183802D01*
X0200341Y0183802D02*
X0244478Y0183802D01*
X0244161Y0184118D02*
X0245142Y0183138D01*
X0246528Y0183138D01*
X0247508Y0184118D01*
X0247508Y0185504D01*
X0246720Y0186291D01*
X0246720Y0187473D01*
X0245740Y0188453D01*
X0244354Y0188453D01*
X0243374Y0187473D01*
X0243374Y0186086D01*
X0244161Y0185299D01*
X0244161Y0184118D01*
X0244161Y0184981D02*
X0200854Y0184981D01*
X0200394Y0186161D02*
X0243374Y0186161D01*
X0243374Y0187341D02*
X0197778Y0187341D01*
X0197902Y0188520D02*
X0256071Y0188520D01*
X0256071Y0187341D02*
X0246720Y0187341D01*
X0246851Y0186161D02*
X0256071Y0186161D01*
X0256071Y0184981D02*
X0247508Y0184981D01*
X0247192Y0183802D02*
X0256071Y0183802D01*
X0256071Y0182622D02*
X0193079Y0182622D01*
X0193079Y0181443D02*
X0211308Y0181443D01*
X0211321Y0181456D02*
X0210214Y0180348D01*
X0209614Y0178901D01*
X0209614Y0177335D01*
X0210214Y0175888D01*
X0211321Y0174780D01*
X0212768Y0174181D01*
X0214334Y0174181D01*
X0215781Y0174780D01*
X0216889Y0175888D01*
X0217488Y0177335D01*
X0217488Y0178901D01*
X0216889Y0180348D01*
X0215781Y0181456D01*
X0214334Y0182055D01*
X0212768Y0182055D01*
X0211321Y0181456D01*
X0210178Y0180263D02*
X0196843Y0180263D01*
X0196528Y0180579D02*
X0195142Y0180579D01*
X0194161Y0179599D01*
X0194161Y0178212D01*
X0195142Y0177232D01*
X0196528Y0177232D01*
X0197508Y0178212D01*
X0197508Y0179599D01*
X0196528Y0180579D01*
X0194826Y0180263D02*
X0193079Y0180263D01*
X0193079Y0179083D02*
X0194161Y0179083D01*
X0194470Y0177904D02*
X0193079Y0177904D01*
X0193079Y0176724D02*
X0209867Y0176724D01*
X0209614Y0177904D02*
X0197199Y0177904D01*
X0197508Y0179083D02*
X0209690Y0179083D01*
X0210557Y0175545D02*
X0197508Y0175545D01*
X0197508Y0175662D02*
X0196528Y0176642D01*
X0195142Y0176642D01*
X0194161Y0175662D01*
X0194161Y0174275D01*
X0194453Y0173984D01*
X0194161Y0173693D01*
X0194161Y0172307D01*
X0195142Y0171327D01*
X0196528Y0171327D01*
X0197508Y0172307D01*
X0197508Y0173693D01*
X0197217Y0173984D01*
X0197508Y0174275D01*
X0197508Y0175662D01*
X0197508Y0174365D02*
X0212324Y0174365D01*
X0214778Y0174365D02*
X0221298Y0174365D01*
X0220770Y0174584D02*
X0222217Y0173984D01*
X0223783Y0173984D01*
X0225230Y0174584D01*
X0226338Y0175691D01*
X0226937Y0177138D01*
X0226937Y0178704D01*
X0226338Y0180151D01*
X0225230Y0181259D01*
X0223783Y0181858D01*
X0222217Y0181858D01*
X0220770Y0181259D01*
X0219662Y0180151D01*
X0219063Y0178704D01*
X0219063Y0177138D01*
X0219662Y0175691D01*
X0220770Y0174584D01*
X0219809Y0175545D02*
X0216545Y0175545D01*
X0217235Y0176724D02*
X0219234Y0176724D01*
X0219063Y0177904D02*
X0217488Y0177904D01*
X0217413Y0179083D02*
X0219220Y0179083D01*
X0219774Y0180263D02*
X0216924Y0180263D01*
X0215794Y0181443D02*
X0221213Y0181443D01*
X0224787Y0181443D02*
X0230599Y0181443D01*
X0230612Y0181456D02*
X0229505Y0180348D01*
X0228906Y0178901D01*
X0228906Y0177335D01*
X0229505Y0175888D01*
X0230612Y0174780D01*
X0232059Y0174181D01*
X0233626Y0174181D01*
X0235073Y0174780D01*
X0236180Y0175888D01*
X0236780Y0177335D01*
X0236780Y0178901D01*
X0236180Y0180348D01*
X0235073Y0181456D01*
X0233626Y0182055D01*
X0232059Y0182055D01*
X0230612Y0181456D01*
X0229470Y0180263D02*
X0226226Y0180263D01*
X0226780Y0179083D02*
X0228981Y0179083D01*
X0228906Y0177904D02*
X0226937Y0177904D01*
X0226766Y0176724D02*
X0229159Y0176724D01*
X0229848Y0175545D02*
X0226191Y0175545D01*
X0224702Y0174365D02*
X0231616Y0174365D01*
X0234069Y0174365D02*
X0245030Y0174365D01*
X0245338Y0174673D02*
X0244358Y0173693D01*
X0244358Y0172307D01*
X0245338Y0171327D01*
X0246725Y0171327D01*
X0247705Y0172307D01*
X0247705Y0173693D01*
X0246725Y0174673D01*
X0245338Y0174673D01*
X0247033Y0174365D02*
X0252314Y0174365D01*
X0252622Y0174673D02*
X0251642Y0173693D01*
X0251642Y0172307D01*
X0252622Y0171327D01*
X0254008Y0171327D01*
X0254988Y0172307D01*
X0254988Y0173693D01*
X0254008Y0174673D01*
X0252622Y0174673D01*
X0254316Y0174365D02*
X0256071Y0174365D01*
X0256071Y0175545D02*
X0235837Y0175545D01*
X0236526Y0176724D02*
X0256071Y0176724D01*
X0256071Y0177904D02*
X0253892Y0177904D01*
X0254201Y0178212D02*
X0253221Y0177232D01*
X0251834Y0177232D01*
X0250854Y0178212D01*
X0250854Y0179599D01*
X0251834Y0180579D01*
X0253221Y0180579D01*
X0254201Y0179599D01*
X0254201Y0178212D01*
X0254201Y0179083D02*
X0256071Y0179083D01*
X0256071Y0180263D02*
X0253536Y0180263D01*
X0251519Y0180263D02*
X0236215Y0180263D01*
X0236704Y0179083D02*
X0250854Y0179083D01*
X0251163Y0177904D02*
X0236780Y0177904D01*
X0235086Y0181443D02*
X0256071Y0181443D01*
X0256071Y0189700D02*
X0241602Y0189700D01*
X0241602Y0189630D02*
X0240622Y0188650D01*
X0239236Y0188650D01*
X0238256Y0189630D01*
X0238256Y0191016D01*
X0239236Y0191996D01*
X0240622Y0191996D01*
X0241602Y0191016D01*
X0241602Y0189630D01*
X0241602Y0190879D02*
X0256071Y0190879D01*
X0256071Y0192059D02*
X0238453Y0192059D01*
X0238453Y0193239D02*
X0256071Y0193239D01*
X0238256Y0190879D02*
X0236681Y0190879D01*
X0235964Y0189700D02*
X0238256Y0189700D01*
X0234122Y0189630D02*
X0234122Y0189630D01*
X0233335Y0191803D02*
X0233335Y0191803D01*
X0230776Y0190879D02*
X0229594Y0190879D01*
X0229594Y0191016D02*
X0229594Y0189630D01*
X0228614Y0188650D01*
X0227228Y0188650D01*
X0226248Y0189630D01*
X0226248Y0191016D01*
X0227228Y0191996D01*
X0228614Y0191996D01*
X0229594Y0191016D01*
X0229594Y0189700D02*
X0230776Y0189700D01*
X0226248Y0189700D02*
X0225924Y0189700D01*
X0226051Y0190879D02*
X0226248Y0190879D01*
X0222705Y0190879D02*
X0213846Y0190879D01*
X0213720Y0189700D02*
X0222831Y0189700D01*
X0216799Y0195598D02*
X0193079Y0195598D01*
X0193079Y0196778D02*
X0217246Y0196778D01*
X0210627Y0189700D02*
X0210570Y0189700D01*
X0212768Y0171228D02*
X0211321Y0170629D01*
X0210214Y0169521D01*
X0209614Y0168074D01*
X0209614Y0166508D01*
X0210214Y0165061D01*
X0211321Y0163954D01*
X0212768Y0163354D01*
X0214334Y0163354D01*
X0215781Y0163954D01*
X0216889Y0165061D01*
X0217488Y0166508D01*
X0217488Y0168074D01*
X0216889Y0169521D01*
X0215781Y0170629D01*
X0214334Y0171228D01*
X0212768Y0171228D01*
X0211797Y0170826D02*
X0193079Y0170826D01*
X0193079Y0169646D02*
X0210339Y0169646D01*
X0209777Y0168467D02*
X0196632Y0168467D01*
X0196331Y0168768D02*
X0194945Y0168768D01*
X0193965Y0167788D01*
X0193965Y0166401D01*
X0194945Y0165421D01*
X0196331Y0165421D01*
X0197311Y0166401D01*
X0197311Y0167788D01*
X0196331Y0168768D01*
X0194644Y0168467D02*
X0193079Y0168467D01*
X0193079Y0167287D02*
X0193965Y0167287D01*
X0194258Y0166108D02*
X0193079Y0166108D01*
X0193079Y0164928D02*
X0210347Y0164928D01*
X0209780Y0166108D02*
X0197017Y0166108D01*
X0197311Y0167287D02*
X0209614Y0167287D01*
X0211817Y0163748D02*
X0194358Y0163748D01*
X0195443Y0162569D02*
X0244476Y0162569D01*
X0244476Y0162464D02*
X0244476Y0163851D01*
X0245457Y0164831D01*
X0246843Y0164831D01*
X0247823Y0163851D01*
X0247823Y0162464D01*
X0247669Y0162311D01*
X0247902Y0162079D01*
X0247902Y0160693D01*
X0246921Y0159713D01*
X0245535Y0159713D01*
X0244555Y0160693D01*
X0244555Y0162079D01*
X0244709Y0162232D01*
X0244476Y0162464D01*
X0244555Y0161389D02*
X0196130Y0161389D01*
X0195844Y0160210D02*
X0211532Y0160210D01*
X0211912Y0160590D02*
X0210804Y0159482D01*
X0210205Y0158035D01*
X0210205Y0156469D01*
X0210804Y0155022D01*
X0211912Y0153914D01*
X0213359Y0153315D01*
X0214925Y0153315D01*
X0216372Y0153914D01*
X0217479Y0155022D01*
X0218079Y0156469D01*
X0218079Y0158035D01*
X0217479Y0159482D01*
X0216372Y0160590D01*
X0214925Y0161189D01*
X0213359Y0161189D01*
X0211912Y0160590D01*
X0210617Y0159030D02*
X0193079Y0159030D01*
X0193079Y0157850D02*
X0210205Y0157850D01*
X0210205Y0156671D02*
X0193374Y0156671D01*
X0193374Y0155491D02*
X0210610Y0155491D01*
X0211514Y0154311D02*
X0199370Y0154311D01*
X0199673Y0154008D02*
X0198693Y0154988D01*
X0197307Y0154988D01*
X0196327Y0154008D01*
X0196327Y0152626D01*
X0195142Y0152626D01*
X0194161Y0151646D01*
X0194161Y0150260D01*
X0195142Y0149280D01*
X0196528Y0149280D01*
X0197508Y0150260D01*
X0197508Y0151642D01*
X0198693Y0151642D01*
X0199673Y0152622D01*
X0199673Y0154008D01*
X0199673Y0153132D02*
X0223365Y0153132D01*
X0223398Y0153118D02*
X0224964Y0153118D01*
X0226411Y0153717D01*
X0227519Y0154825D01*
X0228118Y0156272D01*
X0228118Y0157838D01*
X0227519Y0159285D01*
X0226411Y0160393D01*
X0224964Y0160992D01*
X0223398Y0160992D01*
X0221951Y0160393D01*
X0220843Y0159285D01*
X0220244Y0157838D01*
X0220244Y0156272D01*
X0220843Y0154825D01*
X0221951Y0153717D01*
X0223398Y0153118D01*
X0224997Y0153132D02*
X0232338Y0153132D01*
X0232847Y0152921D02*
X0234413Y0152921D01*
X0235860Y0153521D01*
X0236968Y0154628D01*
X0237567Y0156075D01*
X0237567Y0157641D01*
X0236968Y0159088D01*
X0235860Y0160196D01*
X0234413Y0160795D01*
X0232847Y0160795D01*
X0231400Y0160196D01*
X0230292Y0159088D01*
X0229693Y0157641D01*
X0229693Y0156075D01*
X0230292Y0154628D01*
X0231400Y0153521D01*
X0232847Y0152921D01*
X0234921Y0153132D02*
X0256071Y0153132D01*
X0256071Y0154311D02*
X0255598Y0154311D01*
X0255598Y0154295D02*
X0255598Y0155681D01*
X0255419Y0155860D01*
X0255874Y0156315D01*
X0255874Y0157701D01*
X0255366Y0158209D01*
X0255874Y0158716D01*
X0255874Y0160103D01*
X0255589Y0160388D01*
X0255894Y0160693D01*
X0255894Y0162079D01*
X0254914Y0163059D01*
X0253614Y0163059D01*
X0253024Y0163650D01*
X0251638Y0163650D01*
X0250657Y0162669D01*
X0250657Y0161283D01*
X0251638Y0160303D01*
X0252728Y0160303D01*
X0252528Y0160103D01*
X0252528Y0158716D01*
X0253035Y0158209D01*
X0252528Y0157701D01*
X0252528Y0156567D01*
X0252040Y0157055D01*
X0250653Y0157055D01*
X0249673Y0156075D01*
X0249673Y0154689D01*
X0250653Y0153709D01*
X0252040Y0153709D01*
X0252439Y0154108D01*
X0253232Y0153315D01*
X0254618Y0153315D01*
X0255598Y0154295D01*
X0255598Y0155491D02*
X0256071Y0155491D01*
X0256071Y0156671D02*
X0255874Y0156671D01*
X0255725Y0157850D02*
X0256071Y0157850D01*
X0256071Y0159030D02*
X0255874Y0159030D01*
X0255767Y0160210D02*
X0256071Y0160210D01*
X0256071Y0161389D02*
X0255894Y0161389D01*
X0256071Y0162569D02*
X0255404Y0162569D01*
X0256071Y0163748D02*
X0247823Y0163748D01*
X0247823Y0162569D02*
X0250657Y0162569D01*
X0250657Y0161389D02*
X0247902Y0161389D01*
X0247418Y0160210D02*
X0252635Y0160210D01*
X0252528Y0159030D02*
X0236992Y0159030D01*
X0237480Y0157850D02*
X0252677Y0157850D01*
X0252528Y0156671D02*
X0252424Y0156671D01*
X0250269Y0156671D02*
X0237567Y0156671D01*
X0237325Y0155491D02*
X0249673Y0155491D01*
X0250051Y0154311D02*
X0236651Y0154311D01*
X0237079Y0147508D02*
X0235693Y0147508D01*
X0234713Y0146528D01*
X0234713Y0145142D01*
X0235693Y0144161D01*
X0237079Y0144161D01*
X0238059Y0145142D01*
X0238059Y0146528D01*
X0237079Y0147508D01*
X0237353Y0147234D02*
X0240537Y0147234D01*
X0240811Y0147508D02*
X0239831Y0146528D01*
X0239831Y0145142D01*
X0240811Y0144161D01*
X0242197Y0144161D01*
X0243177Y0145142D01*
X0243177Y0145539D01*
X0243772Y0145539D01*
X0244260Y0146027D01*
X0245142Y0145146D01*
X0246528Y0145146D01*
X0247508Y0146126D01*
X0247508Y0147512D01*
X0246528Y0148492D01*
X0245142Y0148492D01*
X0244654Y0148004D01*
X0243772Y0148886D01*
X0242386Y0148886D01*
X0241406Y0147906D01*
X0241406Y0147508D01*
X0240811Y0147508D01*
X0241913Y0148413D02*
X0193079Y0148413D01*
X0193079Y0149593D02*
X0194828Y0149593D01*
X0194161Y0150773D02*
X0193079Y0150773D01*
X0193079Y0151952D02*
X0194468Y0151952D01*
X0193079Y0153132D02*
X0196327Y0153132D01*
X0196630Y0154311D02*
X0193079Y0154311D01*
X0197508Y0150773D02*
X0256071Y0150773D01*
X0256071Y0151952D02*
X0199004Y0151952D01*
X0196841Y0149593D02*
X0256071Y0149593D01*
X0255051Y0148413D02*
X0254587Y0148413D01*
X0252649Y0148413D02*
X0252630Y0148413D01*
X0250496Y0148413D02*
X0246606Y0148413D01*
X0247508Y0147234D02*
X0249890Y0147234D01*
X0250257Y0146054D02*
X0247436Y0146054D01*
X0248067Y0144875D02*
X0242910Y0144875D01*
X0240098Y0144875D02*
X0237792Y0144875D01*
X0238059Y0146054D02*
X0239831Y0146054D01*
X0235419Y0147234D02*
X0231447Y0147234D01*
X0231173Y0147508D02*
X0229787Y0147508D01*
X0229398Y0147118D01*
X0229008Y0147508D01*
X0227622Y0147508D01*
X0226642Y0146528D01*
X0226642Y0145142D01*
X0227622Y0144161D01*
X0229008Y0144161D01*
X0229398Y0144551D01*
X0229787Y0144161D01*
X0231173Y0144161D01*
X0232154Y0145142D01*
X0232154Y0146528D01*
X0231173Y0147508D01*
X0229513Y0147234D02*
X0229282Y0147234D01*
X0227348Y0147234D02*
X0225345Y0147234D01*
X0225071Y0147508D02*
X0223685Y0147508D01*
X0222705Y0146528D01*
X0222705Y0145142D01*
X0223685Y0144161D01*
X0225071Y0144161D01*
X0226051Y0145142D01*
X0226051Y0146528D01*
X0225071Y0147508D01*
X0223411Y0147234D02*
X0203692Y0147234D01*
X0203807Y0147118D02*
X0202827Y0148098D01*
X0201441Y0148098D01*
X0200461Y0147118D01*
X0200461Y0146130D01*
X0199866Y0146130D01*
X0198886Y0145150D01*
X0198886Y0143764D01*
X0199866Y0142783D01*
X0201252Y0142783D01*
X0202232Y0143764D01*
X0202232Y0144752D01*
X0202827Y0144752D01*
X0203807Y0145732D01*
X0203807Y0147118D01*
X0203807Y0146054D02*
X0222705Y0146054D01*
X0222972Y0144875D02*
X0202950Y0144875D01*
X0202164Y0143695D02*
X0247764Y0143695D01*
X0247764Y0142941D02*
X0248917Y0141787D01*
X0250548Y0141787D01*
X0251701Y0142941D01*
X0251701Y0144571D01*
X0250548Y0145724D01*
X0248917Y0145724D01*
X0247764Y0144571D01*
X0247764Y0142941D01*
X0248189Y0142515D02*
X0193079Y0142515D01*
X0193079Y0141336D02*
X0256071Y0141336D01*
X0256071Y0142515D02*
X0251276Y0142515D01*
X0251701Y0143695D02*
X0256071Y0143695D01*
X0256071Y0144875D02*
X0251398Y0144875D01*
X0245063Y0148413D02*
X0244244Y0148413D01*
X0234713Y0146054D02*
X0232154Y0146054D01*
X0231887Y0144875D02*
X0234980Y0144875D01*
X0226909Y0144875D02*
X0225784Y0144875D01*
X0226051Y0146054D02*
X0226642Y0146054D01*
X0227005Y0154311D02*
X0230609Y0154311D01*
X0229935Y0155491D02*
X0227795Y0155491D01*
X0228118Y0156671D02*
X0229693Y0156671D01*
X0229779Y0157850D02*
X0228113Y0157850D01*
X0227624Y0159030D02*
X0230268Y0159030D01*
X0231433Y0160210D02*
X0226594Y0160210D01*
X0225427Y0164544D02*
X0223980Y0163945D01*
X0222414Y0163945D01*
X0220967Y0164544D01*
X0219859Y0165652D01*
X0219260Y0167099D01*
X0219260Y0168665D01*
X0219859Y0170112D01*
X0220967Y0171220D01*
X0222414Y0171819D01*
X0223980Y0171819D01*
X0225427Y0171220D01*
X0226534Y0170112D01*
X0227134Y0168665D01*
X0227134Y0167099D01*
X0226534Y0165652D01*
X0225427Y0164544D01*
X0225811Y0164928D02*
X0230622Y0164928D01*
X0231006Y0164544D02*
X0232453Y0163945D01*
X0234019Y0163945D01*
X0235466Y0164544D01*
X0236574Y0165652D01*
X0237173Y0167099D01*
X0237173Y0168665D01*
X0236574Y0170112D01*
X0235466Y0171220D01*
X0234019Y0171819D01*
X0232453Y0171819D01*
X0231006Y0171220D01*
X0229899Y0170112D01*
X0229299Y0168665D01*
X0229299Y0167099D01*
X0229899Y0165652D01*
X0231006Y0164544D01*
X0229710Y0166108D02*
X0226723Y0166108D01*
X0227134Y0167287D02*
X0229299Y0167287D01*
X0229299Y0168467D02*
X0227134Y0168467D01*
X0226727Y0169646D02*
X0229706Y0169646D01*
X0230613Y0170826D02*
X0225820Y0170826D01*
X0220573Y0170826D02*
X0215305Y0170826D01*
X0216764Y0169646D02*
X0219666Y0169646D01*
X0219260Y0168467D02*
X0217326Y0168467D01*
X0217488Y0167287D02*
X0219260Y0167287D01*
X0219670Y0166108D02*
X0217322Y0166108D01*
X0216756Y0164928D02*
X0220583Y0164928D01*
X0221768Y0160210D02*
X0216752Y0160210D01*
X0217667Y0159030D02*
X0220738Y0159030D01*
X0220249Y0157850D02*
X0218079Y0157850D01*
X0218079Y0156671D02*
X0220244Y0156671D01*
X0220568Y0155491D02*
X0217674Y0155491D01*
X0216769Y0154311D02*
X0221357Y0154311D01*
X0215286Y0163748D02*
X0244476Y0163748D01*
X0245038Y0160210D02*
X0235827Y0160210D01*
X0235850Y0164928D02*
X0256071Y0164928D01*
X0256071Y0166108D02*
X0236763Y0166108D01*
X0237173Y0167287D02*
X0256071Y0167287D01*
X0256071Y0168467D02*
X0247014Y0168467D01*
X0247114Y0168567D02*
X0246134Y0167587D01*
X0244748Y0167587D01*
X0243768Y0168567D01*
X0243768Y0169953D01*
X0244748Y0170933D01*
X0246134Y0170933D01*
X0247114Y0169953D01*
X0247114Y0168567D01*
X0247114Y0169646D02*
X0256071Y0169646D01*
X0256071Y0170826D02*
X0246241Y0170826D01*
X0244641Y0170826D02*
X0235860Y0170826D01*
X0236767Y0169646D02*
X0243768Y0169646D01*
X0243868Y0168467D02*
X0237173Y0168467D01*
X0244660Y0172006D02*
X0197207Y0172006D01*
X0197508Y0173185D02*
X0244358Y0173185D01*
X0247403Y0172006D02*
X0251943Y0172006D01*
X0251642Y0173185D02*
X0247705Y0173185D01*
X0254687Y0172006D02*
X0256071Y0172006D01*
X0256071Y0173185D02*
X0254988Y0173185D01*
X0256071Y0140156D02*
X0193079Y0140156D01*
X0193079Y0138976D02*
X0256071Y0138976D01*
X0256071Y0137797D02*
X0193079Y0137797D01*
X0193513Y0136617D02*
X0256071Y0136617D01*
X0256071Y0135438D02*
X0194614Y0135438D01*
X0194614Y0134258D02*
X0256071Y0134258D01*
X0256071Y0133078D02*
X0193807Y0133078D01*
X0193079Y0131899D02*
X0256071Y0131899D01*
X0256071Y0130719D02*
X0194687Y0130719D01*
X0195205Y0129540D02*
X0256071Y0129540D01*
X0256071Y0128360D02*
X0194994Y0128360D01*
X0193079Y0127180D02*
X0256071Y0127180D01*
X0256071Y0126001D02*
X0193079Y0126001D01*
X0194482Y0124821D02*
X0256071Y0124821D01*
X0256071Y0123642D02*
X0194811Y0123642D01*
X0194411Y0122462D02*
X0256071Y0122462D01*
X0256071Y0121282D02*
X0193887Y0121282D01*
X0194614Y0120103D02*
X0256071Y0120103D01*
X0256071Y0118923D02*
X0194612Y0118923D01*
X0193079Y0117743D02*
X0256071Y0117743D01*
X0256071Y0116564D02*
X0193079Y0116564D01*
X0193079Y0115384D02*
X0256071Y0115384D01*
X0256071Y0114205D02*
X0193079Y0114205D01*
X0193079Y0113025D02*
X0256071Y0113025D01*
X0256071Y0111845D02*
X0193079Y0111845D01*
X0193079Y0110666D02*
X0256071Y0110666D01*
X0256071Y0109486D02*
X0193079Y0109486D01*
X0193079Y0108307D02*
X0256071Y0108307D01*
X0256071Y0107127D02*
X0193079Y0107127D01*
X0193079Y0105947D02*
X0256071Y0105947D01*
X0256071Y0104768D02*
X0193079Y0104768D01*
X0193079Y0103588D02*
X0256071Y0103588D01*
X0256071Y0102408D02*
X0193079Y0102408D01*
X0193079Y0101229D02*
X0256071Y0101229D01*
X0256071Y0100049D02*
X0194057Y0100049D01*
X0194614Y0098870D02*
X0256071Y0098870D01*
X0256071Y0097690D02*
X0194442Y0097690D01*
X0193079Y0096510D02*
X0256071Y0096510D01*
X0256071Y0095331D02*
X0193079Y0095331D01*
X0193079Y0094151D02*
X0200250Y0094151D01*
X0201040Y0094478D02*
X0199382Y0093792D01*
X0198114Y0092523D01*
X0197427Y0090866D01*
X0197427Y0089071D01*
X0198114Y0087414D01*
X0199382Y0086145D01*
X0201040Y0085459D01*
X0202834Y0085459D01*
X0204492Y0086145D01*
X0205760Y0087414D01*
X0206447Y0089071D01*
X0206447Y0090866D01*
X0205760Y0092523D01*
X0204492Y0093792D01*
X0202834Y0094478D01*
X0201040Y0094478D01*
X0203624Y0094151D02*
X0220250Y0094151D01*
X0221040Y0094478D02*
X0219382Y0093792D01*
X0218114Y0092523D01*
X0217427Y0090866D01*
X0217427Y0089071D01*
X0218114Y0087414D01*
X0219382Y0086145D01*
X0221040Y0085459D01*
X0222834Y0085459D01*
X0224492Y0086145D01*
X0225760Y0087414D01*
X0226447Y0089071D01*
X0226447Y0090866D01*
X0225760Y0092523D01*
X0224492Y0093792D01*
X0222834Y0094478D01*
X0221040Y0094478D01*
X0223624Y0094151D02*
X0256071Y0094151D01*
X0256071Y0092972D02*
X0225312Y0092972D01*
X0226063Y0091792D02*
X0245422Y0091792D01*
X0245721Y0092091D02*
X0244452Y0090823D01*
X0243766Y0089165D01*
X0243766Y0087371D01*
X0244452Y0085713D01*
X0245721Y0084445D01*
X0247379Y0083758D01*
X0249173Y0083758D01*
X0250830Y0084445D01*
X0252099Y0085713D01*
X0252785Y0087371D01*
X0252785Y0089165D01*
X0252099Y0090823D01*
X0250830Y0092091D01*
X0249173Y0092778D01*
X0247379Y0092778D01*
X0245721Y0092091D01*
X0244365Y0090612D02*
X0226447Y0090612D01*
X0226447Y0089433D02*
X0243877Y0089433D01*
X0243766Y0088253D02*
X0226108Y0088253D01*
X0225420Y0087073D02*
X0243889Y0087073D01*
X0244378Y0085894D02*
X0223885Y0085894D01*
X0219989Y0085894D02*
X0203885Y0085894D01*
X0205420Y0087073D02*
X0218454Y0087073D01*
X0217766Y0088253D02*
X0206108Y0088253D01*
X0206447Y0089433D02*
X0217427Y0089433D01*
X0217427Y0090612D02*
X0206447Y0090612D01*
X0206063Y0091792D02*
X0217811Y0091792D01*
X0218562Y0092972D02*
X0205312Y0092972D01*
X0198562Y0092972D02*
X0193079Y0092972D01*
X0193079Y0091792D02*
X0197811Y0091792D01*
X0197427Y0090612D02*
X0193079Y0090612D01*
X0193079Y0089433D02*
X0197427Y0089433D01*
X0197766Y0088253D02*
X0193079Y0088253D01*
X0193079Y0087073D02*
X0198454Y0087073D01*
X0199989Y0085894D02*
X0193079Y0085894D01*
X0193079Y0084714D02*
X0245452Y0084714D01*
X0251100Y0084714D02*
X0256071Y0084714D01*
X0256071Y0083535D02*
X0193079Y0083535D01*
X0193079Y0082355D02*
X0256071Y0082355D01*
X0256071Y0081175D02*
X0193079Y0081175D01*
X0193079Y0079996D02*
X0256071Y0079996D01*
X0256071Y0078816D02*
X0193079Y0078816D01*
X0193079Y0077637D02*
X0256071Y0077637D01*
X0256071Y0076457D02*
X0193079Y0076457D01*
X0193079Y0075277D02*
X0256071Y0075277D01*
X0256071Y0074098D02*
X0223753Y0074098D01*
X0224492Y0073792D02*
X0222834Y0074478D01*
X0221040Y0074478D01*
X0219382Y0073792D01*
X0218114Y0072523D01*
X0217427Y0070866D01*
X0217427Y0069071D01*
X0218114Y0067414D01*
X0219382Y0066145D01*
X0221040Y0065459D01*
X0222834Y0065459D01*
X0224492Y0066145D01*
X0225760Y0067414D01*
X0226447Y0069071D01*
X0226447Y0070866D01*
X0225760Y0072523D01*
X0224492Y0073792D01*
X0225365Y0072918D02*
X0256071Y0072918D01*
X0256071Y0071739D02*
X0251183Y0071739D01*
X0250830Y0072091D02*
X0249173Y0072778D01*
X0247379Y0072778D01*
X0245721Y0072091D01*
X0244452Y0070823D01*
X0243766Y0069165D01*
X0243766Y0067371D01*
X0244452Y0065713D01*
X0245721Y0064445D01*
X0247379Y0063758D01*
X0249173Y0063758D01*
X0250830Y0064445D01*
X0252099Y0065713D01*
X0252785Y0067371D01*
X0252785Y0069165D01*
X0252099Y0070823D01*
X0250830Y0072091D01*
X0252208Y0070559D02*
X0256071Y0070559D01*
X0256071Y0069379D02*
X0252697Y0069379D01*
X0252785Y0068200D02*
X0256071Y0068200D01*
X0256071Y0067020D02*
X0252640Y0067020D01*
X0252151Y0065840D02*
X0256071Y0065840D01*
X0256071Y0064661D02*
X0251046Y0064661D01*
X0245505Y0064661D02*
X0193079Y0064661D01*
X0193079Y0065840D02*
X0200118Y0065840D01*
X0199382Y0066145D02*
X0201040Y0065459D01*
X0202834Y0065459D01*
X0204492Y0066145D01*
X0205760Y0067414D01*
X0206447Y0069071D01*
X0206447Y0070866D01*
X0205760Y0072523D01*
X0204492Y0073792D01*
X0202834Y0074478D01*
X0201040Y0074478D01*
X0199382Y0073792D01*
X0198114Y0072523D01*
X0197427Y0070866D01*
X0197427Y0069071D01*
X0198114Y0067414D01*
X0199382Y0066145D01*
X0198508Y0067020D02*
X0193079Y0067020D01*
X0193079Y0068200D02*
X0197788Y0068200D01*
X0197427Y0069379D02*
X0193079Y0069379D01*
X0193079Y0070559D02*
X0197427Y0070559D01*
X0197789Y0071739D02*
X0193079Y0071739D01*
X0193079Y0072918D02*
X0198509Y0072918D01*
X0200121Y0074098D02*
X0193079Y0074098D01*
X0203753Y0074098D02*
X0220121Y0074098D01*
X0218509Y0072918D02*
X0205365Y0072918D01*
X0206085Y0071739D02*
X0217789Y0071739D01*
X0217427Y0070559D02*
X0206447Y0070559D01*
X0206447Y0069379D02*
X0217427Y0069379D01*
X0217788Y0068200D02*
X0206086Y0068200D01*
X0205366Y0067020D02*
X0218508Y0067020D01*
X0220118Y0065840D02*
X0203756Y0065840D01*
X0197769Y0057583D02*
X0256071Y0057583D01*
X0256071Y0058763D02*
X0193079Y0058763D01*
X0193079Y0059942D02*
X0256071Y0059942D01*
X0256071Y0061122D02*
X0193079Y0061122D01*
X0193079Y0062302D02*
X0256071Y0062302D01*
X0256071Y0063481D02*
X0193079Y0063481D01*
X0193079Y0057583D02*
X0195711Y0057583D01*
X0193828Y0056404D02*
X0193079Y0056404D01*
X0193079Y0055224D02*
X0193090Y0055224D01*
X0193079Y0051685D02*
X0193333Y0051685D01*
X0193079Y0050505D02*
X0194415Y0050505D01*
X0193079Y0049326D02*
X0232449Y0049326D01*
X0232449Y0050505D02*
X0199065Y0050505D01*
X0200147Y0051685D02*
X0232449Y0051685D01*
X0232449Y0052865D02*
X0200636Y0052865D01*
X0200677Y0054044D02*
X0232449Y0054044D01*
X0232449Y0055224D02*
X0200390Y0055224D01*
X0199652Y0056404D02*
X0232449Y0056404D01*
X0232449Y0048146D02*
X0193079Y0048146D01*
X0193079Y0046967D02*
X0232449Y0046967D01*
X0232449Y0045787D02*
X0193079Y0045787D01*
X0193079Y0044607D02*
X0232449Y0044607D01*
X0232449Y0043428D02*
X0193079Y0043428D01*
X0193079Y0042248D02*
X0232449Y0042248D01*
X0232449Y0041069D02*
X0193079Y0041069D01*
X0193079Y0039889D02*
X0232449Y0039889D01*
X0232449Y0038709D02*
X0193079Y0038709D01*
X0193079Y0037530D02*
X0232449Y0037530D01*
X0232449Y0036350D02*
X0193079Y0036350D01*
X0193079Y0035170D02*
X0232449Y0035170D01*
X0232449Y0033991D02*
X0193079Y0033991D01*
X0193079Y0032811D02*
X0232449Y0032811D01*
X0232449Y0031632D02*
X0193079Y0031632D01*
X0193079Y0030452D02*
X0232449Y0030452D01*
X0232449Y0029272D02*
X0193079Y0029272D01*
X0193079Y0028093D02*
X0232449Y0028093D01*
X0232449Y0026913D02*
X0193079Y0026913D01*
X0193079Y0025734D02*
X0232449Y0025734D01*
X0232449Y0024554D02*
X0193079Y0024554D01*
X0193079Y0023374D02*
X0232449Y0023374D01*
X0232449Y0022195D02*
X0193079Y0022195D01*
X0193079Y0021015D02*
X0232449Y0021015D01*
X0223756Y0065840D02*
X0244400Y0065840D01*
X0243911Y0067020D02*
X0225366Y0067020D01*
X0226086Y0068200D02*
X0243766Y0068200D01*
X0243854Y0069379D02*
X0226447Y0069379D01*
X0226447Y0070559D02*
X0244343Y0070559D01*
X0245368Y0071739D02*
X0226085Y0071739D01*
X0251130Y0091792D02*
X0256071Y0091792D01*
X0256071Y0090612D02*
X0252186Y0090612D01*
X0252675Y0089433D02*
X0256071Y0089433D01*
X0256071Y0088253D02*
X0252785Y0088253D01*
X0252662Y0087073D02*
X0256071Y0087073D01*
X0256071Y0085894D02*
X0252174Y0085894D01*
X0198954Y0143695D02*
X0193079Y0143695D01*
X0193107Y0144875D02*
X0198886Y0144875D01*
X0199790Y0146054D02*
X0193866Y0146054D01*
X0193652Y0147234D02*
X0200576Y0147234D01*
X0194463Y0172006D02*
X0193079Y0172006D01*
X0193079Y0173185D02*
X0194161Y0173185D01*
X0194161Y0174365D02*
X0193079Y0174365D01*
X0193079Y0175545D02*
X0194161Y0175545D01*
D23*
X0186976Y0171031D02*
X0167094Y0171031D01*
X0138748Y0142685D01*
X0138748Y0064535D01*
X0109417Y0061386D02*
X0081465Y0061386D01*
X0078512Y0064339D01*
X0078512Y0071543D01*
M02*
