%
M48
M72
T01C0.00591
T02C0.00787
T03C0.01181
T04C0.01969
T05C0.02500
T06C0.03300
T07C0.03937
T08C0.04000
T09C0.04700
T10C0.07874
T11C0.12598
%
T01
X61780Y26543
X109417Y61386
X138748Y64535
X190717Y132252
X191110Y144260
X192193Y146327
X195835Y150953
X198000Y153315
X202134Y146425
X204102Y146425
X200559Y144457
X191701Y156071
X194457Y161189
X192685Y163157
X195638Y167094
X195835Y173000
X195835Y174969
X195835Y178906
X199181Y185008
X200165Y183039
X196228Y188157
X184713Y191799
X182539Y192685
X180138Y192685
X178118Y191996
X184614Y208630
X186583Y208827
X192488Y209614
X194457Y209614
X200953Y210008
X202134Y206268
X199575Y200756
X209024Y190520
X212173Y190520
X218472Y190126
X218472Y195638
X224378Y190520
X227921Y190323
X230283Y190520
X232449Y190323
X235008Y191110
X236780Y192685
X239929Y190323
X245047Y186780
X245835Y184811
X245835Y178906
X246031Y173000
X245441Y169260
X245638Y167094
X246150Y163157
X246228Y161386
X245638Y155362
X251346Y155382
X253925Y154988
X254201Y157008
X254201Y159409
X254220Y161386
X252331Y161976
X253315Y173000
X252528Y178906
X261976Y201543
X256858Y206071
X262567Y210992
X261976Y214732
X261976Y216504
X261189Y218236
X261780Y220047
X262016Y222213
X257055Y231858
X261976Y233827
X261976Y235795
X259614Y241307
X256661Y241504
X250953Y240126
X250953Y235795
X247213Y235795
X245047Y235795
X241110Y235795
X235008Y240717
X231661Y240913
X230677Y235992
X230874Y233236
X230677Y229969
X228118Y228000
X229496Y225953
X228709Y224063
X229890Y222272
X230480Y220244
X230087Y217685
X228118Y216110
X230874Y214732
X225559Y214142
X230087Y208433
X230362Y205480
X234929Y201248
X237163Y200756
X239565Y200756
X241898Y201740
X249181Y205087
X250953Y205087
X250953Y209811
X248984Y209811
X243079Y209811
X241110Y209811
X225756Y220244
X224575Y226150
X223984Y231661
X226346Y232252
X214339Y223787
X205087Y222213
X205087Y220047
X205283Y218079
X205283Y216110
X205283Y214142
X216307Y210992
X205283Y231858
X205244Y233866
X205283Y235795
X204969Y239654
X205441Y241504
X194457Y240126
X194654Y235795
X190717Y235992
X188748Y235992
X184614Y235795
X179496Y240717
X177173Y240559
X174181Y235795
X174181Y234024
X174181Y231937
X174181Y229969
X172213Y228453
X173000Y226346
X173197Y224063
X173394Y221996
X174181Y220047
X174181Y218079
X173787Y216110
X173591Y213945
X171622Y210402
X168669Y220047
X164929Y222213
X164142Y226346
X166504Y232252
X168276Y251937
X175953Y261976
X183433Y262567
X183433Y265323
X186189Y265323
X186189Y262567
X195244Y261976
X202921Y259417
X210992Y260205
X210992Y262961
X213945Y262961
X213945Y260205
X222803Y259417
X227528Y254496
X231858Y261780
X239732Y262370
X239732Y265323
X242882Y265323
X242882Y262370
X251740Y261976
X248197Y271622
X247606Y275756
X234811Y275756
X234811Y272213
X217488Y269654
X217882Y278315
X207055Y278315
X206858Y269654
X189929Y271622
X190323Y276543
X179299Y276740
X179102Y272016
X184614Y250559
X184614Y244063
X194457Y246228
X241110Y244063
X241110Y252134
X251150Y246425
X271622Y263945
X270047Y265717
X271425Y268276
X273787Y266307
X282252Y267094
X283827Y271819
X276543Y278709
X272606Y276937
X262567Y271622
X277921Y256858
X272213Y227921
X274575Y226937
X308079Y212921
X310402Y215126
X258157Y146819
X256020Y147016
X253618Y147016
X251563Y147114
X245835Y146819
X243079Y147213
X241504Y145835
X236386Y145835
X234220Y145835
X230480Y145835
X228315Y145835
X224378Y145835
X222409Y145835
X200756Y161189
X186780Y173787
X33236Y247016
T02
X58630Y101543
X68866Y101543
X68472Y52921
X61583Y23984
X130087Y59024
X284063Y275795
X286290Y278022
X288515Y280247
X290739Y282471
X292963Y284696
X295188Y286920
X298081Y288672
X294026Y292452
X291802Y290227
X289578Y288003
X287353Y285778
X285129Y283554
X282904Y281330
X280677Y279102
X244024Y300913
X243512Y297409
X243512Y294260
X243512Y291110
X243512Y287961
X243512Y284811
X243512Y281661
X243512Y278512
X238709Y278512
X238709Y281661
X238709Y284811
X238709Y287961
X238709Y291110
X238709Y294260
X238709Y297409
X238039Y300835
X214929Y300559
X214929Y297409
X214929Y294260
X214929Y291110
X214929Y287961
X214929Y284811
X214929Y281661
X210126Y281661
X210126Y284811
X210126Y287961
X210126Y291110
X210126Y294260
X210126Y297409
X204811Y297213
X210126Y303709
X210126Y306858
X210126Y310008
X210126Y313157
X210126Y316307
X210126Y319457
X210126Y322606
X210126Y325756
X210126Y328906
X210126Y332055
X210126Y335205
X210126Y338354
X210126Y341504
X210126Y344654
X210126Y347803
X210126Y350953
X210126Y354102
X210126Y357252
X209732Y360520
X215402Y360480
X214929Y357252
X214929Y354102
X214929Y350953
X214929Y347803
X214929Y344654
X214929Y341504
X214929Y338354
X214929Y335205
X214929Y332055
X214929Y328906
X214929Y325756
X214929Y322606
X214929Y319457
X214929Y316307
X214929Y313157
X214929Y310008
X214929Y306858
X214929Y303709
X188472Y299063
X187331Y295835
X187331Y292685
X187331Y289535
X187331Y286386
X187331Y283236
X187331Y280087
X182528Y280087
X182528Y283236
X182528Y286386
X182528Y289535
X182528Y292685
X182528Y295835
X181268Y299063
T03
X13512Y25646
X33197Y25646
X52882Y25646
X56622Y41591
X43039Y45331
X23354Y45331
X28669Y68756
X26701Y87260
X41661Y88835
X36346Y106551
X49732Y105764
X53669Y113835
X58394Y117969
X63276Y119622
X71780Y112260
X72567Y104386
X64102Y101433
X86740Y106354
X92252Y104386
X105638Y108126
X106819Y123480
X118827Y137850
X131819Y141000
X121780Y124071
X134181Y110488
X132606Y107732
X143630Y109504
X142252Y88638
X155047Y88835
X161346Y92969
X170008Y93756
X190480Y93953
X192646Y98677
X190480Y84110
X190480Y74268
X190480Y64425
X190480Y54583
X188669Y49346
X185402Y45370
X170992Y65016
X164693Y63047
X170598Y72496
X151307Y65016
X140480Y58126
X121976Y88638
X111937Y65016
X95992Y65213
X95008Y87654
X85165Y89031
X72567Y65016
X52882Y65016
X13512Y104386
X14496Y125055
X13512Y143756
X28669Y158323
X23354Y163441
X13315Y167575
X27291Y181551
X13512Y183126
X23354Y202811
X37921Y202811
X52882Y183126
X62724Y202811
X75913Y202614
X72567Y183126
X92252Y178992
X102094Y163441
X95598Y152614
X82409Y163441
X111740Y178402
X118433Y167378
X130244Y179386
X123748Y184307
X136937Y184898
X149142Y195528
X150717Y200055
X156031Y200646
X141465Y202811
X131228Y200055
X121780Y202811
X112134Y199268
X102094Y202811
X72567Y222496
X52882Y222496
X33197Y222496
X13512Y222496
X23354Y242181
X38906Y249268
X37528Y255370
X31031Y262063
X30835Y268953
X31228Y279189
X25126Y281354
X30638Y287654
X33787Y295134
X33197Y301236
X43236Y294740
X53472Y295134
X52882Y301236
X46583Y308717
X49246Y312567
X55638Y316000
X60470Y321412
X70992Y321118
X70205Y311472
X72567Y301236
X65874Y294543
X70008Y288244
X69614Y281945
X70402Y266591
X72567Y261866
X70008Y255764
X58984Y255567
X52882Y261866
X48945Y255567
X62724Y242181
X13512Y261866
X13512Y301236
X18433Y318559
X23518Y322721
X22035Y329414
X22258Y336666
X24947Y343404
X29779Y348815
X27903Y353232
X23354Y360291
X36150Y352614
X43351Y353287
X50453Y351808
X53079Y356354
X56622Y347990
X61112Y342291
X34964Y313007
X28795Y316826
X42066Y311528
X13512Y340606
X13512Y379976
X131622Y340606
X151307Y340606
X151110Y321118
X164890Y323087
X171189Y318559
X165087Y315409
X165087Y307732
X165087Y300843
X165087Y292575
X164693Y283717
X161150Y281551
X169417Y278992
X174142Y279583
X170992Y261866
X167843Y256748
X162331Y256354
X161937Y263441
X150323Y256157
X129850Y262063
X129654Y284307
X141465Y281551
X147764Y299858
X129654Y300055
X170992Y340606
X190677Y340606
X193039Y345921
X198945Y341394
X205638Y340803
X221189Y340213
X230047Y340606
X232409Y343559
X231819Y351039
X231819Y361079
X232016Y367378
X242449Y360291
X250717Y360094
X259575Y360291
X249732Y340606
X241858Y322102
X247173Y318559
X259181Y319150
X260953Y308913
X260559Y301039
X260953Y293953
X260559Y286276
X261150Y277220
X257213Y267378
X255638Y263244
X250913Y255961
X249535Y279386
X233787Y279386
X227685Y278992
X222567Y278992
X220795Y290213
X220795Y300843
X220992Y310094
X221976Y318165
X220205Y320921
X231622Y318953
X210362Y301236
X204654Y301039
X205047Y307535
X204654Y314425
X200520Y320921
X197173Y318362
X189299Y318559
X181031Y319150
X204457Y289425
X204260Y283717
X198945Y279386
X193433Y279583
X199732Y261866
X196189Y256157
X217646Y247496
X220539Y247311
X219417Y250252
X223354Y255764
X227094Y261276
X224142Y264031
X267843Y218953
X266661Y200449
X286937Y216984
X291661Y218756
X288709Y202417
X298945Y202811
X289102Y183126
X289299Y178008
X300717Y178795
X288020Y155272
X297764Y151630
X289102Y143756
X288512Y136276
X306819Y118756
X317449Y114622
X308787Y104386
X318827Y99465
X328472Y104386
X338906Y98677
X348157Y104386
X358394Y103402
X367843Y104386
X387528Y104386
X390874Y124268
X390480Y144543
X377685Y162063
X368039Y146906
X358197Y162063
X348157Y143756
X336150Y162260
X326110Y162850
X328472Y143756
X308787Y143756
X289102Y104386
X280874Y103480
X280638Y93165
X288315Y89425
X293039Y77024
X289102Y65016
X284339Y52693
X280913Y47614
X284299Y43835
X291189Y50094
X271976Y62457
X265283Y62457
X260953Y62260
X260362Y69346
X265717Y101433
X269417Y104386
X263827Y110528
X263472Y115055
X261858Y119780
X260717Y124071
X260913Y128087
X261150Y132339
X260559Y141197
X260953Y150252
X249732Y143756
X261150Y166000
X265480Y163835
X221780Y201039
X195992Y200843
X188315Y184701
X176898Y185488
X186976Y171031
X177291Y160094
X172567Y163244
X166661Y160882
X173157Y154780
X170992Y143756
X174535Y137063
X171583Y131945
X171937Y124858
X161150Y124071
X189496Y152417
X192646Y134701
X193236Y129386
X192843Y123677
X192646Y119740
X144811Y156945
X173945Y255764
X273551Y241984
X276740Y243079
X279850Y243362
X286150Y242378
X285559Y246512
X285362Y251630
X295598Y242378
X309378Y254189
X310756Y263441
X317252Y263047
X303669Y270331
X308984Y276433
X306031Y278402
X315283Y281945
X323551Y289819
X328472Y301236
X313512Y303205
X302685Y313638
X296189Y319150
X285953Y310488
X281425Y304189
X272370Y301433
X273354Y296709
X272961Y287063
X276307Y283323
X288906Y271906
X293433Y267575
X282409Y263244
X315874Y235291
X308787Y225449
X324732Y235094
X327882Y225252
X329063Y203205
X344024Y206748
X349339Y206354
X348551Y220528
X370205Y242969
X386740Y241984
X387528Y222496
X374339Y222693
X392252Y202417
X387528Y183126
X367843Y183126
X348157Y183126
X340087Y186472
X328472Y183126
X370795Y261866
X387528Y261866
X379654Y282929
X370205Y282535
X368827Y301827
X387528Y302220
X338315Y281551
X279260Y320921
X289102Y379976
X269417Y379976
X249732Y379976
X230244Y381945
X220402Y381945
X210953Y385094
X210362Y379976
X200323Y380961
X193433Y373087
X190677Y379976
X192646Y363638
X192252Y355370
X308787Y379976
X328472Y379976
X348453Y383618
X367843Y379976
X387528Y379976
X338315Y84701
X328472Y65016
X318630Y84701
X308787Y65016
X263709Y17772
X257016Y17969
X250717Y17969
X240480Y16984
X237134Y16984
X230047Y14622
X223157Y17575
X217646Y17772
X212331Y17575
X202055Y17142
X196386Y16748
X270598Y15213
X377685Y45331
X394024Y62063
X387528Y25646
X92252Y22496
X73157Y18756
X9575Y65016
X33197Y143756
T04
X150362Y228118
X160402Y227724
X182055Y228118
X181858Y232646
X186780Y232646
X187370Y227921
X192291Y227921
X192291Y232449
X196819Y232252
X197016Y227921
X196622Y222409
X192291Y222213
X192488Y217882
X196425Y217685
X186780Y217685
X182252Y217488
X181858Y222606
X186780Y222409
X238551Y222803
X243472Y222409
X243276Y217291
X238748Y217488
X238748Y227724
X243276Y227724
X243472Y232646
X238551Y232843
X248591Y232646
X248984Y227921
X253709Y228118
X253512Y232449
X253315Y221819
X253315Y217488
X249181Y217291
X248984Y222016
T05
X314614Y195874
X314614Y190874
X314614Y166504
X314614Y161504
T06
X309614Y159004
X309614Y169004
X319614Y169004
X319614Y159004
X319614Y188374
X309614Y188374
X309614Y198374
X319614Y198374
T07
X232843Y178118
X233236Y167882
X223197Y167882
X213551Y167291
X213551Y178118
X223000Y177921
X224181Y157055
X233630Y156858
X214142Y157252
X154693Y109417
X147606Y60992
X124850Y23000
X114850Y23000
X143866Y13551
X184811Y13945
X196701Y45441
X196740Y53748
X269496Y48630
X276031Y54220
X281268Y14339
X324181Y13551
X344772Y24181
X354772Y24181
X136976Y228217
X127429Y228217
X118177Y228118
X109220Y227921
X100854Y226740
X102724Y234713
X102724Y234713
X102724Y243571
X102823Y255579
X102528Y264437
X102528Y273197
X102626Y281760
X102626Y290323
X102626Y298984
X102626Y307449
X102626Y316307
X102626Y325165
X102528Y339831
X102528Y348197
X94260Y345835
X108433Y356071
X111976Y348984
X139535Y349378
X139142Y363551
X164850Y383236
X174850Y383236
X259614Y340224
X259811Y330874
X273689Y334811
X273787Y326248
X273492Y316799
X273197Y308138
X281760Y338157
X283236Y347016
X285205Y355677
X276740Y355874
X266898Y355480
X260008Y349772
X291898Y338354
X303807Y337961
X312272Y337961
X320933Y337961
X329496Y337961
X338059Y337862
X337173Y355579
X328610Y355677
X320047Y355677
X311386Y355677
X302921Y355677
X294063Y355677
X348787Y374969
X374181Y345717
X374181Y335717
X89142Y114339
X45441Y113945
X23000Y123906
X23000Y133906
X65913Y348197
X57921Y382843
X47921Y382843
X86386Y388748
T08
X347724Y297803
X347724Y287803
X347724Y277803
X347724Y267803
X347724Y257803
X347724Y247803
X347724Y237803
X357724Y237803
X357724Y247803
X357724Y257803
X357724Y267803
X357724Y277803
X357724Y287803
X357724Y297803
X88512Y81543
X88512Y71543
X78512Y71543
X68512Y71543
X58512Y71543
X48512Y71543
X38512Y71543
X38512Y81543
X48512Y81543
X58512Y81543
X68512Y81543
X78512Y81543
T09
X201937Y89969
X221937Y89969
X221937Y69969
X201937Y69969
X248276Y68268
X268276Y68268
X268276Y88268
X248276Y88268
X359102Y82134
X359102Y62134
X379102Y62134
X379102Y82134
X379102Y116937
X359102Y116937
X359102Y136937
X379102Y136937
X379693Y192370
X379693Y212370
X359693Y212370
X359693Y192370
X296937Y277283
X311079Y291425
X296937Y305567
X282795Y291425
X251110Y289378
X231110Y289378
X231110Y309378
X251110Y309378
X222528Y352370
X222528Y372370
X202528Y372370
X202528Y352370
X194929Y309378
X174929Y309378
X174929Y289378
X194929Y289378
X60047Y285402
X40047Y285402
X40047Y265402
X60047Y265402
X52882Y322331
X52882Y342331
X32882Y342331
X32882Y322331
T10
X140520Y263551
T11
X23787Y382055
X23787Y27724
X378118Y27724
X378118Y382055
M30
